<svg width="16" height="16" viewBox="0 0 16 16" fill="none" xmlns="http://www.w3.org/2000/svg">
<path d="M14.7233 3.15517L16 1.93384V1.6665H11.5773L8.42533 9.51184L4.83933 1.6665H0.202V1.93384L1.69333 3.72917C1.83867 3.86184 1.91467 4.05584 1.89533 4.25117V11.3065C1.94133 11.5605 1.85867 11.8218 1.68 12.0065L0 14.0425V14.3065H4.76333V14.0392L3.08333 12.0065C2.99341 11.9156 2.92574 11.8051 2.88561 11.6836C2.84548 11.5622 2.83397 11.4331 2.852 11.3065V5.20384L7.03333 14.3098H7.51933L11.1147 5.20384V12.4578C11.1147 12.6492 11.1147 12.6885 10.9893 12.8138L9.696 14.0652V14.3332H15.9707V14.0658L14.724 12.8452C14.67 12.8045 14.6282 12.7498 14.603 12.6871C14.5779 12.6243 14.5704 12.5559 14.5813 12.4892V3.51117C14.5702 3.44452 14.5775 3.37608 14.6025 3.31331C14.6276 3.25054 14.6694 3.19584 14.7233 3.15517Z" fill="white"/>
</svg>
