<svg width="400" height="222" viewBox="0 0 400 222" fill="none" xmlns="http://www.w3.org/2000/svg">
<g clip-path="url(#clip0_4999_2636)">
<rect width="400" height="222" fill="#F1F3F4"/>
<path d="M1228.59 -11.2089H1191.09V37.0421H1228.59V37.8331H1191.09V86.0831L1228.59 86.0841V86.8751L1191.09 86.8741V135.125H1228.59V135.916H1191.09V184.167H1228.59V184.958H1191.09V232.937H1190.29V184.958H1142.04V232.937H1141.25V184.958H1093V232.937H1092.21V184.958H1043.96V232.937H1043.17V184.958H994.918V232.937H994.127V184.958H945.879V232.937H945.088V184.958H896.836V232.937H896.045V184.958H847.793V232.937H847.002V184.958H798.754V232.937H797.963V184.958H749.711V232.937H748.92V184.958H700.668V232.937H699.877V184.958H651.629V232.937H650.838V184.958H602.586V232.937H601.795V184.958H553.543V232.937H552.752V184.958H504.504V232.937H503.713V184.958H455.461V232.937H454.67V184.958H406.418V232.937H405.627V184.958H357.375V232.937H356.584V184.958H308.336V232.937H307.545V184.958H259.293V232.937H258.502V184.958H210.25V232.937H209.459V184.958H161.211V232.937H160.42V184.958H112.168V232.937H111.377V184.958H63.125V232.937H62.334V184.958H14.0859V232.937H13.2949V184.958H-34.957V232.937H-35.748V184.958H-84V232.937H-84.791V184.958H-133.043V232.937H-133.834V184.958H-182.027V232.937H-182.818V184.958H-231.016V232.937H-231.807V184.958H-280.004V232.937H-280.795V184.958H-328.992V232.937H-329.783V184.958H-377.977V232.937H-378.768V184.958H-426.965V232.937H-427.756V184.958H-476.332V233.209H1228.59V234H-828V233.209H-771.049V184.958H-828V184.167H-771.049V135.916H-828V135.125H-771.049V86.8741H-828V86.0831H-771.049V37.8331H-828V37.0421H-771.049V-11.2089H-828V-11.9999H1228.59V-11.2089ZM-770.258 233.209H-722.061V184.958H-770.258V233.209ZM-721.27 233.209H-673.072V184.958H-721.27V233.209ZM-672.281 233.209H-624.088V184.958H-672.281V233.209ZM-623.297 233.209H-575.1V184.958H-623.297V233.209ZM-574.309 233.209H-526.111V184.958H-574.309V233.209ZM-525.32 233.209H-477.123V184.958H-525.32V233.209ZM-770.258 184.167H-722.061V135.916H-770.258V184.167ZM-721.27 184.167H-673.072V135.916H-721.27V184.167ZM-672.281 184.167H-624.088V135.916H-672.281V184.167ZM-623.297 184.167H-575.101V135.916H-623.297V184.167ZM-574.309 184.167H-526.111V135.916H-574.309V184.167ZM-525.32 184.167H-477.123V135.916H-525.32V184.167ZM-476.332 184.167H-427.756V135.916H-476.332V184.167ZM-426.965 184.167H-378.768V135.916H-426.965V184.167ZM-377.977 184.167H-329.783V135.916H-377.977V184.167ZM-328.993 184.167H-280.795V135.916H-328.993V184.167ZM-280.004 184.167H-231.807V135.916H-280.004V184.167ZM-231.016 184.167H-182.818V135.916H-231.016V184.167ZM-182.027 184.167H-133.834V135.916H-182.027V184.167ZM-133.043 184.167H-84.791V135.916H-133.043V184.167ZM-84 184.167H-35.748V135.916H-84V184.167ZM-34.957 184.167H13.2939V135.916H-34.957V184.167ZM14.0859 184.167H62.334V135.916H14.0859V184.167ZM63.125 184.167H111.377V135.916H63.125V184.167ZM112.168 184.167H160.419V135.916H112.168V184.167ZM161.211 184.167H209.459V135.916H161.211V184.167ZM210.25 184.167H258.502V135.916H210.25V184.167ZM259.293 184.167H307.545V135.916H259.293V184.167ZM308.336 184.167H356.584V135.916H308.336V184.167ZM357.375 184.167H405.627V135.916H357.375V184.167ZM406.418 184.167H454.67V135.916H406.418V184.167ZM455.461 184.167H503.713V135.916H455.461V184.167ZM504.504 184.167H552.752V135.916H504.504V184.167ZM553.543 184.167H601.795V135.916H553.543V184.167ZM602.586 184.167H650.837V135.916H602.586V184.167ZM651.629 184.167H699.877V135.916H651.629V184.167ZM700.668 184.167H748.92V135.916H700.668V184.167ZM749.711 184.167H797.962V135.916H749.711V184.167ZM798.754 184.167H847.002V135.916H798.754V184.167ZM847.793 184.167H896.045V135.916H847.793V184.167ZM896.836 184.167H945.087V135.916H896.836V184.167ZM945.879 184.167H994.127V135.916H945.879V184.167ZM994.918 184.167H1043.17V135.916H994.918V184.167ZM1043.96 184.167H1092.21V135.916H1043.96V184.167ZM1093 184.167H1141.25V135.916H1093V184.167ZM1142.04 184.167H1190.29V135.916H1142.04V184.167ZM-770.258 135.125H-722.061V86.8741H-770.258V135.125ZM-721.27 135.125H-673.072V86.8741H-721.27V135.125ZM-672.281 135.125H-624.088V86.8741H-672.281V135.125ZM-623.297 135.125H-575.101V86.8741H-623.297V135.125ZM-574.309 135.125H-526.111V86.8741H-574.309V135.125ZM-525.32 135.125H-477.123V86.8741H-525.32V135.125ZM-476.332 135.125H-427.756V86.8741H-476.332V135.125ZM-426.965 135.125H-378.768V86.8741H-426.965V135.125ZM-377.977 135.125H-329.783V86.8741H-377.977V135.125ZM-328.993 135.125H-280.795V86.8741H-328.993V135.125ZM-280.004 135.125H-231.807V86.8741H-280.004V135.125ZM-231.016 135.125H-182.818V86.8741H-231.016V135.125ZM-182.027 135.125H-133.834V86.8741H-182.027V135.125ZM-133.043 135.125H-84.791V86.8741H-133.043V135.125ZM-84 135.125H-35.748V86.8741H-84V135.125ZM-34.957 135.125H13.2939V86.8741H-34.957V135.125ZM14.0859 135.125H62.334V86.8741H14.0859V135.125ZM63.125 135.125H111.377V86.8741H63.125V135.125ZM112.168 135.125H160.419V86.8741H112.168V135.125ZM161.211 135.125H209.459V86.8741H161.211V135.125ZM210.25 135.125H258.502V86.8741H210.25V135.125ZM259.293 135.125H307.545V86.8741H259.293V135.125ZM308.336 135.125H356.584V86.8741H308.336V135.125ZM357.375 135.125H405.627V86.8741H357.375V135.125ZM406.418 135.125H454.67V86.8741H406.418V135.125ZM455.461 135.125H503.713V86.8741H455.461V135.125ZM504.504 135.125H552.752V86.8741H504.504V135.125ZM553.543 135.125H601.795V86.8741H553.543V135.125ZM602.586 135.125H650.837V86.8741H602.586V135.125ZM651.629 135.125H699.877V86.8741H651.629V135.125ZM700.668 135.125H748.92V86.8741H700.668V135.125ZM749.711 135.125H797.962V86.8741H749.711V135.125ZM798.754 135.125H847.002V86.8741H798.754V135.125ZM847.793 135.125H896.045V86.8741H847.793V135.125ZM896.836 135.125H945.087V86.8741H896.836V135.125ZM945.879 135.125H994.127V86.8741H945.879V135.125ZM994.918 135.125H1043.17V86.8741H994.918V135.125ZM1043.96 135.125H1092.21V86.8741H1043.96V135.125ZM1093 135.125H1141.25V86.8741H1093V135.125ZM1142.04 135.125H1190.29V86.8741H1142.04V135.125ZM-770.258 86.0831H-722.061V37.8331H-770.258V86.0831ZM-721.27 86.0831H-673.072V37.8331H-721.27V86.0831ZM-672.281 86.0831H-624.088V37.8331H-672.281V86.0831ZM-623.297 86.0831H-575.101L-575.1 37.8331H-623.297V86.0831ZM-574.309 86.0831H-526.111V37.8331H-574.309V86.0831ZM-525.32 86.0831H-477.123V37.8331H-525.32V86.0831ZM-476.332 86.0831H-427.756V37.8331H-476.332V86.0831ZM-426.965 86.0831H-378.768V37.8331H-426.965V86.0831ZM-377.977 86.0831H-329.783V37.8331H-377.977V86.0831ZM-328.993 86.0831H-280.795V37.8331H-328.992L-328.993 86.0831ZM-280.004 86.0831H-231.807V37.8331H-280.004V86.0831ZM-231.016 86.0831H-182.818V37.8331H-231.016V86.0831ZM-182.027 86.0831H-133.834V37.8331H-182.027V86.0831ZM-133.043 86.0831H-84.791V37.8331H-133.043V86.0831ZM-84 86.0831H-35.748V37.8331H-84V86.0831ZM-34.957 86.0831H13.2939L13.2949 37.8331H-34.957V86.0831ZM14.0859 86.0831H62.334V37.8331H14.0859V86.0831ZM63.125 86.0831H111.377V37.8331H63.125V86.0831ZM112.168 86.0831H160.419L160.42 37.8331H112.168V86.0831ZM161.211 86.0831H209.459V37.8331H161.211V86.0831ZM210.25 86.0831H258.502V37.8331H210.25V86.0831ZM259.293 86.0831H307.545V37.8331H259.293V86.0831ZM308.336 86.0831H356.584V37.8331H308.336V86.0831ZM357.375 86.0831H405.627V37.8331H357.375V86.0831ZM406.418 86.0831H454.67V37.8331H406.418V86.0831ZM455.461 86.0831H503.713V37.8331H455.461V86.0831ZM504.504 86.0831H552.752V37.8331H504.504V86.0831ZM553.543 86.0831H601.795V37.8331H553.543V86.0831ZM602.586 86.0831H650.837L650.838 37.8331H602.586V86.0831ZM651.629 86.0831H699.877V37.8331H651.629V86.0831ZM700.668 86.0831H748.92V37.8331H700.668V86.0831ZM749.711 86.0831H797.962L797.963 37.8331H749.711V86.0831ZM798.754 86.0831H847.002V37.8331H798.754V86.0831ZM847.793 86.0831H896.045V37.8331H847.793V86.0831ZM896.836 86.0831H945.087L945.088 37.8331H896.836V86.0831ZM945.879 86.0831H994.127V37.8331H945.879V86.0831ZM994.918 86.0831H1043.17V37.8331H994.918V86.0831ZM1043.96 86.0831H1092.21L1092.21 37.8331H1043.96V86.0831ZM1093 86.0831H1141.25V37.8331H1093V86.0831ZM1142.04 86.0831H1190.29V37.8331H1142.04V86.0831ZM-770.258 37.0421H-722.061V-11.2089H-770.258V37.0421ZM-721.27 37.0421H-673.072V-11.2089H-721.27V37.0421ZM-672.281 37.0421H-624.088V-11.2089H-672.281V37.0421ZM-623.297 37.0421H-575.1V-11.2089H-623.297V37.0421ZM-574.309 37.0421H-526.111V-11.2089H-574.309V37.0421ZM-525.32 37.0421H-477.123V-11.2089H-525.32V37.0421ZM-476.332 37.0421H-427.756V-11.2089H-476.332V37.0421ZM-426.965 37.0421H-378.768V-11.2089H-426.965V37.0421ZM-377.977 37.0421H-329.783V-11.2089H-377.977V37.0421ZM-328.992 37.0421H-280.795V-11.2089H-328.992V37.0421ZM-280.004 37.0421H-231.807V-11.2089H-280.004V37.0421ZM-231.016 37.0421H-182.818V-11.2089H-231.016V37.0421ZM-182.027 37.0421H-133.834V-11.2089H-182.027V37.0421ZM-133.043 37.0421H-84.791V-11.2089H-133.043V37.0421ZM-84 37.0421H-35.748V-11.2089H-84V37.0421ZM-34.957 37.0421H13.2949V-11.2089H-34.957V37.0421ZM14.0859 37.0421H62.334V-11.2089H14.0859V37.0421ZM63.125 37.0421H111.377V-11.2089H63.125V37.0421ZM112.168 37.0421H160.42V-11.2089H112.168V37.0421ZM161.211 37.0421H209.459V-11.2089H161.211V37.0421ZM210.25 37.0421H258.502V-11.2089H210.25V37.0421ZM259.293 37.0421H307.545V-11.2089H259.293V37.0421ZM308.336 37.0421H356.584V-11.2089H308.336V37.0421ZM357.375 37.0421H405.627V-11.2089H357.375V37.0421ZM406.418 37.0421H454.67V-11.2089H406.418V37.0421ZM455.461 37.0421H503.713V-11.2089H455.461V37.0421ZM504.504 37.0421H552.752V-11.2089H504.504V37.0421ZM553.543 37.0421H601.795V-11.2089H553.543V37.0421ZM602.586 37.0421H650.838V-11.2089H602.586V37.0421ZM651.629 37.0421H699.877V-11.2089H651.629V37.0421ZM700.668 37.0421H748.92V-11.2089H700.668V37.0421ZM749.711 37.0421H797.963V-11.2089H749.711V37.0421ZM798.754 37.0421H847.002V-11.2089H798.754V37.0421ZM847.793 37.0421H896.045V-11.2089H847.793V37.0421ZM896.836 37.0421H945.088V-11.2089H896.836V37.0421ZM945.879 37.0421H994.127V-11.2089H945.879V37.0421ZM994.918 37.0421H1043.17V-11.2089H994.918V37.0421ZM1043.96 37.0421H1092.21V-11.2089H1043.96V37.0421ZM1093 37.0421H1141.25V-11.2089H1093V37.0421ZM1142.04 37.0421H1190.29V-11.2089H1142.04V37.0421Z" fill="url(#paint0_radial_4999_2636)" fill-opacity="0.5"/>
<path d="M66.4108 112.141L62.5069 103.984H62.3321V131.369H54V90.6992H63.6722L74.8011 109.927L78.705 118.084H78.8798V90.6992H87.2119V131.369H77.5397L66.4108 112.141Z" fill="url(#paint1_linear_4999_2636)"/>
<path d="M96.1636 131.369V90.6992H123.84V98.5652H105.02V106.897H121.16V114.705H105.02V123.503H123.84V131.369H96.1636Z" fill="url(#paint2_linear_4999_2636)"/>
<path d="M147.871 132.068C145.19 132.068 142.743 131.622 140.529 130.728C138.315 129.835 136.431 128.514 134.877 126.766C133.323 124.979 132.119 122.785 131.265 120.182C130.41 117.541 129.983 114.491 129.983 111.034C129.983 107.577 130.41 104.547 131.265 101.945C132.119 99.3032 133.323 97.1085 134.877 95.3605C136.431 93.5737 138.315 92.2335 140.529 91.3401C142.743 90.4467 145.19 90 147.871 90C150.551 90 152.998 90.4467 155.212 91.3401C157.426 92.2335 159.31 93.5737 160.864 95.3605C162.418 97.1085 163.622 99.3032 164.476 101.945C165.331 104.547 165.758 107.577 165.758 111.034C165.758 114.491 165.331 117.541 164.476 120.182C163.622 122.785 162.418 124.979 160.864 126.766C159.31 128.514 157.426 129.835 155.212 130.728C152.998 131.622 150.551 132.068 147.871 132.068ZM147.871 124.202C150.551 124.202 152.629 123.328 154.105 121.58C155.62 119.832 156.377 117.327 156.377 114.064V108.004C156.377 104.741 155.62 102.236 154.105 100.488C152.629 98.74 150.551 97.866 147.871 97.866C145.19 97.866 143.093 98.74 141.578 100.488C140.102 102.236 139.364 104.741 139.364 108.004V114.064C139.364 117.327 140.102 119.832 141.578 121.58C143.093 123.328 145.19 124.202 147.871 124.202Z" fill="url(#paint3_linear_4999_2636)"/>
<path d="M200.089 132.068C196.515 132.068 193.485 131.466 190.999 130.262C188.513 129.019 186.396 127.427 184.648 125.484L190.475 119.599C193.233 122.707 196.632 124.261 200.671 124.261C202.847 124.261 204.459 123.814 205.507 122.921C206.556 122.027 207.081 120.842 207.081 119.366C207.081 118.24 206.77 117.308 206.148 116.57C205.527 115.793 204.264 115.268 202.361 114.996L198.341 114.472C194.029 113.928 190.863 112.627 188.843 110.568C186.862 108.509 185.872 105.771 185.872 102.352C185.872 100.527 186.221 98.8565 186.92 97.3416C187.62 95.8267 188.61 94.5254 189.892 93.4377C191.213 92.3501 192.805 91.5149 194.67 90.9323C196.573 90.3108 198.729 90 201.137 90C204.206 90 206.906 90.4856 209.237 91.4567C211.567 92.4278 213.568 93.8456 215.238 95.7101L209.353 101.653C208.382 100.527 207.197 99.614 205.799 98.9148C204.439 98.1767 202.711 97.8077 200.613 97.8077C198.632 97.8077 197.156 98.1573 196.185 98.8565C195.214 99.5557 194.728 100.527 194.728 101.77C194.728 103.168 195.097 104.178 195.835 104.8C196.612 105.421 197.855 105.868 199.564 106.14L203.585 106.781C207.78 107.441 210.887 108.742 212.907 110.685C214.927 112.588 215.937 115.307 215.937 118.842C215.937 120.784 215.588 122.571 214.888 124.202C214.189 125.834 213.16 127.232 211.8 128.398C210.48 129.563 208.829 130.476 206.848 131.136C204.867 131.758 202.614 132.068 200.089 132.068Z" fill="url(#paint4_linear_4999_2636)"/>
<path d="M235.574 132.068C233.244 132.068 231.166 131.699 229.34 130.961C227.514 130.184 225.96 129.116 224.679 127.757C223.436 126.358 222.484 124.669 221.823 122.688C221.202 120.706 220.891 118.492 220.891 116.045C220.891 113.637 221.202 111.461 221.823 109.519C222.445 107.538 223.358 105.848 224.562 104.45C225.805 103.052 227.32 101.983 229.107 101.245C230.894 100.469 232.933 100.08 235.225 100.08C237.75 100.08 239.906 100.507 241.692 101.362C243.518 102.217 244.994 103.362 246.121 104.8C247.286 106.237 248.121 107.907 248.626 109.811C249.17 111.675 249.442 113.637 249.442 115.696V118.259H229.806V118.725C229.806 120.745 230.35 122.357 231.437 123.562C232.525 124.727 234.234 125.31 236.565 125.31C238.352 125.31 239.808 124.96 240.935 124.261C242.061 123.523 243.11 122.649 244.081 121.639L248.393 126.999C247.033 128.592 245.247 129.835 243.032 130.728C240.857 131.622 238.371 132.068 235.574 132.068ZM235.4 106.431C233.652 106.431 232.273 107.014 231.263 108.179C230.292 109.306 229.806 110.821 229.806 112.724V113.19H240.527V112.666C240.527 110.801 240.1 109.306 239.245 108.179C238.429 107.014 237.148 106.431 235.4 106.431Z" fill="url(#paint5_linear_4999_2636)"/>
<path d="M255.532 131.369V100.779H264.155V105.965H264.505C265.049 104.372 266.001 102.993 267.36 101.828C268.72 100.663 270.604 100.08 273.012 100.08C276.158 100.08 278.528 101.129 280.12 103.226C281.752 105.324 282.568 108.315 282.568 112.2V131.369H273.944V112.899C273.944 110.918 273.633 109.461 273.012 108.529C272.39 107.558 271.283 107.072 269.691 107.072C268.992 107.072 268.312 107.169 267.651 107.363C266.991 107.519 266.389 107.791 265.845 108.179C265.34 108.568 264.932 109.053 264.622 109.636C264.311 110.18 264.155 110.821 264.155 111.559V131.369H255.532Z" fill="url(#paint6_linear_4999_2636)"/>
<path d="M300.613 132.068C297.661 132.068 295.175 131.602 293.155 130.67C291.135 129.699 289.329 128.339 287.736 126.591L292.805 121.464C293.893 122.668 295.097 123.62 296.418 124.319C297.738 125.018 299.234 125.368 300.904 125.368C302.613 125.368 303.798 125.115 304.459 124.61C305.119 124.066 305.449 123.348 305.449 122.454C305.449 121.017 304.42 120.163 302.361 119.891L299.04 119.483C292.164 118.628 288.727 115.482 288.727 110.044C288.727 108.568 288.999 107.227 289.542 106.023C290.125 104.78 290.921 103.731 291.931 102.877C292.98 101.983 294.223 101.304 295.66 100.838C297.136 100.333 298.787 100.08 300.613 100.08C302.206 100.08 303.604 100.197 304.808 100.43C306.051 100.624 307.139 100.935 308.071 101.362C309.042 101.75 309.916 102.255 310.693 102.877C311.509 103.46 312.305 104.12 313.082 104.858L308.129 109.927C307.158 108.956 306.051 108.199 304.808 107.655C303.604 107.072 302.361 106.781 301.079 106.781C299.603 106.781 298.554 107.014 297.933 107.48C297.311 107.946 297 108.568 297 109.344C297 110.16 297.214 110.801 297.641 111.267C298.108 111.695 298.962 112.005 300.205 112.2L303.643 112.666C310.363 113.559 313.723 116.628 313.723 121.872C313.723 123.348 313.412 124.707 312.791 125.95C312.169 127.193 311.276 128.281 310.11 129.213C308.984 130.107 307.605 130.806 305.973 131.311C304.381 131.816 302.594 132.068 300.613 132.068Z" fill="url(#paint7_linear_4999_2636)"/>
<path d="M332.363 132.068C330.032 132.068 327.954 131.699 326.128 130.961C324.303 130.184 322.749 129.116 321.467 127.757C320.224 126.358 319.272 124.669 318.612 122.688C317.99 120.706 317.68 118.492 317.68 116.045C317.68 113.637 317.99 111.461 318.612 109.519C319.233 107.538 320.146 105.848 321.35 104.45C322.593 103.052 324.108 101.983 325.895 101.245C327.682 100.469 329.721 100.08 332.013 100.08C334.538 100.08 336.694 100.507 338.481 101.362C340.306 102.217 341.783 103.362 342.909 104.8C344.074 106.237 344.909 107.907 345.414 109.811C345.958 111.675 346.23 113.637 346.23 115.696V118.259H326.594V118.725C326.594 120.745 327.138 122.357 328.226 123.562C329.313 124.727 331.023 125.31 333.353 125.31C335.14 125.31 336.597 124.96 337.723 124.261C338.85 123.523 339.899 122.649 340.87 121.639L345.181 126.999C343.822 128.592 342.035 129.835 339.821 130.728C337.646 131.622 335.16 132.068 332.363 132.068ZM332.188 106.431C330.44 106.431 329.061 107.014 328.051 108.179C327.08 109.306 326.594 110.821 326.594 112.724V113.19H337.315V112.666C337.315 110.801 336.888 109.306 336.034 108.179C335.218 107.014 333.936 106.431 332.188 106.431Z" fill="url(#paint8_linear_4999_2636)"/>
</g>
<defs>
<radialGradient id="paint0_radial_4999_2636" cx="0" cy="0" r="1" gradientUnits="userSpaceOnUse" gradientTransform="translate(52.7742 -58.6686) rotate(89.7677) scale(292.671 1315.79)">
<stop stop-opacity="0"/>
<stop offset="1" stop-color="#E2E4E3" stop-opacity="0.44"/>
</radialGradient>
<linearGradient id="paint1_linear_4999_2636" x1="69.429" y1="132.07" x2="332.655" y2="13.6498" gradientUnits="userSpaceOnUse">
<stop stop-color="#59D7B4"/>
<stop offset="1" stop-color="#309942"/>
</linearGradient>
<linearGradient id="paint2_linear_4999_2636" x1="69.429" y1="132.07" x2="332.655" y2="13.6498" gradientUnits="userSpaceOnUse">
<stop stop-color="#59D7B4"/>
<stop offset="1" stop-color="#309942"/>
</linearGradient>
<linearGradient id="paint3_linear_4999_2636" x1="69.429" y1="132.07" x2="332.655" y2="13.6498" gradientUnits="userSpaceOnUse">
<stop stop-color="#59D7B4"/>
<stop offset="1" stop-color="#309942"/>
</linearGradient>
<linearGradient id="paint4_linear_4999_2636" x1="69.429" y1="132.07" x2="332.655" y2="13.6498" gradientUnits="userSpaceOnUse">
<stop stop-color="#59D7B4"/>
<stop offset="1" stop-color="#309942"/>
</linearGradient>
<linearGradient id="paint5_linear_4999_2636" x1="69.429" y1="132.07" x2="332.655" y2="13.6498" gradientUnits="userSpaceOnUse">
<stop stop-color="#59D7B4"/>
<stop offset="1" stop-color="#309942"/>
</linearGradient>
<linearGradient id="paint6_linear_4999_2636" x1="69.429" y1="132.07" x2="332.655" y2="13.6498" gradientUnits="userSpaceOnUse">
<stop stop-color="#59D7B4"/>
<stop offset="1" stop-color="#309942"/>
</linearGradient>
<linearGradient id="paint7_linear_4999_2636" x1="69.429" y1="132.07" x2="332.655" y2="13.6498" gradientUnits="userSpaceOnUse">
<stop stop-color="#59D7B4"/>
<stop offset="1" stop-color="#309942"/>
</linearGradient>
<linearGradient id="paint8_linear_4999_2636" x1="69.429" y1="132.07" x2="332.655" y2="13.6498" gradientUnits="userSpaceOnUse">
<stop stop-color="#59D7B4"/>
<stop offset="1" stop-color="#309942"/>
</linearGradient>
<clipPath id="clip0_4999_2636">
<rect width="400" height="222" fill="white"/>
</clipPath>
</defs>
</svg>
