<svg width="60" height="24" viewBox="0 0 60 24" fill="none" xmlns="http://www.w3.org/2000/svg">
<g clip-path="url(#clip0_5037_2786)">
<path d="M11.705 4.53236C12.1051 4.53236 12.5572 5.00348 12.7855 5.34672C12.8522 5.44711 12.9614 5.51597 13.082 5.51597C13.3968 5.51597 13.2787 5.1881 13.1804 5.02417C12.924 4.44731 12.3457 4.13584 11.9451 4.00472C11.788 3.95332 11.6218 3.9422 11.4566 3.9422H10.0328C8.77382 4.09958 8.32791 5.31925 8.26234 5.90941C8.06562 7.08974 9.04922 8.07335 9.24595 8.27007C9.40332 8.42745 11.2787 9.71269 12.1968 10.3356C13.7705 11.3192 13.3771 12.4012 13.2787 13.1881C13.1689 14.0665 11.9017 14.5652 11.705 14.6635C11.5834 14.7243 11.0239 14.7107 10.5791 14.6863C10.3466 14.6736 10.1136 14.6363 9.90315 14.5365C9.30024 14.2507 8.88303 13.7563 8.64608 13.3637C8.50384 13.1281 8.35913 12.7861 8.08864 12.8371C7.95618 12.862 7.8689 12.979 7.8689 13.0897C7.8689 13.8624 8.7572 14.5881 9.34436 14.9448C9.47342 15.0232 9.61189 15.0845 9.75672 15.1272C10.7789 15.4291 11.7307 15.2779 12.0984 15.1553C13.9082 14.4471 14.0984 12.6307 13.9673 11.8111C13.9049 11.3126 13.5507 10.7812 13.2757 10.4513C13.1526 10.3037 13.0025 10.1823 12.8433 10.0746C11.5753 9.21617 9.71378 8.0374 9.34431 7.48318C8.49791 6.21358 8.9521 5.32719 9.52027 4.85078C9.82649 4.59402 10.2388 4.53236 10.6384 4.53236H11.705Z" fill="#7A828D" stroke="#7A828D" stroke-width="0.196721"/>
<rect x="3.93445" y="3.74542" width="0.786885" height="11.6066" rx="0.393443" fill="#7A828D"/>
<path d="M24.4427 3.74542C24.6329 3.74542 24.787 3.89955 24.787 4.08968V4.63067C24.787 5.12247 27.4427 13.4831 27.5411 14.1717C27.5898 14.5125 27.5154 14.808 27.4439 15.0538C27.3978 15.2122 27.1717 15.2775 27.055 15.1608L26.9916 15.0976C26.9149 15.0208 26.9164 14.8941 26.9563 14.7931C27.0208 14.6301 27.0561 14.35 26.9509 13.8766C26.7959 13.1791 25.2928 8.19525 24.5269 5.72666C24.5156 5.69044 24.4659 5.68964 24.4535 5.72551C23.5893 8.2265 21.9345 13.2831 21.9345 14.3684V14.9585C21.9345 15.0897 21.8755 15.2536 21.6394 15.2536C21.5411 15.2536 21.4427 15.0897 21.4427 14.9585V14.3684C21.4427 13.2831 19.7881 8.2265 18.924 5.72551C18.9116 5.68962 18.8617 5.69041 18.8504 5.72666C18.0845 8.19526 16.5813 13.1791 16.4263 13.8766C16.3211 14.35 16.3567 14.6301 16.4211 14.7931C16.4611 14.8942 16.4624 15.0208 16.3856 15.0976L16.3224 15.1608C16.2058 15.2775 15.9795 15.2122 15.9334 15.0538C15.8619 14.8081 15.7875 14.5124 15.8362 14.1717C15.9345 13.4831 18.5903 5.12247 18.5903 4.63067V4.08968C18.5903 3.89957 18.7444 3.74545 18.9345 3.74542C19.1247 3.74542 19.2788 3.89955 19.2788 4.08968V4.69964C19.2788 4.71908 19.2818 4.73848 19.2874 4.75708L21.6886 12.6332L24.09 4.75708C24.0957 4.73849 24.0985 4.71907 24.0985 4.69964V4.08968C24.0985 3.89957 24.2526 3.74545 24.4427 3.74542Z" fill="#7A828D" stroke="#7A828D" stroke-width="0.196721"/>
<path d="M33.6394 3.54869C33.7388 3.51629 33.8486 3.58913 33.8486 3.70142L34.0329 4.63161C34.0944 4.94558 34.2817 5.30112 34.4263 5.58832C35.8384 8.39302 37.9087 12.8326 38.1029 13.9503L38.1212 14.0381C38.1781 14.311 38.1781 14.5928 38.1212 14.8657C38.1093 14.9229 38.0803 14.9751 38.0382 15.0156L37.883 15.1643C37.8285 15.2165 37.7445 15.2226 37.6832 15.1785L37.5349 15.0717C37.4437 15.0061 37.422 14.8795 37.4861 14.7873C37.5457 14.7015 37.5663 14.5945 37.5427 14.4927L37.4367 14.0354C37.3927 13.8454 37.3586 13.7594 37.2788 13.5815L33.709 5.58832L30.2952 13.188C30.2153 13.366 30.0253 13.8454 29.9813 14.0354L29.8754 14.4927C29.8518 14.5945 29.8724 14.7015 29.9321 14.7873C29.9962 14.8795 29.9744 15.0061 29.8833 15.0717L29.7348 15.1785C29.6735 15.2225 29.5895 15.2165 29.535 15.1643L29.38 15.0156C29.3378 14.9751 29.3089 14.9229 29.297 14.8657C29.24 14.5928 29.24 14.3111 29.297 14.0381L29.3152 13.9503C29.5095 12.8326 31.5388 8.39302 32.9509 5.58832C33.0954 5.3014 33.2828 4.94524 33.3444 4.63161L33.4302 3.70142C33.4302 3.58916 33.5401 3.51638 33.6394 3.54869Z" fill="#7A828D"/>
<path d="M51.9919 3.54869C52.0912 3.51629 52.201 3.58913 52.2011 3.70142L52.3853 4.63161C52.4468 4.94558 52.6341 5.30112 52.7787 5.58832C54.1908 8.39302 56.2611 12.8326 56.4554 13.9503L56.4736 14.0381C56.5305 14.311 56.5305 14.5928 56.4736 14.8657C56.4617 14.9229 56.4327 14.9751 56.3906 15.0156L56.2354 15.1643C56.1809 15.2165 56.0969 15.2226 56.0356 15.1785L55.8873 15.0717C55.7961 15.0061 55.7744 14.8795 55.8385 14.7873C55.8981 14.7015 55.9187 14.5945 55.8952 14.4927L55.7891 14.0354C55.7451 13.8454 55.711 13.7594 55.6312 13.5815L52.0614 5.58832L48.6476 13.188C48.5677 13.366 48.3777 13.8454 48.3337 14.0354L48.2278 14.4927C48.2042 14.5945 48.2248 14.7015 48.2845 14.7873C48.3486 14.8795 48.3268 15.0061 48.2357 15.0717L48.0872 15.1785C48.0259 15.2225 47.9419 15.2165 47.8874 15.1643L47.7324 15.0156C47.6902 14.9751 47.6613 14.9229 47.6494 14.8657C47.5925 14.5928 47.5925 14.3111 47.6494 14.0381L47.6676 13.9503C47.8619 12.8326 49.8913 8.39302 51.3033 5.58832C51.4478 5.3014 51.6352 4.94524 51.6968 4.63161L51.7826 3.70142C51.7827 3.58916 51.8926 3.51638 51.9919 3.54869Z" fill="#7A828D"/>
<path d="M4.95931 20.1333C4.81271 20.1333 4.67517 20.1061 4.54667 20.0518C4.41998 19.9957 4.30867 19.9188 4.21275 19.8211C4.11864 19.7215 4.04444 19.6057 3.99014 19.4736C3.93766 19.3415 3.91142 19.1985 3.91142 19.0447C3.91142 18.8926 3.93766 18.7515 3.99014 18.6212C4.04444 18.4891 4.11864 18.3741 4.21275 18.2764C4.30867 18.1769 4.41998 18.099 4.54667 18.0429C4.67336 17.9868 4.8109 17.9588 4.95931 17.9588C5.09867 17.9588 5.21812 17.9769 5.31766 18.0131C5.41901 18.0493 5.52036 18.109 5.62171 18.1922C5.63619 18.2031 5.64705 18.2149 5.65429 18.2275C5.66334 18.2384 5.66877 18.2502 5.67058 18.2628C5.6742 18.2737 5.67601 18.2873 5.67601 18.3035C5.67601 18.3379 5.66334 18.3669 5.638 18.3904C5.61447 18.4121 5.58551 18.4248 5.55113 18.4284C5.51674 18.4302 5.48326 18.4185 5.45068 18.3931C5.38372 18.3352 5.31404 18.2909 5.24164 18.2601C5.17106 18.2293 5.07695 18.214 4.95931 18.214C4.85253 18.214 4.75208 18.2357 4.65797 18.2791C4.56386 18.3225 4.48061 18.3823 4.40822 18.4583C4.33763 18.5343 4.28243 18.623 4.24262 18.7243C4.2028 18.8239 4.18289 18.9307 4.18289 19.0447C4.18289 19.1605 4.2028 19.2691 4.24262 19.3704C4.28243 19.47 4.33763 19.5578 4.40822 19.6338C4.48061 19.7098 4.56386 19.7695 4.65797 19.8129C4.75208 19.8546 4.85253 19.8754 4.95931 19.8754C5.05161 19.8754 5.13848 19.86 5.21993 19.8292C5.30318 19.7967 5.38281 19.7523 5.45883 19.6962C5.4914 19.6727 5.52307 19.6627 5.55384 19.6663C5.58642 19.6682 5.61357 19.6808 5.63528 19.7044C5.657 19.7261 5.66786 19.7568 5.66786 19.7967C5.66786 19.8148 5.66424 19.8329 5.657 19.851C5.64976 19.8672 5.6389 19.8826 5.62443 19.8971C5.52669 19.9749 5.42172 20.0337 5.30951 20.0736C5.19911 20.1134 5.08238 20.1333 4.95931 20.1333ZM6.96645 20.1061C6.92663 20.1061 6.89315 20.0926 6.866 20.0654C6.83885 20.0383 6.82528 20.0048 6.82528 19.965V18.1271C6.82528 18.0855 6.83885 18.052 6.866 18.0266C6.89315 17.9995 6.92663 17.9859 6.96645 17.9859H7.4551C7.59084 17.9859 7.71119 18.0149 7.81616 18.0728C7.92114 18.1289 8.00258 18.2067 8.06049 18.3063C8.12022 18.4058 8.15008 18.5216 8.15008 18.6537C8.15008 18.7768 8.12022 18.8863 8.06049 18.9822C8.00258 19.0782 7.92114 19.1533 7.81616 19.2076C7.71119 19.2619 7.59084 19.289 7.4551 19.289H7.10761V19.965C7.10761 20.0048 7.09404 20.0383 7.06689 20.0654C7.04156 20.0926 7.00807 20.1061 6.96645 20.1061ZM8.09307 20.1061C8.06773 20.1061 8.0442 20.1007 8.02249 20.0899C8.00258 20.079 7.98538 20.0618 7.97091 20.0383L7.48225 19.251L7.75644 19.1723L8.20166 19.889C8.23424 19.9414 8.23876 19.9912 8.21523 20.0383C8.19171 20.0835 8.15098 20.1061 8.09307 20.1061ZM7.10761 19.0284H7.4551C7.53836 19.0284 7.61165 19.013 7.675 18.9822C7.73834 18.9497 7.78811 18.9053 7.82431 18.8492C7.86051 18.7913 7.8786 18.7261 7.8786 18.6537C7.8786 18.5741 7.86051 18.5035 7.82431 18.442C7.78811 18.3805 7.73834 18.3325 7.675 18.2981C7.61165 18.2637 7.53836 18.2465 7.4551 18.2465H7.10761V19.0284ZM9.38756 20.1061C9.34775 20.1061 9.31426 20.0926 9.28712 20.0654C9.25997 20.0383 9.24639 20.0048 9.24639 19.965V18.1271C9.24639 18.0855 9.25997 18.052 9.28712 18.0266C9.31426 17.9995 9.34775 17.9859 9.38756 17.9859H10.6146C10.6563 17.9859 10.6897 17.9986 10.7151 18.0239C10.7404 18.0475 10.7531 18.0791 10.7531 18.1189C10.7531 18.1569 10.7404 18.1877 10.7151 18.2112C10.6897 18.2348 10.6563 18.2465 10.6146 18.2465H9.52873V18.9062H10.3079C10.3495 18.9062 10.383 18.9189 10.4083 18.9442C10.4336 18.9678 10.4463 18.9985 10.4463 19.0365C10.4463 19.0745 10.4336 19.1062 10.4083 19.1315C10.383 19.1551 10.3495 19.1668 10.3079 19.1668H9.52873V19.8455H10.6146C10.6563 19.8455 10.6897 19.8573 10.7151 19.8808C10.7404 19.9043 10.7531 19.9351 10.7531 19.9731C10.7531 20.0129 10.7404 20.0455 10.7151 20.0708C10.6897 20.0944 10.6563 20.1061 10.6146 20.1061H9.38756ZM11.7689 20.1061C11.7183 20.1061 11.6793 20.0844 11.6522 20.041C11.625 19.9975 11.6223 19.9514 11.6441 19.9025L12.4069 18.0809C12.434 18.0176 12.4784 17.9859 12.5399 17.9859C12.6051 17.9859 12.6494 18.0176 12.6729 18.0809L13.4385 19.908C13.4584 19.9586 13.4548 20.0048 13.4276 20.0464C13.4023 20.0862 13.3634 20.1061 13.3109 20.1061C13.2838 20.1061 13.2575 20.0989 13.2322 20.0844C13.2087 20.0681 13.1915 20.0464 13.1806 20.0193L12.5073 18.347H12.5834L11.8992 20.0193C11.8866 20.0482 11.8676 20.0699 11.8422 20.0844C11.8187 20.0989 11.7943 20.1061 11.7689 20.1061ZM11.9128 19.6392L12.0214 19.4057H13.0856L13.1942 19.6392H11.9128ZM14.8775 20.1061C14.8376 20.1061 14.8042 20.0926 14.777 20.0654C14.7499 20.0383 14.7363 20.0048 14.7363 19.965V17.9859H15.0186V19.965C15.0186 20.0048 15.005 20.0383 14.9779 20.0654C14.9508 20.0926 14.9173 20.1061 14.8775 20.1061ZM14.1499 18.2465C14.1119 18.2465 14.0802 18.2348 14.0549 18.2112C14.0314 18.1859 14.0196 18.1542 14.0196 18.1162C14.0196 18.0782 14.0314 18.0475 14.0549 18.0239C14.0802 17.9986 14.1119 17.9859 14.1499 17.9859H15.6023C15.6403 17.9859 15.6711 17.9986 15.6946 18.0239C15.7199 18.0475 15.7326 18.0782 15.7326 18.1162C15.7326 18.1542 15.7199 18.1859 15.6946 18.2112C15.6711 18.2348 15.6403 18.2465 15.6023 18.2465H14.1499ZM16.8922 20.1061C16.8523 20.1061 16.8189 20.0926 16.7917 20.0654C16.7646 20.0383 16.751 20.0048 16.751 19.965V18.1271C16.751 18.0855 16.7646 18.052 16.7917 18.0266C16.8189 17.9995 16.8523 17.9859 16.8922 17.9859C16.9338 17.9859 16.9673 17.9995 16.9926 18.0266C17.0198 18.052 17.0333 18.0855 17.0333 18.1271V19.965C17.0333 20.0048 17.0198 20.0383 16.9926 20.0654C16.9673 20.0926 16.9338 20.1061 16.8922 20.1061ZM18.4198 20.1061C18.38 20.1061 18.3465 20.0926 18.3193 20.0654C18.294 20.0383 18.2813 20.0048 18.2813 19.965V18.1271C18.2813 18.0855 18.294 18.052 18.3193 18.0266C18.3465 17.9995 18.38 17.9859 18.4198 17.9859C18.4632 17.9859 18.4994 18.0031 18.5284 18.0375L19.712 19.6121V18.1271C19.712 18.0855 19.7256 18.052 19.7527 18.0266C19.7799 17.9995 19.8134 17.9859 19.8532 17.9859C19.8948 17.9859 19.9283 17.9995 19.9536 18.0266C19.979 18.052 19.9916 18.0855 19.9916 18.1271V19.965C19.9916 20.0048 19.979 20.0383 19.9536 20.0654C19.9283 20.0926 19.8948 20.1061 19.8532 20.1061C19.8351 20.1061 19.8152 20.1025 19.7934 20.0953C19.7735 20.0862 19.7573 20.0736 19.7446 20.0573L18.5609 18.4827V19.965C18.5609 20.0048 18.5474 20.0383 18.5202 20.0654C18.4949 20.0926 18.4614 20.1061 18.4198 20.1061ZM22.1908 20.1333C22.0442 20.1333 21.9066 20.1061 21.7781 20.0518C21.6515 19.9957 21.5402 19.9188 21.4442 19.8211C21.3501 19.7215 21.2759 19.6057 21.2216 19.4736C21.1691 19.3415 21.1429 19.1985 21.1429 19.0447C21.1429 18.8926 21.1691 18.7515 21.2216 18.6212C21.2759 18.4891 21.3501 18.3741 21.4442 18.2764C21.5402 18.1769 21.6515 18.099 21.7781 18.0429C21.9048 17.9868 22.0424 17.9588 22.1908 17.9588C22.3301 17.9588 22.4496 17.9769 22.5491 18.0131C22.6505 18.0493 22.7518 18.109 22.8532 18.1922C22.8677 18.2031 22.8785 18.2149 22.8858 18.2275C22.8948 18.2384 22.9002 18.2502 22.9021 18.2628C22.9057 18.2737 22.9075 18.2873 22.9075 18.3035C22.9075 18.3379 22.8948 18.3669 22.8695 18.3904C22.8459 18.4139 22.8161 18.4266 22.7799 18.4284C22.7455 18.4302 22.7129 18.4185 22.6822 18.3931C22.6152 18.3352 22.5455 18.2909 22.4731 18.2601C22.4025 18.2293 22.3084 18.214 22.1908 18.214C22.084 18.214 21.9836 18.2357 21.8895 18.2791C21.7953 18.3225 21.7121 18.3823 21.6397 18.4583C21.5691 18.5343 21.5139 18.623 21.4741 18.7243C21.4343 18.8239 21.4144 18.9307 21.4144 19.0447C21.4144 19.1605 21.4343 19.2691 21.4741 19.3704C21.5139 19.47 21.5691 19.5578 21.6397 19.6338C21.7121 19.7098 21.7953 19.7695 21.8895 19.8129C21.9836 19.8546 22.084 19.8754 22.1908 19.8754C22.2831 19.8754 22.37 19.86 22.4514 19.8292C22.5347 19.7967 22.6143 19.7523 22.6903 19.6962C22.7229 19.6727 22.7546 19.6627 22.7853 19.6663C22.8179 19.6682 22.845 19.6808 22.8668 19.7044C22.8885 19.7261 22.8993 19.7568 22.8993 19.7967C22.8993 19.8148 22.8957 19.8329 22.8885 19.851C22.8831 19.8672 22.8722 19.8826 22.8559 19.8971C22.76 19.9767 22.6559 20.0365 22.5437 20.0763C22.4315 20.1143 22.3139 20.1333 22.1908 20.1333ZM22.8993 19.7967L22.6279 19.7424V19.2564H22.2532C22.2134 19.2564 22.1799 19.2447 22.1528 19.2211C22.1256 19.1976 22.1121 19.1677 22.1121 19.1315C22.1121 19.0953 22.1256 19.0655 22.1528 19.042C22.1799 19.0184 22.2134 19.0067 22.2532 19.0067H22.7609C22.8025 19.0067 22.836 19.0202 22.8613 19.0474C22.8867 19.0727 22.8993 19.1062 22.8993 19.1478V19.7967Z" fill="#7A828D"/>
<path d="M26.8001 20.1061C26.7603 20.1061 26.7268 20.0926 26.6996 20.0654C26.6725 20.0383 26.6589 20.0048 26.6589 19.965V17.9859H26.9412V19.965C26.9412 20.0048 26.9277 20.0383 26.9005 20.0654C26.8734 20.0926 26.8399 20.1061 26.8001 20.1061ZM26.0725 18.2465C26.0345 18.2465 26.0028 18.2348 25.9775 18.2112C25.954 18.1859 25.9422 18.1542 25.9422 18.1162C25.9422 18.0782 25.954 18.0475 25.9775 18.0239C26.0028 17.9986 26.0345 17.9859 26.0725 17.9859H27.5249C27.5629 17.9859 27.5937 17.9986 27.6172 18.0239C27.6426 18.0475 27.6552 18.0782 27.6552 18.1162C27.6552 18.1542 27.6426 18.1859 27.6172 18.2112C27.5937 18.2348 27.5629 18.2465 27.5249 18.2465H26.0725ZM28.8148 20.1061C28.775 20.1061 28.7415 20.0926 28.7143 20.0654C28.6872 20.0383 28.6736 20.0048 28.6736 19.965V18.1271C28.6736 18.0855 28.6872 18.052 28.7143 18.0266C28.7415 17.9995 28.775 17.9859 28.8148 17.9859C28.8564 17.9859 28.8899 17.9995 28.9152 18.0266C28.9424 18.052 28.9559 18.0855 28.9559 18.1271V18.9062H30.2156V18.1271C30.2156 18.0855 30.2292 18.052 30.2563 18.0266C30.2835 17.9995 30.3169 17.9859 30.3568 17.9859C30.3984 17.9859 30.4319 17.9995 30.4572 18.0266C30.4825 18.052 30.4952 18.0855 30.4952 18.1271V19.965C30.4952 20.0048 30.4825 20.0383 30.4572 20.0654C30.4319 20.0926 30.3984 20.1061 30.3568 20.1061C30.3169 20.1061 30.2835 20.0926 30.2563 20.0654C30.2292 20.0383 30.2156 20.0048 30.2156 19.965V19.156H28.9559V19.965C28.9559 20.0048 28.9424 20.0383 28.9152 20.0654C28.8899 20.0926 28.8564 20.1061 28.8148 20.1061ZM31.8854 20.1061C31.8456 20.1061 31.8121 20.0926 31.785 20.0654C31.7578 20.0383 31.7443 20.0048 31.7443 19.965V18.1271C31.7443 18.0855 31.7578 18.052 31.785 18.0266C31.8121 17.9995 31.8456 17.9859 31.8854 17.9859H33.1125C33.1541 17.9859 33.1876 17.9986 33.2129 18.0239C33.2383 18.0475 33.2509 18.0791 33.2509 18.1189C33.2509 18.1569 33.2383 18.1877 33.2129 18.2112C33.1876 18.2348 33.1541 18.2465 33.1125 18.2465H32.0266V18.9062H32.8057C32.8474 18.9062 32.8808 18.9189 32.9062 18.9442C32.9315 18.9678 32.9442 18.9985 32.9442 19.0365C32.9442 19.0745 32.9315 19.1062 32.9062 19.1315C32.8808 19.1551 32.8474 19.1668 32.8057 19.1668H32.0266V19.8455H33.1125C33.1541 19.8455 33.1876 19.8573 33.2129 19.8808C33.2383 19.9043 33.2509 19.9351 33.2509 19.9731C33.2509 20.0129 33.2383 20.0455 33.2129 20.0708C33.1876 20.0944 33.1541 20.1061 33.1125 20.1061H31.8854Z" fill="#7A828D"/>
<path d="M37.287 20.1333C37.1404 20.1333 37.0029 20.1061 36.8744 20.0518C36.7477 19.9957 36.6364 19.9188 36.5405 19.8211C36.4463 19.7215 36.3721 19.6057 36.3178 19.4736C36.2654 19.3415 36.2391 19.1985 36.2391 19.0447C36.2391 18.8926 36.2654 18.7515 36.3178 18.6212C36.3721 18.4891 36.4463 18.3741 36.5405 18.2764C36.6364 18.1769 36.7477 18.099 36.8744 18.0429C37.0011 17.9868 37.1386 17.9588 37.287 17.9588C37.4264 17.9588 37.5458 17.9769 37.6454 18.0131C37.7467 18.0493 37.8481 18.109 37.9494 18.1922C37.9639 18.2031 37.9747 18.2149 37.982 18.2275C37.991 18.2384 37.9965 18.2502 37.9983 18.2628C38.0019 18.2737 38.0037 18.2873 38.0037 18.3035C38.0037 18.3379 37.991 18.3669 37.9657 18.3904C37.9422 18.4139 37.9123 18.4266 37.8761 18.4284C37.8417 18.4302 37.8091 18.4185 37.7784 18.3931C37.7114 18.3352 37.6417 18.2909 37.5693 18.2601C37.4988 18.2293 37.4046 18.214 37.287 18.214C37.1802 18.214 37.0798 18.2357 36.9857 18.2791C36.8916 18.3225 36.8083 18.3823 36.7359 18.4583C36.6653 18.5343 36.6101 18.623 36.5703 18.7243C36.5305 18.8239 36.5106 18.9307 36.5106 19.0447C36.5106 19.1605 36.5305 19.2691 36.5703 19.3704C36.6101 19.47 36.6653 19.5578 36.7359 19.6338C36.8083 19.7098 36.8916 19.7695 36.9857 19.8129C37.0798 19.8546 37.1802 19.8754 37.287 19.8754C37.3793 19.8754 37.4662 19.86 37.5476 19.8292C37.6309 19.7967 37.7105 19.7523 37.7865 19.6962C37.8191 19.6727 37.8508 19.6627 37.8815 19.6663C37.9141 19.6682 37.9413 19.6808 37.963 19.7044C37.9847 19.7261 37.9956 19.7568 37.9956 19.7967C37.9956 19.8148 37.9919 19.8329 37.9847 19.851C37.9793 19.8672 37.9684 19.8826 37.9521 19.8971C37.8562 19.9767 37.7521 20.0365 37.6399 20.0763C37.5277 20.1143 37.4101 20.1333 37.287 20.1333ZM37.9956 19.7967L37.7241 19.7424V19.2564H37.3494C37.3096 19.2564 37.2761 19.2447 37.249 19.2211C37.2219 19.1976 37.2083 19.1677 37.2083 19.1315C37.2083 19.0953 37.2219 19.0655 37.249 19.042C37.2761 19.0184 37.3096 19.0067 37.3494 19.0067H37.8571C37.8987 19.0067 37.9322 19.0202 37.9576 19.0474C37.9829 19.0727 37.9956 19.1062 37.9956 19.1478V19.7967ZM40.133 20.1333C39.9737 20.1333 39.828 20.107 39.6959 20.0546C39.5638 20.0003 39.4498 19.9252 39.3539 19.8292C39.2598 19.7315 39.1865 19.6166 39.134 19.4845C39.0815 19.3505 39.0552 19.2039 39.0552 19.0447C39.0552 18.8854 39.0815 18.7397 39.134 18.6076C39.1865 18.4755 39.2598 18.3615 39.3539 18.2655C39.4498 18.1678 39.5638 18.0927 39.6959 18.0402C39.828 17.9859 39.9737 17.9588 40.133 17.9588C40.2923 17.9588 40.4371 17.9859 40.5674 18.0402C40.6995 18.0927 40.8135 18.1678 40.9094 18.2655C41.0053 18.3615 41.0795 18.4755 41.132 18.6076C41.1845 18.7397 41.2108 18.8854 41.2108 19.0447C41.2108 19.2039 41.1845 19.3505 41.132 19.4845C41.0795 19.6166 41.0053 19.7315 40.9094 19.8292C40.8135 19.9252 40.6995 20.0003 40.5674 20.0546C40.4371 20.107 40.2923 20.1333 40.133 20.1333ZM40.133 19.8781C40.2506 19.8781 40.3583 19.8573 40.4561 19.8157C40.5556 19.7722 40.6416 19.7134 40.714 19.6392C40.7864 19.5632 40.8416 19.4745 40.8796 19.3732C40.9194 19.2718 40.9393 19.1623 40.9393 19.0447C40.9393 18.927 40.9194 18.8175 40.8796 18.7162C40.8416 18.6148 40.7864 18.5271 40.714 18.4529C40.6416 18.3768 40.5556 18.318 40.4561 18.2764C40.3583 18.2348 40.2506 18.214 40.133 18.214C40.0154 18.214 39.9068 18.2348 39.8072 18.2764C39.7095 18.318 39.6244 18.3768 39.552 18.4529C39.4815 18.5271 39.4263 18.6148 39.3864 18.7162C39.3466 18.8175 39.3267 18.927 39.3267 19.0447C39.3267 19.1623 39.3466 19.2718 39.3864 19.3732C39.4263 19.4745 39.4815 19.5632 39.552 19.6392C39.6244 19.7134 39.7095 19.7722 39.8072 19.8157C39.9068 19.8573 40.0154 19.8781 40.133 19.8781ZM43.2858 20.1333C43.1266 20.1333 42.9809 20.107 42.8488 20.0546C42.7166 20.0003 42.6026 19.9252 42.5067 19.8292C42.4126 19.7315 42.3393 19.6166 42.2868 19.4845C42.2343 19.3505 42.2081 19.2039 42.2081 19.0447C42.2081 18.8854 42.2343 18.7397 42.2868 18.6076C42.3393 18.4755 42.4126 18.3615 42.5067 18.2655C42.6026 18.1678 42.7166 18.0927 42.8488 18.0402C42.9809 17.9859 43.1266 17.9588 43.2858 17.9588C43.4451 17.9588 43.5899 17.9859 43.7202 18.0402C43.8523 18.0927 43.9663 18.1678 44.0622 18.2655C44.1582 18.3615 44.2324 18.4755 44.2849 18.6076C44.3373 18.7397 44.3636 18.8854 44.3636 19.0447C44.3636 19.2039 44.3373 19.3505 44.2849 19.4845C44.2324 19.6166 44.1582 19.7315 44.0622 19.8292C43.9663 19.9252 43.8523 20.0003 43.7202 20.0546C43.5899 20.107 43.4451 20.1333 43.2858 20.1333ZM43.2858 19.8781C43.4035 19.8781 43.5112 19.8573 43.6089 19.8157C43.7084 19.7722 43.7944 19.7134 43.8668 19.6392C43.9392 19.5632 43.9944 19.4745 44.0324 19.3732C44.0722 19.2718 44.0921 19.1623 44.0921 19.0447C44.0921 18.927 44.0722 18.8175 44.0324 18.7162C43.9944 18.6148 43.9392 18.5271 43.8668 18.4529C43.7944 18.3768 43.7084 18.318 43.6089 18.2764C43.5112 18.2348 43.4035 18.214 43.2858 18.214C43.1682 18.214 43.0596 18.2348 42.9601 18.2764C42.8623 18.318 42.7773 18.3768 42.7049 18.4529C42.6343 18.5271 42.5791 18.6148 42.5393 18.7162C42.4995 18.8175 42.4795 18.927 42.4795 19.0447C42.4795 19.1623 42.4995 19.2718 42.5393 19.3732C42.5791 19.4745 42.6343 19.5632 42.7049 19.6392C42.7773 19.7134 42.8623 19.7722 42.9601 19.8157C43.0596 19.8573 43.1682 19.8781 43.2858 19.8781ZM45.6528 20.1061C45.613 20.1061 45.5795 20.0926 45.5524 20.0654C45.5252 20.0383 45.5117 20.0048 45.5117 19.965V18.1271C45.5117 18.0855 45.5252 18.052 45.5524 18.0266C45.5795 17.9995 45.613 17.9859 45.6528 17.9859H46.1442C46.2998 17.9859 46.441 18.0122 46.5677 18.0646C46.6962 18.1153 46.8075 18.1886 46.9016 18.2845C46.9957 18.3787 47.0681 18.49 47.1188 18.6185C47.1695 18.747 47.1948 18.889 47.1948 19.0447C47.1948 19.2003 47.1695 19.3433 47.1188 19.4736C47.0681 19.6021 46.9957 19.7143 46.9016 19.8102C46.8075 19.9043 46.6962 19.9776 46.5677 20.0301C46.441 20.0808 46.2998 20.1061 46.1442 20.1061H45.6528ZM45.794 19.8564H46.1442C46.2962 19.8564 46.4301 19.822 46.546 19.7532C46.6636 19.6826 46.7559 19.5867 46.8229 19.4655C46.8898 19.3424 46.9233 19.2021 46.9233 19.0447C46.9233 18.8854 46.8898 18.7451 46.8229 18.6239C46.7559 18.5026 46.6636 18.4076 46.546 18.3388C46.4301 18.2701 46.2962 18.2357 46.1442 18.2357H45.794V19.8564Z" fill="#7A828D"/>
<path d="M50.6394 20.1061C50.5996 20.1061 50.5661 20.0926 50.539 20.0654C50.5136 20.0383 50.501 20.0048 50.501 19.965V18.1271C50.501 18.0873 50.5145 18.0538 50.5417 18.0266C50.5688 17.9995 50.6014 17.9859 50.6394 17.9859C50.6792 17.9859 50.7127 17.9995 50.7399 18.0266C50.767 18.0538 50.7806 18.0873 50.7806 18.1271V19.8238H51.7633C51.8031 19.8238 51.8366 19.8374 51.8638 19.8645C51.8909 19.8917 51.9045 19.9252 51.9045 19.965C51.9045 20.0048 51.8909 20.0383 51.8638 20.0654C51.8366 20.0926 51.8031 20.1061 51.7633 20.1061H50.6394ZM53.0898 20.1061C53.0499 20.1061 53.0165 20.0926 52.9893 20.0654C52.9622 20.0383 52.9486 20.0048 52.9486 19.965V18.1271C52.9486 18.0855 52.9622 18.052 52.9893 18.0266C53.0165 17.9995 53.0499 17.9859 53.0898 17.9859C53.1314 17.9859 53.1649 17.9995 53.1902 18.0266C53.2174 18.052 53.2309 18.0855 53.2309 18.1271V19.965C53.2309 20.0048 53.2174 20.0383 53.1902 20.0654C53.1649 20.0926 53.1314 20.1061 53.0898 20.1061ZM54.4491 20.1061C54.4093 20.1061 54.3758 20.0926 54.3486 20.0654C54.3215 20.0383 54.3079 20.0048 54.3079 19.965V18.1271C54.3079 18.0855 54.3215 18.052 54.3486 18.0266C54.3758 17.9995 54.4093 17.9859 54.4491 17.9859H55.6761C55.7178 17.9859 55.7512 17.9986 55.7766 18.0239C55.8019 18.0475 55.8146 18.0791 55.8146 18.1189C55.8146 18.1569 55.8019 18.1877 55.7766 18.2112C55.7512 18.2348 55.7178 18.2465 55.6761 18.2465H54.5902V18.9062H55.3694C55.411 18.9062 55.4445 18.9189 55.4698 18.9442C55.4952 18.9678 55.5078 18.9985 55.5078 19.0365C55.5078 19.0745 55.4952 19.1062 55.4698 19.1315C55.4445 19.1551 55.411 19.1668 55.3694 19.1668H54.5902V19.965C54.5902 20.0048 54.5767 20.0383 54.5495 20.0654C54.5224 20.0926 54.4889 20.1061 54.4491 20.1061ZM57.0227 20.1061C56.9828 20.1061 56.9494 20.0926 56.9222 20.0654C56.8951 20.0383 56.8815 20.0048 56.8815 19.965V18.1271C56.8815 18.0855 56.8951 18.052 56.9222 18.0266C56.9494 17.9995 56.9828 17.9859 57.0227 17.9859H58.2497C58.2914 17.9859 58.3248 17.9986 58.3502 18.0239C58.3755 18.0475 58.3882 18.0791 58.3882 18.1189C58.3882 18.1569 58.3755 18.1877 58.3502 18.2112C58.3248 18.2348 58.2914 18.2465 58.2497 18.2465H57.1638V18.9062H57.943C57.9846 18.9062 58.0181 18.9189 58.0434 18.9442C58.0687 18.9678 58.0814 18.9985 58.0814 19.0365C58.0814 19.0745 58.0687 19.1062 58.0434 19.1315C58.0181 19.1551 57.9846 19.1668 57.943 19.1668H57.1638V19.8455H58.2497C58.2914 19.8455 58.3248 19.8573 58.3502 19.8808C58.3755 19.9043 58.3882 19.9351 58.3882 19.9731C58.3882 20.0129 58.3755 20.0455 58.3502 20.0708C58.3248 20.0944 58.2914 20.1061 58.2497 20.1061H57.0227Z" fill="#7A828D"/>
<path d="M47.2052 3.74542C47.399 3.74542 47.5499 3.91396 47.5285 4.10659L47.4829 4.5154C47.4746 4.59061 47.4447 4.66191 47.3969 4.72058L43.2308 9.8336C43.1736 9.9038 43.1424 9.99164 43.1424 10.0822V14.9585C43.1424 15.1215 43.0102 15.2536 42.8473 15.2536C42.6843 15.2536 42.5522 15.1215 42.5522 14.9585V10.0822C42.5522 9.99164 42.5209 9.9038 42.4637 9.8336L38.2976 4.72058C38.2498 4.66191 38.2199 4.59061 38.2115 4.5154L38.166 4.10659C38.1446 3.91396 38.2955 3.74542 38.4893 3.74542C38.6689 3.74544 38.8145 3.89108 38.8145 4.07067V4.11159C38.8145 4.32021 38.8857 4.52263 39.0164 4.68523L42.7605 9.34237C42.8166 9.41224 42.8473 9.49921 42.8473 9.58885C42.8473 9.49922 42.8778 9.41224 42.934 9.34237L46.678 4.68523C46.8087 4.52263 46.8801 4.32021 46.8801 4.11159V4.07067C46.8801 3.89109 47.0256 3.74545 47.2052 3.74542Z" fill="#7A828D" stroke="#7A828D" stroke-width="0.196721"/>
</g>
<defs>
<clipPath id="clip0_5037_2786">
<rect width="59.6066" height="24" fill="white"/>
</clipPath>
</defs>
</svg>
