<svg width="25" height="22" viewBox="0 0 25 22" fill="none" xmlns="http://www.w3.org/2000/svg">
<path d="M14.0115 6.42597L20.0288 0.438053C20.1904 0.276469 20.3886 0.194511 20.6233 0.192178C20.8582 0.190039 21.0623 0.275692 21.2358 0.449136C21.3973 0.610719 21.4781 0.81372 21.4781 1.05814C21.4781 1.30275 21.3973 1.50584 21.2358 1.66743L14.7497 8.15351C14.5387 8.36448 14.2926 8.46997 14.0115 8.46997C13.7303 8.46997 13.4842 8.36448 13.2733 8.15351L10.083 4.96326C9.90957 4.78982 9.82391 4.58487 9.82605 4.34843C9.82839 4.11218 9.92007 3.90733 10.1011 3.73389C10.2745 3.5723 10.4794 3.49034 10.7156 3.48801C10.9521 3.48587 11.157 3.57153 11.3305 3.74497L14.0115 6.42597ZM15.1178 20.0357C15.1551 20.0507 15.1887 20.0582 15.2187 20.0582C15.2486 20.0582 15.2823 20.0507 15.3196 20.0357L22.1828 17.9109C22.1229 17.6463 21.9988 17.4433 21.8103 17.3019C21.6217 17.1606 21.4108 17.0899 21.1774 17.0899H15.4654C14.9554 17.0899 14.5224 17.0704 14.1663 17.0316C13.8103 16.9927 13.4446 16.9074 13.0691 16.7758L11.2386 16.1767C11.0022 16.1018 10.8327 15.9523 10.7302 15.7281C10.6277 15.5037 10.6139 15.2733 10.6888 15.0368C10.7637 14.808 10.9083 14.6394 11.1228 14.5311C11.3375 14.4226 11.563 14.4058 11.7995 14.4806L13.3161 15.0123C13.6691 15.1245 14.0639 15.2042 14.5006 15.2512C14.9373 15.2983 15.5042 15.3278 16.2013 15.3399H16.5108C16.5108 15.0511 16.4457 14.8021 16.3156 14.5926C16.1856 14.3832 16.0143 14.2419 15.802 14.1686L9.03301 11.6827C9.01065 11.6753 8.99004 11.6697 8.97118 11.6661C8.95251 11.6622 8.932 11.6602 8.90964 11.6602H6.7513V17.6732L15.1178 20.0357ZM14.6622 21.7498L6.7513 19.4816C6.61811 19.9646 6.34734 20.3523 5.93901 20.6447C5.53068 20.9372 5.09843 21.0834 4.64226 21.0834H3.02701C2.44523 21.0834 1.94823 20.8774 1.53601 20.4653C1.12398 20.0531 0.917969 19.5561 0.917969 18.9743V12.0193C0.917969 11.4375 1.12398 10.9406 1.53601 10.5286C1.94823 10.1165 2.44523 9.91051 3.02701 9.91051H8.89826C9.01959 9.91051 9.14268 9.92315 9.26751 9.94843C9.39234 9.9739 9.5094 10.0061 9.61868 10.045L16.4166 12.5489C16.946 12.7447 17.3858 13.0913 17.7358 13.5887C18.0858 14.0861 18.2608 14.6698 18.2608 15.3399H21.1774C22.0151 15.3399 22.6976 15.6103 23.2249 16.151C23.7521 16.6916 24.0156 17.3934 24.0156 18.2566C24.0156 18.5871 23.9281 18.8533 23.7531 19.0551C23.5781 19.2572 23.3134 19.4172 22.9589 19.5352L15.8805 21.7318C15.6889 21.7946 15.4878 21.8278 15.277 21.8315C15.066 21.8354 14.8611 21.8082 14.6622 21.7498ZM2.66797 18.9743C2.66797 19.0792 2.70161 19.1652 2.76889 19.2325C2.83616 19.2997 2.9222 19.3334 3.02701 19.3334H4.64226C4.74707 19.3334 4.83311 19.3054 4.90039 19.2494C4.96766 19.1932 5.0013 19.1015 5.0013 18.9743V11.6602H3.02701C2.9222 11.6602 2.83616 11.694 2.76889 11.7614C2.70161 11.8287 2.66797 11.9147 2.66797 12.0193V18.9743Z" fill="#3276F5"/>
</svg>
