<svg width="26" height="18" viewBox="0 0 26 18" fill="none" xmlns="http://www.w3.org/2000/svg">
<path d="M19.475 6.11928L23.8007 1.77578C23.9742 1.60234 24.1802 1.51562 24.4188 1.51562C24.6573 1.51562 24.8671 1.60234 25.0482 1.77578C25.229 1.94923 25.3176 2.15709 25.3139 2.39937C25.3102 2.64164 25.2216 2.8496 25.0482 3.02324L20.2132 7.84682C20.0022 8.0578 19.7562 8.16328 19.475 8.16328C19.1938 8.16328 18.9478 8.0578 18.7368 7.84682L16.381 5.49103C16.2076 5.31759 16.119 5.11342 16.1153 4.87853C16.1116 4.64384 16.2002 4.43598 16.381 4.25495C16.5574 4.0815 16.763 3.99478 16.9979 3.99478C17.2328 3.99478 17.437 4.0815 17.6107 4.25495L19.475 6.11928ZM9.5 8.64103C8.37708 8.64103 7.41585 8.24125 6.61629 7.4417C5.81654 6.64195 5.41667 5.68062 5.41667 4.5577C5.41667 3.43478 5.81654 2.47355 6.61629 1.67399C7.41585 0.87424 8.37708 0.474365 9.5 0.474365C10.6229 0.474365 11.5842 0.87424 12.3837 1.67399C13.1835 2.47355 13.5833 3.43478 13.5833 4.5577C13.5833 5.68062 13.1835 6.64195 12.3837 7.4417C11.5842 8.24125 10.6229 8.64103 9.5 8.64103ZM0.75 15.7533V14.932C0.75 14.3607 0.905167 13.8316 1.2155 13.3447C1.52583 12.8579 1.94058 12.4835 2.45975 12.2218C3.61281 11.6566 4.77607 11.2326 5.94954 10.9499C7.12301 10.6671 8.3065 10.5258 9.5 10.5258C10.6935 10.5258 11.877 10.6671 13.0505 10.9499C14.2239 11.2326 15.3872 11.6566 16.5402 12.2218C17.0594 12.4835 17.4742 12.8579 17.7845 13.3447C18.0948 13.8316 18.25 14.3607 18.25 14.932V15.7533C18.25 16.2453 18.0776 16.6637 17.7329 17.0087C17.3881 17.3534 16.9697 17.5258 16.4775 17.5258H2.52246C2.03032 17.5258 1.61188 17.3534 1.26713 17.0087C0.922375 16.6637 0.75 16.2453 0.75 15.7533ZM2.5 15.7758H16.5V14.932C16.5 14.6957 16.4316 14.477 16.2947 14.2757C16.1578 14.0747 15.972 13.9106 15.7373 13.7834C14.732 13.2884 13.7071 12.9133 12.6625 12.6582C11.6178 12.4032 10.5636 12.2758 9.5 12.2758C8.43639 12.2758 7.38221 12.4032 6.33746 12.6582C5.2929 12.9133 4.26799 13.2884 3.26271 13.7834C3.02801 13.9106 2.84222 14.0747 2.70533 14.2757C2.56844 14.477 2.5 14.6957 2.5 14.932V15.7758ZM9.5 6.89103C10.1417 6.89103 10.691 6.66256 11.1479 6.20562C11.6049 5.74867 11.8333 5.19937 11.8333 4.5577C11.8333 3.91603 11.6049 3.36673 11.1479 2.90978C10.691 2.45284 10.1417 2.22437 9.5 2.22437C8.85833 2.22437 8.30903 2.45284 7.85208 2.90978C7.39514 3.36673 7.16667 3.91603 7.16667 4.5577C7.16667 5.19937 7.39514 5.74867 7.85208 6.20562C8.30903 6.66256 8.85833 6.89103 9.5 6.89103Z" fill="#3276F5"/>
</svg>
