<svg width="28" height="28" viewBox="0 0 28 28" fill="none" xmlns="http://www.w3.org/2000/svg">
<path d="M11.6891 18.4648H16.3109C16.6097 18.4648 16.8602 18.3637 17.0622 18.1615C17.2642 17.9595 17.3653 17.709 17.3653 17.4102V13.9551C17.3653 13.6564 17.2642 13.406 17.0622 13.2038C16.8602 13.0017 16.6097 12.9007 16.3109 12.9007H16.21V11.7341C16.21 11.1223 15.9965 10.603 15.5695 10.176C15.1425 9.74878 14.623 9.53518 14.0111 9.53518C13.3994 9.53518 12.88 9.74878 12.453 10.176C12.026 10.603 11.8125 11.1223 11.8125 11.7341V12.9007H11.6891C11.3903 12.9007 11.1398 13.0017 10.9378 13.2038C10.7358 13.406 10.6347 13.6564 10.6347 13.9551V17.4102C10.6347 17.709 10.7358 17.9595 10.9378 18.1615C11.1398 18.3637 11.3903 18.4648 11.6891 18.4648ZM12.8444 12.9007V11.7341C12.8444 11.4035 12.9562 11.1264 13.1798 10.9028C13.4034 10.6792 13.6805 10.5674 14.0111 10.5674C14.3416 10.5674 14.6187 10.6792 14.8423 10.9028C15.0659 11.1264 15.1778 11.4035 15.1778 11.7341V12.9007H12.8444ZM14 24.9328C13.8789 24.9328 13.76 24.9231 13.6433 24.9037C13.5266 24.8842 13.4137 24.8551 13.3044 24.8162C10.8441 23.9412 8.8866 22.3898 7.43196 20.1621C5.97732 17.9341 5.25 15.5301 5.25 12.95V7.69563C5.25 7.2525 5.37746 6.85359 5.63238 6.49893C5.8871 6.14445 6.21658 5.8875 6.62083 5.72805L13.2618 3.24889C13.5117 3.15905 13.7577 3.11414 14 3.11414C14.2423 3.11414 14.4883 3.15905 14.7382 3.24889L21.3792 5.72805C21.7834 5.8875 22.1129 6.14445 22.3676 6.49893C22.6225 6.85359 22.75 7.2525 22.75 7.69563V12.95C22.75 15.5301 22.0227 17.9341 20.568 20.1621C19.1134 22.3898 17.1559 23.9412 14.6956 24.8162C14.5863 24.8551 14.4734 24.8842 14.3567 24.9037C14.24 24.9231 14.1211 24.9328 14 24.9328ZM14 23.2167C16.0222 22.575 17.6944 21.2917 19.0167 19.3667C20.3389 17.4417 21 15.3028 21 12.95V7.68426C21 7.60959 20.9794 7.54232 20.9382 7.48243C20.8971 7.42254 20.8392 7.37762 20.7643 7.34768L14.1234 4.86851C14.086 4.85354 14.0449 4.84605 14 4.84605C13.9551 4.84605 13.914 4.85354 13.8766 4.86851L7.23567 7.34768C7.16081 7.37762 7.10286 7.42254 7.06183 7.48243C7.02061 7.54232 7 7.60959 7 7.68426V12.95C7 15.3028 7.66111 17.4417 8.98333 19.3667C10.3056 21.2917 11.9778 22.575 14 23.2167Z" fill="#3276F5"/>
</svg>
