<svg width="465" height="360" viewBox="0 0 465 360" fill="none" xmlns="http://www.w3.org/2000/svg">
<g filter="url(#filter0_dddd_3293_8915)">
<rect x="20" y="10" width="376" height="300" rx="10" fill="white"/>
<rect x="19.4577" y="9.45769" width="377.085" height="301.085" rx="10.5423" stroke="#E5E6EC" stroke-width="1.08462"/>
<rect x="33.6302" y="25.51" width="349.06" height="79.06" rx="7.05" fill="white"/>
<rect x="33.6302" y="25.51" width="349.06" height="79.06" rx="7.05" stroke="#E5E6EC" stroke-width="0.94"/>
<rect x="48.1992" y="40.0798" width="49.82" height="49.82" rx="7.52" fill="#F3F5F9"/>
<g clip-path="url(#clip0_3293_8915)">
<path d="M83.7608 54.3816C83.6296 54.2503 83.4499 54.1763 83.2654 54.1801C83.1847 54.1811 81.2592 54.2122 78.721 54.8408C76.3643 55.4245 73.0173 56.6577 70.4565 59.2185C70.1589 59.5163 69.8799 59.8249 69.6169 60.1411C67.5405 59.8593 65.5449 60.4425 63.7962 61.8545C62.3054 63.0581 61.5226 64.4385 61.4901 64.4967C61.4332 64.5983 61.403 64.7126 61.4024 64.829C61.4017 64.9455 61.4305 65.0602 61.4861 65.1624C61.5419 65.2646 61.6227 65.351 61.7209 65.4136C61.8191 65.4761 61.9316 65.5127 62.0478 65.5199L65.9539 65.7638L64.8836 66.8341C64.7545 66.9631 64.682 67.1382 64.682 67.3207C64.682 67.5033 64.7545 67.6783 64.8836 67.8074L65.4246 68.3484C65.4172 68.3558 65.4093 68.363 65.4019 68.3704C63.082 70.6904 63.0101 74.2851 63.0082 74.4371C63.007 74.5282 63.024 74.6186 63.058 74.7031C63.0921 74.7876 63.1426 74.8645 63.2066 74.9293C63.2706 74.9942 63.3469 75.0457 63.4309 75.0808C63.515 75.1159 63.6052 75.134 63.6963 75.134H63.7051C63.8571 75.1321 67.4518 75.0601 69.7717 72.7402C69.7792 72.7328 69.7864 72.725 69.7937 72.7174L70.3348 73.2586C70.4639 73.3876 70.6389 73.4601 70.8215 73.4601C71.004 73.4601 71.179 73.3876 71.3081 73.2586L72.3784 72.1882L72.6223 76.0944C72.6295 76.2106 72.6661 76.3231 72.7287 76.4213C72.7912 76.5195 72.8777 76.6002 72.9799 76.6559C73.0821 76.7116 73.1968 76.7405 73.3132 76.7398C73.4296 76.7391 73.5439 76.709 73.6455 76.6521C73.7037 76.6194 75.0841 75.8367 76.2877 74.346C77.6998 72.5971 78.2831 70.6017 78.0013 68.5253C78.3174 68.2624 78.6261 67.9833 78.9237 67.6857C81.4847 65.1249 82.7178 61.778 83.3014 59.4212C83.93 56.8832 83.9612 54.9575 83.9622 54.8767C83.9633 54.7849 83.9461 54.6938 83.9116 54.6088C83.877 54.5237 83.8257 54.4465 83.7608 54.3816ZM66.3435 67.3208L67.5191 66.1452L71.9969 70.6231L70.8213 71.7987L66.3435 67.3208ZM66.3751 69.3439C66.3827 69.3364 66.3901 69.3289 66.3977 69.3216L68.8206 71.7447L68.7984 71.767C67.4605 73.1049 65.5173 73.5447 64.4538 73.6886C64.5977 72.6245 65.0376 70.6817 66.3751 69.3439ZM73.135 69.8145L68.3276 65.0071C69.0117 63.3339 70.0006 61.6211 71.4298 60.1918C73.3333 58.2884 75.7412 57.1824 77.7461 56.5455L81.5967 60.3963C80.9599 62.401 79.854 64.809 77.9504 66.7124C76.5039 68.1589 74.7658 69.1448 73.135 69.8145H73.135ZM82.0095 58.9084L79.2339 56.1327C80.6272 55.8004 81.82 55.6591 82.5429 55.5994C82.4832 56.3224 82.3419 57.5152 82.0095 58.9083V58.9084ZM64.695 62.898C65.922 61.9183 67.2468 61.4331 68.6493 61.446C67.994 62.4371 67.4759 63.4643 67.0675 64.4542L63.3641 64.223C63.6933 63.8201 64.1394 63.3417 64.695 62.898ZM75.2444 73.4472C74.8004 74.0028 74.3221 74.4491 73.9192 74.7782L73.688 71.0747C74.6779 70.6661 75.7051 70.1482 76.6962 69.4929C76.7093 70.8955 76.2241 72.2204 75.2444 73.4472Z" fill="#3276F5"/>
<path d="M77.8178 60.3226C77.2942 59.7988 76.5978 59.5105 75.8574 59.5105C75.1167 59.5105 74.4203 59.7988 73.8967 60.3226C72.8157 61.4036 72.8157 63.1625 73.8967 64.2436C74.4203 64.7674 75.1167 65.0559 75.8574 65.0559C76.5978 65.0559 77.294 64.7674 77.8178 64.2436C78.3415 63.7201 78.6299 63.0236 78.6299 62.2832C78.6299 61.5426 78.3415 60.8462 77.8178 60.3226ZM76.8445 63.2703C76.5808 63.5342 76.2302 63.6792 75.8574 63.6792C75.4844 63.6792 75.1338 63.5342 74.8699 63.2705C74.3257 62.726 74.3257 61.8403 74.8699 61.2959C75.1338 61.0322 75.4844 60.887 75.8574 60.887C76.2302 60.887 76.5808 61.0322 76.8445 61.2959C77.1081 61.5596 77.2534 61.9102 77.2534 62.2832C77.2534 62.6562 77.1081 63.0066 76.8445 63.2703Z" fill="#3276F5"/>
</g>
<path d="M113.916 69.9897V69.5686C113.916 65.2371 119.165 65.5379 119.165 63.0864C119.165 62.0787 118.563 61.4771 117.48 61.4771C116.292 61.4771 115.706 62.0937 115.525 63.1165H113.886C114.141 61.2665 115.42 60.1235 117.495 60.1235C119.676 60.1235 120.789 61.4169 120.789 63.0713C120.789 66.0944 116.232 66.1997 115.57 68.7414H120.864V69.9897H113.916ZM126.056 70.1853C123.634 70.1853 122.236 68.3203 122.236 65.1619C122.236 61.9283 123.664 60.1235 126.056 60.1235C128.462 60.1235 129.861 61.9885 129.861 65.1619C129.861 68.3955 128.432 70.1853 126.056 70.1853ZM126.056 68.8166C127.454 68.8166 128.221 67.5232 128.221 65.1619C128.221 62.8157 127.439 61.4921 126.056 61.4921C124.657 61.4921 123.875 62.7856 123.875 65.1619C123.875 67.4781 124.657 68.8166 126.056 68.8166ZM131.728 65.8237V64.5603H134.075V62.2141H135.368V64.5603H137.699V65.8237H135.368V68.1849H134.075V65.8237H131.728ZM149.885 69.9897L149.012 67.6886H144.35L143.477 69.9897H141.793L145.733 59.7625H147.704L151.644 69.9897H149.885ZM146.38 62.3795L144.861 66.3651H148.501L146.982 62.3795L146.681 61.3869L146.38 62.3795ZM153.005 69.9897V59.7625H154.689V69.9897H153.005ZM166.614 69.9897L165.741 67.6886H161.079L160.207 69.9897H158.522L162.463 59.7625H164.433L168.373 69.9897H166.614ZM163.109 62.3795L161.59 66.3651H165.23L163.711 62.3795L163.41 61.3869L163.109 62.3795ZM172.281 70.0349C170.236 70.0349 169.002 68.4707 169.002 65.9139C169.002 63.2368 170.266 61.7629 172.281 61.7629C173.304 61.7629 174.071 62.1238 174.582 62.8157V61.9734H176.191V70.2454C176.191 72.4413 174.733 73.5091 172.807 73.5091C170.882 73.5091 169.499 72.6067 169.213 70.7417H170.822C170.973 71.7043 171.74 72.2157 172.792 72.2157C173.86 72.2157 174.582 71.6592 174.582 70.2755V68.9219C174.041 69.6589 173.259 70.0349 172.281 70.0349ZM172.612 68.6813C173.89 68.6813 174.582 67.7037 174.582 65.8989C174.582 64.1392 173.86 63.1165 172.612 63.1165C171.334 63.1165 170.642 64.0941 170.642 65.9139C170.642 67.6736 171.349 68.6813 172.612 68.6813ZM185.261 67.3728C184.825 69.2377 183.441 70.1853 181.561 70.1853C179.2 70.1853 177.756 68.6061 177.756 65.9891C177.756 63.2669 179.2 61.7629 181.486 61.7629C183.802 61.7629 185.201 63.327 185.201 65.8989V66.2899H179.395C179.486 67.9293 180.253 68.8467 181.561 68.8467C182.584 68.8467 183.306 68.3654 183.577 67.3728H185.261ZM181.486 63.1014C180.328 63.1014 179.636 63.8384 179.441 65.192H183.531C183.336 63.8384 182.629 63.1014 181.486 63.1014ZM186.813 69.9897V61.9734H188.422V63.0413C188.963 62.184 189.806 61.7629 190.843 61.7629C192.513 61.7629 193.551 62.7405 193.551 64.6355V69.9897H191.956V64.9664C191.956 63.8083 191.445 63.1014 190.347 63.1014C189.144 63.1014 188.422 64.1693 188.422 65.2822V69.9897H186.813ZM195.718 67.5984V63.2217H194.635V61.9734H195.718V60.1235H197.328V61.9734H199.057V63.2217H197.328V67.5081C197.328 68.4256 197.583 68.8617 198.711 68.8617H199.027V70.0349C198.847 70.1251 198.471 70.1853 198.019 70.1853C196.455 70.1853 195.718 69.328 195.718 67.5984ZM201.545 64.079C201.545 66.1245 206.674 64.4099 206.674 67.6736C206.674 69.1926 205.305 70.1853 203.365 70.1853C201.425 70.1853 200.056 69.2829 199.755 67.3728H201.364C201.53 68.3805 202.282 68.9369 203.41 68.9369C204.493 68.9369 205.064 68.4557 205.064 67.7789C205.064 65.7785 200.011 67.463 200.011 64.1693C200.011 62.9209 200.988 61.7629 203.019 61.7629C204.809 61.7629 206.132 62.5901 206.388 64.5904H204.779C204.598 63.4624 203.966 63.0413 202.944 63.0413C202.056 63.0413 201.545 63.4774 201.545 64.079ZM214.099 70.1853C211.979 70.1853 210.7 68.6061 210.7 65.9891C210.7 63.2669 212.009 61.7629 214.099 61.7629C215.017 61.7629 215.769 62.1389 216.28 62.8758V59.1609H217.889V69.9897H216.28V69.0121C215.769 69.7641 215.017 70.1853 214.099 70.1853ZM214.31 68.8317C215.588 68.8317 216.28 67.839 216.28 65.9891C216.28 64.1542 215.558 63.1165 214.31 63.1165C213.031 63.1165 212.34 64.1392 212.34 65.9891C212.34 67.8089 213.061 68.8317 214.31 68.8317ZM226.944 67.3728C226.508 69.2377 225.124 70.1853 223.244 70.1853C220.883 70.1853 219.439 68.6061 219.439 65.9891C219.439 63.2669 220.883 61.7629 223.169 61.7629C225.485 61.7629 226.884 63.327 226.884 65.8989V66.2899H221.079C221.169 67.9293 221.936 68.8467 223.244 68.8467C224.267 68.8467 224.989 68.3654 225.26 67.3728H226.944ZM223.169 63.1014C222.011 63.1014 221.319 63.8384 221.124 65.192H225.215C225.019 63.8384 224.312 63.1014 223.169 63.1014ZM230.105 73.2985H228.496V61.9734H230.105V62.936C230.617 62.184 231.369 61.7629 232.286 61.7629C234.407 61.7629 235.685 63.3421 235.685 65.959C235.685 68.6813 234.377 70.1853 232.286 70.1853C231.369 70.1853 230.617 69.8093 230.105 69.0723V73.2985ZM232.09 63.1165C230.797 63.1165 230.105 64.1241 230.105 65.959C230.105 67.7939 230.827 68.8317 232.09 68.8317C233.354 68.8317 234.046 67.8089 234.046 65.959C234.046 64.1392 233.324 63.1165 232.09 63.1165ZM237.25 69.9897V59.1609H238.859V69.9897H237.25ZM244.158 70.1853C241.827 70.1853 240.413 68.6061 240.413 65.9891C240.413 63.2669 241.872 61.7629 244.158 61.7629C246.489 61.7629 247.903 63.3721 247.903 65.9891C247.903 68.6963 246.444 70.1853 244.158 70.1853ZM244.158 68.8317C245.527 68.8317 246.264 67.839 246.264 65.9891C246.264 64.1542 245.512 63.1165 244.158 63.1165C242.804 63.1165 242.052 64.1241 242.052 65.9891C242.052 67.8089 242.804 68.8317 244.158 68.8317ZM249.762 73.4941C249.416 73.4941 249.055 73.4038 248.875 73.3437V72.1104H249.311C250.228 72.1104 250.574 71.9299 251.266 70.2605L251.507 69.704L248.288 61.9734H250.018L252.003 66.9667L252.349 68.0646L252.695 66.9667L254.62 61.9734H256.259L252.62 70.9222C251.808 72.9225 251.191 73.4941 249.762 73.4941ZM264.294 67.3728C263.858 69.2377 262.475 70.1853 260.595 70.1853C258.233 70.1853 256.79 68.6061 256.79 65.9891C256.79 63.2669 258.233 61.7629 260.519 61.7629C262.836 61.7629 264.234 63.327 264.234 65.8989V66.2899H258.429C258.519 67.9293 259.286 68.8467 260.595 68.8467C261.617 68.8467 262.339 68.3654 262.61 67.3728H264.294ZM260.519 63.1014C259.361 63.1014 258.67 63.8384 258.474 65.192H262.565C262.369 63.8384 261.662 63.1014 260.519 63.1014ZM268.854 70.1853C266.734 70.1853 265.455 68.6061 265.455 65.9891C265.455 63.2669 266.764 61.7629 268.854 61.7629C269.772 61.7629 270.524 62.1389 271.035 62.8758V59.1609H272.644V69.9897H271.035V69.0121C270.524 69.7641 269.772 70.1853 268.854 70.1853ZM269.065 68.8317C270.343 68.8317 271.035 67.839 271.035 65.9891C271.035 64.1542 270.313 63.1165 269.065 63.1165C267.786 63.1165 267.095 64.1392 267.095 65.9891C267.095 67.8089 267.816 68.8317 269.065 68.8317ZM277.537 60.9808V59.1609H279.147V60.9808H277.537ZM277.537 69.9897V61.9734H279.147V69.9897H277.537ZM281.092 69.9897V61.9734H282.701V63.0413C283.243 62.184 284.085 61.7629 285.123 61.7629C286.792 61.7629 287.83 62.7405 287.83 64.6355V69.9897H286.235V64.9664C286.235 63.8083 285.724 63.1014 284.626 63.1014C283.423 63.1014 282.701 64.1693 282.701 65.2822V69.9897H281.092ZM294.348 73.2985H292.739V61.9734H294.348V62.936C294.86 62.184 295.612 61.7629 296.529 61.7629C298.65 61.7629 299.928 63.3421 299.928 65.959C299.928 68.6813 298.62 70.1853 296.529 70.1853C295.612 70.1853 294.86 69.8093 294.348 69.0723V73.2985ZM296.334 63.1165C295.04 63.1165 294.348 64.1241 294.348 65.959C294.348 67.7939 295.07 68.8317 296.334 68.8317C297.597 68.8317 298.289 67.8089 298.289 65.959C298.289 64.1392 297.567 63.1165 296.334 63.1165ZM301.493 69.9897V61.9734H303.102V63.1616C303.628 62.199 304.456 61.7629 305.388 61.7629C305.704 61.7629 306.005 61.8381 306.155 61.9734V63.3872C305.915 63.312 305.629 63.2819 305.298 63.2819C303.764 63.2819 303.102 64.2144 303.102 65.6131V69.9897H301.493ZM310.457 70.1853C308.126 70.1853 306.712 68.6061 306.712 65.9891C306.712 63.2669 308.171 61.7629 310.457 61.7629C312.788 61.7629 314.202 63.3721 314.202 65.9891C314.202 68.6963 312.743 70.1853 310.457 70.1853ZM310.457 68.8317C311.826 68.8317 312.563 67.839 312.563 65.9891C312.563 64.1542 311.811 63.1165 310.457 63.1165C309.104 63.1165 308.352 64.1241 308.352 65.9891C308.352 67.8089 309.104 68.8317 310.457 68.8317ZM318.777 70.1853C316.656 70.1853 315.378 68.6061 315.378 65.9891C315.378 63.2669 316.686 61.7629 318.777 61.7629C319.694 61.7629 320.446 62.1389 320.958 62.8758V59.1609H322.567V69.9897H320.958V69.0121C320.446 69.7641 319.694 70.1853 318.777 70.1853ZM318.988 68.8317C320.266 68.8317 320.958 67.839 320.958 65.9891C320.958 64.1542 320.236 63.1165 318.988 63.1165C317.709 63.1165 317.017 64.1392 317.017 65.9891C317.017 67.8089 317.739 68.8317 318.988 68.8317ZM329.561 66.6659V61.9734H331.156V69.9897H329.561V68.9069C329.035 69.7641 328.193 70.1853 327.17 70.1853C325.531 70.1853 324.508 69.2227 324.508 67.3277V61.9734H326.117V66.9968C326.117 68.1549 326.599 68.8467 327.666 68.8467C328.84 68.8467 329.561 67.7789 329.561 66.6659ZM339.898 64.7709H338.289C338.093 63.6278 337.356 63.1165 336.424 63.1165C335.085 63.1165 334.363 64.1392 334.363 65.9891C334.363 67.8089 335.115 68.8467 336.469 68.8467C337.431 68.8467 338.108 68.3203 338.349 67.2976H339.943C339.597 69.2979 338.214 70.1853 336.439 70.1853C334.123 70.1853 332.724 68.591 332.724 65.9891C332.724 63.2669 334.153 61.7629 336.424 61.7629C338.214 61.7629 339.627 62.7705 339.898 64.7709ZM341.653 67.5984V63.2217H340.57V61.9734H341.653V60.1235H343.263V61.9734H344.992V63.2217H343.263V67.5081C343.263 68.4256 343.518 68.8617 344.646 68.8617H344.962V70.0349C344.782 70.1251 344.406 70.1853 343.954 70.1853C342.39 70.1853 341.653 69.328 341.653 67.5984ZM346.202 60.9808V59.1609H347.811V60.9808H346.202ZM346.202 69.9897V61.9734H347.811V69.9897H346.202ZM353.11 70.1853C350.779 70.1853 349.365 68.6061 349.365 65.9891C349.365 63.2669 350.824 61.7629 353.11 61.7629C355.441 61.7629 356.855 63.3721 356.855 65.9891C356.855 68.6963 355.396 70.1853 353.11 70.1853ZM353.11 68.8317C354.478 68.8317 355.215 67.839 355.215 65.9891C355.215 64.1542 354.463 63.1165 353.11 63.1165C351.756 63.1165 351.004 64.1241 351.004 65.9891C351.004 67.8089 351.756 68.8317 353.11 68.8317ZM358.421 69.9897V61.9734H360.031V63.0413C360.572 62.184 361.414 61.7629 362.452 61.7629C364.122 61.7629 365.159 62.7405 365.159 64.6355V69.9897H363.565V64.9664C363.565 63.8083 363.054 63.1014 361.956 63.1014C360.753 63.1014 360.031 64.1693 360.031 65.2822V69.9897H358.421Z" fill="#333333"/>
<rect x="33.6302" y="120.55" width="348.74" height="79.06" rx="7.05" fill="white"/>
<rect x="33.6302" y="120.55" width="348.74" height="79.06" rx="7.05" stroke="#E5E6EC" stroke-width="0.94"/>
<rect x="48.1992" y="135.12" width="49.82" height="49.82" rx="7.52" fill="#F3F5F9"/>
<g clip-path="url(#clip1_3293_8915)">
<mask id="mask0_3293_8915" style="mask-type:luminance" maskUnits="userSpaceOnUse" x="61" y="149" width="23" height="23">
<path d="M83.2139 171.075V149.926H62.0645V171.075H83.2139Z" fill="white" stroke="white" stroke-width="1.41"/>
</mask>
<g mask="url(#mask0_3293_8915)">
<path d="M70.2264 149.881H76.3053L73.2807 156.747H79.4679L70.237 171.119L72.6758 161.303H65.8086L70.2264 149.881Z" stroke="#3276F5" stroke-width="1.41" stroke-miterlimit="10" stroke-linecap="round" stroke-linejoin="round"/>
</g>
</g>
<path d="M124.117 161.796C124.117 163.782 122.854 165.226 120.478 165.226C118.297 165.226 116.958 164.113 116.688 162.263H118.297C118.462 163.255 119.169 163.872 120.463 163.872C121.816 163.872 122.508 163.105 122.508 161.827C122.508 160.759 121.997 159.706 120.448 159.706C119.425 159.706 118.838 160.157 118.507 160.653L117.064 160.518L117.364 155.359H123.651V156.623H118.658L118.507 159.014C119.049 158.623 119.696 158.367 120.583 158.367C123.125 158.367 124.117 159.962 124.117 161.796ZM129.008 165.226C126.586 165.226 125.188 163.361 125.188 160.202C125.188 156.969 126.617 155.164 129.008 155.164C131.414 155.164 132.813 157.029 132.813 160.202C132.813 163.436 131.384 165.226 129.008 165.226ZM129.008 163.857C130.407 163.857 131.174 162.563 131.174 160.202C131.174 157.856 130.392 156.532 129.008 156.532C127.609 156.532 126.827 157.826 126.827 160.202C126.827 162.518 127.609 163.857 129.008 163.857ZM135.929 160.623C134.455 160.623 133.583 159.631 133.583 157.901C133.583 156.156 134.47 155.164 135.929 155.164C137.403 155.164 138.275 156.187 138.275 157.901C138.275 159.631 137.403 160.623 135.929 160.623ZM135.192 165.03L141.96 155.359H143.464L136.711 165.03H135.192ZM135.929 159.54C136.591 159.54 136.952 158.969 136.952 157.901C136.952 156.848 136.591 156.262 135.929 156.262C135.267 156.262 134.921 156.833 134.921 157.901C134.921 158.954 135.282 159.54 135.929 159.54ZM142.712 165.165C141.238 165.165 140.366 164.158 140.366 162.443C140.366 160.699 141.253 159.691 142.712 159.691C144.186 159.691 145.058 160.714 145.058 162.443C145.058 164.173 144.201 165.165 142.712 165.165ZM142.712 164.083C143.374 164.083 143.735 163.511 143.735 162.443C143.735 161.375 143.374 160.789 142.712 160.789C142.065 160.789 141.704 161.375 141.704 162.443C141.704 163.496 142.065 164.083 142.712 164.083ZM148.34 158.262V157.014H149.423V156.593C149.423 154.848 150.16 154.006 151.664 154.006C152.07 154.006 152.385 154.081 152.551 154.156V155.239H152.401C151.288 155.239 151.017 155.69 151.017 156.608V157.014H152.551V158.262H151.017V165.03H149.423V158.262H148.34ZM155.065 159.631H153.455C153.711 157.856 154.929 156.803 156.93 156.803C159.11 156.803 160.193 158.082 160.193 159.947V163.075C160.193 164.037 160.283 164.594 160.464 165.03H158.779C158.659 164.729 158.614 164.308 158.599 163.857C157.922 164.804 156.884 165.226 155.922 165.226C154.298 165.226 153.185 164.459 153.185 162.924C153.185 161.827 153.786 161.014 154.989 160.608C156.057 160.247 157.14 160.157 158.584 160.142V159.962C158.584 158.788 158.043 158.157 156.809 158.157C155.771 158.157 155.215 158.728 155.065 159.631ZM154.809 162.864C154.809 163.541 155.365 163.962 156.223 163.962C157.561 163.962 158.584 162.894 158.584 161.601V161.24C155.501 161.27 154.809 161.947 154.809 162.864ZM163.49 159.119C163.49 161.165 168.618 159.45 168.618 162.714C168.618 164.233 167.25 165.226 165.309 165.226C163.369 165.226 162.001 164.323 161.7 162.413H163.309C163.475 163.421 164.227 163.977 165.355 163.977C166.437 163.977 167.009 163.496 167.009 162.819C167.009 160.819 161.956 162.503 161.956 159.21C161.956 157.961 162.933 156.803 164.964 156.803C166.753 156.803 168.077 157.63 168.332 159.631H166.723C166.543 158.503 165.911 158.082 164.888 158.082C164.001 158.082 163.49 158.518 163.49 159.119ZM170.294 162.639V158.262H169.211V157.014H170.294V155.164H171.904V157.014H173.633V158.262H171.904V162.548C171.904 163.466 172.159 163.902 173.287 163.902H173.603V165.075C173.423 165.165 173.047 165.226 172.595 165.226C171.031 165.226 170.294 164.368 170.294 162.639ZM181.956 162.413C181.52 164.278 180.137 165.226 178.257 165.226C175.895 165.226 174.451 163.646 174.451 161.029C174.451 158.307 175.895 156.803 178.181 156.803C180.497 156.803 181.896 158.367 181.896 160.939V161.33H176.091C176.181 162.97 176.948 163.887 178.257 163.887C179.279 163.887 180.001 163.406 180.272 162.413H181.956ZM178.181 158.142C177.023 158.142 176.331 158.879 176.136 160.232H180.227C180.031 158.879 179.324 158.142 178.181 158.142ZM183.508 165.03V157.014H185.117V158.202C185.644 157.239 186.471 156.803 187.403 156.803C187.719 156.803 188.02 156.878 188.17 157.014V158.427C187.93 158.352 187.644 158.322 187.313 158.322C185.779 158.322 185.117 159.255 185.117 160.653V165.03H183.508ZM195.105 165.075C193.06 165.075 191.827 163.511 191.827 160.954C191.827 158.277 193.09 156.803 195.105 156.803C196.128 156.803 196.895 157.164 197.407 157.856V157.014H199.016V165.286C199.016 167.482 197.557 168.549 195.632 168.549C193.707 168.549 192.323 167.647 192.037 165.782H193.647C193.797 166.745 194.564 167.256 195.617 167.256C196.685 167.256 197.407 166.699 197.407 165.316V163.962C196.865 164.699 196.083 165.075 195.105 165.075ZM195.436 163.722C196.715 163.722 197.407 162.744 197.407 160.939C197.407 159.179 196.685 158.157 195.436 158.157C194.158 158.157 193.466 159.134 193.466 160.954C193.466 162.714 194.173 163.722 195.436 163.722ZM204.325 165.226C201.994 165.226 200.58 163.646 200.58 161.029C200.58 158.307 202.039 156.803 204.325 156.803C206.657 156.803 208.07 158.412 208.07 161.029C208.07 163.737 206.612 165.226 204.325 165.226ZM204.325 163.872C205.694 163.872 206.431 162.879 206.431 161.029C206.431 159.195 205.679 158.157 204.325 158.157C202.972 158.157 202.22 159.164 202.22 161.029C202.22 162.849 202.972 163.872 204.325 163.872ZM209.607 161.616V160.247H213.653V161.616H209.607ZM215.811 162.639V158.262H214.728V157.014H215.811V155.164H217.42V157.014H219.15V158.262H217.42V162.548C217.42 163.466 217.676 163.902 218.804 163.902H219.12V165.075C218.939 165.165 218.563 165.226 218.112 165.226C216.548 165.226 215.811 164.368 215.811 162.639ZM223.713 165.226C221.382 165.226 219.968 163.646 219.968 161.029C219.968 158.307 221.427 156.803 223.713 156.803C226.044 156.803 227.458 158.412 227.458 161.029C227.458 163.737 225.999 165.226 223.713 165.226ZM223.713 163.872C225.082 163.872 225.819 162.879 225.819 161.029C225.819 159.195 225.067 158.157 223.713 158.157C222.359 158.157 221.607 159.164 221.607 161.029C221.607 162.849 222.359 163.872 223.713 163.872ZM228.995 161.616V160.247H233.04V161.616H228.995ZM234.988 165.03V157.014H236.597V158.036C237.108 157.209 237.906 156.803 238.853 156.803C239.921 156.803 240.718 157.269 241.109 158.187C241.635 157.269 242.508 156.803 243.561 156.803C245.14 156.803 246.162 157.781 246.162 159.676V165.03H244.553V160.007C244.553 158.849 244.117 158.142 243.124 158.142C242.042 158.142 241.38 159.21 241.38 160.323V165.03H239.77V160.007C239.77 158.849 239.319 158.142 238.342 158.142C237.259 158.142 236.597 159.21 236.597 160.323V165.03H234.988ZM249.637 159.631H248.028C248.284 157.856 249.502 156.803 251.502 156.803C253.683 156.803 254.766 158.082 254.766 159.947V163.075C254.766 164.037 254.856 164.594 255.037 165.03H253.352C253.232 164.729 253.187 164.308 253.172 163.857C252.495 164.804 251.457 165.226 250.495 165.226C248.87 165.226 247.757 164.459 247.757 162.924C247.757 161.827 248.359 161.014 249.562 160.608C250.63 160.247 251.713 160.157 253.157 160.142V159.962C253.157 158.788 252.615 158.157 251.382 158.157C250.344 158.157 249.788 158.728 249.637 159.631ZM249.382 162.864C249.382 163.541 249.938 163.962 250.795 163.962C252.134 163.962 253.157 162.894 253.157 161.601V161.24C250.074 161.27 249.382 161.947 249.382 162.864ZM256.784 165.03V157.014H258.393V158.202C258.92 157.239 259.747 156.803 260.679 156.803C260.995 156.803 261.296 156.878 261.446 157.014V158.427C261.206 158.352 260.92 158.322 260.589 158.322C259.055 158.322 258.393 159.255 258.393 160.653V165.03H256.784ZM262.542 165.03V154.201H264.151V160.413L267.339 157.014H269.264L265.805 160.578L269.475 165.03H267.475L264.151 161.029V165.03H262.542ZM277.117 162.413C276.681 164.278 275.297 165.226 273.417 165.226C271.056 165.226 269.612 163.646 269.612 161.029C269.612 158.307 271.056 156.803 273.342 156.803C275.658 156.803 277.057 158.367 277.057 160.939V161.33H271.251C271.341 162.97 272.108 163.887 273.417 163.887C274.44 163.887 275.161 163.406 275.432 162.413H277.117ZM273.342 158.142C272.184 158.142 271.492 158.879 271.296 160.232H275.387C275.192 158.879 274.485 158.142 273.342 158.142ZM278.879 162.639V158.262H277.796V157.014H278.879V155.164H280.488V157.014H282.218V158.262H280.488V162.548C280.488 163.466 280.744 163.902 281.872 163.902H282.188V165.075C282.007 165.165 281.631 165.226 281.18 165.226C279.616 165.226 278.879 164.368 278.879 162.639Z" fill="#333333"/>
<rect x="33.6302" y="215.59" width="348.74" height="79.06" rx="7.05" fill="white"/>
<rect x="33.6302" y="215.59" width="348.74" height="79.06" rx="7.05" stroke="#E5E6EC" stroke-width="0.94"/>
<rect x="48.1992" y="230.16" width="49.82" height="49.82" rx="7.52" fill="#F3F5F9"/>
<g clip-path="url(#clip2_3293_8915)">
<mask id="mask1_3293_8915" style="mask-type:luminance" maskUnits="userSpaceOnUse" x="61" y="244" width="23" height="23">
<path d="M83.2139 266.115V244.966H62.0645V266.115H83.2139Z" fill="white" stroke="white" stroke-width="1.41"/>
</mask>
<g mask="url(#mask1_3293_8915)">
<path d="M62.0195 244.921V266.159H83.2576" stroke="#3276F5" stroke-width="1.41" stroke-miterlimit="10" stroke-linecap="round" stroke-linejoin="round"/>
<path d="M62.0195 266.159L64.8513 263.327H67.683L70.5148 256.248L73.3465 259.08L76.1782 252L79.01 254.832L81.8417 246.337" stroke="#3276F5" stroke-width="1.41" stroke-miterlimit="10" stroke-linecap="round" stroke-linejoin="round"/>
</g>
</g>
<path d="M114.157 250.07V239.843H121.21V241.196H115.841V244.114H120.639V245.453H115.841V248.716H121.21V250.07H114.157ZM122.819 250.07V242.054H124.429V243.122C124.97 242.264 125.812 241.843 126.85 241.843C128.519 241.843 129.557 242.821 129.557 244.716V250.07H127.963V245.047C127.963 243.889 127.452 243.182 126.354 243.182C125.151 243.182 124.429 244.25 124.429 245.363V250.07H122.819ZM131.725 247.679V243.302H130.642V242.054H131.725V240.204H133.334V242.054H135.064V243.302H133.334V247.588C133.334 248.506 133.59 248.942 134.718 248.942H135.034V250.115C134.853 250.205 134.477 250.266 134.026 250.266C132.462 250.266 131.725 249.408 131.725 247.679ZM143.387 247.453C142.951 249.318 141.567 250.266 139.687 250.266C137.326 250.266 135.882 248.686 135.882 246.069C135.882 243.347 137.326 241.843 139.612 241.843C141.928 241.843 143.327 243.407 143.327 245.979V246.37H137.521C137.612 248.01 138.379 248.927 139.687 248.927C140.71 248.927 141.432 248.446 141.703 247.453H143.387ZM139.612 243.182C138.454 243.182 137.762 243.919 137.567 245.272H141.657C141.462 243.919 140.755 243.182 139.612 243.182ZM144.939 250.07V242.054H146.548V243.242C147.074 242.279 147.902 241.843 148.834 241.843C149.15 241.843 149.451 241.918 149.601 242.054V243.468C149.36 243.392 149.075 243.362 148.744 243.362C147.21 243.362 146.548 244.295 146.548 245.693V250.07H144.939ZM152.305 253.379H150.696V242.054H152.305V243.016C152.817 242.264 153.569 241.843 154.486 241.843C156.607 241.843 157.885 243.422 157.885 246.039C157.885 248.762 156.577 250.266 154.486 250.266C153.569 250.266 152.817 249.89 152.305 249.153V253.379ZM154.291 243.197C152.997 243.197 152.305 244.204 152.305 246.039C152.305 247.874 153.027 248.912 154.291 248.912C155.554 248.912 156.246 247.889 156.246 246.039C156.246 244.22 155.524 243.197 154.291 243.197ZM159.45 250.07V242.054H161.059V243.242C161.586 242.279 162.413 241.843 163.345 241.843C163.661 241.843 163.962 241.918 164.112 242.054V243.468C163.872 243.392 163.586 243.362 163.255 243.362C161.721 243.362 161.059 244.295 161.059 245.693V250.07H159.45ZM165.207 241.061V239.241H166.817V241.061H165.207ZM165.207 250.07V242.054H166.817V250.07H165.207ZM170.04 244.159C170.04 246.205 175.169 244.49 175.169 247.754C175.169 249.273 173.8 250.266 171.86 250.266C169.92 250.266 168.551 249.363 168.25 247.453H169.86C170.025 248.461 170.777 249.017 171.905 249.017C172.988 249.017 173.56 248.536 173.56 247.859C173.56 245.859 168.506 247.543 168.506 244.25C168.506 243.001 169.484 241.843 171.514 241.843C173.304 241.843 174.627 242.67 174.883 244.671H173.274C173.093 243.543 172.462 243.122 171.439 243.122C170.552 243.122 170.04 243.558 170.04 244.159ZM183.748 247.453C183.312 249.318 181.928 250.266 180.048 250.266C177.687 250.266 176.243 248.686 176.243 246.069C176.243 243.347 177.687 241.843 179.973 241.843C182.289 241.843 183.688 243.407 183.688 245.979V246.37H177.883C177.973 248.01 178.74 248.927 180.048 248.927C181.071 248.927 181.793 248.446 182.064 247.453H183.748ZM179.973 243.182C178.815 243.182 178.123 243.919 177.928 245.272H182.019C181.823 243.919 181.116 243.182 179.973 243.182ZM185.27 246.656V245.287H189.316V246.656H185.27ZM194.151 250.115C192.105 250.115 190.872 248.551 190.872 245.994C190.872 243.317 192.135 241.843 194.151 241.843C195.173 241.843 195.941 242.204 196.452 242.896V242.054H198.061V250.326C198.061 252.522 196.602 253.589 194.677 253.589C192.752 253.589 191.368 252.687 191.083 250.822H192.692C192.842 251.785 193.609 252.296 194.662 252.296C195.73 252.296 196.452 251.74 196.452 250.356V249.002C195.91 249.739 195.128 250.115 194.151 250.115ZM194.482 248.762C195.76 248.762 196.452 247.784 196.452 245.979C196.452 244.22 195.73 243.197 194.482 243.197C193.203 243.197 192.511 244.174 192.511 245.994C192.511 247.754 193.218 248.762 194.482 248.762ZM200.017 250.07V242.054H201.626V243.242C202.152 242.279 202.98 241.843 203.912 241.843C204.228 241.843 204.529 241.918 204.679 242.054V243.468C204.439 243.392 204.153 243.362 203.822 243.362C202.288 243.362 201.626 244.295 201.626 245.693V250.07H200.017ZM207.176 244.671H205.567C205.822 242.896 207.04 241.843 209.041 241.843C211.222 241.843 212.304 243.122 212.304 244.987V248.115C212.304 249.077 212.395 249.634 212.575 250.07H210.891C210.77 249.769 210.725 249.348 210.71 248.897C210.033 249.844 208.996 250.266 208.033 250.266C206.409 250.266 205.296 249.499 205.296 247.964C205.296 246.867 205.897 246.054 207.101 245.648C208.168 245.287 209.251 245.197 210.695 245.182V245.002C210.695 243.828 210.154 243.197 208.92 243.197C207.883 243.197 207.326 243.768 207.176 244.671ZM206.92 247.904C206.92 248.581 207.477 249.002 208.334 249.002C209.672 249.002 210.695 247.934 210.695 246.641V246.28C207.612 246.31 206.92 246.987 206.92 247.904ZM217.33 250.266C215.21 250.266 213.931 248.686 213.931 246.069C213.931 243.347 215.24 241.843 217.33 241.843C218.248 241.843 219 242.219 219.511 242.956V239.241H221.121V250.07H219.511V249.092C219 249.844 218.248 250.266 217.33 250.266ZM217.541 248.912C218.819 248.912 219.511 247.919 219.511 246.069C219.511 244.235 218.789 243.197 217.541 243.197C216.263 243.197 215.571 244.22 215.571 246.069C215.571 247.889 216.293 248.912 217.541 248.912ZM230.175 247.453C229.739 249.318 228.356 250.266 226.476 250.266C224.114 250.266 222.67 248.686 222.67 246.069C222.67 243.347 224.114 241.843 226.4 241.843C228.717 241.843 230.115 243.407 230.115 245.979V246.37H224.31C224.4 248.01 225.167 248.927 226.476 248.927C227.498 248.927 228.22 248.446 228.491 247.453H230.175ZM226.4 243.182C225.242 243.182 224.55 243.919 224.355 245.272H228.446C228.25 243.919 227.543 243.182 226.4 243.182ZM234.679 250.07V242.054H236.289V243.242C236.815 242.279 237.642 241.843 238.575 241.843C238.891 241.843 239.191 241.918 239.342 242.054V243.468C239.101 243.392 238.815 243.362 238.484 243.362C236.95 243.362 236.289 244.295 236.289 245.693V250.07H234.679ZM247.404 247.453C246.968 249.318 245.584 250.266 243.704 250.266C241.343 250.266 239.899 248.686 239.899 246.069C239.899 243.347 241.343 241.843 243.629 241.843C245.945 241.843 247.344 243.407 247.344 245.979V246.37H241.538C241.628 248.01 242.396 248.927 243.704 248.927C244.727 248.927 245.449 248.446 245.719 247.453H247.404ZM243.629 243.182C242.471 243.182 241.779 243.919 241.583 245.272H245.674C245.479 243.919 244.772 243.182 243.629 243.182ZM248.956 250.07V239.241H250.565V250.07H248.956ZM252.51 241.061V239.241H254.119V241.061H252.51ZM252.51 250.07V242.054H254.119V250.07H252.51ZM257.583 244.671H255.974C256.23 242.896 257.448 241.843 259.448 241.843C261.629 241.843 262.712 243.122 262.712 244.987V248.115C262.712 249.077 262.802 249.634 262.983 250.07H261.298C261.178 249.769 261.133 249.348 261.118 248.897C260.441 249.844 259.403 250.266 258.441 250.266C256.816 250.266 255.703 249.499 255.703 247.964C255.703 246.867 256.305 246.054 257.508 245.648C258.576 245.287 259.659 245.197 261.103 245.182V245.002C261.103 243.828 260.561 243.197 259.328 243.197C258.29 243.197 257.734 243.768 257.583 244.671ZM257.328 247.904C257.328 248.581 257.884 249.002 258.741 249.002C260.08 249.002 261.103 247.934 261.103 246.641V246.28C258.02 246.31 257.328 246.987 257.328 247.904ZM266.339 250.07H264.73V239.241H266.339V242.986C266.851 242.249 267.603 241.843 268.52 241.843C270.626 241.843 271.904 243.422 271.904 246.039C271.904 248.762 270.596 250.266 268.52 250.266C267.603 250.266 266.851 249.89 266.339 249.168V250.07ZM268.309 243.197C267.016 243.197 266.339 244.204 266.339 246.039C266.339 247.874 267.046 248.912 268.309 248.912C269.573 248.912 270.265 247.904 270.265 246.039C270.265 244.22 269.558 243.197 268.309 243.197ZM273.469 241.061V239.241H275.078V241.061H273.469ZM273.469 250.07V242.054H275.078V250.07H273.469ZM277.023 250.07V239.241H278.633V250.07H277.023ZM280.578 241.061V239.241H282.187V241.061H280.578ZM280.578 250.07V242.054H282.187V250.07H280.578ZM284.343 247.679V243.302H283.26V242.054H284.343V240.204H285.952V242.054H287.682V243.302H285.952V247.588C285.952 248.506 286.208 248.942 287.336 248.942H287.651V250.115C287.471 250.205 287.095 250.266 286.644 250.266C285.08 250.266 284.343 249.408 284.343 247.679ZM289.462 253.574C289.116 253.574 288.756 253.484 288.575 253.424V252.191H289.011C289.929 252.191 290.275 252.01 290.966 250.341L291.207 249.784L287.988 242.054H289.718L291.703 247.047L292.049 248.145L292.395 247.047L294.32 242.054H295.96L292.32 251.003C291.508 253.003 290.891 253.574 289.462 253.574ZM299.063 243.302V242.054H300.146V241.633C300.146 239.888 300.883 239.046 302.387 239.046C302.793 239.046 303.109 239.121 303.274 239.196V240.279H303.124C302.011 240.279 301.74 240.73 301.74 241.648V242.054H303.274V243.302H301.74V250.07H300.146V243.302H299.063ZM304.269 250.07V242.054H305.878V243.242C306.404 242.279 307.232 241.843 308.164 241.843C308.48 241.843 308.781 241.918 308.931 242.054V243.468C308.69 243.392 308.405 243.362 308.074 243.362C306.54 243.362 305.878 244.295 305.878 245.693V250.07H304.269ZM313.233 250.266C310.902 250.266 309.488 248.686 309.488 246.069C309.488 243.347 310.947 241.843 313.233 241.843C315.564 241.843 316.978 243.452 316.978 246.069C316.978 248.777 315.519 250.266 313.233 250.266ZM313.233 248.912C314.602 248.912 315.339 247.919 315.339 246.069C315.339 244.235 314.587 243.197 313.233 243.197C311.88 243.197 311.128 244.204 311.128 246.069C311.128 247.889 311.88 248.912 313.233 248.912ZM318.545 250.07V242.054H320.154V243.076C320.666 242.249 321.463 241.843 322.41 241.843C323.478 241.843 324.275 242.309 324.666 243.227C325.193 242.309 326.065 241.843 327.118 241.843C328.697 241.843 329.72 242.821 329.72 244.716V250.07H328.11V245.047C328.11 243.889 327.674 243.182 326.682 243.182C325.599 243.182 324.937 244.25 324.937 245.363V250.07H323.328V245.047C323.328 243.889 322.876 243.182 321.899 243.182C320.816 243.182 320.154 244.25 320.154 245.363V250.07H318.545ZM337.636 250.266C335.515 250.266 334.237 248.686 334.237 246.069C334.237 243.347 335.545 241.843 337.636 241.843C338.553 241.843 339.305 242.219 339.817 242.956V239.241H341.426V250.07H339.817V249.092C339.305 249.844 338.553 250.266 337.636 250.266ZM337.846 248.912C339.125 248.912 339.817 247.919 339.817 246.069C339.817 244.235 339.095 243.197 337.846 243.197C336.568 243.197 335.876 244.22 335.876 246.069C335.876 247.889 336.598 248.912 337.846 248.912ZM344.886 244.671H343.277C343.532 242.896 344.751 241.843 346.751 241.843C348.932 241.843 350.015 243.122 350.015 244.987V248.115C350.015 249.077 350.105 249.634 350.285 250.07H348.601C348.48 249.769 348.435 249.348 348.42 248.897C347.743 249.844 346.706 250.266 345.743 250.266C344.119 250.266 343.006 249.499 343.006 247.964C343.006 246.867 343.607 246.054 344.811 245.648C345.879 245.287 346.961 245.197 348.405 245.182V245.002C348.405 243.828 347.864 243.197 346.631 243.197C345.593 243.197 345.036 243.768 344.886 244.671ZM344.63 247.904C344.63 248.581 345.187 249.002 346.044 249.002C347.383 249.002 348.405 247.934 348.405 246.641V246.28C345.322 246.31 344.63 246.987 344.63 247.904ZM352.384 253.574C352.038 253.574 351.677 253.484 351.496 253.424V252.191H351.932C352.85 252.191 353.196 252.01 353.888 250.341L354.128 249.784L350.91 242.054H352.639L354.625 247.047L354.971 248.145L355.316 247.047L357.242 242.054H358.881L355.241 251.003C354.429 253.003 353.812 253.574 352.384 253.574ZM117.39 270.266C115.059 270.266 113.645 268.686 113.645 266.069C113.645 263.347 115.104 261.843 117.39 261.843C119.721 261.843 121.135 263.452 121.135 266.069C121.135 268.777 119.676 270.266 117.39 270.266ZM117.39 268.912C118.759 268.912 119.496 267.919 119.496 266.069C119.496 264.235 118.744 263.197 117.39 263.197C116.037 263.197 115.285 264.204 115.285 266.069C115.285 267.889 116.037 268.912 117.39 268.912ZM122.702 270.07V262.054H124.311V263.122C124.853 262.264 125.695 261.843 126.733 261.843C128.402 261.843 129.44 262.821 129.44 264.716V270.07H127.845V265.047C127.845 263.889 127.334 263.182 126.236 263.182C125.033 263.182 124.311 264.25 124.311 265.363V270.07H122.702ZM138.511 267.453C138.075 269.318 136.691 270.266 134.811 270.266C132.45 270.266 131.006 268.686 131.006 266.069C131.006 263.347 132.45 261.843 134.736 261.843C137.052 261.843 138.451 263.407 138.451 265.979V266.37H132.645C132.735 268.01 133.502 268.927 134.811 268.927C135.834 268.927 136.556 268.446 136.826 267.453H138.511ZM134.736 263.182C133.578 263.182 132.886 263.919 132.69 265.272H136.781C136.586 263.919 135.879 263.182 134.736 263.182Z" fill="#333333"/>
</g>
<defs>
<filter id="filter0_dddd_3293_8915" x="0.114063" y="0.455283" width="464.652" height="446.929" filterUnits="userSpaceOnUse" color-interpolation-filters="sRGB">
<feFlood flood-opacity="0" result="BackgroundImageFix"/>
<feColorMatrix in="SourceAlpha" type="matrix" values="0 0 0 0 0 0 0 0 0 0 0 0 0 0 0 0 0 0 127 0" result="hardAlpha"/>
<feOffset dx="1.88" dy="5.64"/>
<feGaussianBlur stdDeviation="7.05"/>
<feColorMatrix type="matrix" values="0 0 0 0 0 0 0 0 0 0 0 0 0 0 0 0 0 0 0.17 0"/>
<feBlend mode="normal" in2="BackgroundImageFix" result="effect1_dropShadow_3293_8915"/>
<feColorMatrix in="SourceAlpha" type="matrix" values="0 0 0 0 0 0 0 0 0 0 0 0 0 0 0 0 0 0 127 0" result="hardAlpha"/>
<feOffset dx="6.58" dy="24.44"/>
<feGaussianBlur stdDeviation="12.69"/>
<feColorMatrix type="matrix" values="0 0 0 0 0 0 0 0 0 0 0 0 0 0 0 0 0 0 0.15 0"/>
<feBlend mode="normal" in2="effect1_dropShadow_3293_8915" result="effect2_dropShadow_3293_8915"/>
<feColorMatrix in="SourceAlpha" type="matrix" values="0 0 0 0 0 0 0 0 0 0 0 0 0 0 0 0 0 0 127 0" result="hardAlpha"/>
<feOffset dx="15.98" dy="54.52"/>
<feGaussianBlur stdDeviation="16.92"/>
<feColorMatrix type="matrix" values="0 0 0 0 0 0 0 0 0 0 0 0 0 0 0 0 0 0 0.09 0"/>
<feBlend mode="normal" in2="effect2_dropShadow_3293_8915" result="effect3_dropShadow_3293_8915"/>
<feColorMatrix in="SourceAlpha" type="matrix" values="0 0 0 0 0 0 0 0 0 0 0 0 0 0 0 0 0 0 127 0" result="hardAlpha"/>
<feOffset dx="27.26" dy="95.88"/>
<feGaussianBlur stdDeviation="20.21"/>
<feColorMatrix type="matrix" values="0 0 0 0 0 0 0 0 0 0 0 0 0 0 0 0 0 0 0.03 0"/>
<feBlend mode="normal" in2="effect3_dropShadow_3293_8915" result="effect4_dropShadow_3293_8915"/>
<feBlend mode="normal" in="SourceGraphic" in2="effect4_dropShadow_3293_8915" result="shape"/>
</filter>
<clipPath id="clip0_3293_8915">
<rect width="22.56" height="22.56" fill="white" transform="translate(61.3594 54.1799)"/>
</clipPath>
<clipPath id="clip1_3293_8915">
<rect width="22.56" height="22.56" fill="white" transform="translate(61.3594 149.22)"/>
</clipPath>
<clipPath id="clip2_3293_8915">
<rect width="22.56" height="22.56" fill="white" transform="translate(61.3594 244.26)"/>
</clipPath>
</defs>
</svg>
