<svg width="24" height="24" viewBox="0 0 24 24" fill="none" xmlns="http://www.w3.org/2000/svg">
<path d="M10.095 16.1827C11.7882 16.1827 13.2261 15.5901 14.4087 14.405C15.5914 13.2198 16.1827 11.7807 16.1827 10.0877C16.1827 8.39456 15.5908 6.95506 14.407 5.76923C13.2232 4.5834 11.7857 3.99048 10.0945 3.99048C8.40333 3.99048 6.96475 4.58298 5.77875 5.76798C4.59292 6.95314 4 8.39231 4 10.0855C4 11.7785 4.59258 13.2179 5.77775 14.4037C6.96292 15.5897 8.402 16.1827 10.095 16.1827ZM9.0655 11.0942L7.5155 9.55973C7.36667 9.4109 7.19258 9.3349 6.99325 9.33173C6.79392 9.32856 6.61667 9.40456 6.4615 9.55973C6.3065 9.71473 6.22642 9.89031 6.22125 10.0865C6.21608 10.2826 6.29108 10.4583 6.44625 10.6135L8.41725 12.5845C8.59675 12.7653 8.80992 12.8557 9.05675 12.8557C9.30358 12.8557 9.51733 12.7653 9.698 12.5845L13.7365 8.55198C13.8852 8.40315 13.9612 8.22656 13.9645 8.02223C13.9677 7.81773 13.8917 7.6379 13.7365 7.48273C13.5813 7.32756 13.4032 7.24998 13.202 7.24998C13.0007 7.24998 12.8224 7.32756 12.6673 7.48273L9.0655 11.0942ZM10.0963 17.6827C7.98458 17.6827 6.19067 16.9446 4.7145 15.4682C3.23817 13.9919 2.5 12.198 2.5 10.0865C2.5 7.97498 3.23817 6.18106 4.7145 4.70473C6.19067 3.22856 7.98458 2.49048 10.0963 2.49048C12.2078 2.49048 14 3.22856 15.473 4.70473C16.9462 6.18106 17.6827 7.97498 17.6827 10.0865C17.6827 11.006 17.5321 11.8721 17.2308 12.6847C16.9294 13.4974 16.5089 14.2326 15.9693 14.8905L20.9827 19.9037C21.1314 20.0507 21.2057 20.2253 21.2057 20.4275C21.2057 20.6296 21.1308 20.8083 20.9807 20.9635C20.8306 21.1185 20.6523 21.196 20.446 21.196C20.2397 21.196 20.0589 21.1185 19.9038 20.9635L14.9 15.9595C14.2423 16.5056 13.5072 16.9294 12.6945 17.2307C11.8817 17.5321 11.0156 17.6827 10.0963 17.6827Z" fill="#3276F5"/>
</svg>
