<svg width="56" height="56" viewBox="0 0 56 56" fill="none" xmlns="http://www.w3.org/2000/svg">
<rect width="56" height="56" rx="28" fill="#F1F3F4"/>
<path fill-rule="evenodd" clip-rule="evenodd" d="M22.6746 27.0081L24.2637 22.2407H26.3192L27.9083 27.0081L32.6757 28.5972V30.6527L27.9083 32.2418L26.3192 37.0092H24.2637L22.6746 32.2418L17.9072 30.6527V28.5972L22.6746 27.0081ZM25.2915 26.0091L24.5588 28.2071L23.8736 28.8923L21.6756 29.625L23.8736 30.3577L24.5588 31.0428L25.2915 33.2408L26.0242 31.0428L26.7093 30.3577L28.9073 29.625L26.7093 28.8923L26.0242 28.2071L25.2915 26.0091Z" fill="#3276F5"/>
<path fill-rule="evenodd" clip-rule="evenodd" d="M32.4964 20.5799L33.3415 18.0444H34.5748L35.4199 20.5799L37.9554 21.425V22.6583L35.4199 23.5034L34.5748 26.0389H33.3415L32.4964 23.5034L29.9609 22.6583V21.425L32.4964 20.5799Z" fill="#3276F5"/>
</svg>
