<svg width="24" height="28" viewBox="0 0 24 28" fill="none" xmlns="http://www.w3.org/2000/svg">
<path d="M3.5 18.3861V14.875H2.25C2.0375 14.875 1.85942 14.7911 1.71575 14.6233C1.57192 14.4555 1.5 14.2476 1.5 13.9997C1.5 13.7516 1.57192 13.5438 1.71575 13.3764C1.85942 13.2088 2.0375 13.125 2.25 13.125H3.5V9.61392C3.5 8.74436 3.76267 8.00537 4.288 7.39696C4.8135 6.78835 5.4515 6.48404 6.202 6.48404H7.38475V6.125C7.38475 5.87708 7.45658 5.66932 7.60025 5.50171C7.74408 5.3339 7.92233 5.25 8.135 5.25C8.3475 5.25 8.52558 5.3339 8.66925 5.50171C8.81275 5.66932 8.8845 5.87708 8.8845 6.125V21.875C8.8845 22.1229 8.81267 22.3307 8.669 22.4983C8.52517 22.6661 8.34692 22.75 8.13425 22.75C7.92175 22.75 7.74367 22.6661 7.6 22.4983C7.4565 22.3307 7.38475 22.1229 7.38475 21.875V21.516H6.202C5.4515 21.516 4.8135 21.2117 4.288 20.603C3.76267 19.9946 3.5 19.2556 3.5 18.3861ZM6.202 19.766H7.38475V8.23404H6.202C5.86133 8.23404 5.57583 8.36831 5.3455 8.63683C5.11517 8.90517 5 9.23086 5 9.61392V18.3861C5 18.7691 5.11517 19.0948 5.3455 19.3632C5.57583 19.6317 5.86133 19.766 6.202 19.766ZM20.5 18.3861C20.5 19.2556 20.2373 19.9946 19.712 20.603C19.1865 21.2117 18.5485 21.516 17.798 21.516H16.6152V21.875C16.6152 22.1229 16.5434 22.3307 16.3997 22.4983C16.2559 22.6661 16.0777 22.75 15.865 22.75C15.6525 22.75 15.4744 22.6661 15.3307 22.4983C15.1873 22.3307 15.1155 22.1229 15.1155 21.875V18.2516H11.9905C11.778 18.2516 11.5998 18.1677 11.456 17.9999C11.3123 17.8321 11.2405 17.6243 11.2405 17.3763C11.2405 17.1282 11.3123 16.9204 11.456 16.7528C11.5998 16.5853 11.778 16.5016 11.9905 16.5016H15.1155V11.4984H11.9905C11.778 11.4984 11.5998 11.4145 11.456 11.2467C11.3123 11.0789 11.2405 10.871 11.2405 10.6231C11.2405 10.375 11.3123 10.1672 11.456 9.99979C11.5998 9.83218 11.778 9.74837 11.9905 9.74837H15.1155V6.125C15.1155 5.87708 15.1873 5.66932 15.331 5.50171C15.4748 5.3339 15.6531 5.25 15.8658 5.25C16.0782 5.25 16.2563 5.3339 16.4 5.50171C16.5435 5.66932 16.6152 5.87708 16.6152 6.125V6.48404H17.798C18.5485 6.48404 19.1865 6.78835 19.712 7.39696C20.2373 8.00537 20.5 8.74436 20.5 9.61392V13.125H21.75C21.9625 13.125 22.1406 13.2089 22.2843 13.3767C22.4281 13.5445 22.5 13.7524 22.5 14.0003C22.5 14.2484 22.4281 14.4562 22.2843 14.6236C22.1406 14.7912 21.9625 14.875 21.75 14.875H20.5V18.3861ZM16.6152 19.766H17.798C18.1387 19.766 18.4242 19.6317 18.6545 19.3632C18.8848 19.0948 19 18.7691 19 18.3861V9.61392C19 9.23086 18.8848 8.90517 18.6545 8.63683C18.4242 8.36831 18.1387 8.23404 17.798 8.23404H16.6152V19.766Z" fill="#3276F5"/>
</svg>
