<svg width="28" height="28" viewBox="0 0 28 28" fill="none" xmlns="http://www.w3.org/2000/svg">
<path d="M6.19107 23.9167C5.6093 23.9167 5.1123 23.7106 4.70007 23.2986C4.28805 22.8864 4.08203 22.3894 4.08203 21.8076V7.875C4.08203 7.67006 4.11081 7.47785 4.16836 7.29837C4.22592 7.1189 4.31984 6.95217 4.45011 6.79817L6.06099 4.85975C6.19107 4.69817 6.33982 4.57703 6.50724 4.49633C6.67485 4.41544 6.86113 4.375 7.06607 4.375H20.9313C21.1363 4.375 21.3225 4.41544 21.4902 4.49633C21.6576 4.57703 21.8063 4.69817 21.9364 4.85975L23.5473 6.79817C23.6776 6.95217 23.7715 7.1189 23.829 7.29837C23.8866 7.47785 23.9154 7.67006 23.9154 7.875V21.8076C23.9154 22.3894 23.7094 22.8864 23.2973 23.2986C22.8851 23.7106 22.3881 23.9167 21.8063 23.9167H6.19107ZM6.2987 7.29167H21.6987L20.707 6.125H7.29036L6.2987 7.29167ZM6.19107 22.1667H21.8063C21.9111 22.1667 21.9972 22.133 22.0644 22.0657C22.1317 21.9985 22.1654 21.9124 22.1654 21.8076V9.04167H5.83203V21.8076C5.83203 21.9124 5.86567 21.9985 5.93295 22.0657C6.00023 22.133 6.08627 22.1667 6.19107 22.1667ZM18.1584 15.75L16.3411 17.5674C16.1676 17.7408 16.079 17.9498 16.0751 18.1945C16.0714 18.4389 16.16 18.6516 16.3411 18.8326C16.5221 19.0137 16.733 19.1042 16.9737 19.1042C17.2144 19.1042 17.4253 19.0137 17.6063 18.8326L19.951 16.4882C20.1618 16.2772 20.2672 16.0312 20.2672 15.75C20.2672 15.4688 20.1618 15.2228 19.951 15.0118L17.6063 12.6674C17.4329 12.4939 17.2239 12.4053 16.9792 12.4014C16.7348 12.3977 16.5221 12.4863 16.3411 12.6674C16.16 12.8484 16.0695 13.0593 16.0695 13.3C16.0695 13.5407 16.16 13.7516 16.3411 13.9326L18.1584 15.75ZM9.89728 15.75L11.7147 13.9326C11.8881 13.7592 11.9768 13.5502 11.9807 13.3055C11.9844 13.0611 11.8957 12.8484 11.7147 12.6674C11.5336 12.4863 11.3228 12.3958 11.082 12.3958C10.8413 12.3958 10.6304 12.4863 10.4494 12.6674L8.1047 15.0118C7.89392 15.2228 7.78853 15.4688 7.78853 15.75C7.78853 16.0312 7.89392 16.2772 8.1047 16.4882L10.4494 18.8326C10.6229 19.0061 10.8319 19.0947 11.0765 19.0986C11.3209 19.1023 11.5336 19.0137 11.7147 18.8326C11.8957 18.6516 11.9862 18.4407 11.9862 18.2C11.9862 17.9593 11.8957 17.7484 11.7147 17.5674L9.89728 15.75Z" fill="#3276F5"/>
</svg>
