<svg width="352" height="267" viewBox="0 0 352 267" fill="none" xmlns="http://www.w3.org/2000/svg">
<g clip-path="url(#clip0_2001_112)">
<rect x="1" y="33.4014" width="340" height="121" rx="10.5688" transform="rotate(-5.46838 1 33.4014)" fill="white"/>
<path d="M21.518 67.3314L20.2219 53.7933L25.2987 53.3073C28.2254 53.0271 30.2217 54.3629 30.4505 56.752C30.5972 58.285 30.0033 59.4268 28.846 60.1403C29.6824 60.4822 30.1909 61.1769 30.6058 62.3627L32.01 66.3269L29.6607 66.5518L28.4976 63.0066C27.9906 61.488 27.3647 61.2465 25.8715 61.3894L23.2237 61.6429L23.7478 67.1179L21.518 67.3314ZM25.4105 55.1048L22.6233 55.3716L23.0521 59.8511L25.7996 59.5881C27.452 59.4299 28.3039 58.4643 28.1724 57.0906C28.0428 55.7368 27.0232 54.9504 25.4105 55.1048ZM42.7853 61.7995C42.4442 64.3235 40.7327 65.7531 38.2441 65.9913C35.1183 66.2906 33.007 64.3831 32.6753 60.9189C32.3304 57.3154 34.051 55.1415 37.0772 54.8518C40.1432 54.5583 42.1929 56.4516 42.5188 59.856L42.5684 60.3737L34.8835 61.1094C35.2107 63.268 36.3423 64.3853 38.0744 64.2194C39.4282 64.0898 40.3229 63.3613 40.5554 62.013L42.7853 61.7995ZM37.2468 56.6237C35.7138 56.7705 34.8914 57.8337 34.8041 59.6503L40.2194 59.1319C39.789 57.3648 38.7599 56.4789 37.2468 56.6237ZM48.9784 64.9637C46.1712 65.2324 44.2789 63.304 43.9472 59.8398C43.6023 56.2363 45.1437 54.0796 47.9111 53.8147C49.1255 53.6984 50.1686 54.1008 50.9389 55.0116L50.4682 50.0941L52.5984 49.8901L53.9707 64.2246L51.8404 64.4285L51.7166 63.1345C51.1349 64.1947 50.1929 64.8474 48.9784 64.9637ZM49.0856 63.1452C50.7779 62.9832 51.5679 61.5816 51.3335 59.1327C51.1009 56.7039 50.0138 55.4216 48.3614 55.5798C46.6691 55.7418 45.8829 57.1833 46.1173 59.6321C46.3479 62.0411 47.4332 63.3034 49.0856 63.1452ZM62.6092 58.9574L62.0145 52.7458L64.1249 52.5438L65.1407 63.1553L63.0304 63.3573L62.8931 61.9239C62.305 63.1254 61.2434 63.7896 59.8896 63.9192C57.7195 64.1269 56.2438 62.9823 56.0036 60.4738L55.3251 53.3862L57.4554 53.1823L58.0919 59.8319C58.2387 61.3649 58.9635 62.2197 60.377 62.0844C61.9299 61.9357 62.7502 60.4307 62.6092 58.9574ZM75.8527 55.1581L73.7224 55.362C73.3188 53.8737 72.2784 53.2902 71.0441 53.4083C69.2722 53.578 68.4461 55.0233 68.6806 57.4721C68.9112 59.8811 70.0381 61.1595 71.8299 60.9879C73.1041 60.866 73.9333 60.0834 74.1223 58.6991L76.2326 58.4971C76.0282 61.1888 74.309 62.5388 71.9598 62.7637C68.8938 63.0572 66.8402 61.1241 66.5105 57.6798C66.1655 54.0763 67.8663 51.9043 70.8725 51.6165C73.2417 51.3897 75.2408 52.5445 75.8527 55.1581ZM87.4451 57.5241C87.1041 60.0481 85.3926 61.4777 82.9039 61.7159C79.7782 62.0152 77.6668 60.1077 77.3352 56.6435C76.9902 53.04 78.7109 50.8661 81.7371 50.5764C84.8031 50.2829 86.8528 52.1762 87.1787 55.5807L87.2283 56.0983L79.5434 56.834C79.8706 58.9926 81.0022 60.1099 82.7343 59.944C84.0881 59.8144 84.9828 59.0859 85.2153 57.7376L87.4451 57.5241ZM81.9067 52.3483C80.3737 52.4951 79.5513 53.5583 79.464 55.3749L84.8792 54.8565C84.4489 53.0895 83.4198 52.2035 81.9067 52.3483ZM97.805 60.2894C94.7191 60.5849 92.6476 58.6736 92.3159 55.2094C91.971 51.6059 93.7115 49.4301 96.7377 49.1404C99.8236 48.845 101.899 50.7961 102.231 54.2603C102.574 57.8439 100.831 59.9997 97.805 60.2894ZM97.6335 58.4976C99.4452 58.3242 100.295 56.9168 100.061 54.468C99.828 52.0391 98.7011 50.7607 96.9092 50.9322C95.1174 51.1037 94.2497 52.5329 94.486 55.0017C94.7166 57.4106 95.8417 58.6692 97.6335 58.4976ZM107.162 63.5526L105.032 63.7565L103.597 48.7651L105.727 48.5611L105.849 49.8353C106.43 48.7751 107.373 48.1223 108.587 48.006C111.394 47.7373 113.287 49.6658 113.618 53.1299C113.963 56.7334 112.422 58.8902 109.654 59.1551C108.44 59.2713 107.397 58.8689 106.626 57.9582L107.162 63.5526ZM108.5 49.8226C106.788 49.9865 105.999 51.4081 106.232 53.837C106.464 56.2659 107.552 57.5481 109.224 57.388C110.896 57.2279 111.683 55.7865 111.448 53.3377C111.217 50.9287 110.132 49.6663 108.5 49.8226ZM125.086 53.9206C124.745 56.4446 123.034 57.8742 120.545 58.1125C117.419 58.4117 115.308 56.5042 114.976 53.0401C114.631 49.4365 116.352 47.2627 119.378 46.973C122.444 46.6795 124.494 48.5727 124.82 51.9772L124.869 52.4948L117.185 53.2305C117.512 55.3891 118.643 56.5064 120.375 56.3406C121.729 56.211 122.624 55.4824 122.857 54.1341L125.086 53.9206ZM119.548 48.7449C118.015 48.8916 117.192 49.9548 117.105 51.7714L122.52 51.253C122.09 49.486 121.061 48.6 119.548 48.7449ZM127.273 57.2072L126.257 46.5957L128.387 46.3918L128.538 47.9646C129.113 46.6237 130.152 45.9415 131.387 45.8234C131.805 45.7833 132.213 45.8448 132.429 46.0049L132.608 47.8763C132.28 47.8073 131.898 47.8037 131.46 47.8456C129.429 48.04 128.671 49.3582 128.849 51.2098L129.403 57.0033L127.273 57.2072ZM135.866 49.1717L133.736 49.3757C133.85 46.994 135.329 45.446 137.977 45.1925C140.863 44.9162 142.459 46.4712 142.695 48.9399L143.092 53.081C143.214 54.3551 143.404 55.0803 143.698 55.6348L141.468 55.8483C141.271 55.4654 141.158 54.9136 141.08 54.3183C140.305 55.6583 138.984 56.3473 137.71 56.4692C135.56 56.6751 133.989 55.8008 133.795 53.77C133.656 52.3167 134.349 51.1654 135.891 50.4753C137.258 49.8622 138.68 49.6055 140.59 49.4027L140.567 49.1637C140.418 47.6108 139.621 46.8433 137.989 46.9996C136.615 47.1311 135.951 47.9581 135.866 49.1717ZM135.938 53.4846C136.023 54.3805 136.813 54.8674 137.948 54.7588C139.72 54.5891 140.939 53.046 140.775 51.3338L140.729 50.856C136.651 51.2865 135.821 52.2701 135.938 53.4846ZM145.787 52.2403L145.233 46.4467L143.799 46.584L143.641 44.9315L145.074 44.7943L144.84 42.3455L146.97 42.1416L147.205 44.5904L149.494 44.3712L149.652 46.0236L147.363 46.2428L147.906 51.9169C148.022 53.1313 148.416 53.6763 149.909 53.5333L150.327 53.4933L150.476 55.0462C150.249 55.1885 149.758 55.3158 149.161 55.373C147.091 55.5712 146.006 54.5298 145.787 52.2403ZM150.77 42.923L150.54 40.514L152.67 40.3101L152.9 42.7191L150.77 42.923ZM151.912 54.8485L150.896 44.237L153.026 44.0331L154.042 54.6446L151.912 54.8485ZM160.882 54.2509C157.796 54.5463 155.725 52.635 155.393 49.1709C155.048 45.5674 156.789 43.3916 159.815 43.1019C162.901 42.8065 164.976 44.7576 165.308 48.2217C165.651 51.8053 163.908 53.9612 160.882 54.2509ZM160.711 52.4591C162.522 52.2857 163.372 50.8783 163.138 48.4295C162.905 46.0006 161.778 44.7222 159.986 44.8937C158.195 45.0652 157.327 46.4944 157.563 48.9631C157.794 51.3721 158.919 52.6306 160.711 52.4591ZM167.69 53.338L166.674 42.7265L168.804 42.5226L168.939 43.9362C169.548 42.7327 170.609 42.0685 171.983 41.937C174.193 41.7255 175.69 42.8881 175.93 45.3966L176.609 52.4842L174.499 52.6862L173.862 46.0366C173.715 44.5036 172.949 43.6327 171.495 43.7718C169.903 43.9243 169.082 45.4293 169.223 46.9026L169.82 53.1341L167.69 53.338ZM180.327 44.9154L178.197 45.1193C178.31 42.7377 179.79 41.1897 182.437 40.9362C185.324 40.6598 186.92 42.2149 187.156 44.6836L187.552 48.8246C187.674 50.0988 187.864 50.824 188.159 51.3785L185.929 51.592C185.731 51.209 185.618 50.6573 185.541 50.0619C184.765 51.402 183.445 52.0909 182.171 52.2129C180.021 52.4187 178.45 51.5444 178.256 49.5137C178.117 48.0604 178.81 46.909 180.351 46.219C181.719 45.6059 183.141 45.3492 185.051 45.1463L185.028 44.9074C184.879 43.3545 184.082 42.587 182.45 42.7432C181.076 42.8747 180.412 43.7018 180.327 44.9154ZM180.398 49.2282C180.484 50.1241 181.274 50.6111 182.409 50.5024C184.181 50.3328 185.399 48.7897 185.235 47.0775L185.19 46.5997C181.112 47.0302 180.282 48.0138 180.398 49.2282ZM190.272 51.1761L188.9 36.8417L191.03 36.6377L192.403 50.9722L190.272 51.1761ZM206.805 42.6217L204.675 42.8257C204.271 41.3374 203.23 40.7539 201.996 40.872C200.224 41.0416 199.398 42.4869 199.633 44.9357C199.863 47.3447 200.99 48.6232 202.782 48.4516C204.056 48.3296 204.885 47.5471 205.074 46.1628L207.185 45.9607C206.98 48.6525 205.261 50.0024 202.912 50.2273C199.846 50.5208 197.792 48.5877 197.463 45.1435C197.118 41.54 198.818 39.368 201.825 39.0802C204.194 38.8534 206.193 40.0081 206.805 42.6217ZM213.776 49.1872C210.69 49.4827 208.619 47.5714 208.287 44.1072C207.942 40.5037 209.683 38.3279 212.709 38.0382C215.795 37.7428 217.87 39.6939 218.202 43.1581C218.545 46.7417 216.803 48.8975 213.776 49.1872ZM213.605 47.3954C215.417 47.222 216.266 45.8146 216.032 43.3658C215.799 40.9369 214.672 39.6585 212.881 39.83C211.089 40.0016 210.221 41.4308 210.457 43.8995C210.688 46.3085 211.813 47.567 213.605 47.3954ZM221.527 40.2881C221.786 42.9958 228.358 40.0762 228.772 44.3965C228.964 46.4073 227.278 47.8947 224.71 48.1406C222.142 48.3864 220.216 47.3653 219.575 44.875L221.706 44.6711C222.052 45.984 223.118 46.6253 224.611 46.4824C226.045 46.3452 226.74 45.6357 226.655 44.7398C226.401 42.0919 219.925 44.9621 219.508 40.602C219.35 38.9495 220.497 37.2927 223.185 37.0354C225.554 36.8086 227.411 37.7358 228.003 40.3513L225.872 40.5553C225.49 39.085 224.601 38.6076 223.247 38.7372C222.072 38.8496 221.451 39.4918 221.527 40.2881ZM230.782 44.1036L230.227 38.3101L228.793 38.4473L228.635 36.7948L230.069 36.6576L229.834 34.2088L231.965 34.0049L232.199 36.4537L234.488 36.2345L234.647 37.887L232.357 38.1061L232.9 43.7802C233.017 44.9946 233.41 45.5396 234.904 45.3967L235.322 45.3566L235.47 46.9095C235.243 47.0519 234.753 47.1791 234.155 47.2363C232.085 47.4345 231.001 46.3931 230.782 44.1036ZM237.849 38.7256C238.108 41.4332 244.68 38.5136 245.094 42.8339C245.286 44.8447 243.6 46.3321 241.032 46.578C238.464 46.8239 236.538 45.8028 235.898 43.3124L238.028 43.1085C238.374 44.4214 239.44 45.0628 240.934 44.9198C242.367 44.7826 243.063 44.0731 242.977 43.1772C242.723 40.5293 236.247 43.3995 235.83 39.0394C235.672 37.387 236.819 35.7301 239.507 35.4728C241.876 35.246 243.733 36.1733 244.325 38.7888L242.195 38.9927C241.813 37.5224 240.923 37.045 239.569 37.1746C238.395 37.2871 237.773 37.9292 237.849 38.7256Z" fill="#313131"/>
<g filter="url(#filter0_i_2001_112)">
<g clip-path="url(#clip1_2001_112)">
<rect x="22.0519" y="88.2285" width="308.725" height="51.1264" rx="7.9266" transform="rotate(-5.46838 22.0519 88.2285)" fill="#F7F8FA" fill-opacity="0.35"/>
<g clip-path="url(#clip2_2001_112)">
<mask id="mask0_2001_112" style="mask-type:luminance" maskUnits="userSpaceOnUse" x="39" y="100" width="24" height="24">
<path d="M39.1903 102.108L60.7223 100.047L62.7836 121.579L41.2516 123.64L39.1903 102.108Z" fill="white"/>
</mask>
<g mask="url(#mask0_2001_112)">
<path fill-rule="evenodd" clip-rule="evenodd" d="M60.8576 104.233C61.0409 104.374 61.1559 104.579 61.1772 104.802C61.1985 105.024 61.1244 105.247 60.9712 105.42L53.2074 114.213C53.0541 114.387 52.8343 114.497 52.5963 114.52C52.3583 114.543 52.1216 114.476 51.9382 114.335L47.7396 111.099L42.188 117.387C42.0334 117.556 41.8148 117.662 41.5792 117.683C41.3437 117.703 41.1101 117.637 40.9288 117.497C40.7474 117.357 40.6329 117.156 40.6097 116.936C40.5866 116.716 40.6568 116.495 40.8051 116.321L46.9345 109.379C47.0877 109.206 47.3075 109.095 47.5456 109.072C47.7836 109.05 48.0203 109.116 48.2037 109.258L52.4023 112.493L59.5883 104.355C59.7416 104.181 59.9614 104.071 60.1994 104.048C60.4374 104.025 60.6742 104.092 60.8576 104.233Z" fill="#3276F5"/>
<path fill-rule="evenodd" clip-rule="evenodd" d="M53.3375 105.446C53.3188 105.251 53.4041 105.055 53.5745 104.899C53.7448 104.744 53.9864 104.643 54.2459 104.618L60.1183 104.056C60.3779 104.031 60.6342 104.085 60.8309 104.205C61.0277 104.325 61.1487 104.502 61.1673 104.696L61.5889 109.101C61.6076 109.295 61.5223 109.492 61.3519 109.647C61.1816 109.802 60.94 109.904 60.6805 109.928C60.4209 109.953 60.1645 109.9 59.9678 109.78C59.7711 109.66 59.6501 109.483 59.6315 109.288L59.2801 105.618L54.3865 106.086C54.1269 106.111 53.8706 106.058 53.6738 105.938C53.4771 105.817 53.3561 105.641 53.3375 105.446Z" fill="#3276F5"/>
</g>
</g>
<path d="M78.6526 115.725L76.6457 115.917L76.3919 113.266L70.7581 113.805L70.5889 112.038L75.7149 104.059L77.5192 103.887L78.2507 111.527L79.8893 111.37L80.0374 112.917L78.3988 113.074L78.6526 115.725ZM72.3223 112.095L76.2439 111.719L75.7504 106.564L72.3223 112.095ZM86.3745 115.227C83.4103 115.511 81.4795 113.392 81.1094 109.526C80.7304 105.567 82.268 103.19 85.1954 102.91C88.1412 102.628 90.072 104.747 90.4439 108.632C90.8228 112.59 89.2835 114.949 86.3745 115.227ZM86.2141 113.552C87.9264 113.388 88.7138 111.715 88.4371 108.824C88.1621 105.952 87.0496 104.424 85.3558 104.586C83.6435 104.75 82.8377 106.425 83.1162 109.334C83.3876 112.169 84.5019 113.716 86.2141 113.552ZM94.4916 108.765C92.6873 108.938 91.5031 107.825 91.3005 105.707C91.096 103.572 92.0659 102.253 93.8518 102.082C95.6561 101.909 96.8438 103.059 97.0448 105.157C97.2474 107.275 96.2959 108.592 94.4916 108.765ZM94.1059 114.246L101.258 101.614L103.099 101.438L95.9654 114.068L94.1059 114.246ZM94.3647 107.439C95.1748 107.362 95.5497 106.62 95.4246 105.313C95.3012 104.024 94.7906 103.348 93.9805 103.426C93.1704 103.503 92.8139 104.243 92.9391 105.55C93.0624 106.839 93.573 107.515 94.3647 107.439ZM103.327 113.53C101.523 113.703 100.337 112.571 100.136 110.473C99.9317 108.337 100.9 106.999 102.686 106.828C104.49 106.656 105.678 107.805 105.881 109.923C106.083 112.04 105.15 113.356 103.327 113.53ZM103.2 112.204C104.011 112.127 104.385 111.385 104.26 110.078C104.135 108.771 103.625 108.095 102.814 108.172C102.023 108.248 101.65 109.009 101.775 110.316C101.898 111.605 102.409 112.28 103.2 112.204Z" fill="#3276F5"/>
<path d="M116.526 112.099L115.414 100.474L117.328 100.291L118.292 110.36L123.917 109.822L124.066 111.378L116.526 112.099ZM126.999 104.903L125.17 105.078C125.267 103.033 126.538 101.704 128.811 101.486C131.29 101.249 132.66 102.584 132.863 104.704L133.204 108.26C133.308 109.354 133.472 109.977 133.724 110.453L131.809 110.636C131.64 110.307 131.543 109.834 131.477 109.322C130.81 110.473 129.677 111.065 128.582 111.17C126.736 111.346 125.388 110.595 125.221 108.852C125.101 107.604 125.697 106.615 127.02 106.022C128.195 105.496 129.416 105.276 131.055 105.101L131.036 104.896C130.908 103.563 130.224 102.904 128.822 103.038C127.642 103.151 127.072 103.861 126.999 104.903ZM127.06 108.607C127.134 109.376 127.812 109.794 128.787 109.701C130.308 109.555 131.355 108.23 131.214 106.76L131.175 106.349C127.673 106.719 126.961 107.564 127.06 108.607ZM136.691 103.389C136.914 105.714 142.557 103.207 142.912 106.916C143.078 108.643 141.63 109.92 139.424 110.132C137.219 110.343 135.565 109.466 135.015 107.327L136.845 107.152C137.142 108.28 138.058 108.83 139.34 108.708C140.571 108.59 141.168 107.981 141.094 107.211C140.877 104.937 135.316 107.402 134.957 103.658C134.821 102.239 135.807 100.816 138.115 100.595C140.149 100.401 141.744 101.197 142.252 103.443L140.423 103.618C140.095 102.355 139.331 101.945 138.168 102.057C137.16 102.153 136.626 102.705 136.691 103.389ZM144.98 106.632L144.504 101.657L143.273 101.775L143.137 100.356L144.368 100.238L144.167 98.1355L145.996 97.9604L146.197 100.063L148.163 99.875L148.299 101.294L146.333 101.482L146.8 106.355C146.899 107.397 147.238 107.865 148.52 107.743L148.879 107.708L149.006 109.042C148.811 109.164 148.39 109.273 147.877 109.322C146.099 109.493 145.168 108.598 144.98 106.632ZM154.108 108.502L153.236 99.3894L155.065 99.2143L155.176 100.377C155.668 99.3809 156.529 98.8325 157.606 98.7294C158.82 98.6132 159.777 99.0565 160.321 100.057C160.82 98.9566 161.761 98.3317 162.958 98.2171C164.753 98.0453 166.022 99.0453 166.228 101.199L166.81 107.286L164.981 107.461L164.435 101.751C164.309 100.434 163.736 99.6781 162.607 99.7862C161.377 99.904 160.741 101.19 160.862 102.455L161.374 107.806L159.545 107.981L158.998 102.271C158.872 100.955 158.282 100.2 157.171 100.307C155.94 100.424 155.304 101.71 155.425 102.975L155.937 108.327L154.108 108.502ZM173.038 106.914C170.389 107.167 168.61 105.526 168.325 102.551C168.029 99.457 169.523 97.5886 172.122 97.3398C174.772 97.0861 176.554 98.7616 176.839 101.736C177.133 104.814 175.637 106.665 173.038 106.914ZM172.891 105.375C174.447 105.226 175.177 104.018 174.975 101.915C174.776 99.829 173.808 98.7312 172.269 98.8785C170.731 99.0258 169.985 100.253 170.188 102.373C170.386 104.442 171.352 105.522 172.891 105.375ZM179.226 106.097L178.354 96.9848L180.183 96.8097L180.299 98.0235C180.821 96.9901 181.733 96.4197 182.913 96.3068C184.81 96.1252 186.096 97.1235 186.302 99.2776L186.885 105.364L185.073 105.537L184.526 99.8272C184.4 98.5108 183.742 97.7629 182.494 97.8824C181.126 98.0133 180.422 99.3057 180.543 100.571L181.055 105.922L179.226 106.097ZM189.26 102.393L188.784 97.4183L187.553 97.5361L187.417 96.1172L188.648 95.9993L188.446 93.8965L190.276 93.7214L190.477 95.8242L192.443 95.636L192.579 97.055L190.613 97.2432L191.079 102.116C191.179 103.158 191.517 103.626 192.799 103.504L193.158 103.469L193.286 104.803C193.091 104.925 192.67 105.034 192.157 105.083C190.379 105.254 189.448 104.359 189.26 102.393ZM194.861 104.6L193.683 92.291L195.512 92.1159L195.934 96.5267C196.456 95.4933 197.368 94.923 198.547 94.8101C200.445 94.6284 201.731 95.6267 201.937 97.7808L202.52 103.867L200.708 104.041L200.161 98.3304C200.035 97.014 199.377 96.2661 198.129 96.3856C196.761 96.5165 196.057 97.8089 196.178 99.074L196.69 104.425L194.861 104.6Z" fill="#6E7180"/>
<path d="M299.993 82.0801C299.993 82.0801 306.28 85.8428 306.428 87.3903C306.576 88.9378 301.118 93.8248 301.118 93.8248" stroke="#313131" stroke-width="1.48624" stroke-linecap="round" stroke-linejoin="round"/>
</g>
<rect x="22.7724" y="88.8231" width="307.404" height="49.8053" rx="7.26605" transform="rotate(-5.46838 22.7724 88.8231)" stroke="#E5E6EC" stroke-width="1.3211"/>
</g>
</g>
<rect x="0.279508" y="32.8068" width="341.321" height="122.321" rx="11.2293" transform="rotate(-5.46838 0.279508 32.8068)" stroke="#E5E6EC" stroke-width="1.3211"/>
<g clip-path="url(#clip3_2001_112)">
<rect x="11.3516" y="126.926" width="340" height="121" rx="10.5688" transform="rotate(3.01225 11.3516 126.926)" fill="white"/>
<path d="M26.6414 163.511L27.356 149.93L29.5929 150.048L28.8783 163.629L26.6414 163.511ZM31.431 163.763L31.9912 153.118L34.1282 153.23L34.0536 154.648C34.8325 153.548 35.9804 153.047 37.3585 153.12C39.5754 153.236 40.8852 154.607 40.7528 157.124L40.3786 164.234L38.2615 164.122L38.6126 157.452C38.6935 155.914 38.0638 154.939 36.6059 154.863C35.0081 154.779 33.9748 156.146 33.897 157.624L33.568 163.875L31.431 163.763ZM52.15 157.904L50.013 157.791C49.8332 156.26 48.8903 155.529 47.652 155.464C45.8745 155.37 44.8443 156.678 44.7151 159.135C44.5879 161.551 45.514 162.982 47.3115 163.077C48.5897 163.144 49.5253 162.492 49.9163 161.151L52.0334 161.262C51.4342 163.894 49.5348 164.976 47.178 164.852C44.1023 164.69 42.3563 162.475 42.5381 159.02C42.7283 155.405 44.7308 153.508 47.7466 153.666C50.1233 153.792 51.9303 155.228 52.15 157.904ZM53.637 164.932L54.1972 154.286L56.3342 154.399L56.2512 155.977C57.0175 154.735 58.1464 154.214 59.3847 154.279C59.8041 154.301 60.1983 154.422 60.3886 154.612L60.2898 156.49C59.9755 156.373 59.5981 156.313 59.1587 156.29C57.1216 156.183 56.1776 157.375 56.0799 159.232L55.774 165.044L53.637 164.932ZM70.5177 162.335C69.8082 164.781 67.9045 165.943 65.408 165.811C62.2723 165.646 60.4653 163.448 60.6482 159.973C60.8384 156.358 62.8608 154.462 65.8966 154.622C68.9724 154.783 70.7205 156.958 70.5408 160.374L70.5135 160.893L62.8041 160.487C62.8094 162.67 63.7639 163.942 65.5015 164.034C66.8596 164.105 67.8519 163.517 68.2808 162.217L70.5177 162.335ZM65.8031 156.399C64.2652 156.318 63.295 157.248 62.9408 159.032L68.3733 159.318C68.2082 157.507 67.321 156.479 65.8031 156.399ZM74.5902 158.844L72.4532 158.732C72.9167 156.393 74.608 155.08 77.2644 155.22C80.1603 155.372 81.509 157.145 81.3787 159.622L81.1601 163.776C81.0928 165.055 81.1738 165.8 81.383 166.392L79.1461 166.274C79.0073 165.866 78.9768 165.304 78.9884 164.703C78.0234 165.914 76.6159 166.401 75.3377 166.334C73.1806 166.22 71.7563 165.124 71.8635 163.087C71.9402 161.629 72.7959 160.592 74.422 160.137C75.8653 159.732 77.3096 159.688 79.228 159.769L79.2406 159.53C79.3226 157.972 78.6477 157.095 77.01 157.009C75.6319 156.936 74.853 157.656 74.5902 158.844ZM74.0247 163.12C73.9774 164.019 74.687 164.617 75.8254 164.677C77.6029 164.771 79.0357 163.424 79.1261 161.707L79.1513 161.227C75.0548 161.052 74.0888 161.902 74.0247 163.12ZM85.6142 158.743C85.4712 161.46 92.4016 159.541 92.1736 163.875C92.0674 165.892 90.1806 167.115 87.6041 166.979C85.0277 166.844 83.2733 165.55 83.0073 162.992L85.1443 163.105C85.2936 164.454 86.2533 165.246 87.7513 165.325C89.1893 165.4 89.9819 164.801 90.0292 163.903C90.1689 161.246 83.3405 163.13 83.5707 158.756C83.6579 157.098 85.037 155.629 87.7333 155.771C90.11 155.896 91.8098 157.087 92.0095 159.761L89.8725 159.648C89.7116 158.138 88.9022 157.535 87.5441 157.463C86.3657 157.401 85.6562 157.945 85.6142 158.743ZM103.388 164.065C102.678 166.511 100.775 167.672 98.2781 167.541C95.1424 167.376 93.3354 165.178 93.5183 161.703C93.7085 158.088 95.731 156.192 98.7668 156.351C101.843 156.513 103.591 158.688 103.411 162.103L103.384 162.623L95.6743 162.217C95.6796 164.4 96.634 165.672 98.3716 165.764C99.7298 165.835 100.722 165.246 101.151 163.947L103.388 164.065ZM98.6733 158.129C97.1354 158.048 96.1652 158.978 95.8109 160.762L101.243 161.048C101.078 159.237 100.191 158.209 98.6733 158.129ZM110.692 172.34L108.555 172.228L109.347 157.188L111.484 157.301L111.416 158.579C112.148 157.616 113.176 157.11 114.394 157.174C117.21 157.322 118.798 159.508 118.615 162.983C118.425 166.598 116.582 168.504 113.806 168.358C112.588 168.294 111.615 167.742 110.988 166.728L110.692 172.34ZM114.04 158.957C112.323 158.867 111.333 160.157 111.205 162.594C111.077 165.03 111.963 166.459 113.641 166.547C115.318 166.635 116.309 165.325 116.438 162.869C116.565 160.452 115.678 159.044 114.04 158.957ZM120.211 168.435L120.771 157.79L122.908 157.902L122.825 159.48C123.592 158.238 124.721 157.717 125.959 157.782C126.378 157.804 126.773 157.925 126.963 158.115L126.864 159.993C126.55 159.876 126.172 159.816 125.733 159.793C123.696 159.686 122.752 160.878 122.654 162.735L122.348 168.547L120.211 168.435ZM131.902 169.31C128.807 169.148 127.04 166.952 127.222 163.476C127.413 159.861 129.455 157.966 132.491 158.126C135.587 158.289 137.352 160.525 137.169 164C136.98 167.595 134.938 169.47 131.902 169.31ZM131.997 167.513C133.814 167.609 134.862 166.342 134.992 163.885C135.12 161.449 134.194 160.018 132.396 159.923C130.599 159.829 129.53 161.114 129.399 163.591C129.272 166.008 130.199 167.418 131.997 167.513ZM142.751 169.881C139.935 169.733 138.347 167.547 138.53 164.071C138.72 160.456 140.563 158.551 143.339 158.697C144.558 158.761 145.53 159.313 146.158 160.327L146.417 155.394L148.554 155.506L147.797 169.887L145.66 169.774L145.729 168.476C144.997 169.439 143.969 169.945 142.751 169.881ZM143.125 168.098C144.823 168.188 145.811 166.918 145.94 164.461C146.068 162.025 145.182 160.596 143.524 160.509C141.827 160.42 140.837 161.729 140.707 164.186C140.58 166.603 141.467 168.011 143.125 168.098ZM157.118 165.951L157.446 159.719L159.563 159.831L159.003 170.476L156.886 170.365L156.962 168.927C156.203 170.028 155.055 170.529 153.697 170.457C151.52 170.343 150.229 168.993 150.361 166.477L150.735 159.366L152.873 159.479L152.521 166.15C152.441 167.687 153.031 168.64 154.449 168.714C156.007 168.796 157.041 167.429 157.118 165.951ZM170.777 164.146L168.64 164.034C168.46 162.502 167.518 161.772 166.279 161.706C164.502 161.613 163.472 162.921 163.342 165.377C163.215 167.794 164.141 169.224 165.939 169.319C167.217 169.386 168.153 168.735 168.544 167.393L170.661 167.505C170.061 170.137 168.162 171.218 165.805 171.094C162.73 170.933 160.984 168.718 161.165 165.263C161.356 161.648 163.358 159.75 166.374 159.909C168.751 160.034 170.558 161.471 170.777 164.146ZM172.711 168.013L173.017 162.201L171.579 162.125L171.666 160.468L173.104 160.543L173.233 158.087L175.37 158.199L175.241 160.656L177.538 160.777L177.451 162.434L175.154 162.314L174.854 168.006C174.79 169.224 175.099 169.821 176.597 169.9L177.017 169.922L176.935 171.48C176.689 171.587 176.185 171.641 175.586 171.609C173.509 171.5 172.59 170.31 172.711 168.013ZM179.013 159.533L179.141 157.116L181.278 157.228L181.151 159.645L179.013 159.533ZM178.384 171.496L178.944 160.851L181.081 160.963L180.521 171.608L178.384 171.496ZM185.6 171.876L182.246 161.025L184.543 161.145L186.863 169.198L187.069 170.231L187.382 169.226L190.515 161.46L192.692 161.574L188.217 172.013L185.6 171.876ZM193.944 160.318L194.072 157.902L196.209 158.014L196.081 160.431L193.944 160.318ZM193.315 172.282L193.875 161.636L196.012 161.749L195.452 172.394L193.315 172.282ZM198.282 169.359L198.588 163.547L197.15 163.471L197.237 161.813L198.675 161.889L198.804 159.432L200.941 159.545L200.812 162.001L203.109 162.122L203.022 163.78L200.725 163.659L200.425 169.351C200.361 170.57 200.67 171.167 202.168 171.246L202.587 171.268L202.506 172.825C202.26 172.933 201.756 172.986 201.157 172.955C199.08 172.845 198.161 171.656 198.282 169.359ZM204.469 177.535C204.009 177.511 203.536 177.366 203.301 177.273L203.387 175.636L203.966 175.666C205.185 175.73 205.657 175.515 206.692 173.346L207.05 172.624L203.317 162.133L205.613 162.254L207.901 169.024L208.284 170.506L208.82 169.072L211.725 162.576L213.902 162.69L208.443 174.32C207.225 176.919 206.366 177.635 204.469 177.535Z" fill="#313131"/>
<g filter="url(#filter1_i_2001_112)">
<g clip-path="url(#clip4_2001_112)">
<rect x="24.0875" y="184.259" width="308.725" height="51.1264" rx="7.9266" transform="rotate(3.01225 24.0875 184.259)" fill="#F7F8FA" fill-opacity="0.35"/>
<g clip-path="url(#clip5_2001_112)">
<mask id="mask1_2001_112" style="mask-type:luminance" maskUnits="userSpaceOnUse" x="37" y="200" width="24" height="24">
<path d="M38.9918 200.514L60.5923 201.65L59.4557 223.251L37.8552 222.114L38.9918 200.514Z" fill="white"/>
</mask>
<g mask="url(#mask1_2001_112)">
<path fill-rule="evenodd" clip-rule="evenodd" d="M60.1089 205.811C60.2694 205.978 60.3529 206.197 60.3412 206.42C60.3294 206.644 60.2233 206.853 60.0462 207.002L51.0705 214.554C50.8933 214.703 50.6597 214.779 50.4209 214.767C50.1821 214.754 49.9578 214.654 49.7972 214.487L46.1217 210.667L39.7037 216.067C39.5258 216.212 39.2938 216.285 39.0578 216.27C38.8218 216.256 38.6006 216.155 38.4419 215.991C38.2832 215.826 38.1996 215.609 38.2091 215.388C38.2187 215.167 38.3207 214.959 38.4931 214.809L45.5791 208.847C45.7563 208.698 45.99 208.621 46.2287 208.634C46.4675 208.647 46.6918 208.747 46.8524 208.914L50.5279 212.734L58.8356 205.744C59.0128 205.595 59.2464 205.518 59.4852 205.531C59.724 205.543 59.9483 205.644 60.1089 205.811Z" fill="#3276F5"/>
<path fill-rule="evenodd" clip-rule="evenodd" d="M52.4923 205.901C52.5025 205.706 52.6158 205.524 52.8072 205.396C52.9986 205.267 53.2524 205.203 53.5128 205.217L59.4039 205.527C59.6643 205.54 59.91 205.631 60.0868 205.779C60.2637 205.927 60.3573 206.119 60.347 206.315L60.1145 210.733C60.1042 210.928 59.9909 211.11 59.7995 211.239C59.6081 211.367 59.3543 211.431 59.0939 211.418C58.8335 211.404 58.5878 211.313 58.411 211.166C58.2341 211.018 58.1405 210.825 58.1508 210.63L58.3446 206.948L53.4353 206.689C53.1749 206.676 52.9293 206.585 52.7524 206.437C52.5756 206.289 52.482 206.097 52.4923 205.901Z" fill="#3276F5"/>
</g>
</g>
<path d="M69.9747 219.483L70.0554 217.95L72.3087 218.068L72.7189 210.274L70.4656 210.156L70.5453 208.641L71.7458 208.704C72.8355 208.762 73.1446 208.519 73.1748 207.946L73.1855 207.743L74.9216 207.834L74.3774 218.177L76.6122 218.295L76.5315 219.828L69.9747 219.483ZM83.7253 220.447C80.7517 220.291 79.1545 217.91 79.3586 214.031C79.5676 210.06 81.4388 207.936 84.3755 208.091C87.3307 208.246 88.9279 210.627 88.7228 214.524C88.5138 218.495 86.6435 220.601 83.7253 220.447ZM83.8138 218.767C85.5315 218.857 86.557 217.318 86.7096 214.418C86.8612 211.537 85.9863 209.861 84.2871 209.772C82.5694 209.681 81.5254 211.219 81.3718 214.137C81.2221 216.982 82.0961 218.676 83.8138 218.767ZM96.6331 220.886L94.6869 217.746L94.2504 216.889L93.7265 217.695L91.5169 220.617L89.3375 220.502L93.2453 215.577L90.1326 210.672L92.5152 210.797L94.2037 213.553L94.6392 214.428L95.1642 213.604L97.0957 211.038L99.2567 211.152L95.6463 215.703L99.0157 221.011L96.6331 220.886Z" fill="#3276F5"/>
<path d="M114.009 221.801L114.623 210.138L116.544 210.239L116.012 220.341L121.655 220.638L121.572 222.199L114.009 221.801ZM125.428 216.228L123.593 216.131C123.991 214.123 125.444 212.995 127.725 213.115C130.212 213.246 131.37 214.769 131.258 216.896L131.07 220.463C131.012 221.56 131.082 222.2 131.262 222.709L129.341 222.608C129.221 222.257 129.195 221.774 129.205 221.259C128.377 222.299 127.168 222.717 126.07 222.659C124.218 222.562 122.995 221.62 123.087 219.871C123.153 218.619 123.888 217.729 125.284 217.338C126.523 216.99 127.764 216.952 129.411 217.022L129.422 216.816C129.492 215.478 128.913 214.726 127.506 214.652C126.323 214.589 125.654 215.208 125.428 216.228ZM124.943 219.9C124.902 220.671 125.512 221.185 126.489 221.236C128.016 221.317 129.246 220.16 129.323 218.686L129.345 218.274C125.827 218.123 124.998 218.853 124.943 219.9ZM135.238 216.159C135.115 218.492 141.066 216.844 140.871 220.566C140.779 222.298 139.159 223.348 136.947 223.231C134.734 223.115 133.228 222.004 132.999 219.808L134.834 219.904C134.963 221.063 135.787 221.743 137.073 221.811C138.308 221.876 138.989 221.361 139.029 220.589C139.149 218.308 133.285 219.926 133.483 216.17C133.558 214.746 134.742 213.484 137.058 213.606C139.099 213.714 140.558 214.736 140.73 217.033L138.895 216.936C138.756 215.639 138.061 215.121 136.895 215.06C135.883 215.006 135.274 215.473 135.238 216.159ZM142.958 220.59L143.22 215.599L141.986 215.534L142.06 214.11L143.295 214.175L143.406 212.066L145.241 212.162L145.13 214.272L147.103 214.376L147.028 215.799L145.056 215.695L144.798 220.583C144.743 221.629 145.009 222.142 146.295 222.21L146.655 222.229L146.585 223.567C146.373 223.659 145.941 223.705 145.427 223.678C143.643 223.584 142.854 222.562 142.958 220.59ZM151.71 223.785L152.191 214.643L154.026 214.74L153.965 215.906C154.598 214.994 155.531 214.578 156.612 214.635C157.829 214.699 158.71 215.279 159.101 216.349C159.756 215.334 160.779 214.855 161.98 214.918C163.781 215.013 164.888 216.189 164.774 218.35L164.453 224.455L162.618 224.359L162.919 218.63C162.989 217.31 162.534 216.478 161.402 216.418C160.167 216.353 159.348 217.531 159.282 218.8L158.999 224.168L157.164 224.072L157.466 218.343C157.535 217.023 157.063 216.19 155.948 216.131C154.713 216.066 153.895 217.244 153.828 218.513L153.545 223.881L151.71 223.785ZM170.668 225.006C168.009 224.866 166.492 222.98 166.649 219.996C166.812 216.892 168.566 215.264 171.173 215.402C173.832 215.541 175.347 217.461 175.19 220.446C175.028 223.533 173.275 225.143 170.668 225.006ZM170.749 223.462C172.31 223.544 173.21 222.457 173.321 220.347C173.431 218.255 172.636 217.026 171.092 216.945C169.548 216.864 168.63 217.968 168.519 220.095C168.409 222.17 169.205 223.381 170.749 223.462ZM176.908 225.111L177.389 215.969L179.224 216.066L179.16 217.284C179.829 216.339 180.815 215.909 181.998 215.971C183.902 216.071 185.027 217.248 184.913 219.409L184.592 225.515L182.774 225.419L183.075 219.691C183.145 218.37 182.604 217.534 181.352 217.468C179.98 217.396 179.093 218.57 179.026 219.839L178.743 225.207L176.908 225.111ZM187.378 222.927L187.641 217.936L186.406 217.871L186.481 216.448L187.716 216.513L187.827 214.403L189.662 214.5L189.551 216.609L191.523 216.713L191.448 218.137L189.476 218.033L189.219 222.921C189.164 223.967 189.429 224.48 190.716 224.547L191.076 224.566L191.005 225.904C190.794 225.996 190.362 226.042 189.847 226.015C188.064 225.921 187.275 224.899 187.378 222.927ZM192.593 225.936L193.243 213.588L195.078 213.684L194.845 218.109C195.514 217.164 196.499 216.734 197.683 216.797C199.587 216.897 200.711 218.074 200.598 220.235L200.276 226.34L198.458 226.245L198.76 220.516C198.829 219.196 198.289 218.359 197.037 218.293C195.665 218.221 194.777 219.395 194.71 220.664L194.428 226.033L192.593 225.936Z" fill="#6E7180"/>
<path d="M299.897 219.166C299.897 219.166 305.56 223.815 305.478 225.367C305.396 226.92 299.277 230.948 299.277 230.948" stroke="#313131" stroke-width="1.48624" stroke-linecap="round" stroke-linejoin="round"/>
</g>
<rect x="24.7124" y="184.953" width="307.404" height="49.8053" rx="7.26605" transform="rotate(3.01225 24.7124 184.953)" stroke="#E5E6EC" stroke-width="1.3211"/>
</g>
</g>
<rect x="10.7266" y="126.231" width="341.321" height="122.321" rx="11.2293" transform="rotate(3.01225 10.7266 126.231)" stroke="#E5E6EC" stroke-width="1.3211"/>
<defs>
<filter id="filter0_i_2001_112" x="22.0519" y="58.8086" width="312.192" height="85.5979" filterUnits="userSpaceOnUse" color-interpolation-filters="sRGB">
<feFlood flood-opacity="0" result="BackgroundImageFix"/>
<feBlend mode="normal" in="SourceGraphic" in2="BackgroundImageFix" result="shape"/>
<feColorMatrix in="SourceAlpha" type="matrix" values="0 0 0 0 0 0 0 0 0 0 0 0 0 0 0 0 0 0 127 0" result="hardAlpha"/>
<feOffset dy="5.2844"/>
<feGaussianBlur stdDeviation="15.8532"/>
<feComposite in2="hardAlpha" operator="arithmetic" k2="-1" k3="1"/>
<feColorMatrix type="matrix" values="0 0 0 0 0 0 0 0 0 0 0 0 0 0 0 0 0 0 0.01 0"/>
<feBlend mode="normal" in2="shape" result="effect1_innerShadow_2001_112"/>
</filter>
<filter id="filter1_i_2001_112" x="21.4009" y="184.259" width="310.985" height="72.5637" filterUnits="userSpaceOnUse" color-interpolation-filters="sRGB">
<feFlood flood-opacity="0" result="BackgroundImageFix"/>
<feBlend mode="normal" in="SourceGraphic" in2="BackgroundImageFix" result="shape"/>
<feColorMatrix in="SourceAlpha" type="matrix" values="0 0 0 0 0 0 0 0 0 0 0 0 0 0 0 0 0 0 127 0" result="hardAlpha"/>
<feOffset dy="5.2844"/>
<feGaussianBlur stdDeviation="15.8532"/>
<feComposite in2="hardAlpha" operator="arithmetic" k2="-1" k3="1"/>
<feColorMatrix type="matrix" values="0 0 0 0 0 0 0 0 0 0 0 0 0 0 0 0 0 0 0.01 0"/>
<feBlend mode="normal" in2="shape" result="effect1_innerShadow_2001_112"/>
</filter>
<clipPath id="clip0_2001_112">
<rect x="1" y="33.4014" width="340" height="121" rx="10.5688" transform="rotate(-5.46838 1 33.4014)" fill="white"/>
</clipPath>
<clipPath id="clip1_2001_112">
<rect x="22.0519" y="88.2285" width="308.725" height="51.1264" rx="7.9266" transform="rotate(-5.46838 22.0519 88.2285)" fill="white"/>
</clipPath>
<clipPath id="clip2_2001_112">
<rect width="21.6304" height="21.6304" fill="white" transform="translate(39.1844 102.108) rotate(-5.46838)"/>
</clipPath>
<clipPath id="clip3_2001_112">
<rect x="11.3516" y="126.926" width="340" height="121" rx="10.5688" transform="rotate(3.01225 11.3516 126.926)" fill="white"/>
</clipPath>
<clipPath id="clip4_2001_112">
<rect x="24.0875" y="184.259" width="308.725" height="51.1264" rx="7.9266" transform="rotate(3.01225 24.0875 184.259)" fill="white"/>
</clipPath>
<clipPath id="clip5_2001_112">
<rect width="21.6304" height="21.6304" fill="white" transform="translate(38.986 200.514) rotate(3.01225)"/>
</clipPath>
</defs>
</svg>
