<svg width="126" height="24" viewBox="0 0 126 24" fill="none" xmlns="http://www.w3.org/2000/svg">
<path d="M11.7933 1.65521L6.73487 6.97132C6.66167 7.04824 6.62085 7.14581 6.62085 7.25199V22.3274C6.62085 22.9309 7.26725 23.4255 7.86038 23.7327C8.2592 23.9393 8.71198 24 9.16111 24H11.7933V1.65521Z" fill="#7C5CCB"/>
<path fill-rule="evenodd" clip-rule="evenodd" d="M11.7989 4.03613L5.13481 10.6943L3.01371 8.5752L5.13285 10.6934C4.85171 10.9742 4.51853 11.1974 4.15238 11.3506C3.78607 11.5038 3.39373 11.5839 2.99809 11.5859C2.60238 11.588 2.21054 11.5127 1.84574 11.3633C1.48097 11.2139 1.15045 10.993 0.872111 10.7148C0.593864 10.4368 0.373186 10.1066 0.223673 9.74219C0.0741535 9.37768 -0.00201224 8.98622 4.04112e-05 8.59082C0.00210084 8.19551 0.082136 7.80352 0.235392 7.4375C0.388692 7.07148 0.61242 6.73805 0.893595 6.45703L7.96195 0H11.7979L11.7989 4.03613Z" fill="#AD96DC"/>
<path d="M60.207 4.55169C62.6898 4.038 67.6967 4.30349 70.345 6.62066L68.0691 9.51721C67.4483 8.75857 65.3379 7.36551 61.8622 7.86204C59.3795 8.48274 56.6485 10.5932 58.1381 14.8965C58.4974 15.8548 59.481 17.333 61.3595 17.9765C61.9541 18.1802 62.5928 18.1918 63.218 18.1273C64.2034 18.0255 65.4452 17.8415 66.207 17.5664V14.4827C66.2071 13.3401 67.1334 12.4138 68.276 12.4138H70.345V19.4482C68.7587 20.5517 63.6001 22.7586 58.9657 21.1034C53.1727 19.0344 53.3795 13.4482 53.3795 12.4138C53.3795 11.3791 54.2073 5.79309 60.207 4.55169Z" fill="white"/>
<path d="M97.8633 4.55169C100.346 4.038 105.353 4.30349 108.001 6.62066L105.725 9.51721C105.105 8.75857 102.994 7.36551 99.5185 7.86204C97.0358 8.48274 94.3048 10.5932 95.7943 14.8965C96.1537 15.8548 97.1372 17.333 99.0158 17.9765C99.6103 18.1802 100.249 18.1918 100.874 18.1273C101.86 18.0255 103.101 17.8415 103.863 17.5664V14.4827C103.863 13.3401 104.79 12.4138 105.932 12.4138H108.001V19.4482C106.415 20.5517 101.256 22.7586 96.6219 21.1034C90.8289 19.0344 91.0357 13.4482 91.0357 12.4138C91.0357 11.3791 91.8635 5.79309 97.8633 4.55169Z" fill="white"/>
<path d="M30.621 5.79311C30.621 6.93577 29.6947 7.86208 28.552 7.86208H21.1037V11.1724H29.7934V14.8966H21.1037V18.2069H28.552C29.6947 18.2069 30.621 19.1332 30.621 20.2759V21.931H16.552V4.13794H30.621V5.79311Z" fill="white"/>
<path d="M125.793 5.79311C125.793 6.93577 124.867 7.86208 123.724 7.86208H116.276V11.1724H124.966V14.8966H116.276V18.2069H123.724C124.867 18.2069 125.793 19.1332 125.793 20.2759V21.931H111.724V4.13794H125.793V5.79311Z" fill="white"/>
<path d="M37.6554 4.13794L46.3451 15.5173V6.20691C46.3451 5.06425 47.2714 4.13794 48.414 4.13794H50.0692V19.8621C50.0692 21.0047 49.1429 21.931 48.0002 21.931H46.3451L37.6554 10.9655V19.8621C37.6554 21.0047 36.7291 21.931 35.5864 21.931H33.9313V4.13794H37.6554Z" fill="white"/>
<path fill-rule="evenodd" clip-rule="evenodd" d="M84.0056 4.15087L91.4595 22.1056H87.8752C87.039 22.1056 86.2849 21.6022 85.9642 20.8299L84.7035 17.7931H78.2868L77.0843 20.6618C76.762 21.4305 76.0097 21.931 75.1761 21.931H71.5865L79.0348 4.13794H84.0113L84.0056 4.15087ZM79.8479 14.069H83.1574L81.5107 10.1024L79.8479 14.069Z" fill="white"/>
</svg>
