<svg width="82" height="20" viewBox="0 0 82 20" fill="none" xmlns="http://www.w3.org/2000/svg">
<path fill-rule="evenodd" clip-rule="evenodd" d="M0.384901 13.9951C0.131558 14.327 -0.00385033 14.7333 0.000517671 15.1526C-0.0475303 17.2754 3.25031 19.8132 9.40045 19.9923C14.725 20.1452 19.6827 17.9961 19.6827 15.122C19.6871 14.7376 19.5954 14.3576 19.4119 14.0169C19.1411 13.5015 15.9918 8.71852 15.9918 8.71852C15.9918 8.71852 14.9871 7.06305 13.9606 7.23777C13.2443 7.36007 12.8293 8.02838 11.9164 9.67075C11.2044 10.9637 9.41355 14.3969 8.56616 15.965C8.31282 16.428 7.41738 18.2451 6.35159 17.8957C5.39936 17.5593 5.34695 15.9825 5.25085 14.9211C5.2028 14.4144 5.06303 13.0254 5.03245 12.6148C4.87083 10.2823 4.56507 9.86294 4.01034 9.88478C3.20226 9.91535 1.21482 12.8332 0.384901 13.9951Z" fill="#7A828D"/>
<path fill-rule="evenodd" clip-rule="evenodd" d="M9.26941 5.76576C9.26941 5.76576 11.8203 5.57793 13.7029 6.46464C13.7597 6.48648 13.8252 6.46027 13.8514 6.40348C13.8645 6.37291 13.8645 6.33796 13.8471 6.30739L10.4881 0.41496C10.3789 0.17472 10.1474 0.013104 9.88093 0C9.45723 0 9.40919 0.812447 9.40919 0.812447L9.26941 5.76576Z" fill="#7A828D"/>
<path fill-rule="evenodd" clip-rule="evenodd" d="M9.88094 0C9.88094 0 9.80232 0 9.77174 0.410592C9.74554 0.781871 9.29127 7.55227 9.18207 9.15969C9.16896 9.35188 9.00298 9.50039 8.81079 9.48729H8.80642C7.49602 9.39119 4.80096 8.81899 4.80096 7.63089C4.81407 7.4518 4.86648 7.28145 4.96258 7.12857L9.11655 0.467376C9.27379 0.192192 9.56208 0.017472 9.88094 0Z" fill="#7A828D"/>
<path fill-rule="evenodd" clip-rule="evenodd" d="M33.2235 4.86597L27.947 15.039H30.2795L30.9915 13.5408H35.4512L36.1806 15.039H38.5175L33.2235 4.86597ZM34.5863 11.6713H31.8869L33.2366 8.84958L34.5863 11.6713Z" fill="#7A828D"/>
<path fill-rule="evenodd" clip-rule="evenodd" d="M55.8498 10.7715L50.8309 4.86597V15.039H52.9625V10.4701L55.8498 13.8815L58.7501 10.4657V15.039H60.8861L60.8904 4.86597L55.8498 10.7715Z" fill="#7A828D"/>
<path fill-rule="evenodd" clip-rule="evenodd" d="M81.3239 5.05379H79.1923V10.8632L72.6098 4.86597V15.039H74.737L74.7457 9.68387L81.3239 15.288V5.05379Z" fill="#7A828D"/>
<path fill-rule="evenodd" clip-rule="evenodd" d="M66.7392 4.86597L61.4583 15.039H63.7908L64.4984 13.5408H68.9668L69.6963 15.0434H72.0332L66.7392 4.86597ZM65.3894 11.6582L66.7392 8.83648L68.0889 11.6626L65.3894 11.6582Z" fill="#7A828D"/>
<path fill-rule="evenodd" clip-rule="evenodd" d="M49.1492 4.86597L44.1173 10.7715L39.0898 4.86597L39.0941 15.039H41.2257V10.4701L44.1173 13.8815L47.0133 10.4657V15.039H49.1492V4.86597Z" fill="#7A828D"/>
</svg>
