<svg width="145" height="21" viewBox="0 0 145 21" fill="none" xmlns="http://www.w3.org/2000/svg">
<g clip-path="url(#clip0_5013_2842)">
<path d="M80.1139 0.411377L80.1252 20.181L74.5159 20.2016L74.3907 17.3577C70.819 19.8003 66.8596 21.0643 62.3222 20.5556C58.0689 20.0792 53.7438 16.6165 53.6748 12.2659L53.4871 0.41824L58.7815 0.414607L58.8114 9.87267C58.8178 11.9627 59.6406 13.532 60.8151 14.5599C62.5894 16.1126 64.4062 16.5394 66.6772 16.0432C69.8831 15.3423 73.5154 13.2882 74.293 9.82826C74.983 6.75833 74.1045 3.56729 74.5534 0.424296L80.1139 0.411377Z" fill="white"/>
<path d="M128.833 0C132.55 1.16273 136.204 2.40337 138.76 5.68323L138.919 0.398476L144.539 0.417048V20.181L138.917 20.1947L138.792 14.9943C134.762 19.185 128.937 21.6227 123.04 20.3033C118.15 19.2092 114.906 14.4998 115.127 9.78588C115.35 5.04252 118.937 1.22975 123.599 0.000403725H128.833L128.833 0ZM136.082 10.2869C134.629 6.96425 131.768 5.41233 128.611 4.56653C125.07 3.61818 121.613 5.6255 120.884 9.02042C120.172 12.3346 122.271 15.7646 126.183 16.1272C130.197 16.4994 134.483 13.9741 136.083 10.2865L136.082 10.2869Z" fill="white"/>
<path d="M103.469 -2.35214e-05C114.29 3.86968 111.497 10.7269 111.968 20.1785L106.328 20.181C106.059 16.4522 106.607 12.8562 106.145 9.18108C105.676 5.45026 101.587 3.71707 98.1085 4.61657C95.1322 5.38607 91.8838 7.17336 91.1854 10.3951C90.4971 13.5704 91.3517 16.8918 90.9206 20.1753L84.9483 20.1838L84.9454 0.414198L90.9411 0.393204L91.0324 3.16154C93.2771 1.68997 95.6894 0.511899 98.2361 -0.000427246H103.47L103.469 -2.35214e-05Z" fill="white"/>
<path d="M13.2858 0C13.4658 0.306427 13.8797 0.436023 14.3859 0.505867C18.0905 1.0186 21.0736 3.04328 23.672 5.61823L23.7701 0.401302L29.394 0.417048V20.181L23.7713 20.1959L23.6579 14.9842C19.709 19.0518 14.2801 21.286 8.43865 20.5023C4.15594 19.9274 1.25397 16.4481 0 12.6753V7.92189C1.24993 3.98073 4.26454 0.819965 8.4548 0H13.2858ZM20.546 10.1274C20.3518 8.21216 16.5846 5.1923 13.1554 4.47892C9.16132 3.64765 5.66264 6.26258 5.54233 10.0895C5.42727 13.7464 8.47297 16.7013 12.373 16.1837C16.8402 15.591 20.7385 12.0302 20.546 10.1274Z" fill="white"/>
<path d="M49.923 0C49.8144 1.3012 50.1955 2.72191 49.6901 4.22256C46.002 4.71066 41.595 6.19394 40.5271 10.0887C39.6438 13.3116 40.706 16.8115 40.1763 20.1689L34.2206 20.1842L34.2169 0.414222L40.2001 0.392017C40.5627 1.52204 39.9652 2.22735 40.0596 3.34526C42.5502 1.47481 44.9952 0.738816 47.5071 0L49.923 0Z" fill="white"/>
</g>
<defs>
<clipPath id="clip0_5013_2842">
<rect width="144.539" height="20.6667" fill="white"/>
</clipPath>
</defs>
</svg>
