<svg width="55" height="48" viewBox="0 0 55 48" fill="none" xmlns="http://www.w3.org/2000/svg">
<path d="M3.34528 37.2124H4.52912L7.8417 44.9019H6.27773L5.56091 43.1425H2.22661L1.53151 44.9019H0.00012207L3.34528 37.2124ZM5.08303 41.9695L3.89919 38.8415L2.69363 41.9695H5.08303Z" fill="#7A828D"/>
<path d="M17.2516 42.0781C17.2516 42.5415 17.1719 42.9614 17.0126 43.338C16.8533 43.7072 16.6361 44.0222 16.361 44.2829C16.0858 44.5435 15.76 44.7463 15.3835 44.8911C15.007 45.0286 14.5979 45.0974 14.1562 45.0974C13.7145 45.0974 13.3054 45.0286 12.9289 44.8911C12.5524 44.7463 12.223 44.5435 11.9406 44.2829C11.6654 44.0222 11.4482 43.7072 11.2889 43.338C11.1369 42.9614 11.0608 42.5415 11.0608 42.0781V37.2124H12.4293V42.0346C12.4293 42.2229 12.4583 42.422 12.5162 42.632C12.5741 42.8347 12.6683 43.023 12.7986 43.1968C12.9362 43.3705 13.1136 43.5154 13.3308 43.6312C13.5552 43.7398 13.8304 43.7941 14.1562 43.7941C14.482 43.7941 14.7536 43.7398 14.9708 43.6312C15.1952 43.5154 15.3726 43.3705 15.503 43.1968C15.6405 43.023 15.7383 42.8347 15.7962 42.632C15.8541 42.422 15.8831 42.2229 15.8831 42.0346V37.2124H17.2516V42.0781Z" fill="#7A828D"/>
<path d="M25.4504 38.8633C25.3056 38.6533 25.1101 38.5012 24.8639 38.4071C24.625 38.3057 24.3716 38.2551 24.1037 38.2551C23.9444 38.2551 23.7887 38.2732 23.6366 38.3094C23.4918 38.3456 23.3579 38.4035 23.2348 38.4831C23.1189 38.5628 23.0248 38.6678 22.9524 38.7981C22.88 38.9212 22.8438 39.0696 22.8438 39.2434C22.8438 39.5041 22.9343 39.7032 23.1153 39.8407C23.2963 39.9783 23.5208 40.0978 23.7887 40.1992C24.0566 40.3005 24.3498 40.3983 24.6684 40.4924C24.987 40.5865 25.2803 40.7169 25.5482 40.8834C25.8161 41.0499 26.0405 41.2708 26.2215 41.5459C26.4026 41.8211 26.4931 42.1867 26.4931 42.6429C26.4931 43.0556 26.417 43.4176 26.265 43.729C26.1129 44.0331 25.9066 44.2865 25.6459 44.4892C25.3925 44.692 25.0956 44.844 24.7553 44.9454C24.415 45.0467 24.0566 45.0974 23.6801 45.0974C23.2022 45.0974 22.7424 45.0178 22.3008 44.8585C21.8591 44.6992 21.4789 44.4313 21.1604 44.0548L22.1921 43.0556C22.3587 43.309 22.5759 43.5081 22.8438 43.6529C23.1189 43.7905 23.4086 43.8593 23.7127 43.8593C23.872 43.8593 24.0313 43.8376 24.1906 43.7941C24.3498 43.7507 24.4947 43.6855 24.625 43.5986C24.7553 43.5117 24.8603 43.4031 24.94 43.2728C25.0196 43.1352 25.0594 42.9795 25.0594 42.8058C25.0594 42.5234 24.9689 42.3062 24.7879 42.1541C24.6069 42.0021 24.3824 41.8754 24.1145 41.774C23.8466 41.6654 23.5534 41.564 23.2348 41.4699C22.9162 41.3758 22.623 41.249 22.3551 41.0897C22.0872 40.9232 21.8627 40.706 21.6817 40.4381C21.5007 40.163 21.4102 39.7973 21.4102 39.3411C21.4102 38.9429 21.4898 38.599 21.6491 38.3094C21.8156 38.0197 22.0292 37.7808 22.2899 37.5925C22.5578 37.397 22.8619 37.2522 23.2022 37.1581C23.5425 37.064 23.8901 37.0169 24.2449 37.0169C24.6503 37.0169 25.0413 37.0785 25.4178 37.2015C25.8016 37.3246 26.1455 37.5274 26.4496 37.8098L25.4504 38.8633Z" fill="#7A828D"/>
<path d="M29.6146 37.2124H31.1895L33.2856 43.023L35.4469 37.2124H36.924L33.8178 44.9019H32.634L29.6146 37.2124Z" fill="#7A828D"/>
<path d="M40.0347 37.2124H45.1285V38.4505H41.4032V40.3403H44.933V41.5785H41.4032V43.6638H45.324V44.9019H40.0347V37.2124Z" fill="#7A828D"/>
<path d="M50.7859 38.4505H48.4291V37.2124H54.5112V38.4505H52.1544V44.9019H50.7859V38.4505Z" fill="#7A828D"/>
<path d="M14.6472 23.4706C13.8001 22.9059 13.4707 21.2353 13.4119 20.4706L13.7648 20.6471L14.6472 23.4706Z" fill="#7A828D"/>
<path d="M15.8823 21.1764C15.0352 21.3176 14.1176 20.1764 13.7646 19.5882L13.9411 20.647C14.3646 20.9294 15.5294 22.4117 16.0588 23.1176L15.8823 21.1764Z" fill="#7A828D"/>
<path d="M13.059 17.8235C13.3413 17.8235 13.7648 16.4118 13.9413 15.7059L14.8237 16.7647C13.6943 17.3294 13.6472 18.647 13.7648 19.2353L13.059 17.8235Z" fill="#7A828D"/>
<path d="M18.8825 15.8824C17.753 15.6 17.1178 15.8824 16.9413 16.0588L17.1178 13.0588C17.4707 13.2941 18.3178 13.7817 18.8825 13.8496C19.4472 13.9175 20.2942 13.8213 20.6472 13.7647L20.4707 17.1177C20.4119 16.8235 20.0119 16.1647 18.8825 15.8824Z" fill="#7A828D"/>
<path d="M15.8824 21.1765C16.3059 19.2 15.5883 17.6471 15.1765 17.1176L16.7647 16.2353C16.2 18.2118 17.4706 19.6471 18.1765 20.1176L15.8824 21.1765Z" fill="#7A828D"/>
<path d="M30.5294 29.4706C30.5294 28.3412 28.1765 27.5882 27 27.3529L30.1765 26.4706C30.1765 28.0235 32.1765 28.1765 33.1765 28.0588L30.5294 29.4706Z" fill="#7A828D"/>
<path d="M33.1766 28.0588C34.5884 26.9294 34.9413 25.4706 34.9413 24.8824L37.2355 24.353C35.6825 25.2 35.4119 26.8236 35.4708 27.5294L33.1766 28.0588Z" fill="#7A828D"/>
<path d="M40.5884 22.2353C39.459 22.8 38.9413 22.4706 38.8237 22.2353L37.059 24.5294C38.0472 24.1059 38.7648 24.3529 39.0001 24.5294L40.5884 22.2353Z" fill="#7A828D"/>
<path d="M34.5883 23.2941C32.3295 24.4235 30.7059 24.1177 30.1765 23.8235L30.353 25.9412C31.6236 24.953 33.8236 24.8235 34.7647 24.8824L34.5883 23.2941Z" fill="#7A828D"/>
<path d="M27.8823 22.2353C29.1529 21.9529 30.4117 19.6471 30.8823 18.5294L32.2941 19.9412C31.447 20.6471 30.5294 22.6477 30.1764 23.5598L27.8823 22.2353Z" fill="#7A828D"/>
<path d="M17.8236 20.4706C19.0942 20.1882 20.5295 18.0588 21.0001 16.9412L22.7648 18.3529C21.9177 19.0588 20.4707 22.2055 20.1177 23.1176L17.8236 20.4706Z" fill="#7A828D"/>
<path d="M30.7059 15.5294C27.8823 15.9529 26.7059 15 26.4706 14.4706L24.8823 18.1765C25.2941 18.0588 26.4706 17.7882 27.8823 17.6471C29.2941 17.5059 30.4706 18.1765 30.8823 18.5294L30.7059 15.5294Z" fill="#7A828D"/>
<path d="M35.2943 22.9412C35.1531 21.3882 33.8237 20.4118 33.1766 20.1176L35.2943 18.7059C35.1531 20.2588 36.4119 20.8823 37.059 21L35.2943 22.9412Z" fill="#7A828D"/>
<path d="M31.4118 14.1176C31.4118 12.5647 30.353 11.2353 29.8236 10.7647L32.6471 10.2353C32.506 11.0823 32.706 12.8235 32.8236 13.5882L31.4118 14.1176Z" fill="#7A828D"/>
<path d="M24.5295 12.3529C25.659 11.9294 27.2354 9.94118 27.8825 9L30.1766 10.5882C30.1178 10.5882 29.6825 10.7647 28.4119 11.4706C27.1413 12.1765 26.5884 13.8824 26.4707 14.6471L24.5295 12.3529Z" fill="#7A828D"/>
<path d="M25.7648 7.41175C24.6354 6.98822 23.6471 7.11763 23.2942 7.23528C23.5295 6.17645 24.0001 4.16469 24.0001 4.58822C24.0001 5.11763 25.7648 5.64704 26.4707 5.82351C27.0354 5.96469 28.353 5.88234 28.9412 5.82351L27.8824 8.99998C27.6471 8.64704 26.8942 7.83528 25.7648 7.41175Z" fill="#7A828D"/>
<path d="M16.0589 11.4706C16.906 10.7647 18.0589 8.82352 18.5295 7.94116L20.4707 8.64704C20.2354 8.76469 19.5177 9.28234 18.5295 10.4118C17.5412 11.5412 17.4118 12.8823 17.4707 13.4118L16.0589 11.647C15.706 11.8823 15.2118 12.1765 16.0589 11.4706Z" fill="#7A828D"/>
<path d="M23.8045 5.01281L27.7034 2.41356C27.796 2.35179 27.809 2.22069 27.7302 2.14195L27.0982 1.50987C27.0406 1.45232 26.9512 1.44159 26.8816 1.48392L23.0879 3.79314C23.0063 3.84283 22.979 3.94846 23.0265 4.03143L23.5534 4.95354C23.6041 5.04231 23.7194 5.06953 23.8045 5.01281Z" fill="#7A828D"/>
<path d="M31.229 6.72497L31.0657 2.66867C31.0619 2.57405 30.9841 2.4993 30.8894 2.4993L29.2415 2.4993C29.1468 2.4993 29.069 2.57404 29.0652 2.66866L28.8891 7.03272C28.8847 7.14375 28.9827 7.23123 29.0925 7.21423L31.0797 6.90646C31.1684 6.89272 31.2326 6.81463 31.229 6.72497Z" fill="#7A828D"/>
<ellipse cx="15.6768" cy="14.2724" rx="1.94118" ry="3.02048" transform="rotate(5.03433 15.6768 14.2724)" fill="#464D57"/>
<ellipse cx="13.3958" cy="19.2946" rx="0.387223" ry="1.63736" transform="rotate(-16.515 13.3958 19.2946)" fill="#464D57"/>
<ellipse cx="15.9812" cy="25.0658" rx="0.134275" ry="2.19607" transform="rotate(-39.8635 15.9812 25.0658)" fill="#464D57"/>
<ellipse cx="20.4579" cy="28.6646" rx="0.252328" ry="2.19607" transform="rotate(-63.3666 20.4579 28.6646)" fill="#464D57"/>
<ellipse cx="36.9049" cy="22.7572" rx="3.11702" ry="1.58497" transform="rotate(-42.0969 36.9049 22.7572)" fill="#464D57"/>
<ellipse cx="42.1766" cy="15.8824" rx="2.11765" ry="0.529412" transform="rotate(-90 42.1766 15.8824)" fill="#464D57"/>
<ellipse cx="40.6758" cy="22.5946" rx="2.81849" ry="0.412009" transform="rotate(-57.7552 40.6758 22.5946)" fill="#464D57"/>
<ellipse cx="33.2807" cy="28.7939" rx="3.17647" ry="0.882353" transform="rotate(-21.1781 33.2807 28.7939)" fill="#464D57"/>
<ellipse cx="33.1765" cy="16.7647" rx="3.17647" ry="3.35294" fill="#464D57"/>
<ellipse cx="30.8825" cy="8.11766" rx="3.35294" ry="2.82353" fill="#464D57"/>
<ellipse cx="29.9366" cy="1.58755" rx="3.35294" ry="1.23529" transform="rotate(6.15284 29.9366 1.58755)" fill="#464D57"/>
<ellipse cx="14.9897" cy="8.32469" rx="2.40575" ry="0.503109" transform="rotate(-57.2344 14.9897 8.32469)" fill="#464D57"/>
<path d="M40.5884 9.00001C41.1079 10.0735 41.1745 11.9839 40.4119 12.353C39.6493 12.722 38.2843 11.4852 37.7648 10.4118C37.2454 9.33835 37.6772 8.09612 38.4398 7.72706C39.2024 7.35801 40.0689 7.92658 40.5884 9.00001Z" fill="#464D57"/>
<path d="M21.1765 11.1177C21.1765 10.1294 20.4706 9.1765 20.1177 8.82355L23.2941 6.35297C23.1765 7.35297 22.9412 9.56473 22.9412 10.4118C22.9412 11.2588 23.5294 11.9412 23.8236 12.1765L20.8236 13.9412C20.9412 13.4118 21.1765 12.1059 21.1765 11.1177Z" fill="#7A828D"/>
<ellipse cx="21.285" cy="6.23851" rx="3.35294" ry="2.1838" transform="rotate(-37.2554 21.285 6.23851)" fill="#464D57"/>
<path d="M24.8825 23.4706C25.0236 20.5059 23.6472 19.1765 22.9413 18.8824L25.7648 17.8235C24.6354 19.8 26.4707 21.7059 27.5295 22.4118L24.8825 23.4706Z" fill="#7A828D"/>
<ellipse cx="23.4706" cy="15.5294" rx="3.35294" ry="3.52941" fill="#464D57"/>
<ellipse cx="27.5295" cy="24.8823" rx="3.17647" ry="2.64706" fill="#464D57"/>
<path d="M15.1765 24C15.4589 24.2823 16.1177 23.8823 16.4118 23.647L17.8236 25.4117C16.8353 25.4117 16.8236 25.7647 16.9412 25.9412L15.1765 24Z" fill="#7A828D"/>
<ellipse cx="18.1991" cy="22.9393" rx="2.10065" ry="3.12465" transform="rotate(-29.791 18.1991 22.9393)" fill="#464D57"/>
</svg>
