<svg width="36" height="36" viewBox="0 0 36 36" fill="none" xmlns="http://www.w3.org/2000/svg">
<g clip-path="url(#clip0_5037_2926)">
<path fill-rule="evenodd" clip-rule="evenodd" d="M18.0918 35.9999C31.8599 32.1075 33.4538 17.0983 31.9322 2.59111C31.2925 0.759209 23.5558 -6.10352e-05 18.0587 -6.10352e-05C13.9403 0.182425 4.80503 -6.10352e-05 3.79259 2.59111C3.06424 15.8791 3.72633 31.6055 18.0918 35.9999Z" fill="#14160F"/>
<path d="M18.0918 35.9999C31.8599 32.1075 33.4538 17.0983 31.9322 2.59111C31.2925 0.759209 23.5558 -6.10352e-05 18.0587 -6.10352e-05C13.9403 0.182425 4.80503 -6.10352e-05 3.79259 2.59111C3.06424 15.8791 3.72633 31.6055 18.0918 35.9999Z" stroke="#14160F" stroke-width="0.387344"/>
<path d="M18.1877 35.9046C30.8351 32.0444 32.8835 19.0072 31.7605 6.97325C30.6903 4.24236 5.78381 3.83981 4.40983 6.97325C3.40102 18.1928 5.05414 31.9792 18.1877 35.9046ZM18.1817 34.7255C29.7468 31.1697 31.9367 19.2756 30.5972 7.8933C29.6025 5.35569 6.75387 4.98156 5.47689 7.8933C4.83549 18.3191 6.09057 31.3853 18.1817 34.7255Z" fill="url(#paint0_linear_5037_2926)"/>
<path fill-rule="evenodd" clip-rule="evenodd" d="M5.2196 2.52119L6.64529 2.05373C6.88294 1.97596 7.06535 1.97279 7.19222 2.04379C7.31941 2.11479 7.38315 2.23354 7.38315 2.39977C7.38315 2.53929 7.33786 2.67412 7.24722 2.8039C7.1864 2.89043 7.09807 2.97205 6.98169 3.04878C7.15829 3.03153 7.28845 3.05927 7.37233 3.13075C7.45539 3.20299 7.49722 3.31409 7.49722 3.46424C7.49722 3.58685 7.46741 3.7065 7.40834 3.82388C7.34867 3.94129 7.26792 4.04473 7.16449 4.13595C7.10098 4.19192 7.00437 4.24931 6.87536 4.30756C6.70398 4.38533 6.59029 4.43348 6.53413 4.45197L5.2196 4.88281V2.52119ZM5.98781 3.19582L6.319 3.08735C6.43768 3.04844 6.52019 3.00152 6.56729 2.94708C6.61373 2.89215 6.63679 2.82813 6.63679 2.75436C6.63679 2.68564 6.61373 2.63926 6.56729 2.61607C6.52019 2.59234 6.43944 2.59966 6.32405 2.63753L5.98781 2.74759V3.19582ZM5.98781 4.12339L6.37631 3.99603C6.50784 3.95316 6.60001 3.90081 6.65342 3.8387C6.70727 3.77646 6.73423 3.70773 6.73423 3.63239C6.73423 3.56243 6.70787 3.51516 6.65463 3.49025C6.60116 3.46528 6.50822 3.47452 6.37455 3.51833L5.98781 3.64514V4.12339ZM9.46462 3.51916L8.55286 3.64915L8.42736 4.05694L7.60975 4.17362L8.58305 1.67313L9.4555 1.54864L10.4294 3.77142L9.59181 3.89087L9.46462 3.51916ZM9.29691 3.03222L9.01047 2.22415L8.726 3.11365L9.29691 3.03222ZM10.6854 1.42424L11.4916 1.34786V3.12779L12.7492 3.00883V3.59051L10.6854 3.78585V1.42424ZM13.1617 1.23276L13.9718 1.18163V3.54324L13.1617 3.59437V1.23276ZM17.4834 1.11761L18.2924 1.13036V2.53845C18.2924 2.67817 18.2679 2.80929 18.2197 2.93279C18.1715 3.05575 18.0958 3.16339 17.9927 3.25476C17.8895 3.34597 17.7815 3.40911 17.6678 3.4454C17.5104 3.49514 17.3218 3.51868 17.1007 3.51516C16.9733 3.51309 16.8341 3.50315 16.6833 3.48431C16.5324 3.46597 16.4067 3.43215 16.3054 3.38281C16.2041 3.33327 16.1112 3.26365 16.0269 3.17437C15.9429 3.08507 15.8854 2.99351 15.8544 2.89947C15.8042 2.74843 15.7792 2.61499 15.7792 2.499V1.09076L16.588 1.10352V2.54523C16.588 2.67446 16.6277 2.77582 16.7065 2.84909C16.7859 2.92286 16.8957 2.96088 17.0367 2.96315C17.1759 2.96523 17.2857 2.93121 17.3651 2.8611C17.4437 2.79134 17.4834 2.69018 17.4834 2.55936V1.11761ZM18.8342 1.12809L19.5909 1.15197L20.5775 2.4896V1.18302L21.3408 1.20695V3.56871L20.5775 3.54468L19.5957 2.21718V3.51378L18.8342 3.4899V1.12809ZM21.9115 1.24215L22.7204 1.30583V3.66764L21.9115 3.60376V1.24215ZM23.1216 1.29238L25.571 1.52436V2.10762L24.7489 2.02985V3.8082L23.9431 3.73196V1.95361L23.1216 1.87584V1.29238ZM25.9467 1.58596L28.0911 1.89186V2.39611L26.7488 2.20477V2.58013L27.9941 2.75787V3.23957L26.7488 3.06188V3.52703L28.1302 3.72415V4.25925L25.9467 3.94773V1.58596ZM28.5603 1.98065L29.7176 2.27963C29.9454 2.33836 30.1296 2.41514 30.2706 2.50913C30.4108 2.60367 30.527 2.71668 30.6184 2.84874C30.71 2.98129 30.7764 3.12433 30.818 3.27903C30.8591 3.43388 30.8796 3.5914 30.8796 3.75258C30.8796 4.00493 30.8492 4.1928 30.7874 4.31591C30.7264 4.43922 30.6414 4.53395 30.5322 4.59916C30.4237 4.66512 30.3068 4.69775 30.1818 4.69685C30.0111 4.69562 29.8561 4.67698 29.7176 4.64123L28.5603 4.34246V1.98065ZM29.339 2.71689V4.00686L29.5298 4.05605C29.6931 4.09827 29.8085 4.11152 29.8772 4.09511C29.946 4.07944 29.9998 4.0339 30.0391 3.95994C30.0779 3.88583 30.0972 3.75396 30.0972 3.5647C30.0972 3.31458 30.0538 3.13234 29.9671 3.01758C29.8797 2.90264 29.7353 2.81908 29.5333 2.76712L29.339 2.71689Z" fill="#7A828D"/>
<path fill-rule="evenodd" clip-rule="evenodd" d="M11.3761 6.18353V31.0201C9.96937 29.6727 8.86883 28.0862 8.01575 26.3412V6.69668C8.95556 6.47984 10.1017 6.30926 11.3761 6.18353Z" fill="#464849"/>
<path fill-rule="evenodd" clip-rule="evenodd" d="M8.01607 6.69672V26.3421C5.37104 20.9325 5.10496 14.0008 5.47683 7.95633C5.70689 7.43186 6.63973 7.01448 8.01607 6.69672Z" fill="#212123"/>
<path fill-rule="evenodd" clip-rule="evenodd" d="M14.7361 5.9621V33.435C13.4585 32.7605 12.3442 31.9473 11.3757 31.0198V6.18374C12.4249 6.08016 13.5594 6.00654 14.7361 5.9621Z" fill="#212123"/>
<path fill-rule="evenodd" clip-rule="evenodd" d="M18.0961 5.91265V34.7636C16.8659 34.4176 15.7493 33.97 14.7357 33.4347V5.96204C15.8322 5.92066 16.9643 5.90444 18.0961 5.91265Z" fill="#464849"/>
<path fill-rule="evenodd" clip-rule="evenodd" d="M21.4558 6.00912V33.436C20.4587 33.9681 19.3705 34.4232 18.1816 34.7887C18.1524 34.7807 18.1245 34.7717 18.0955 34.7635V5.91266C19.2286 5.92087 20.3609 5.9533 21.4558 6.00912Z" fill="#212123"/>
<path fill-rule="evenodd" clip-rule="evenodd" d="M24.8158 6.27019V31.0534C23.8365 31.9611 22.7198 32.7613 21.4554 33.4361V6.00909C22.6344 6.06946 23.7691 6.15702 24.8158 6.27019Z" fill="#464849"/>
<path fill-rule="evenodd" clip-rule="evenodd" d="M28.1757 6.8008V26.6426C27.301 28.2875 26.1933 29.7762 24.8156 31.0538V6.2702C26.0974 6.40889 27.245 6.58643 28.1757 6.8008Z" fill="#212123"/>
<path fill-rule="evenodd" clip-rule="evenodd" d="M28.1752 26.6433V6.80084C29.5235 7.11129 30.4176 7.49851 30.5971 7.95634C31.3787 14.5973 30.9577 21.4116 28.1752 26.6433Z" fill="#464849"/>
<path fill-rule="evenodd" clip-rule="evenodd" d="M8.31474 6.63055H27.352C29.1561 6.96512 30.3832 7.41059 30.5971 7.95633C30.6632 8.51763 30.7203 9.08012 30.7685 9.64296H5.39221C5.4145 9.07468 5.44277 8.5115 5.47686 7.95633C5.72318 7.39472 6.77475 6.95588 8.31474 6.63055Z" fill="#1D231E"/>
<path fill-rule="evenodd" clip-rule="evenodd" d="M5.34583 12.6621H30.934C30.957 13.6739 30.9451 14.6801 30.8949 15.6745H5.46182C5.39172 14.6696 5.35532 13.6626 5.34583 12.6621Z" fill="#1D231E"/>
<path fill-rule="evenodd" clip-rule="evenodd" d="M5.78284 18.6937H30.6144C30.4718 19.7212 30.2805 20.7277 30.0355 21.706H6.36747C6.12461 20.7214 5.93193 19.714 5.78284 18.6937Z" fill="#1D231E"/>
<path fill-rule="evenodd" clip-rule="evenodd" d="M7.31213 24.7252H29.0657C28.6412 25.7825 28.1373 26.7908 27.5455 27.7373H8.77466C8.20397 26.7877 7.72001 25.7787 7.31213 24.7252Z" fill="#1D231E"/>
<path fill-rule="evenodd" clip-rule="evenodd" d="M11.1096 30.7568H25.1265C23.913 31.9449 22.4797 32.9624 20.8001 33.769H15.4065C13.72 32.9774 12.3 31.9561 11.1096 30.7568Z" fill="#1D231E"/>
<path fill-rule="evenodd" clip-rule="evenodd" d="M10.6423 10.1746C15.0936 8.0907 14.3914 7.0871 16.5065 7.0871C18.6722 7.08722 18.4491 8.38735 22.2054 10.2779C22.1501 10.4624 22.0884 10.7181 22.0322 11.0179L22.9548 11.4508C22.9112 11.1536 22.8612 10.8638 22.8039 10.5822C24.1311 10.9471 25.4055 11.3591 27.2236 11.2816C27.0795 11.7564 25.9201 11.8813 25.7162 12.3829C25.721 15.9069 25.7257 19.4306 25.7305 22.9544C25.7603 23.7164 26.1186 24.1019 26.9848 24.6757C24.4464 24.7191 23.9686 27.21 20.6239 27.0651C20.1781 27.075 19.7004 27.0169 19.2191 26.8884C18.2512 27.6802 17.8143 28.1545 16.5065 28.1547C14.3914 28.1548 15.0936 27.1511 10.6423 25.067C11.1007 23.1968 11.0531 21.0735 11.0112 18.9627H11.0008C10.9214 16.0987 11.3223 12.9492 10.6423 10.1746ZM13.7982 10.1966L16.1109 8.15137C15.0221 8.25307 14.0211 8.93279 13.7982 10.1966ZM16.1125 8.15122L18.9457 9.56885C18.3699 8.52465 17.1979 8.05041 16.1125 8.15122ZM20.4173 26.3172C20.5318 26.3295 20.6503 26.3383 20.7734 26.3433C21.4873 26.2707 22.141 25.9102 22.5965 25.2931L20.4173 26.3172Z" fill="#14160F"/>
<path d="M10.6423 10.1746C15.0936 8.0907 14.3914 7.0871 16.5065 7.0871C18.6722 7.08722 18.4491 8.38735 22.2054 10.2779C22.1501 10.4624 22.0884 10.7181 22.0322 11.0179L22.9548 11.4508C22.9112 11.1536 22.8612 10.8638 22.8039 10.5822C24.1311 10.9471 25.4055 11.3591 27.2236 11.2816C27.0795 11.7564 25.9201 11.8813 25.7162 12.3829C25.721 15.9069 25.7257 19.4306 25.7305 22.9544C25.7603 23.7164 26.1186 24.1019 26.9848 24.6757C24.4464 24.7191 23.9686 27.21 20.6239 27.0651C20.1781 27.075 19.7004 27.0169 19.2191 26.8884C18.2512 27.6802 17.8143 28.1545 16.5065 28.1547C14.3914 28.1548 15.0936 27.151 10.6423 25.067C11.1007 23.1968 11.0531 21.0735 11.0112 18.9627H11.0008C10.9214 16.0987 11.3223 12.9492 10.6423 10.1746ZM13.7982 10.1966L16.1109 8.15137C15.0221 8.25307 14.0211 8.93279 13.7982 10.1966ZM16.1125 8.15122L18.9457 9.56885C18.3699 8.52465 17.1979 8.05041 16.1125 8.15122ZM20.4173 26.3172C20.5318 26.3295 20.6503 26.3383 20.7734 26.3433C21.4873 26.2707 22.141 25.9102 22.5965 25.2931L20.4173 26.3172Z" stroke="#14160F" stroke-width="1.9366"/>
<path fill-rule="evenodd" clip-rule="evenodd" d="M10.7195 10.141C15.1706 8.05682 14.4685 7.05306 16.5837 7.05341C18.7494 7.05341 18.5261 8.35366 22.2823 10.2442C21.9813 11.2497 21.489 14.3638 22.741 15.2618C21.7157 15.4303 20.7183 15.1759 19.9936 16.8435C20.4077 17.7363 20.9174 18.5646 22.741 18.8766C21.489 19.7745 21.9813 23.9243 22.2823 24.93C18.5261 26.8205 18.7494 28.1206 16.5837 28.1208C14.4685 28.1208 15.1706 27.1172 10.7195 25.0333C11.1779 23.163 11.1303 21.0396 11.0884 18.9288H11.078C10.9983 16.0651 11.3992 12.9154 10.7195 10.141ZM19.2744 15.9602C18.2699 15.1321 15.8402 13.9181 13.8751 15.5711V10.1628C14.3609 7.40869 18.5416 7.42595 19.2744 10.1628V15.5946V15.9602ZM13.8751 16.5942C14.8011 14.3418 19.4574 16.3523 19.1072 17.073C17.618 19.3059 14.5516 18.9883 13.8751 17.7386V16.5942ZM13.8751 18.6989C15.1661 19.7777 17.8221 19.8532 19.2744 18.2163V25.1534C18.1978 27.7081 15.8081 28.0554 13.8751 25.1534V18.6989Z" fill="#ECEDED"/>
<path fill-rule="evenodd" clip-rule="evenodd" d="M17.4289 18.445C17.1951 18.5389 16.9566 18.6068 16.719 18.651L16.7301 18.6511C16.9916 18.6511 17.2332 18.5746 17.4289 18.445Z" fill="#B5B7B8"/>
<path fill-rule="evenodd" clip-rule="evenodd" d="M17.7376 18.3043C17.2971 18.5307 16.8297 18.6569 16.3757 18.6989C16.4883 18.728 16.6073 18.7435 16.7303 18.7435C17.1386 18.7435 17.5024 18.5718 17.7376 18.3043Z" fill="#B7B9BA"/>
<path fill-rule="evenodd" clip-rule="evenodd" d="M17.6058 18.3685C17.3824 18.5715 17.0726 18.6973 16.7302 18.6973C16.6602 18.6973 16.5916 18.692 16.5248 18.6819C16.392 18.6995 16.26 18.7098 16.1298 18.7133C16.3114 18.792 16.5151 18.8361 16.7302 18.8361C17.2539 18.8361 17.7097 18.5745 17.9457 18.1887C17.8344 18.2555 17.7208 18.3151 17.6058 18.3685Z" fill="#B7B9BA"/>
<path fill-rule="evenodd" clip-rule="evenodd" d="M17.8479 18.2453C17.6094 18.5732 17.1978 18.7898 16.7301 18.7898C16.5595 18.7898 16.3964 18.7609 16.2465 18.7084C16.1365 18.7148 16.0276 18.7163 15.9203 18.7132C16.1534 18.8494 16.4315 18.9286 16.7301 18.9286C17.3598 18.9286 17.8983 18.5767 18.1163 18.0793C18.0284 18.1391 17.9389 18.1945 17.8479 18.2453Z" fill="#B7B9BA"/>
<path fill-rule="evenodd" clip-rule="evenodd" d="M18.0345 18.1335C17.8057 18.5758 17.3078 18.8823 16.7302 18.8823C16.4728 18.8823 16.2312 18.8214 16.0222 18.7147C15.9233 18.7145 15.8255 18.7104 15.7294 18.7024C16.0028 18.9017 16.351 19.0212 16.7302 19.0212C17.4612 19.0212 18.0771 18.5774 18.2642 17.9727C18.1889 18.0297 18.1124 18.0835 18.0345 18.1335Z" fill="#B7B9BA"/>
<path fill-rule="evenodd" clip-rule="evenodd" d="M18.1925 18.0258C17.9886 18.5772 17.4109 18.9748 16.7302 18.9748C16.3912 18.9748 16.0777 18.8761 15.8232 18.709C15.7308 18.7038 15.6399 18.6951 15.5505 18.6831C15.8556 18.9495 16.2716 19.1137 16.7302 19.1137C17.5598 19.1137 18.2501 18.5769 18.3966 17.868C18.3298 17.9237 18.2617 17.9761 18.1925 18.0258Z" fill="#B9BBBC"/>
<path fill-rule="evenodd" clip-rule="evenodd" d="M18.3322 17.92C18.1645 18.5773 17.511 19.0674 16.7302 19.0674C16.3113 19.0674 15.929 18.9262 15.6387 18.6938C15.5507 18.6843 15.4643 18.6714 15.3796 18.6557C15.7091 18.9932 16.192 19.2063 16.7302 19.2063C17.6575 19.2063 18.4208 18.5738 18.5176 17.7618C18.457 17.8171 18.3952 17.8699 18.3322 17.92Z" fill="#B9BBBC"/>
<path fill-rule="evenodd" clip-rule="evenodd" d="M18.4583 17.8148C18.3358 18.5755 17.6088 19.1598 16.7302 19.1598C16.2318 19.1598 15.7822 18.9718 15.464 18.6703C15.3793 18.6567 15.2964 18.6401 15.2155 18.6206C15.5626 19.0325 16.1118 19.2987 16.7302 19.2987C17.7544 19.2987 18.5892 18.569 18.6292 17.6555C18.5734 17.7109 18.5164 17.764 18.4583 17.8148Z" fill="#B9BBBC"/>
<path fill-rule="evenodd" clip-rule="evenodd" d="M18.5745 17.7089C18.5052 18.5718 17.7058 19.2525 16.7302 19.2525C16.152 19.2525 15.6359 19.0134 15.2968 18.6391C15.2144 18.6216 15.1341 18.6011 15.0559 18.5779C15.4141 19.0678 16.0302 19.3913 16.7302 19.3913C17.8366 19.3913 18.7335 18.5834 18.7335 17.587C18.7335 17.5741 18.7332 17.5612 18.7329 17.5484C18.6812 17.6041 18.6284 17.6576 18.5745 17.7089Z" fill="#B9BBBC"/>
<path fill-rule="evenodd" clip-rule="evenodd" d="M18.6819 17.6018C18.6731 18.5659 17.8028 19.3449 16.7302 19.3449C16.0711 19.3449 15.4883 19.0508 15.135 18.6002C15.0545 18.5786 14.9763 18.5542 14.9006 18.5269C15.232 19.0489 15.8308 19.4154 16.5289 19.4751C16.9715 19.4512 17.4175 19.3617 17.84 19.1991C18.438 18.8645 18.8363 18.2677 18.8363 17.5869C18.8363 17.5372 18.8341 17.4878 18.8299 17.439C18.7816 17.4952 18.7323 17.5495 18.6819 17.6018ZM16.8689 15.6943C17.2763 15.7895 17.6695 15.9265 18.0106 16.081C17.69 15.8597 17.297 15.7194 16.8689 15.6943Z" fill="#B9BBBC"/>
<path fill-rule="evenodd" clip-rule="evenodd" d="M18.7849 17.5869C18.7849 18.4282 18.1614 19.1384 17.308 19.3632C17.6501 19.2821 17.9845 19.1581 18.2983 18.9878C18.6943 18.6282 18.9389 18.1333 18.9389 17.5869C18.9389 17.4994 18.9327 17.4133 18.9205 17.3288C18.8754 17.3855 18.8294 17.4404 18.7823 17.4933C18.784 17.5243 18.7849 17.5555 18.7849 17.5869ZM17.0884 19.4093C16.9721 19.4278 16.8524 19.4375 16.7302 19.4375C15.9887 19.4375 15.3391 19.0837 14.9778 18.5534C14.8988 18.5275 14.8224 18.4986 14.7489 18.467C15.0079 18.9392 15.469 19.3054 16.0302 19.4743C16.3787 19.494 16.7361 19.4737 17.0884 19.4093ZM17.2444 15.7947C17.3857 15.8275 17.521 15.8736 17.6488 15.9312C17.9198 16.0331 18.1697 16.1488 18.3841 16.2686C17.9795 15.857 17.3885 15.5975 16.7302 15.5975C16.6359 15.5975 16.543 15.6028 16.4518 15.6131C16.7199 15.6548 16.9875 15.7175 17.2444 15.7947Z" fill="#BBBDBE"/>
<path fill-rule="evenodd" clip-rule="evenodd" d="M18.8875 17.5869C18.8875 18.1918 18.5807 18.732 18.0997 19.0884C18.2759 19.0056 18.4467 18.9091 18.6101 18.7983C18.8818 18.4571 19.0417 18.0388 19.0417 17.5869C19.0417 17.4609 19.0292 17.3374 19.0053 17.2175C18.9632 17.2748 18.9201 17.3306 18.8759 17.3843C18.8835 17.4509 18.8875 17.5185 18.8875 17.5869ZM16.2478 19.4814C15.6305 19.3544 15.1141 18.9888 14.8244 18.4982C14.7466 18.4675 14.6718 18.4339 14.6003 18.3974C14.8121 18.8482 15.1952 19.2179 15.676 19.4402C15.8633 19.4659 16.0546 19.4797 16.2478 19.4814ZM16.64 15.6457C16.6699 15.6446 16.6999 15.6439 16.7301 15.6439C17.3076 15.6439 17.8321 15.8482 18.2193 16.1809C18.3829 16.2638 18.5301 16.3499 18.6564 16.436C18.2423 15.875 17.5342 15.5051 16.7301 15.5051C16.5252 15.5051 16.3266 15.5292 16.1375 15.5743C16.3044 15.5893 16.4727 15.6137 16.64 15.6457Z" fill="#BBBDBE"/>
<path fill-rule="evenodd" clip-rule="evenodd" d="M18.9904 17.5869C18.9904 18.0835 18.7928 18.5385 18.4648 18.8918C18.6011 18.8085 18.7327 18.7157 18.8588 18.6135C19.0409 18.3077 19.1444 17.9582 19.1444 17.5869C19.1444 17.4214 19.1237 17.2602 19.0848 17.1053C19.0455 17.1631 19.0052 17.2195 18.9638 17.2739C18.9813 17.3759 18.9904 17.4805 18.9904 17.5869ZM15.8431 19.4598C15.3259 19.2608 14.9079 18.8932 14.6742 18.4336C14.5975 18.3976 14.5244 18.3584 14.4552 18.3164C14.6291 18.7563 14.9558 19.1309 15.3778 19.3884C15.5297 19.4202 15.6851 19.4442 15.8431 19.4598ZM16.2884 15.5905C16.4313 15.5649 16.579 15.5515 16.7302 15.5515C17.4629 15.5515 18.1142 15.8657 18.5272 16.3525C18.6719 16.4415 18.7957 16.5315 18.8923 16.619C18.4969 15.904 17.6774 15.4127 16.7302 15.4127C16.4232 15.4127 16.1297 15.4644 15.8596 15.5585C16.001 15.562 16.1444 15.5728 16.2884 15.5905Z" fill="#BBBDBE"/>
<path fill-rule="evenodd" clip-rule="evenodd" d="M19.0929 17.587C19.0929 17.9975 18.9638 18.3807 18.7403 18.7058C18.8534 18.6215 18.9625 18.53 19.0668 18.431C19.183 18.1701 19.2471 17.8853 19.2471 17.587C19.2471 16.335 18.1202 15.3201 16.7301 15.3201C16.3238 15.3201 15.9401 15.4069 15.6004 15.5608C15.7296 15.5551 15.8616 15.5563 15.995 15.564C16.2263 15.4958 16.4734 15.4589 16.7301 15.4589C17.6046 15.4589 18.3683 15.8869 18.7768 16.523C19.0436 16.7284 19.1779 16.9272 19.107 17.073C19.0869 17.1032 19.0664 17.1327 19.0457 17.1619C19.0766 17.2993 19.0929 17.4414 19.0929 17.587ZM15.5219 19.4161C15.0723 19.1748 14.7193 18.8029 14.5272 18.3584C14.4515 18.3163 14.3801 18.2707 14.3134 18.2221C14.4544 18.658 14.7369 19.0397 15.1131 19.3241C15.246 19.3611 15.3826 19.3919 15.5219 19.4161Z" fill="#BBBDBE"/>
<path fill-rule="evenodd" clip-rule="evenodd" d="M19.1959 17.5869C19.1959 17.921 19.1139 18.2377 18.9672 18.5218C19.0641 18.4365 19.1571 18.3451 19.2458 18.2475C19.3136 18.0378 19.3501 17.8162 19.3501 17.5869C19.3501 16.2839 18.1771 15.2276 16.7303 15.2276C16.2237 15.2276 15.7508 15.3572 15.3499 15.5814C15.4729 15.5661 15.5995 15.5586 15.7282 15.5574C16.0345 15.4346 16.3735 15.3662 16.7303 15.3662C17.7592 15.3662 18.6408 15.9341 19.0104 16.7407C19.1011 16.85 19.1422 16.9519 19.12 17.0382C19.1696 17.2137 19.1959 17.3976 19.1959 17.5869ZM15.2426 19.3579C14.8446 19.0862 14.5411 18.7084 14.384 18.2711C14.309 18.2212 14.2391 18.1678 14.1754 18.1109C14.2855 18.5484 14.5307 18.9397 14.8692 19.2475C14.9901 19.2898 15.1148 19.3267 15.2426 19.3579Z" fill="#BBBDBE"/>
<path fill-rule="evenodd" clip-rule="evenodd" d="M19.2986 17.5869C19.2986 17.8502 19.2497 18.1032 19.1597 18.3389C19.1987 18.299 19.237 18.2583 19.2744 18.2162V18.4612C19.3895 18.1896 19.4528 17.895 19.4528 17.5869C19.4528 16.2327 18.2339 15.1349 16.7303 15.1349C16.1171 15.1349 15.5512 15.3177 15.0961 15.6258C15.2181 15.5985 15.3446 15.5796 15.4747 15.5687C15.846 15.381 16.2742 15.2738 16.7303 15.2738C18.1487 15.2738 19.2986 16.3093 19.2986 17.5869ZM14.9891 19.2873C14.6324 18.9909 14.3691 18.6047 14.2437 18.1686C14.1692 18.1085 14.1018 18.0442 14.0421 17.9761C14.1211 18.4221 14.3337 18.828 14.6416 19.1595C14.7536 19.2071 14.8697 19.2498 14.9891 19.2873Z" fill="#BDBFC0"/>
<path fill-rule="evenodd" clip-rule="evenodd" d="M19.4011 17.5869C19.4011 17.843 19.3565 18.0897 19.2743 18.3211V18.6945C19.4543 18.3596 19.5553 17.9839 19.5553 17.5869C19.5553 16.1817 18.2905 15.0425 16.7302 15.0425C16.0006 15.0425 15.3357 15.2916 14.8344 15.7005C14.9578 15.6565 15.0881 15.6236 15.2234 15.6004C15.6523 15.336 16.1711 15.1812 16.7302 15.1812C18.2052 15.1812 19.4011 16.2584 19.4011 17.5869ZM14.753 19.2047C14.4307 18.8853 14.2027 18.4874 14.108 18.0467C14.0336 17.9721 13.9691 17.8921 13.9158 17.8076C13.96 18.2712 14.142 18.6993 14.425 19.0584C14.5301 19.112 14.6397 19.1608 14.753 19.2047Z" fill="#BDBFC0"/>
<path fill-rule="evenodd" clip-rule="evenodd" d="M19.5041 17.5869C19.5041 17.9412 19.4221 18.2781 19.2744 18.5834V18.8929C19.5186 18.5079 19.6582 18.0621 19.6582 17.5869C19.6582 16.1305 18.3473 14.9499 16.7303 14.9499C15.8619 14.9499 15.0819 15.2905 14.5457 15.8314C14.6755 15.7582 14.8168 15.7014 14.9663 15.6588C15.4457 15.3027 16.0602 15.0888 16.7303 15.0888C18.2621 15.0888 19.5041 16.2071 19.5041 17.5869ZM14.5318 19.1103C14.2371 18.7658 14.0398 18.3502 13.9775 17.8969C13.9391 17.846 13.9047 17.7932 13.8752 17.7385V17.0005C13.8276 17.1891 13.8024 17.3854 13.8024 17.5869C13.8024 18.0831 13.9546 18.5472 14.2192 18.9436C14.3186 19.0039 14.423 19.0595 14.5318 19.1103Z" fill="#BDBFC0"/>
<path fill-rule="evenodd" clip-rule="evenodd" d="M19.6066 17.5869C19.6066 18.0238 19.4864 18.4354 19.2743 18.7965V19.0705C19.582 18.6433 19.7607 18.134 19.7607 17.5869C19.7607 16.8453 19.4322 16.1729 18.8993 15.681C18.4396 15.3701 17.8254 15.0552 17.1417 14.8826C17.0072 14.8662 16.8698 14.8575 16.7302 14.8575C15.6506 14.8575 14.7028 15.366 14.166 16.1315C14.3141 15.9701 14.4927 15.8474 14.6931 15.7577C15.2139 15.2873 15.9343 14.9961 16.7302 14.9961C18.3188 14.9961 19.6066 16.156 19.6066 17.5869ZM14.3209 19.0027C14.0255 18.5957 13.8536 18.1095 13.8536 17.5869C13.8536 17.4796 13.861 17.3739 13.8751 17.27V16.6697C13.7615 16.9563 13.6995 17.2651 13.6995 17.5869C13.6995 18.0277 13.8156 18.444 14.0216 18.8125C14.1158 18.8807 14.2158 18.9442 14.3209 19.0027Z" fill="#BFC1C2"/>
<path fill-rule="evenodd" clip-rule="evenodd" d="M19.7095 17.587C19.7095 18.0987 19.5503 18.5769 19.2743 18.9838V19.2344C19.6451 18.7708 19.8636 18.2019 19.8636 17.587C19.8636 16.972 19.6451 16.403 19.2743 15.9394V15.9601C19.0815 15.8012 18.836 15.628 18.5516 15.4637C19.2558 15.9544 19.7095 16.723 19.7095 17.587ZM14.1192 18.8803C13.8845 18.4967 13.7507 18.0559 13.7507 17.587C13.7507 17.3198 13.7943 17.0617 13.8751 16.8181V16.5942C13.9903 16.3137 14.1635 16.0994 14.3776 15.9404C14.9228 15.3096 15.7738 14.9037 16.7302 14.9037C17.0244 14.9037 17.3086 14.9423 17.5771 15.0139C17.2447 14.8975 16.8893 14.8101 16.5224 14.7712C14.8888 14.8675 13.5968 16.0913 13.5968 17.587C13.5968 18.0021 13.6964 18.3963 13.8751 18.7512V18.6988C13.9518 18.763 14.0334 18.8234 14.1192 18.8803Z" fill="#BFC1C2"/>
<path fill-rule="evenodd" clip-rule="evenodd" d="M19.8121 17.5869C19.8121 18.1683 19.6135 18.7079 19.2743 19.1538V19.3883C19.7077 18.8925 19.9662 18.2669 19.9662 17.5869C19.9662 16.907 19.7077 16.2814 19.2743 15.7856V15.9601C19.2298 15.9233 19.1822 15.8858 19.1322 15.8478C19.5574 16.3237 19.8121 16.9285 19.8121 17.5869ZM13.9259 18.74C13.7476 18.3888 13.6482 17.9984 13.6482 17.5869C13.6482 16.0538 15.028 14.8111 16.7302 14.8111C16.7577 14.8111 16.785 14.8114 16.8123 14.812C16.542 14.7645 16.2635 14.7413 15.9816 14.7509C14.5553 15.0551 13.494 16.2093 13.494 17.5869C13.494 18.0834 13.632 18.5508 13.8751 18.96V18.6988C13.8918 18.7128 13.9088 18.7264 13.9259 18.74Z" fill="#BFC1C2"/>
<path fill-rule="evenodd" clip-rule="evenodd" d="M19.915 17.587C19.915 18.2347 19.6764 18.8323 19.2743 19.3125V19.5342C19.7699 19.0095 20.0691 18.3298 20.0691 17.587C20.0691 16.8442 19.7699 16.1644 19.2743 15.6397V15.8616C19.6764 16.3418 19.915 16.9393 19.915 17.587ZM13.8751 18.8591C13.6641 18.4757 13.5453 18.0438 13.5453 17.587C13.5453 16.1508 14.7173 14.9611 16.2471 14.7515C15.9828 14.7418 15.714 14.7594 15.445 14.8108C14.239 15.2642 13.3914 16.3364 13.3914 17.587C13.3914 18.1581 13.5681 18.692 13.8751 19.1468V18.8591Z" fill="#BFC1C2"/>
<path fill-rule="evenodd" clip-rule="evenodd" d="M20.0177 17.5869C20.0177 18.2986 19.7388 18.9516 19.2743 19.4622V19.6743C19.8317 19.1235 20.1716 18.391 20.1716 17.5869C20.1716 17.4334 20.159 17.2825 20.1351 17.1349C20.0856 17.0389 20.039 16.9415 19.9935 16.8434C20.0092 16.8073 20.0251 16.7724 20.041 16.738C19.8936 16.2709 19.6276 15.8487 19.2743 15.4996V15.5946V15.7118C19.7388 16.2224 20.0177 16.8753 20.0177 17.5869ZM13.875 19.0557C13.5999 18.6229 13.4426 18.1214 13.4426 17.5869C13.4426 16.2706 14.3966 15.1551 15.7158 14.77C15.4398 14.8002 15.162 14.8641 14.887 14.969C13.9261 15.5188 13.2885 16.4857 13.2885 17.5869C13.2885 18.2282 13.5047 18.824 13.875 19.3183V19.0557Z" fill="#BFC1C2"/>
<path fill-rule="evenodd" clip-rule="evenodd" d="M20.1204 17.5869C20.1204 18.3606 19.8008 19.0668 19.2742 19.6049V19.8092C19.8933 19.2345 20.2745 18.4509 20.2745 17.5869C20.2745 17.5151 20.2716 17.4439 20.2664 17.3732C20.187 17.2391 20.1161 17.1012 20.0489 16.9611C20.0957 17.1631 20.1204 17.3724 20.1204 17.5869ZM13.875 19.2341C13.5364 18.7589 13.3399 18.1936 13.3399 17.5869C13.3399 16.4073 14.0828 15.3839 15.1702 14.8755C14.88 14.957 14.5911 15.0811 14.3086 15.2562C13.6177 15.8388 13.1858 16.6673 13.1858 17.5869C13.1858 18.295 13.4419 18.9491 13.875 19.4785V19.2341ZM19.2742 15.5691C19.6176 15.92 19.873 16.3425 20.009 16.8085C20.0403 16.7381 20.072 16.671 20.1043 16.6075C19.9356 16.1358 19.6484 15.712 19.2742 15.3647V15.5691Z" fill="#C1C3C4"/>
<path fill-rule="evenodd" clip-rule="evenodd" d="M20.2233 17.587C20.2233 18.4211 19.8627 19.1793 19.2744 19.7423V19.9401C19.9547 19.3435 20.3773 18.5097 20.3773 17.587C20.3773 17.5738 20.3769 17.5607 20.3767 17.5476C20.3149 17.4559 20.2583 17.362 20.2054 17.2663C20.2173 17.3717 20.2233 17.4787 20.2233 17.587ZM13.8752 19.3996C13.4734 18.8872 13.2373 18.262 13.2373 17.587C13.2373 16.5729 13.7702 15.6709 14.5975 15.0956C14.3522 15.2169 14.1103 15.3732 13.8752 15.5711V15.5433C13.3795 16.1043 13.0831 16.8144 13.0831 17.587C13.0831 18.3596 13.3795 19.0698 13.8752 19.6307V19.3996ZM19.2744 15.4316C19.638 15.7797 19.9146 16.2023 20.0728 16.6713C20.104 16.6071 20.1357 16.5457 20.1678 16.4878C19.979 16.009 19.6703 15.5812 19.2744 15.2338V15.4316Z" fill="#C1C3C4"/>
<path fill-rule="evenodd" clip-rule="evenodd" d="M20.3259 17.587C20.3259 18.4806 19.924 19.2895 19.2743 19.8754V20.0677C19.9896 19.4723 20.447 18.6292 20.4781 17.6896C20.4226 17.6166 20.3713 17.5419 20.3231 17.4658C20.3248 17.506 20.3259 17.5464 20.3259 17.587ZM13.875 19.5554C13.4107 19.0099 13.1345 18.3275 13.1345 17.587C13.1345 16.7657 13.4742 16.0159 14.0337 15.445C13.9806 15.4851 13.9276 15.5269 13.875 15.5711V15.3978C13.3172 15.9873 12.9803 16.7517 12.9803 17.587C12.9803 18.4223 13.3172 19.1866 13.875 19.7761V19.5554ZM19.2743 15.2986C19.6593 15.6458 19.9572 16.0711 20.1361 16.5461C20.1676 16.4867 20.1995 16.4304 20.2319 16.377C20.0237 15.8886 19.6932 15.455 19.2743 15.1062V15.2986Z" fill="#C1C3C4"/>
<path fill-rule="evenodd" clip-rule="evenodd" d="M20.428 17.6215C20.4174 18.5595 19.9765 19.4047 19.2743 20.0044V20.1923C20.0186 19.6022 20.508 18.7575 20.5746 17.8092C20.5225 17.7481 20.4738 17.6854 20.428 17.6215ZM13.8751 19.7044C13.3482 19.1288 13.0317 18.3911 13.0317 17.5869C13.0317 16.7827 13.3482 16.0451 13.8751 15.4695V15.2574C13.2552 15.8732 12.8776 16.6903 12.8776 17.5869C12.8776 18.4836 13.2552 19.3008 13.8751 19.9166V19.7044ZM19.2743 15.1694C19.6817 15.5174 20.0012 15.9479 20.1997 16.4313C20.2317 16.376 20.2642 16.3238 20.297 16.2742C20.07 15.7744 19.7174 15.3329 19.2743 14.9816V15.1694Z" fill="#C3C5C6"/>
<path fill-rule="evenodd" clip-rule="evenodd" d="M20.527 17.7517C20.4774 18.695 20.0039 19.5382 19.2744 20.1305V20.3143C20.0501 19.7267 20.5717 18.8757 20.6689 17.9142C20.6188 17.8613 20.5716 17.807 20.527 17.7517ZM13.8752 19.8469C13.2864 19.244 12.9292 18.4532 12.9292 17.587C12.9292 16.7209 13.2864 15.9301 13.8752 15.3272V15.1218C13.1938 15.7618 12.775 16.6303 12.775 17.587C12.775 18.5437 13.1938 19.4122 13.8752 20.0522V19.8469ZM19.2744 15.0436C19.7053 15.3934 20.0469 15.8308 20.2646 16.3246C20.2973 16.2729 20.3304 16.2241 20.3639 16.178C20.1183 15.665 19.7426 15.2144 19.2744 14.8597V15.0436Z" fill="#C3C5C6"/>
<path fill-rule="evenodd" clip-rule="evenodd" d="M20.622 17.8635C20.5396 18.8178 20.0341 19.6652 19.2743 20.2537V20.4342C20.0833 19.8469 20.637 18.9857 20.7613 18.007C20.7123 17.9602 20.6659 17.9124 20.622 17.8635ZM13.8751 19.9846C13.2245 19.3565 12.8263 18.5137 12.8263 17.587C12.8263 16.6603 13.2245 15.8175 13.8751 15.1894V14.99C13.1324 15.6524 12.6721 16.5712 12.6721 17.587C12.6721 18.6028 13.1324 19.5217 13.8751 20.1841V19.9846ZM19.2743 14.9203C19.7299 15.2732 20.094 15.719 20.3303 16.2252C20.3639 16.1768 20.3978 16.131 20.4321 16.088C20.1681 15.5601 19.7689 15.0989 19.2743 14.7399V14.9203Z" fill="#C3C5C6"/>
<path fill-rule="evenodd" clip-rule="evenodd" d="M20.7153 17.962C20.6041 18.9317 20.0666 19.7875 19.2743 20.3747V20.5522C20.1184 19.9638 20.7045 19.0896 20.8535 18.0907C20.805 18.0488 20.7591 18.0058 20.7153 17.962ZM13.8751 20.1184C13.163 19.467 12.7236 18.5733 12.7236 17.587C12.7236 16.6008 13.163 15.7071 13.8751 15.0557V14.8614C13.0713 15.5447 12.5695 16.513 12.5695 17.587C12.5695 18.6611 13.0713 19.6294 13.8751 20.3126V20.1184ZM19.2743 14.7993C19.7557 15.1561 20.1428 15.612 20.3976 16.1324C20.4321 16.087 20.4671 16.0444 20.5024 16.0044C20.2201 15.4595 19.7966 14.986 19.2743 14.6219V14.7993Z" fill="#C3C5C6"/>
<path fill-rule="evenodd" clip-rule="evenodd" d="M20.8074 18.05C20.6705 19.0385 20.1006 19.9058 19.2742 20.4935V20.6685C20.1548 20.0777 20.7735 19.1881 20.9452 18.1664C20.8971 18.1285 20.8512 18.0897 20.8074 18.05ZM13.875 20.2486C13.1017 19.5756 12.6207 18.6319 12.6207 17.587C12.6207 16.542 13.1017 15.5984 13.875 14.9254V14.7354C13.0102 15.4382 12.4666 16.4553 12.4666 17.587C12.4666 18.7187 13.0102 19.7358 13.875 20.4386V20.2486ZM19.2742 14.6804C19.7825 15.0419 20.1936 15.5092 20.4668 16.0455C20.5025 16.0029 20.5386 15.9634 20.5751 15.9261C20.2744 15.3626 19.8257 14.8755 19.2742 14.5056V14.6804Z" fill="#C3C5C6"/>
<path fill-rule="evenodd" clip-rule="evenodd" d="M20.8993 18.1293C20.7387 19.1393 20.1364 20.0209 19.2744 20.6103V20.783C20.1925 20.189 20.8442 19.2822 21.0371 18.2356C20.989 18.201 20.9432 18.1655 20.8993 18.1293ZM13.8751 20.3758C13.0408 19.6827 12.518 18.6898 12.518 17.587C12.518 16.4841 13.0408 15.4912 13.8751 14.7981V14.6117C12.9496 15.3328 12.364 16.3983 12.364 17.587C12.364 18.7756 12.9496 19.8411 13.8751 20.5622V20.3758ZM19.2744 14.5636C19.811 14.9305 20.2471 15.4106 20.5385 15.9645C20.5753 15.9248 20.6125 15.8879 20.6502 15.8534C20.3313 15.2695 19.8563 14.7674 19.2744 14.3909V14.5636Z" fill="#C5C7C8"/>
<path fill-rule="evenodd" clip-rule="evenodd" d="M20.9909 18.2017C20.8085 19.2355 20.1734 20.1334 19.2743 20.7257V20.896C20.2312 20.2981 20.9165 19.3725 21.1293 18.2992C21.0812 18.2675 21.0351 18.2349 20.9909 18.2017ZM13.875 20.5004C12.98 19.7884 12.4153 18.7471 12.4153 17.5869C12.4153 16.4268 12.98 15.3855 13.875 14.6734V14.4906C12.889 15.2289 12.2611 16.3418 12.2611 17.5869C12.2611 18.8321 12.889 19.945 13.875 20.6833V20.5004ZM19.2743 14.4482C19.8407 14.8213 20.3025 15.3157 20.6122 15.8891C20.6502 15.8522 20.6887 15.818 20.7276 15.7862C20.3904 15.1801 19.8882 14.6616 19.2743 14.2779V14.4482Z" fill="#C5C7C8"/>
<path fill-rule="evenodd" clip-rule="evenodd" d="M21.083 18.268C20.88 19.3277 20.2117 20.2438 19.2743 20.8397V21.0083C20.271 20.4058 20.9898 19.4593 21.2214 18.3574C21.1734 18.3283 21.1273 18.2985 21.083 18.268ZM13.875 20.6228C12.9192 19.893 12.3124 18.8038 12.3124 17.5869C12.3124 16.37 12.9192 15.2809 13.875 14.5511V14.3713C12.8287 15.1258 12.1584 16.2858 12.1584 17.5869C12.1584 18.8881 12.8287 20.048 13.875 20.8026V20.6228ZM19.2743 14.3341C19.872 14.7142 20.3604 15.2244 20.6884 15.8192C20.7279 15.7849 20.7678 15.7533 20.808 15.724C20.4524 15.0938 19.922 14.5571 19.2743 14.1656V14.3341Z" fill="#C5C7C8"/>
<path fill-rule="evenodd" clip-rule="evenodd" d="M21.1756 18.329C20.9532 19.4163 20.2512 20.3523 19.2744 20.9524V21.119C20.312 20.5115 21.0652 19.5433 21.3147 18.4116C21.2666 18.3848 21.2202 18.3573 21.1756 18.329ZM13.8752 20.7432C12.859 19.9967 12.2099 18.8602 12.2099 17.587C12.2099 16.3137 12.859 15.1773 13.8752 14.4308V14.2536C12.7687 15.0235 12.0558 16.2301 12.0558 17.587C12.0558 18.9438 12.7687 20.1504 13.8752 20.9203V20.7432ZM19.2744 14.2216C19.9051 14.6091 20.4213 15.1365 20.7677 15.7544C20.8085 15.7228 20.8497 15.6938 20.8914 15.6672C20.5173 15.0109 19.9574 14.4548 19.2744 14.0549V14.2216Z" fill="#C5C7C8"/>
<path fill-rule="evenodd" clip-rule="evenodd" d="M21.268 18.385C21.0273 19.5015 20.2913 20.4587 19.2743 21.0636V21.2289C20.3537 20.6159 21.1416 19.6247 21.4083 18.4616C21.3599 18.4367 21.3131 18.4112 21.268 18.385ZM13.8751 20.8619C12.7986 20.0995 12.1071 18.916 12.1071 17.5869C12.1071 16.2579 12.7986 15.0743 13.8751 14.312V14.1371C12.7084 14.9215 11.953 16.1747 11.953 17.5869C11.953 18.9991 12.7084 20.2523 13.8751 21.0368V20.8619ZM19.2743 14.1102C19.9395 14.5059 20.4845 15.0519 20.8494 15.6949C20.8916 15.666 20.9342 15.6397 20.9773 15.6156C20.5849 14.9312 19.9944 14.3539 19.2743 13.9449V14.1102Z" fill="#C7C9CA"/>
<path fill-rule="evenodd" clip-rule="evenodd" d="M21.3617 18.4372C21.1034 19.5844 20.3328 20.5641 19.2743 21.1743V21.3379C20.3963 20.7192 21.2193 19.7037 21.5024 18.508C21.4539 18.485 21.407 18.4614 21.3617 18.4372ZM13.8751 20.9786C12.7385 20.2013 12.0044 18.9714 12.0044 17.5869C12.0044 16.2025 12.7385 14.9726 13.8751 14.1953V14.0225C12.6485 14.8209 11.8502 16.1199 11.8502 17.5869C11.8502 19.054 12.6485 20.353 13.8751 21.1513V20.9786ZM19.2743 13.9996C19.9757 14.404 20.5508 14.9705 20.9341 15.6407C20.9777 15.6145 21.0218 15.5907 21.0662 15.5691C20.6555 14.8545 20.0333 14.2544 19.2743 13.8358V13.9996Z" fill="#C7C9CA"/>
<path fill-rule="evenodd" clip-rule="evenodd" d="M21.4552 18.4853C21.1802 19.6644 20.3748 20.6677 19.2742 21.2835V21.4459C20.4395 20.8213 21.298 19.7807 21.597 18.5513C21.5481 18.53 21.5011 18.5079 21.4552 18.4853ZM13.875 21.094C12.6785 20.3025 11.9016 19.0265 11.9016 17.587C11.9016 16.1474 12.6785 14.8715 13.875 14.08V13.9091C12.5887 14.7206 11.7474 16.0653 11.7474 17.587C11.7474 19.1088 12.5887 20.4535 13.875 21.2649V21.094ZM19.2742 13.8905C20.0135 14.3042 20.6196 14.8925 21.0213 15.5918C21.0664 15.5682 21.112 15.5469 21.158 15.5277C20.7289 14.7809 20.0738 14.1567 19.2742 13.7281V13.8905Z" fill="#C7C9CA"/>
<path fill-rule="evenodd" clip-rule="evenodd" d="M21.5496 18.53C21.2585 19.7424 20.418 20.7704 19.2744 21.3921V21.5534C20.4841 20.9225 21.3785 19.8556 21.6926 18.5912C21.6435 18.5714 21.5958 18.551 21.5496 18.53ZM13.8751 21.2085C12.6186 20.4035 11.7989 19.0814 11.7989 17.5869C11.7989 16.0924 12.6186 14.7704 13.8751 13.9654V13.7965C12.5291 14.6204 11.6448 16.0107 11.6448 17.5869C11.6448 19.1633 12.5291 20.5535 13.8751 21.3775V21.2085ZM19.2744 13.7819C20.0534 14.2053 20.6918 14.8173 21.1118 15.5478C21.1584 15.5268 21.2054 15.5079 21.2529 15.4911C20.8057 14.7099 20.1164 14.0596 19.2744 13.6205V13.7819Z" fill="#C7C9CA"/>
<path fill-rule="evenodd" clip-rule="evenodd" d="M21.6448 18.5716C21.3382 19.8183 20.4618 20.8718 19.2744 21.4996V21.6597C20.5291 21.0226 21.46 19.9289 21.7887 18.6287C21.7393 18.6102 21.6914 18.5912 21.6448 18.5716ZM13.8751 21.3211C12.559 20.5033 11.6963 19.1359 11.6963 17.5869C11.6963 16.0379 12.559 14.6706 13.8751 13.8528V13.6853C12.4696 14.5212 11.5421 15.9564 11.5421 17.5869C11.5421 19.2175 12.4696 20.6527 13.8751 21.4886V21.3211ZM19.2744 13.6742C20.0949 14.108 20.767 14.745 21.2051 15.5087C21.2531 15.4902 21.3016 15.4738 21.3504 15.4592C20.8853 14.6418 20.1605 13.9641 19.2744 13.5141V13.6742Z" fill="#C7C9CA"/>
<path fill-rule="evenodd" clip-rule="evenodd" d="M21.7405 18.6103C21.419 19.8924 20.5065 20.9727 19.2743 21.6067V21.7657C20.5749 21.1221 21.5426 20.0005 21.8854 18.6634C21.8357 18.6462 21.7874 18.6285 21.7405 18.6103ZM13.875 21.4332C12.4992 20.6031 11.5934 19.1903 11.5934 17.5869C11.5934 15.9835 12.4992 14.5708 13.875 13.7407V13.5745C12.4099 14.4218 11.4392 15.9022 11.4392 17.5869C11.4392 19.2716 12.4099 20.7521 13.875 21.5994V21.4332ZM19.2743 13.5672C20.1382 14.0117 20.8451 14.6755 21.3012 15.4745C21.3504 15.4584 21.4 15.4444 21.45 15.4318C20.9674 14.5761 20.2063 13.8694 19.2743 13.4081V13.5672Z" fill="#C9CACC"/>
<path fill-rule="evenodd" clip-rule="evenodd" d="M21.8371 18.6465C21.5012 19.965 20.5519 21.0724 19.2744 21.7128V21.8711C20.6213 21.2209 21.6261 20.0707 21.9826 18.6958C21.9327 18.6799 21.8843 18.6634 21.8371 18.6465ZM13.8751 21.544C12.4399 20.7023 11.4908 19.2446 11.4908 17.587C11.4908 15.9294 12.4399 14.4717 13.8751 13.63V13.4654C12.3508 14.3237 11.3367 15.8486 11.3367 17.587C11.3367 19.3255 12.3508 20.8503 13.8751 21.7087V21.544ZM19.2744 13.4612C20.1834 13.9168 20.9261 14.6088 21.4 15.4451C21.4503 15.4313 21.501 15.4192 21.552 15.4086C21.0521 14.5129 20.2537 13.7757 19.2744 13.3029V13.4612Z" fill="#C9CACC"/>
<path fill-rule="evenodd" clip-rule="evenodd" d="M21.9339 18.6799C21.5842 20.0358 20.5981 21.1719 19.2744 21.8188V21.9757C20.6683 21.3188 21.7107 20.1393 22.0801 18.7257C22.0301 18.7109 21.9813 18.6957 21.9339 18.6799ZM13.8751 21.654C12.3804 20.8012 11.388 19.2986 11.388 17.587C11.388 15.8755 12.3804 14.3729 13.8751 13.5199V13.3563C12.2915 14.2251 11.234 15.7949 11.234 17.587C11.234 19.3793 12.2915 20.949 13.8751 21.8178V21.654ZM19.2744 13.3552C20.2299 13.8223 21.0094 14.5443 21.5007 15.4198C21.5521 15.4081 21.6037 15.3978 21.6558 15.3888C21.1391 14.4515 20.3024 13.6829 19.2744 13.1984V13.3552Z" fill="#C9CACC"/>
<path fill-rule="evenodd" clip-rule="evenodd" d="M22.0312 18.7109C21.6682 20.1051 20.6447 21.2699 19.2743 21.9234V22.0802C20.716 21.4166 21.7961 20.2066 22.1783 18.7535C22.128 18.7398 22.0791 18.7256 22.0312 18.7109ZM13.8751 21.7631C12.3211 20.8995 11.2853 19.3523 11.2853 17.587C11.2853 15.8217 12.3211 14.2745 13.8751 13.4109V13.2487C12.2323 14.1275 11.1311 15.7413 11.1311 17.587C11.1311 19.4326 12.2323 21.0464 13.8751 21.9253V21.7631ZM19.2743 13.2505C20.2778 13.7292 21.0952 14.482 21.6036 15.3983C21.6558 15.3884 21.7084 15.3798 21.7613 15.3722C21.2282 14.3918 20.3523 13.5901 19.2743 13.0938V13.2505Z" fill="#CBCCCE"/>
<path fill-rule="evenodd" clip-rule="evenodd" d="M22.1292 18.7398C21.7533 20.173 20.6922 21.3678 19.2744 22.028V22.1834C20.7643 21.5131 21.8828 20.2727 22.2772 18.7793C22.2267 18.7666 22.1773 18.7534 22.1292 18.7398ZM13.8752 21.8715C12.2619 20.9977 11.1826 19.4059 11.1826 17.5869C11.1826 15.768 12.2619 14.1762 13.8752 13.3023V13.1411C12.3848 13.9193 11.322 15.2878 11.0808 16.8914C11.0721 17.326 11.066 17.7576 11.0672 18.1844C11.279 19.8302 12.3546 21.2388 13.8752 22.0327V21.8715ZM19.2744 13.1458C20.3273 13.6362 21.1835 14.4213 21.7084 15.3801C21.7614 15.3718 21.8148 15.3646 21.8684 15.3581C21.3194 14.3334 20.4035 13.4984 19.2744 12.9904V13.1458Z" fill="#CBCCCE"/>
<path fill-rule="evenodd" clip-rule="evenodd" d="M22.2275 18.7667C21.8393 20.2399 20.74 21.465 19.2742 22.1319V22.287C20.813 21.6099 21.9701 20.338 22.3761 18.8034C22.3255 18.7916 22.2759 18.7794 22.2275 18.7667ZM13.875 21.9791C12.2027 21.0954 11.0797 19.4595 11.0797 17.587C11.0797 15.7146 12.2027 14.0787 13.875 13.195V13.0347C12.5025 13.7345 11.4778 14.9232 11.0926 16.3382C11.0739 17.1591 11.0567 17.9729 11.0738 18.766C11.4438 20.2118 12.4797 21.4281 13.875 22.1394V21.9791ZM19.2742 13.0421C20.3777 13.5442 21.2735 14.3625 21.8146 15.3649C21.8679 15.358 21.9214 15.3518 21.9753 15.3462C21.4109 14.2763 20.4549 13.4067 19.2742 12.8871V13.0421Z" fill="#CBCCCE"/>
<path fill-rule="evenodd" clip-rule="evenodd" d="M22.3265 18.7916C21.9263 20.3054 20.7886 21.5615 19.2743 22.2352V22.3896C20.8625 21.7058 22.0585 20.4018 22.4759 18.8256C22.425 18.8147 22.3752 18.8034 22.3265 18.7916ZM13.875 22.0863C12.4292 21.3404 11.3772 20.0455 11.0696 18.5172C11.0714 18.655 11.074 18.7921 11.0778 18.9287H11.0883L11.0933 19.1823C11.5512 20.4959 12.5597 21.5898 13.875 22.2452V22.0863ZM11.0874 16.5727C11.4161 15.081 12.4557 13.8197 13.875 13.0875V12.9286C12.567 13.5804 11.5625 14.666 11.1011 15.97L11.0874 16.5727ZM19.2743 12.9386C20.429 13.4524 21.365 14.3047 21.9218 15.3519C21.9753 15.3459 22.0292 15.3405 22.0833 15.3353C21.5038 14.2197 20.5073 13.3151 19.2743 12.7842V12.9386Z" fill="#CBCCCE"/>
<path fill-rule="evenodd" clip-rule="evenodd" d="M22.4262 18.8148C22.0143 20.3701 20.8378 21.6581 19.2743 22.3385V22.4919C20.507 21.9723 21.5117 21.087 22.1159 19.9907C22.2037 19.6443 22.3269 19.3456 22.4941 19.1234C22.5241 19.032 22.5515 18.9397 22.5762 18.8463C22.5251 18.8362 22.4751 18.8257 22.4262 18.8148ZM13.8751 22.1923C12.5306 21.5147 11.5133 20.3737 11.09 19.0092L11.0991 19.4819C11.6102 20.7134 12.6048 21.7323 13.8751 22.3511V22.1923ZM11.0973 16.1407C11.525 14.7868 12.5385 13.6552 13.8751 12.9816V12.8228C12.6119 13.4383 11.6213 14.4494 11.1077 15.6718C11.1044 15.8283 11.1008 15.9846 11.0973 16.1407ZM19.2743 12.8354C20.4812 13.3606 21.4573 14.248 22.0294 15.3406C22.0832 15.3353 22.1373 15.3303 22.1915 15.3253C21.5975 14.1636 20.5599 13.224 19.2743 12.6821V12.8354Z" fill="#CBCCCE"/>
<path fill-rule="evenodd" clip-rule="evenodd" d="M22.5261 18.8361C22.4842 18.9941 22.4349 19.1495 22.3779 19.3018C22.4573 19.1612 22.5492 19.0416 22.6547 18.9468C22.6624 18.9197 22.6697 18.8925 22.6769 18.8652C22.6256 18.8559 22.5753 18.8462 22.5261 18.8361ZM22.1872 19.7442C21.6092 20.9286 20.57 21.8889 19.2743 22.4409V22.5939C20.4445 22.1108 21.4161 21.3048 22.0484 20.3024C22.0848 20.1037 22.1307 19.9162 22.1872 19.7442ZM13.8751 22.2984C12.584 21.6624 11.5831 20.6083 11.0964 19.3384C11.099 19.473 11.1015 19.6076 11.1037 19.742C11.6548 20.9076 12.6394 21.8667 13.8751 22.4557V22.2984ZM11.1046 15.8147C11.5942 14.5541 12.5912 13.5082 13.8751 12.8756V12.7183C12.6461 13.3041 11.6655 14.2561 11.1127 15.4132C11.1103 15.5471 11.1075 15.6809 11.1046 15.8147ZM19.2743 12.7332C20.5336 13.2696 21.5506 14.1917 22.1374 15.3303L22.2998 15.3154C21.6914 14.1074 20.6127 13.1326 19.2743 12.58V12.7332Z" fill="#CDCED0"/>
<path fill-rule="evenodd" clip-rule="evenodd" d="M22.6265 18.8559C22.612 18.9107 22.5964 18.9653 22.5801 19.0195C22.6302 18.9655 22.6837 18.9176 22.7409 18.8765C22.7021 18.8699 22.6641 18.863 22.6265 18.8559ZM22.0759 20.1616C21.4557 21.2041 20.4705 22.0438 19.2742 22.5429V22.6957C20.4064 22.2375 21.3588 21.483 22.0096 20.5418C22.0281 20.411 22.05 20.2837 22.0759 20.1616ZM13.875 22.4033C12.6231 21.8 11.6338 20.8126 11.1014 19.6156C11.1035 19.7353 11.1055 19.855 11.1071 19.9746C11.6899 21.0858 12.6666 21.9964 13.875 22.5603V22.4033ZM11.1102 15.5388C11.6446 14.3506 12.6299 13.3705 13.875 12.7705V12.6135C12.6732 13.1744 11.7005 14.0781 11.1167 15.1809C11.1148 15.3002 11.1126 15.4195 11.1102 15.5388ZM19.2742 12.6309C20.5862 13.1782 21.6443 14.1355 22.2456 15.3203C22.2992 15.3154 22.353 15.3103 22.407 15.3047C21.7845 14.0508 20.6651 13.0409 19.2742 12.4781V12.6309Z" fill="#CDCED0"/>
<path fill-rule="evenodd" clip-rule="evenodd" d="M22.7273 18.8742L22.7228 18.8906C22.7289 18.886 22.7348 18.881 22.741 18.8766L22.7273 18.8742ZM22.027 20.4274C21.3848 21.3969 20.4238 22.1753 19.2743 22.6452V22.7967C20.3794 22.3584 21.3186 21.6434 21.9837 20.7488C21.9958 20.6394 22.0102 20.532 22.027 20.4274ZM13.8751 22.5081C12.6539 21.9322 11.6734 20.9986 11.1056 19.8615C11.1073 19.9708 11.1088 20.0801 11.11 20.1893C11.7187 21.2535 12.6893 22.1224 13.8751 22.6643V22.5081ZM11.1149 15.2939C11.6841 14.1652 12.6606 13.2388 13.8751 12.666V12.5096C12.6956 13.0487 11.7291 13.9114 11.1198 14.9679C11.1184 15.0765 11.1168 15.1852 11.1149 15.2939ZM19.2743 12.5289C20.6391 13.0866 21.7381 14.0792 22.3535 15.3102C22.4067 15.305 22.4601 15.2995 22.5135 15.2932C21.8773 13.9939 20.7172 12.9497 19.2743 12.3772V12.5289Z" fill="#CDCED0"/>
<path fill-rule="evenodd" clip-rule="evenodd" d="M21.9955 20.6485C21.3372 21.565 20.392 22.2985 19.2744 22.7463V22.8978C20.3585 22.476 21.2883 21.793 21.9651 20.9365C21.9735 20.839 21.9837 20.7429 21.9955 20.6485ZM13.8751 22.6126C12.6784 22.0599 11.7051 21.1706 11.1088 20.0835C11.1101 20.1852 11.1111 20.2867 11.1119 20.3882C11.7425 21.4119 12.708 22.245 13.8751 22.7678V22.6126ZM11.1185 15.0728C11.7156 13.9937 12.6849 13.111 13.8751 12.5613V12.4062C12.7142 12.9263 11.7529 13.7533 11.122 14.7696C11.1211 14.8706 11.1199 14.9717 11.1185 15.0728ZM19.2744 12.4276C20.6913 12.9953 21.8311 14.0225 22.4605 15.2992C22.5133 15.2935 22.5662 15.2871 22.6193 15.2799C22.5769 15.1924 22.5322 15.1059 22.4852 15.0206C22.3845 14.8984 22.3 14.757 22.2298 14.6008C21.541 13.5741 20.5078 12.7561 19.2744 12.2761V12.4276Z" fill="#CFD0D2"/>
<path fill-rule="evenodd" clip-rule="evenodd" d="M21.9737 20.8441C21.3025 21.719 20.3684 22.4174 19.2743 22.8474V22.9989C20.3423 22.5911 21.2648 21.9343 21.9519 21.1094C21.9579 21.0199 21.9651 20.9314 21.9737 20.8441ZM13.8751 22.7162C12.699 22.184 11.7312 21.3336 11.1111 20.2902C11.112 20.3856 11.1127 20.481 11.1132 20.5762C11.7626 21.5639 12.7239 22.3655 13.8751 22.8711V22.7162ZM11.121 14.8669C11.7414 13.8312 12.7054 12.9872 13.8751 12.458V12.303C12.7299 12.806 11.7726 13.6019 11.1233 14.5825C11.1228 14.6773 11.122 14.772 11.121 14.8669ZM19.2743 12.3267C20.743 12.9038 21.9234 13.9651 22.5665 15.2869C22.6189 15.2803 22.6714 15.273 22.7239 15.2646L22.7118 15.2396C22.4188 15.0164 22.2246 14.6684 22.1031 14.2545C21.4029 13.3406 20.4228 12.6139 19.2743 12.1752V12.3267Z" fill="#CFD0D2"/>
<path fill-rule="evenodd" clip-rule="evenodd" d="M21.9579 21.0238C21.2758 21.864 20.35 22.5336 19.2743 22.9483V23.0989C20.329 22.7035 21.2461 22.0701 21.9422 21.2726C21.9463 21.189 21.9517 21.106 21.9579 21.0238ZM13.8751 22.8194C12.7164 22.3055 11.753 21.489 11.1127 20.484C11.1133 20.5743 11.1136 20.6645 11.1137 20.7546C11.7795 21.7102 12.7376 22.4839 13.8751 22.9739V22.8194ZM11.1227 14.6742C11.763 13.6764 12.7224 12.8657 13.8751 12.3545V12.2001C12.7434 12.6876 11.7893 13.4558 11.1239 14.4047C11.1237 14.4945 11.1234 14.5843 11.1227 14.6742ZM19.2743 12.2256C20.4543 12.6805 21.4538 13.4421 22.1494 14.3993C22.1073 14.2791 22.0724 14.1522 22.0434 14.0203C21.336 13.1669 20.381 12.4899 19.2743 12.0751V12.2256ZM22.6156 15.1588C22.6348 15.1965 22.6535 15.2344 22.6718 15.2725C22.6948 15.2691 22.7179 15.2656 22.741 15.2618C22.697 15.2302 22.6553 15.1956 22.6156 15.1588Z" fill="#CFD0D2"/>
<path fill-rule="evenodd" clip-rule="evenodd" d="M21.9468 21.1913C21.255 22.0023 20.3355 22.6473 19.2743 23.0488V23.1989C20.3185 22.8144 21.2315 22.2009 21.936 21.4272C21.9386 21.3481 21.9423 21.2694 21.9468 21.1913ZM13.8751 22.9226C12.7311 22.4251 11.7714 21.6379 11.1135 20.6668C11.1138 20.753 11.1138 20.8392 11.1137 20.9252C11.794 21.8519 12.7494 22.6002 13.8751 23.076L13.8751 22.9226ZM11.1237 14.4924C11.7813 13.528 12.7369 12.7462 13.8751 12.2512V12.0979C12.755 12.5714 11.8035 13.3146 11.1238 14.2349C11.124 14.3207 11.124 14.4065 11.1237 14.4924ZM19.2743 12.125C20.3995 12.5507 21.3655 13.2502 22.0695 14.131C22.0444 14.0318 22.0231 13.9293 22.0053 13.8243C21.2918 13.0141 20.353 12.3723 19.2743 11.9751V12.125Z" fill="#CFD0D2"/>
<path fill-rule="evenodd" clip-rule="evenodd" d="M21.939 21.3502C21.2385 22.1356 20.3237 22.759 19.2744 23.1489V23.2989C20.3098 22.9243 21.2198 22.3283 21.932 21.5756C21.9336 21.5001 21.9358 21.4249 21.939 21.3502ZM13.8752 23.025C12.7439 22.5423 11.7871 21.782 11.1138 20.8414C11.1138 20.9241 11.1135 21.0067 11.1129 21.0892C11.8064 21.9897 12.7597 22.7152 13.8752 23.1782V23.025ZM11.1241 14.3187C11.7968 13.3845 12.7496 12.6292 13.8752 12.1489V11.9959C12.7652 12.4565 11.8156 13.1773 11.1231 14.0716C11.1237 14.1539 11.124 14.2363 11.1241 14.3187ZM19.2744 12.025C20.366 12.4306 21.3122 13.0891 22.0227 13.9196C22.0056 13.8311 21.9911 13.7406 21.979 13.6486C21.26 12.8723 20.3327 12.258 19.2744 11.8752V12.025Z" fill="#CFD0D2"/>
<path fill-rule="evenodd" clip-rule="evenodd" d="M21.9335 21.5022C21.2252 22.265 20.3137 22.8696 19.2744 23.2489V23.3989C20.3024 23.0334 21.2102 22.4529 21.9297 21.719C21.9303 21.6466 21.9316 21.5742 21.9335 21.5022ZM13.8751 23.1272C12.7548 22.6581 11.8003 21.9218 11.1133 21.0087C11.1129 21.0884 11.1123 21.1679 11.1115 21.2474C11.8167 22.124 12.7683 22.8294 13.8751 23.2804V23.1272ZM11.1235 14.1522C11.8098 13.2453 12.7602 12.5137 13.8751 12.0469V11.8936C12.7735 12.3425 11.8256 13.0434 11.1214 13.9142C11.1224 13.9935 11.1231 14.0728 11.1235 14.1522ZM19.2744 11.9252C20.3421 12.3148 21.2747 12.9421 21.991 13.7346C21.9788 13.653 21.9687 13.5701 21.9603 13.4861C21.2361 12.7375 20.3171 12.1458 19.2744 11.7751V11.9252Z" fill="#CFD0D2"/>
<path fill-rule="evenodd" clip-rule="evenodd" d="M21.9304 21.6484C21.2146 22.3912 20.3057 22.979 19.2742 23.3488V23.4979C20.2963 23.1407 21.2029 22.5749 21.9292 21.8582C21.929 21.7882 21.9294 21.7182 21.9304 21.6484ZM13.875 23.2292C12.7641 22.7725 11.8115 22.0577 11.1121 21.1696C11.1114 21.2468 11.1105 21.3239 11.1093 21.4008C11.8253 22.2555 12.7759 22.9414 13.875 23.3814V23.2292ZM11.1222 13.9916C11.8206 13.1094 12.7695 12.3992 13.875 11.9447V11.7927C12.781 12.2307 11.834 12.9124 11.1192 13.7616C11.1205 13.8382 11.1214 13.9149 11.1222 13.9916ZM19.2742 11.8251C20.3243 12.2016 21.2471 12.8042 21.9688 13.5662C21.96 13.4894 21.9528 13.4117 21.947 13.3333C21.2178 12.6083 20.3047 12.0363 19.2742 11.6762V11.8251Z" fill="#D1D2D4"/>
<path fill-rule="evenodd" clip-rule="evenodd" d="M21.9293 21.7889C21.2064 22.514 20.2993 23.087 19.2743 23.4482V23.5969C20.2916 23.2472 21.1975 22.6944 21.9304 21.993C21.9295 21.9249 21.9292 21.8569 21.9293 21.7889ZM13.8751 23.3308C12.7723 22.8854 11.8212 22.1901 11.1104 21.3248C11.1094 21.3999 11.1082 21.4749 11.1067 21.5498C11.8326 22.3842 12.7827 23.0526 13.8751 23.4823V23.3308ZM11.1204 13.8368C11.8301 12.9771 12.7775 12.2864 13.8751 11.8431V11.6916C12.7875 12.1194 11.841 12.7838 11.1164 13.613C11.1179 13.6875 11.1193 13.7621 11.1204 13.8368ZM19.2743 11.7257C20.3107 12.0909 21.2263 12.6727 21.9532 13.4092C21.9468 13.3362 21.9418 13.2625 21.9381 13.1884C21.2039 12.4835 20.2952 11.928 19.2743 11.5771V11.7257Z" fill="#D1D2D4"/>
<path fill-rule="evenodd" clip-rule="evenodd" d="M21.9297 21.9257C21.2 22.6346 20.2939 23.1939 19.2743 23.5473V23.6959C20.2879 23.3532 21.1936 22.812 21.9328 22.1245C21.9313 22.0583 21.9302 21.992 21.9297 21.9257ZM13.875 23.4318C12.7794 22.9969 11.8291 22.3198 11.1081 21.4754C11.1067 21.5484 11.1052 21.6212 11.1034 21.694C11.8386 22.5101 12.7882 23.163 13.875 23.5834V23.4318ZM11.1179 13.687C11.8378 12.8479 12.7844 12.1749 13.875 11.742V11.5905C12.7929 12.0091 11.8468 12.6581 11.1128 13.4693C11.1148 13.5418 11.1165 13.6143 11.1179 13.687ZM19.2743 11.6265C20.2996 11.9819 21.2102 12.5455 21.942 13.2601C21.9377 13.1902 21.9346 13.1198 21.9325 13.0491C21.1933 12.3618 20.2877 11.8206 19.2743 11.478V11.6265Z" fill="#D1D2D4"/>
<path fill-rule="evenodd" clip-rule="evenodd" d="M21.9315 22.0595C21.1954 22.7536 20.2895 23.3003 19.2742 23.6463V23.7949C20.2848 23.4587 21.1909 22.9283 21.9364 22.2537C21.9342 22.1891 21.9327 22.1244 21.9315 22.0595ZM13.875 23.5328C12.7856 23.1078 11.8358 22.4473 11.1051 21.6222C11.1035 21.6933 11.1016 21.7643 11.0995 21.8352C11.8434 22.6342 12.793 23.2727 13.875 23.6843V23.5328ZM11.1147 13.541C11.8441 12.721 12.7903 12.0643 13.875 11.6411V11.4896C12.7974 11.8995 11.8512 12.5346 11.1087 13.329C11.111 13.3996 11.113 13.4703 11.1147 13.541ZM19.2742 11.5277C20.2911 11.8742 21.1982 12.422 21.9349 13.1176C21.9322 13.0501 21.9305 12.9821 21.9297 12.9141C21.1855 12.2424 20.2818 11.7142 19.2742 11.3791V11.5277Z" fill="#D1D2D4"/>
<path fill-rule="evenodd" clip-rule="evenodd" d="M21.9345 22.1894C21.1921 22.8703 20.2863 23.4061 19.2743 23.7454V23.8936C20.2827 23.5634 21.1894 23.0425 21.9411 22.3795C21.9385 22.3163 21.9362 22.2529 21.9345 22.1894ZM13.8751 23.6339C12.7908 23.2182 11.8411 22.5729 11.1015 21.7657C11.0996 21.8352 11.0976 21.9045 11.0951 21.9737C11.8472 22.7568 12.7973 23.381 13.8751 23.7843V23.6339ZM11.1109 13.3983C11.8492 12.5958 12.7954 11.9541 13.8751 11.54V11.3896C12.8015 11.7913 11.8546 12.4123 11.1039 13.1911C11.1065 13.26 11.1089 13.3291 11.1109 13.3983ZM19.2743 11.4285C20.2846 11.7673 21.1889 12.3019 21.9307 12.9811C21.9294 12.9156 21.9289 12.8499 21.9293 12.7841C21.1801 12.126 20.2774 11.6089 19.2743 11.2804V11.4285Z" fill="#D1D2D4"/>
<path fill-rule="evenodd" clip-rule="evenodd" d="M21.9386 22.3168C21.19 22.9855 20.2838 23.5112 19.2743 23.8443V23.9915C20.2812 23.667 21.1893 23.1558 21.9468 22.5037C21.9437 22.4417 21.9409 22.3794 21.9386 22.3168ZM13.8751 23.7341C12.7953 23.3267 11.8456 22.6954 11.0974 21.9045C11.0952 21.9724 11.0927 22.0402 11.09 22.1079C11.8499 22.8765 12.8007 23.4885 13.8751 23.8842V23.7341ZM11.1065 13.2597C11.8532 12.4733 12.7996 11.8454 13.8751 11.4397V11.2897C12.8047 11.6839 11.8571 12.2927 11.0985 13.0572C11.1014 13.1246 11.1041 13.1921 11.1065 13.2597ZM19.2743 11.3295C20.2796 11.6613 21.1826 12.184 21.9294 12.8488C21.9292 12.7848 21.9298 12.7207 21.9311 12.6567C21.1767 12.011 20.2741 11.5046 19.2743 11.1823V11.3295Z" fill="#D3D4D5"/>
<path fill-rule="evenodd" clip-rule="evenodd" d="M21.9438 22.4419C21.1892 23.0993 20.2819 23.6153 19.2743 23.9426V24.0898C20.2802 23.7704 21.1898 23.2673 21.9533 22.6249C21.9498 22.5642 21.9466 22.5032 21.9438 22.4419ZM13.8751 23.8343C12.799 23.4348 11.8487 22.8167 11.0926 22.041C11.0901 22.1077 11.0873 22.1743 11.0842 22.2408C11.8517 22.9957 12.8034 23.5959 13.8751 23.9843V23.8343ZM11.1014 13.124C11.8561 12.3525 12.8032 11.7376 13.8751 11.3397V11.1897C12.8072 11.5767 11.8585 12.1741 11.0924 12.9252C11.0957 12.9914 11.0987 13.0577 11.1014 13.124ZM19.2743 11.2314C20.2757 11.5566 21.1781 12.0682 21.93 12.72C21.9308 12.6577 21.9323 12.5954 21.9345 12.5332C21.1748 11.8984 20.2719 11.4009 19.2743 11.0842V11.2314Z" fill="#D3D4D5"/>
<path fill-rule="evenodd" clip-rule="evenodd" d="M21.9498 22.5647C21.1893 23.2119 20.2805 23.7188 19.2743 24.0408V24.1878C20.2797 23.8735 21.1913 23.3783 21.9607 22.7452C21.9567 22.6853 21.9531 22.6253 21.9498 22.5647ZM13.875 23.9344C12.802 23.5424 11.8509 22.9365 11.0872 22.175C11.0843 22.2403 11.0812 22.3053 11.0779 22.3703C11.8527 23.1126 12.8054 23.7024 13.875 24.0841V23.9344ZM11.0956 12.9906C11.8578 12.233 12.806 11.6303 13.875 11.2398V11.0898C12.809 11.4702 11.859 12.0573 11.0857 12.7961C11.0892 12.8608 11.0925 12.9257 11.0956 12.9906ZM19.2743 11.1333C20.2729 11.4528 21.1755 11.9546 21.9325 12.5948C21.9342 12.5335 21.9365 12.4723 21.9394 12.4112C21.1746 11.7864 20.2705 11.2976 19.2743 10.9861V11.1333Z" fill="#D3D4D5"/>
<path fill-rule="evenodd" clip-rule="evenodd" d="M21.9569 22.6853C21.1905 23.3229 20.28 23.8219 19.2744 24.1388V24.286C20.28 23.9761 21.1938 23.4877 21.969 22.8628C21.9647 22.804 21.9606 22.7449 21.9569 22.6853ZM13.8751 24.0342C12.8046 23.6491 11.8524 23.0541 11.0812 22.3056C11.0781 22.3699 11.0747 22.434 11.0709 22.498C11.8527 23.2286 12.8072 23.8081 13.8751 24.1834V24.0342ZM11.0893 12.8604C11.859 12.1156 12.8083 11.5234 13.8751 11.1397V10.9904C12.8106 11.3645 11.8588 11.9416 11.0784 12.6689C11.0823 12.7326 11.086 12.7965 11.0893 12.8604ZM19.2744 11.0351C20.2712 11.3491 21.1747 11.8421 21.9369 12.4718C21.9395 12.4119 21.9425 12.3522 21.9462 12.2927C21.1758 11.6766 20.2702 11.1947 19.2744 10.8879V11.0351Z" fill="#D5D6D7"/>
<path fill-rule="evenodd" clip-rule="evenodd" d="M21.9647 22.8044C21.1924 23.4332 20.2797 23.9248 19.2743 24.2368V24.3837C20.2806 24.0782 21.1967 23.5965 21.9779 22.9793C21.9732 22.9215 21.9688 22.8632 21.9647 22.8044ZM13.875 24.1338C12.8063 23.7555 11.8526 23.1711 11.0744 22.4349C11.0709 22.4978 11.0672 22.5606 11.0632 22.6233C11.8518 23.343 12.8081 23.913 13.875 24.2824V24.1338ZM11.0821 12.7317C11.8589 11.9989 12.8099 11.4171 13.875 11.04V10.8915C12.8114 11.2597 11.8576 11.8274 11.0704 12.544C11.0746 12.6065 11.0784 12.6691 11.0821 12.7317ZM19.2743 10.9371C20.2702 11.2462 21.175 11.7316 21.9426 12.3519C21.9459 12.2928 21.9497 12.2339 21.9539 12.1754C21.1781 11.5674 20.2703 11.0924 19.2743 10.7901V10.9371Z" fill="#D5D6D7"/>
<path fill-rule="evenodd" clip-rule="evenodd" d="M21.9732 22.9213C21.195 23.5423 20.2801 24.0274 19.2743 24.3351V24.4812C20.2815 24.1798 21.2007 23.7045 21.9876 23.0946C21.9825 23.0373 21.9777 22.9797 21.9732 22.9213ZM13.875 24.233C12.8077 23.8607 11.8524 23.286 11.0672 22.5609C11.0634 22.6231 11.0594 22.6853 11.0551 22.7472C11.8503 23.4566 12.8088 24.0178 13.875 24.3815V24.233ZM11.0744 12.6065C11.8582 11.8846 12.8109 11.3122 13.875 10.941V10.7926C12.8117 11.1554 11.8557 11.7143 11.0618 12.421C11.0662 12.4827 11.0704 12.5446 11.0744 12.6065ZM19.2743 10.8389C20.2701 11.1435 21.1766 11.6219 21.9498 12.2339C21.9537 12.1758 21.9581 12.118 21.963 12.0607C21.1815 11.4598 20.271 10.9913 19.2743 10.6929V10.8389Z" fill="#D5D6D7"/>
<path fill-rule="evenodd" clip-rule="evenodd" d="M21.9826 23.0376C21.1986 23.6509 20.281 24.1292 19.2743 24.4325V24.5785C20.283 24.2808 21.2052 23.8112 21.998 23.2079C21.9927 23.1516 21.9874 23.095 21.9826 23.0376ZM13.8751 24.3319C12.8086 23.9656 11.8511 23.4004 11.0592 22.686C11.0551 22.747 11.0508 22.8079 11.0461 22.8685C11.8481 23.5687 12.8088 24.122 13.8751 24.4805V24.3319ZM11.066 12.4819C11.8566 11.7704 12.8117 11.2074 13.8751 10.8421V10.6935C12.8116 11.0511 11.853 11.6023 11.0524 12.3C11.0572 12.3605 11.0617 12.4212 11.066 12.4819ZM19.2743 10.7416C20.2706 11.0419 21.1797 11.5135 21.9583 12.1177C21.9628 12.0605 21.9678 12.0037 21.9732 11.9473C21.1859 11.353 20.2724 10.8901 19.2743 10.5955V10.7416Z" fill="#D5D6D7"/>
<path fill-rule="evenodd" clip-rule="evenodd" d="M21.9926 23.1514C21.2027 23.7579 20.2822 24.2302 19.2743 24.5298V24.6758C20.2848 24.3818 21.2104 23.9177 22.0091 23.3205C22.0033 23.2647 21.9978 23.2085 21.9926 23.1514ZM13.875 24.431C12.8088 24.0699 11.8492 23.5127 11.0506 22.8079C11.0462 22.8684 11.0415 22.9287 11.0365 22.9889C11.8449 23.6803 12.8084 24.2261 13.875 24.5795V24.431ZM11.057 12.3604C11.8543 11.6582 12.8117 11.103 13.875 10.7429V10.5944C12.8109 10.947 11.8496 11.491 11.0423 12.1801C11.0475 12.2401 11.0524 12.3002 11.057 12.3604ZM19.2743 10.6441C20.2717 10.9406 21.1836 11.4063 21.968 12.0038C21.9731 11.9471 21.9786 11.8907 21.9846 11.8348C21.1915 11.2465 20.2744 10.7891 19.2743 10.4981V10.6441Z" fill="#D5D6D7"/>
<path fill-rule="evenodd" clip-rule="evenodd" d="M22.0034 23.2644C21.2077 23.8645 20.2839 24.3313 19.2744 24.6271V24.7731C20.2871 24.4824 21.2162 24.0231 22.021 23.4315C22.0149 23.3764 22.009 23.3208 22.0034 23.2644ZM13.8751 24.53C12.8088 24.1742 11.8467 23.6248 11.0415 22.9292C11.0368 22.9886 11.0318 23.0478 11.0265 23.1068C11.8414 23.7902 12.8077 24.329 13.8751 24.6779V24.53ZM11.0475 12.2396C11.8514 11.5464 12.8114 10.999 13.8751 10.644V10.4961C12.81 10.8442 11.8456 11.3815 11.0318 12.0627C11.0373 12.1216 11.0425 12.1805 11.0475 12.2396ZM19.2744 10.547C20.2735 10.8397 21.1887 11.2998 21.9789 11.891C21.9846 11.8352 21.9905 11.7798 21.997 11.7251C21.1978 11.1419 20.2771 10.6888 19.2744 10.4009V10.547Z" fill="#D7D8D9"/>
<path fill-rule="evenodd" clip-rule="evenodd" d="M22.0149 23.3764C21.2133 23.9707 20.2859 24.4321 19.2744 24.7244V24.8704C20.2897 24.5828 21.2226 24.1278 22.0334 23.5413C22.027 23.487 22.0208 23.4322 22.0149 23.3764ZM13.8751 24.6289C12.8081 24.2777 11.8433 23.7353 11.0316 23.048C11.0265 23.1068 11.0212 23.1656 11.0155 23.2241C11.8369 23.8999 12.8065 24.4317 13.8751 24.7761V24.6289ZM11.0372 12.1212C11.8478 11.4361 12.8105 10.8954 13.8751 10.5451V10.398C12.8086 10.7417 11.8407 11.2719 11.0204 11.9458C11.0263 12.0041 11.032 12.0626 11.0372 12.1212ZM19.2744 10.4495C20.2757 10.7389 21.1946 11.1942 21.9906 11.7799C21.9969 11.7247 22.0034 11.67 22.0102 11.616C21.2049 11.0376 20.2801 10.5885 19.2744 10.3037V10.4495Z" fill="#D7D8D9"/>
<path fill-rule="evenodd" clip-rule="evenodd" d="M22.0271 23.4865C21.2194 24.0754 20.2884 24.5325 19.2744 24.8217V24.9675C20.2927 24.683 21.2298 24.2323 22.0466 23.6506C22.0399 23.5967 22.0334 23.5421 22.0271 23.4865ZM13.8752 24.7269C12.8072 24.3804 11.8393 23.8451 11.0211 23.1656C11.0157 23.2236 11.01 23.2815 11.004 23.3392C11.8318 24.0081 12.8049 24.5339 13.8752 24.8741V24.7269ZM11.0264 12.004C11.8434 11.3266 12.8094 10.793 13.8752 10.4471V10.2999C12.8069 10.6395 11.8354 11.1641 11.0085 11.8312C11.0147 11.8887 11.0208 11.9463 11.0264 12.004ZM19.2744 10.3524C20.2785 10.6387 21.2012 11.0898 22.0034 11.6704C22.0101 11.6155 22.0173 11.5612 22.0246 11.5076C21.2131 10.9335 20.2836 10.4883 19.2744 10.2065V10.3524Z" fill="#D7D8D9"/>
<path fill-rule="evenodd" clip-rule="evenodd" d="M22.0398 23.5959C21.226 24.1799 20.2912 24.6329 19.2744 24.919V25.0639C20.2959 24.7822 21.2374 24.3356 22.0603 23.7582C22.0533 23.705 22.0465 23.651 22.0398 23.5959ZM13.8751 24.825C12.8058 24.4827 11.8344 23.9542 11.0099 23.282C11.0042 23.3391 10.9981 23.3962 10.9918 23.453C11.8261 24.1155 12.8028 24.6357 13.8751 24.9721V24.825ZM11.0147 11.8881C11.8382 11.2177 12.8078 10.6905 13.8751 10.3489V10.2018C12.8045 10.5376 11.8293 11.0567 10.9959 11.7176C11.0025 11.7744 11.0087 11.8312 11.0147 11.8881ZM19.2744 10.2549C20.2818 10.5383 21.2089 10.9854 22.0173 11.5617C22.0244 11.5075 22.0319 11.454 22.0396 11.4014C21.217 10.8279 20.2771 10.3846 19.2577 10.1055C19.2633 10.1246 19.2692 10.1434 19.2744 10.1627V10.2549Z" fill="#D9DADB"/>
<path fill-rule="evenodd" clip-rule="evenodd" d="M22.0533 23.7047C21.2335 24.2841 20.2942 24.7326 19.2743 25.0156V25.1533L19.2708 25.1614C20.2973 24.8824 21.2445 24.439 22.0747 23.8649C22.0674 23.8125 22.0603 23.7591 22.0533 23.7047ZM13.8751 24.9231C12.8038 24.5848 11.829 24.0619 10.998 23.3962C10.9919 23.4531 10.9855 23.5098 10.9788 23.5664C11.8195 24.2229 12.8002 24.7377 13.8751 25.0703V24.9231ZM11.0023 11.7742C11.8324 11.1102 12.8057 10.5885 13.8751 10.2507V10.1627C13.8789 10.1413 13.8836 10.1206 13.8878 10.0995C12.8095 10.4314 11.8257 10.9468 10.9825 11.6045C10.9894 11.661 10.9959 11.7176 11.0023 11.7742ZM19.2729 10.1578C20.2845 10.4385 21.2168 10.8819 22.032 11.4544C22.0396 11.4007 22.0475 11.3478 22.0557 11.2958C21.2178 10.7196 20.2613 10.2763 19.2251 10.0001C19.2422 10.0517 19.2584 10.1041 19.2729 10.1578Z" fill="#D9DADB"/>
<path fill-rule="evenodd" clip-rule="evenodd" d="M22.0673 23.8116C21.2413 24.387 20.2976 24.8319 19.2743 25.1123V25.1534C19.2576 25.193 19.2405 25.2322 19.2232 25.2708C20.2719 24.9951 21.2404 24.5503 22.0898 23.971C22.0821 23.9191 22.0747 23.8659 22.0673 23.8116ZM13.8751 25.0213C12.8015 24.6869 11.8228 24.1694 10.9854 23.5099C10.9789 23.5659 10.9722 23.6217 10.9652 23.6774C11.816 24.3312 12.8052 24.8432 13.888 25.1723L13.8751 25.1534V25.0213ZM10.9891 11.6612C11.8264 11.0027 12.8044 10.486 13.8772 10.1521C13.8869 10.0986 13.8983 10.0465 13.9107 9.99504C12.8205 10.3234 11.8244 10.837 10.9684 11.4942C10.9756 11.5498 10.9825 11.6054 10.9891 11.6612ZM19.2424 10.0533C20.2697 10.3309 21.2175 10.774 22.0475 11.3487C22.0556 11.2952 22.064 11.2426 22.0726 11.1911C21.2178 10.611 20.243 10.1667 19.1877 9.89374C19.2073 9.9458 19.2255 9.99894 19.2424 10.0533Z" fill="#D9DADB"/>
<path fill-rule="evenodd" clip-rule="evenodd" d="M22.0821 23.9181C21.2424 24.4948 20.2845 24.9389 19.2469 25.2163C19.2226 25.272 19.1978 25.327 19.1722 25.3805C20.2447 25.1085 21.2361 24.6618 22.1057 24.0765C22.0977 24.0251 22.0899 23.972 22.0821 23.9181ZM13.875 25.1195C12.7988 24.7886 11.8161 24.276 10.972 23.6221C10.9652 23.6774 10.9582 23.7326 10.9508 23.7876C11.8299 24.453 12.8526 24.9692 13.9708 25.2939C13.9388 25.2478 13.9069 25.2011 13.875 25.1533V25.1195ZM10.9754 11.5493C11.8248 10.8921 12.8143 10.3774 13.8982 10.0473C13.91 9.99357 13.9234 9.94106 13.9381 9.88959C12.8338 10.2145 11.8235 10.7263 10.9535 11.3842C10.9611 11.4391 10.9684 11.4942 10.9754 11.5493ZM19.2069 9.9471C20.2524 10.2217 21.2177 10.6653 22.0639 11.2433C22.0725 11.1902 22.0813 11.1382 22.0903 11.0873C21.217 10.5022 20.2217 10.0567 19.1452 9.7868C19.1672 9.83892 19.1877 9.89256 19.2069 9.9471Z" fill="#D9DADB"/>
<path fill-rule="evenodd" clip-rule="evenodd" d="M22.0977 24.0239C21.2382 24.6062 20.2582 25.0521 19.1975 25.326C19.1718 25.3815 19.1457 25.4362 19.1187 25.4894C20.2162 25.2208 21.2315 24.7721 22.1223 24.1801C22.114 24.1295 22.1058 24.0773 22.0977 24.0239ZM13.9293 25.2331C12.8289 24.9061 11.8229 24.3922 10.9581 23.7326C10.9509 23.7876 10.9435 23.8424 10.9357 23.8972C11.8443 24.5747 12.9018 25.0959 14.0573 25.4156C14.0144 25.3565 13.9718 25.2953 13.9293 25.2331ZM10.9611 11.439C11.8239 10.7815 12.8268 10.269 13.9238 9.94233C13.9381 9.888 13.9536 9.8347 13.9708 9.78279C12.8501 10.104 11.8234 10.6152 10.938 11.2749C10.946 11.3295 10.9537 11.3842 10.9611 11.439ZM19.1665 9.83985C20.2324 10.1112 21.2174 10.5562 22.0814 11.1387C22.0904 11.0864 22.0997 11.0351 22.109 10.985C21.2155 10.3935 20.1975 9.9459 19.0971 9.67926C19.1219 9.73137 19.1447 9.78516 19.1665 9.83985Z" fill="#D9DADB"/>
<path fill-rule="evenodd" clip-rule="evenodd" d="M22.1139 24.1284C21.2336 24.7171 20.2304 25.1647 19.1453 25.4351C19.1178 25.491 19.0898 25.5459 19.061 25.5993C20.1856 25.3345 21.2263 24.8828 22.1398 24.2832C22.1311 24.2332 22.1224 24.1816 22.1139 24.1284ZM14.0145 25.3555C12.8774 25.0332 11.8373 24.5141 10.9432 23.8425C10.9358 23.8968 10.9279 23.951 10.9198 24.0049C11.859 24.6955 12.9526 25.2219 14.1467 25.5362C14.1025 25.4778 14.0583 25.4172 14.0145 25.3555ZM10.9459 11.3294C11.8235 10.6707 12.8417 10.1593 13.954 9.83627C13.9711 9.78115 13.9892 9.72696 14.0093 9.67445C12.8695 9.99212 11.8245 10.5041 10.9218 11.1674C10.9301 11.2214 10.9382 11.2753 10.9459 11.3294ZM19.1212 9.73309C20.2095 10.0014 21.2161 10.4478 22.0994 11.0361C22.1089 10.9839 22.1186 10.9329 22.1285 10.8833C21.2126 10.284 20.1693 9.83301 19.042 9.56989C19.0701 9.62269 19.0962 9.67742 19.1212 9.73309Z" fill="#DBDCDD"/>
<path fill-rule="evenodd" clip-rule="evenodd" d="M22.131 24.2316C21.2289 24.8275 20.2011 25.2776 19.0901 25.5444C19.0607 25.6004 19.0309 25.6555 19.0001 25.7089C20.1533 25.4481 21.2212 24.9936 22.1583 24.3856C22.1491 24.3361 22.1401 24.2848 22.131 24.2316ZM14.1022 25.476C12.9274 25.159 11.8518 24.6354 10.9279 23.9514C10.9201 24.0051 10.912 24.0585 10.9034 24.1118C11.8744 24.816 13.0056 25.3479 14.2401 25.6565C14.1939 25.5982 14.148 25.5377 14.1022 25.476ZM10.9301 11.2208C11.8241 10.5593 12.8599 10.0477 13.9902 9.7283C14.01 9.67293 14.0309 9.61849 14.0541 9.56599C12.8927 9.87999 11.8268 10.3927 10.9053 11.0607C10.9139 11.114 10.9221 11.1673 10.9301 11.2208ZM19.0697 9.62443C20.1834 9.88933 21.214 10.3386 22.1186 10.934C22.1286 10.882 22.1388 10.8313 22.1491 10.7823C21.209 10.1739 20.1377 9.72005 18.9809 9.46088C19.0123 9.51373 19.0415 9.56851 19.0697 9.62443Z" fill="#DBDCDD"/>
<path fill-rule="evenodd" clip-rule="evenodd" d="M22.1489 24.3344C21.2236 24.9382 20.1694 25.3916 19.0305 25.6544C18.9993 25.7104 18.9675 25.7653 18.9348 25.8184C20.1186 25.5622 21.2155 25.1046 22.1776 24.4875C22.168 24.4385 22.1583 24.3876 22.1489 24.3344ZM14.1939 25.5971C12.9794 25.2856 11.867 24.7559 10.9118 24.0585C10.9036 24.1118 10.895 24.1651 10.8861 24.2181C11.8898 24.9366 13.0603 25.474 14.3368 25.7759C14.2889 25.7183 14.2413 25.6583 14.1939 25.5971ZM10.9136 11.1141C11.8257 10.4485 12.8811 9.93616 14.0317 9.62028C14.0549 9.56392 14.0795 9.50864 14.1062 9.45544C12.9198 9.76554 11.83 10.2803 10.8874 10.9548C10.8965 11.0078 10.9052 11.0609 10.9136 11.1141ZM19.0115 9.51527C20.1535 9.77642 21.2108 10.229 22.1387 10.8328C22.1493 10.7808 22.16 10.7305 22.1707 10.682C21.2039 10.0629 20.1012 9.60495 18.9112 9.35028C18.9464 9.40348 18.9797 9.45866 19.0115 9.51527Z" fill="#DBDCDD"/>
<path fill-rule="evenodd" clip-rule="evenodd" d="M22.1677 24.4366C21.2182 25.0491 20.136 25.5051 18.9675 25.7637C18.9338 25.8203 18.8993 25.8755 18.8641 25.929C20.0811 25.6774 21.2089 25.2152 22.1979 24.5875C22.1878 24.5397 22.1778 24.4894 22.1677 24.4366ZM14.2882 25.7162C13.0328 25.4109 11.8821 24.8764 10.8948 24.1651C10.8862 24.2181 10.8772 24.271 10.8679 24.3236C11.9057 25.0572 13.1175 25.5999 14.4379 25.8945C14.3878 25.8372 14.338 25.7774 14.2882 25.7162ZM10.8962 11.0078C11.8283 10.3366 12.906 9.8228 14.0799 9.51068C14.1069 9.45338 14.1356 9.39756 14.1664 9.34377C12.9516 9.64961 11.8349 10.167 10.8689 10.8497C10.8783 10.9023 10.8875 10.955 10.8962 11.0078ZM18.9463 9.40562C20.1195 9.66262 21.2063 10.1185 22.1597 10.7321C22.1707 10.6807 22.1818 10.631 22.193 10.5834C21.1968 9.9519 20.0597 9.48863 18.8328 9.23895C18.8725 9.29255 18.9103 9.34822 18.9463 9.40562Z" fill="#DBDCDD"/>
<path fill-rule="evenodd" clip-rule="evenodd" d="M22.1877 24.5377C21.2123 25.16 20.1001 25.6198 18.8999 25.8738C18.8639 25.9303 18.827 25.9852 18.7893 26.0383C20.0415 25.7918 21.2025 25.3257 22.2196 24.6866C22.209 24.6399 22.1983 24.5902 22.1877 24.5377ZM14.3876 25.8358C13.0891 25.5375 11.898 24.9971 10.8771 24.271C10.8681 24.3232 10.8589 24.3753 10.8492 24.4273C11.9229 25.1771 13.1777 25.7266 14.5447 26.0132C14.4922 25.9562 14.4398 25.897 14.3876 25.8358ZM10.8783 10.9022C11.8326 10.2236 12.9355 9.70731 14.1361 9.39929C14.1672 9.34124 14.2003 9.28513 14.2356 9.23099C12.9887 9.53233 11.842 10.0536 10.8499 10.7463C10.8597 10.7982 10.8692 10.8501 10.8783 10.9022ZM18.8727 9.29427C20.0809 9.54652 21.2004 10.0076 22.1818 10.6327C22.1934 10.5813 22.2052 10.5324 22.2168 10.4856C21.1883 9.83986 20.013 9.37096 18.7451 9.12701C18.7895 9.18071 18.8321 9.23638 18.8727 9.29427Z" fill="#DCDEDF"/>
<path fill-rule="evenodd" clip-rule="evenodd" d="M22.2084 24.6372C21.2056 25.2705 20.0616 25.7344 18.8275 25.9835C18.7884 26.0406 18.7484 26.0958 18.7076 26.1491C19.9983 25.9084 21.1951 25.4368 22.2428 24.7847C22.2314 24.7391 22.22 24.69 22.2084 24.6372ZM14.4906 25.9537C13.1472 25.663 11.9141 25.1171 10.8586 24.3755C10.8492 24.4272 10.8395 24.4788 10.8295 24.5303C11.9404 25.2972 13.2405 25.8526 14.6559 26.1302C14.6006 26.0737 14.5455 26.0149 14.4906 25.9537ZM10.8596 10.7978C11.8383 10.1104 12.9695 9.59119 14.1998 9.28752C14.2361 9.22805 14.2747 9.17095 14.3154 9.11597C13.032 9.41197 11.8512 9.93852 10.8301 10.6434C10.8402 10.6948 10.8501 10.7462 10.8596 10.7978ZM18.7906 9.18321C20.0373 9.43022 21.1929 9.89605 22.2047 10.5344C22.217 10.4831 22.2293 10.4345 22.2415 10.3886C21.1775 9.72656 19.9597 9.25089 18.6461 9.01392C18.6963 9.06801 18.7446 9.12432 18.7906 9.18321Z" fill="#DCDEDF"/>
<path fill-rule="evenodd" clip-rule="evenodd" d="M22.2311 24.7357C21.1991 25.381 20.0208 25.8496 18.75 26.0933C18.7079 26.1506 18.6648 26.2057 18.6208 26.2588C19.9527 26.0244 21.1882 25.5477 22.2683 24.8813C22.2562 24.8374 22.2437 24.7886 22.2311 24.7357ZM14.5994 26.0716C13.2087 25.7893 11.9315 25.237 10.8396 24.4788C10.8298 24.5303 10.8196 24.5816 10.8092 24.6327C11.9594 25.418 13.3077 25.9802 14.7746 26.2475C14.7161 26.1914 14.6576 26.1329 14.5994 26.0716ZM10.8402 10.6948C11.8462 9.9963 13.0094 9.47256 14.2736 9.17379C14.3154 9.11347 14.3598 9.05582 14.4065 9.00065C13.0822 9.29052 11.8628 9.82191 10.8096 10.5409C10.8201 10.5921 10.8303 10.6433 10.8402 10.6948ZM18.6975 9.07031C19.9875 9.31094 21.1833 9.7834 22.2291 10.437C22.2422 10.3856 22.2554 10.3372 22.2681 10.2925C21.1649 9.61179 19.8994 9.12899 18.5347 8.90033C18.5911 8.95427 18.6455 9.01093 18.6975 9.07031Z" fill="#DCDEDF"/>
<path fill-rule="evenodd" clip-rule="evenodd" d="M22.2553 24.8332C21.1917 25.4923 19.9759 25.9664 18.6651 26.2041C18.6193 26.2616 18.5725 26.3167 18.5247 26.3695C19.3789 26.2286 20.1948 25.9894 20.9576 25.665C21.3366 25.432 21.7725 25.1865 22.2822 24.9299C22.2734 24.9004 22.2644 24.868 22.2553 24.8332ZM14.7138 26.1888C13.2732 25.9161 11.9496 25.3575 10.8196 24.5816C10.8094 24.6328 10.7987 24.6838 10.7878 24.7346C11.979 25.5391 13.3779 26.1073 14.899 26.3632C14.8371 26.3079 14.7753 26.2498 14.7138 26.1888ZM10.8199 10.5921C11.8565 9.88053 13.0561 9.35175 14.3592 9.05862C14.408 8.99681 14.4597 8.93818 14.5138 8.88241C13.1416 9.16467 11.8778 9.70318 10.788 10.4393C10.799 10.4902 10.8096 10.5411 10.8199 10.5921ZM18.5919 8.95727C19.9304 9.19033 21.1715 9.66927 22.2547 10.3404C22.264 10.3065 22.2732 10.2743 22.2822 10.2442C21.7723 9.98747 21.3361 9.7418 20.9568 9.50863C20.1593 9.16952 19.3034 8.92369 18.4066 8.78595C18.4707 8.83984 18.5326 8.89699 18.5919 8.95727Z" fill="#DCDEDF"/>
<path fill-rule="evenodd" clip-rule="evenodd" d="M22.2819 24.9291L22.2734 24.9345L22.2822 24.93L22.2819 24.9291ZM21.3054 25.4573C20.4597 25.8569 19.5416 26.149 18.5736 26.314C18.5234 26.372 18.4721 26.4274 18.4197 26.48C19.1557 26.3671 19.8644 26.1824 20.5365 25.9335C20.767 25.7809 21.0217 25.622 21.3054 25.4573ZM14.8356 26.3052C13.3422 26.0433 11.969 25.4785 10.7987 24.6839C10.7881 24.7344 10.7771 24.7848 10.7659 24.835C12.0011 25.6609 13.4548 26.2364 15.0344 26.4791C14.9681 26.4243 14.9017 26.3664 14.8356 26.3052ZM10.7988 10.4901C11.8699 9.76288 13.1108 9.22793 14.4584 8.94166C14.5153 8.87873 14.5752 8.8191 14.638 8.76328C13.2114 9.03644 11.897 9.58267 10.7657 10.339C10.7771 10.3893 10.7881 10.4396 10.7988 10.4901ZM18.4723 8.84263C19.4772 9.00411 20.4292 9.30283 21.3041 9.71611C21.0208 9.55162 20.7663 9.39286 20.536 9.24029C19.8152 8.97335 19.0523 8.7796 18.2587 8.66998C18.3324 8.72377 18.4038 8.78123 18.4723 8.84263ZM22.2746 10.2403L22.282 10.2449L22.2822 10.2442L22.2746 10.2403Z" fill="#DCDEDF"/>
<path fill-rule="evenodd" clip-rule="evenodd" d="M20.724 25.8115C20.0132 26.0919 19.2593 26.3 18.4735 26.425C18.4179 26.4836 18.3608 26.5388 18.3027 26.5911C18.9704 26.4972 19.6165 26.3447 20.2342 26.1393C20.3855 26.0334 20.5483 25.9241 20.724 25.8115ZM14.9667 26.422C13.4163 26.1727 11.9901 25.6003 10.7769 24.785C10.7659 24.835 10.7547 24.8848 10.7431 24.9345C12.0254 25.7835 13.5378 26.367 15.1806 26.5945C15.1092 26.5408 15.0378 26.4832 14.9667 26.422ZM10.777 10.3888C11.8866 9.64322 13.1746 9.10144 14.5725 8.82343C14.6404 8.75827 14.7122 8.69795 14.7868 8.64169C13.2961 8.90303 11.9221 9.45875 10.7429 10.2395C10.7546 10.2892 10.766 10.3389 10.777 10.3888ZM18.3356 8.7283C19.1708 8.85033 19.9713 9.0655 20.7234 9.36209C20.5478 9.24961 20.3851 9.1403 20.2339 9.03444C19.5506 8.80731 18.8324 8.64509 18.0889 8.55511C18.174 8.60807 18.2562 8.66606 18.3356 8.7283Z" fill="#DEE0E1"/>
<path fill-rule="evenodd" clip-rule="evenodd" d="M20.3765 26.0411C19.7346 26.2658 19.0608 26.4325 18.363 26.5352C18.3008 26.5944 18.2374 26.6502 18.1725 26.7017C18.7976 26.6221 19.4048 26.4922 19.9883 26.3156C20.1095 26.2267 20.2385 26.1352 20.3765 26.0411ZM15.1053 26.5364C13.495 26.3009 12.0127 25.7218 10.7546 24.8848C10.7433 24.9344 10.7316 24.9839 10.7195 25.0332C11.4772 25.3879 12.0853 25.7113 12.5837 26.0038C13.4464 26.3491 14.3721 26.5897 15.3408 26.7084C15.2622 26.6553 15.1837 26.5982 15.1053 26.5364ZM10.7546 10.289C11.9091 9.52092 13.2522 8.96955 14.7101 8.70197C14.7922 8.63464 14.8785 8.57308 14.9684 8.51711C14.1347 8.64774 13.3356 8.86909 12.5842 9.16978C12.0858 9.46243 11.4775 9.78593 10.7195 10.1409C10.7316 10.1902 10.7432 10.2395 10.7546 10.289ZM18.178 8.61298C18.9416 8.71216 19.6777 8.88807 20.3759 9.13246C20.2381 9.03847 20.1091 8.94701 19.988 8.85816C19.3152 8.65456 18.6111 8.51276 17.8839 8.43915C17.9851 8.49111 18.0834 8.549 18.178 8.61298Z" fill="#DEE0E1"/>
<path fill-rule="evenodd" clip-rule="evenodd" d="M20.107 26.2295C19.5081 26.4193 18.8836 26.5601 18.2394 26.6467C18.168 26.7071 18.095 26.7629 18.0204 26.8138C18.6233 26.746 19.2101 26.6315 19.7761 26.4744C19.8802 26.3951 19.99 26.3135 20.107 26.2295ZM15.2585 26.6514C14.1907 26.5118 13.1766 26.2231 12.2432 25.8092C12.5298 25.9692 12.7843 26.1208 13.0116 26.2639C13.8053 26.54 14.6463 26.73 15.5205 26.822C15.4332 26.7706 15.3458 26.7137 15.2585 26.6514ZM11.0886 25.2094C10.9676 25.1366 10.8485 25.0614 10.7313 24.9841L10.7195 25.0332C10.8468 25.0929 10.9696 25.1516 11.0886 25.2094ZM10.7312 10.1901C10.8483 10.1129 10.9672 10.0378 11.088 9.96508C10.9691 10.0229 10.8467 10.0814 10.7195 10.1409L10.7312 10.1901ZM12.243 9.36507C13.0634 9.00113 13.9461 8.73405 14.8728 8.57984C14.9761 8.50874 15.0845 8.44516 15.1974 8.39004C14.4391 8.49183 13.7077 8.66779 13.0125 8.90956C12.7848 9.05295 12.53 9.20477 12.243 9.36507ZM17.9911 8.49698C18.7234 8.5787 19.4315 8.73049 20.1071 8.94462C19.9897 8.86047 19.8797 8.77874 19.7754 8.69924C19.0875 8.5083 18.3688 8.38084 17.628 8.32324C17.7525 8.37283 17.8741 8.43052 17.9911 8.49698Z" fill="#DEE0E1"/>
<path fill-rule="evenodd" clip-rule="evenodd" d="M19.8797 26.396C19.3065 26.5621 18.7114 26.684 18.0993 26.7577C18.0148 26.8201 17.9282 26.876 17.8398 26.9255C18.4381 26.8685 19.0215 26.7663 19.5853 26.6221C19.6782 26.5489 19.7761 26.4735 19.8797 26.396ZM15.4289 26.766C14.5163 26.6619 13.6412 26.4499 12.8195 26.1449C13.0023 26.2564 13.1694 26.3631 13.3225 26.465C14.0883 26.7034 14.8946 26.8634 15.7295 26.9352C15.6294 26.8859 15.5292 26.8295 15.4289 26.766ZM12.8197 9.02887C13.5344 8.76366 14.2897 8.56921 15.0746 8.45446C15.215 8.37629 15.3629 8.31108 15.5163 8.25911C14.7572 8.33851 14.023 8.4909 13.3226 8.70888C13.1697 8.81073 13.0025 8.91748 12.8197 9.02887ZM17.7623 8.38059C18.4933 8.4465 19.2017 8.58147 19.8795 8.77785C19.7759 8.70032 19.6779 8.62493 19.585 8.55175C18.847 8.36299 18.0757 8.24572 17.2808 8.20844C17.4456 8.25209 17.6068 8.30964 17.7623 8.38059Z" fill="#E0E1E2"/>
<path fill-rule="evenodd" clip-rule="evenodd" d="M19.6794 26.5486C19.1165 26.6986 18.5338 26.8065 17.9356 26.8691C17.8298 26.935 17.7212 26.9913 17.6102 27.0378C18.2274 26.9917 18.8295 26.898 19.4119 26.7603C19.4966 26.6919 19.5856 26.6213 19.6794 26.5486ZM15.6212 26.879C14.7719 26.7977 13.9531 26.6244 13.1775 26.3699C13.3213 26.4631 13.4537 26.5525 13.5763 26.6381C14.3458 26.8554 15.1536 26.9949 15.9879 27.0473C15.8661 27.0016 15.7438 26.9456 15.6212 26.879ZM13.1775 8.80409C13.8675 8.5776 14.5919 8.41573 15.3415 8.32535C15.6202 8.20916 15.9202 8.13876 16.2267 8.11399C15.3074 8.153 14.4189 8.29801 13.576 8.53602C13.4534 8.6216 13.3212 8.71094 13.1775 8.80409ZM17.4727 8.26588C18.2339 8.31452 18.9723 8.43694 19.6794 8.62541C19.5857 8.55278 19.4967 8.48213 19.412 8.41375C18.5557 8.21124 17.6571 8.10297 16.7302 8.10297C16.6708 8.10297 16.6116 8.10405 16.5525 8.10499C16.8635 8.11246 17.1755 8.166 17.4727 8.26588Z" fill="#E0E1E2"/>
<path fill-rule="evenodd" clip-rule="evenodd" d="M19.4978 26.6912C18.9275 26.8316 18.3377 26.9295 17.7331 26.9814C17.5783 27.0577 17.4183 27.1151 17.2543 27.1518C17.9385 27.1217 18.6056 27.0332 19.2499 26.8922C19.3287 26.8275 19.4112 26.7604 19.4978 26.6912ZM15.8493 26.9911C15.0196 26.9287 14.2173 26.7796 13.4537 26.5535C13.5759 26.6369 13.6891 26.7169 13.7944 26.7935C14.6166 27.0058 15.4798 27.1307 16.3706 27.1574C16.1985 27.1229 16.0244 27.0677 15.8493 26.9911ZM13.4539 8.62028C14.1878 8.40288 14.9575 8.25683 15.7529 8.19038C16.1656 8.08912 16.6061 8.07667 17.033 8.1533C17.8839 8.17516 18.7092 8.28852 19.4977 8.48248C19.4111 8.41341 19.3285 8.34632 19.2497 8.2815C18.4419 8.1047 17.5983 8.01031 16.7302 8.01031C15.7118 8.01031 14.7269 8.13951 13.7944 8.38029C13.6891 8.45687 13.5761 8.53691 13.4539 8.62028Z" fill="#E0E1E2"/>
<path fill-rule="evenodd" clip-rule="evenodd" d="M19.3293 26.8272C18.7249 26.9646 18.0998 27.0549 17.4591 27.0943C17.0467 27.2321 16.6041 27.239 16.1512 27.1029C15.2994 27.0614 14.4743 26.9291 13.6877 26.7168C13.7952 26.7935 13.895 26.8671 13.9883 26.9374C14.8636 27.1451 15.7824 27.2561 16.7301 27.2561C17.5426 27.2561 18.3339 27.1743 19.0949 27.0202C19.1697 26.9581 19.2476 26.8938 19.3293 26.8272ZM13.6874 8.45731C14.6511 8.19715 15.6723 8.05674 16.7301 8.05674C17.627 8.05674 18.4976 8.15765 19.3293 8.34681C19.2476 8.28026 19.1698 8.21589 19.095 8.15379C18.3341 7.99973 17.5427 7.91791 16.7301 7.91791C15.7822 7.91791 14.8633 8.029 13.988 8.2367C13.8948 8.30705 13.7949 8.38057 13.6874 8.45731Z" fill="#E0E1E2"/>
<path fill-rule="evenodd" clip-rule="evenodd" d="M19.1711 26.9572C18.3871 27.1222 17.57 27.2098 16.7302 27.2098C15.7478 27.2098 14.7967 27.0898 13.8932 26.8662C13.9904 26.9383 14.0804 27.0071 14.1653 27.0729C14.9877 27.2526 15.8464 27.3486 16.7302 27.3486C17.4894 27.3486 18.2303 27.278 18.9455 27.1443L19.1711 26.9572ZM13.8933 8.30783C14.7968 8.08431 15.7478 7.96421 16.7302 7.96421C17.57 7.96421 18.387 8.05177 19.171 8.21676C19.0926 8.15204 19.0178 8.08969 18.9454 8.02972C18.2302 7.89593 17.4894 7.82538 16.7302 7.82538C15.8465 7.82538 14.9877 7.92135 14.1654 8.10106C14.0805 8.16687 13.9905 8.2357 13.8933 8.30783Z" fill="#E0E1E2"/>
<path fill-rule="evenodd" clip-rule="evenodd" d="M19.0206 27.082C18.2823 27.2258 17.5162 27.3022 16.7302 27.3022C15.8152 27.3022 14.9271 27.1993 14.0787 27.0061C14.1685 27.0749 14.2523 27.1405 14.3311 27.2028C15.1033 27.3584 15.906 27.4411 16.7302 27.4411C17.4378 27.4411 18.1294 27.3798 18.7997 27.2643C18.871 27.2061 18.9443 27.1454 19.0206 27.082ZM14.0788 8.16779C14.9271 7.97467 15.8152 7.87174 16.7302 7.87174C17.5162 7.87174 18.2822 7.94812 19.0205 8.0919C18.9442 8.02857 18.8708 7.9679 18.7995 7.90971C18.1293 7.79416 17.4378 7.73291 16.7302 7.73291C15.906 7.73291 15.1033 7.81557 14.3311 7.97116C14.2523 8.03346 14.1685 8.09907 14.0788 8.16779Z" fill="#E2E3E4"/>
<path fill-rule="evenodd" clip-rule="evenodd" d="M18.8724 27.2046C18.1797 27.3291 17.4635 27.3948 16.7301 27.3948C15.877 27.3948 15.0469 27.3062 14.2502 27.1391C14.3352 27.2057 14.4147 27.269 14.49 27.3288C15.2134 27.463 15.9626 27.5336 16.7301 27.5336C17.3856 27.5336 18.0277 27.4819 18.6517 27.3833C18.7234 27.3267 18.7967 27.267 18.8724 27.2046ZM14.2502 8.03475C15.0469 7.86764 15.877 7.77909 16.7301 7.77909C17.4634 7.77909 18.1795 7.8448 18.8722 7.96924C18.7965 7.9069 18.7232 7.84722 18.6515 7.79061C18.0275 7.69197 17.3855 7.64026 16.7301 7.64026C15.9626 7.64026 15.2134 7.71086 14.49 7.84515C14.4147 7.90492 14.3352 7.9681 14.2502 8.03475Z" fill="#E2E3E4"/>
<path fill-rule="evenodd" clip-rule="evenodd" d="M18.7259 27.324C18.0786 27.4309 17.4117 27.4873 16.7301 27.4873C15.9343 27.4873 15.1584 27.4104 14.4105 27.2657C14.4925 27.3307 14.5696 27.3921 14.6432 27.4497C15.3193 27.565 16.0168 27.6261 16.7301 27.6261C17.3327 27.6261 17.9239 27.5824 18.5006 27.4995C18.5744 27.4443 18.6491 27.3858 18.7259 27.324ZM14.4108 7.90802C15.1586 7.76331 15.9343 7.68647 16.7301 7.68647C17.4115 7.68647 18.0784 7.74284 18.7255 7.84968C18.6488 7.78798 18.5742 7.72954 18.5005 7.67437C17.9238 7.5915 17.3327 7.54779 16.7301 7.54779C16.0167 7.54779 15.3193 7.6089 14.6431 7.72425C14.5696 7.7817 14.4926 7.84306 14.4108 7.90802Z" fill="#E2E3E4"/>
<path fill-rule="evenodd" clip-rule="evenodd" d="M18.5775 27.4412C17.9766 27.532 17.3597 27.5799 16.7302 27.5799C15.9897 27.5799 15.2664 27.5141 14.5665 27.3894C14.6479 27.4538 14.725 27.5138 14.7996 27.5695C15.4269 27.6673 16.0718 27.7188 16.7302 27.7188C17.2768 27.7188 17.8141 27.683 18.3399 27.6151C18.4187 27.561 18.4973 27.503 18.5775 27.4412ZM14.5665 7.78459C15.2664 7.65995 15.9897 7.59409 16.7302 7.59409C17.3596 7.59409 17.9765 7.64205 18.5773 7.73272C18.4972 7.67093 18.4184 7.61293 18.3397 7.55894C17.814 7.49111 17.2768 7.45526 16.7302 7.45526C16.0718 7.45526 15.4269 7.50673 14.7996 7.60447C14.725 7.66025 14.6479 7.72027 14.5665 7.78459Z" fill="#E2E3E4"/>
<path fill-rule="evenodd" clip-rule="evenodd" d="M18.4207 27.5581C17.8693 27.6333 17.3048 27.6725 16.7301 27.6725C16.0444 27.6725 15.3732 27.6167 14.7216 27.5104C14.8052 27.5746 14.8852 27.6338 14.9642 27.6878C15.5397 27.7687 16.1294 27.8111 16.7301 27.8111C17.2146 27.8111 17.6919 27.7836 18.1604 27.7306C18.2479 27.678 18.3341 27.6204 18.4207 27.5581ZM14.7216 7.66349C15.3732 7.55719 16.0444 7.50142 16.7301 7.50142C17.3047 7.50142 17.8692 7.54053 18.4205 7.61572C18.3339 7.55343 18.2477 7.49583 18.1602 7.44322C17.6918 7.39022 17.2145 7.36273 16.7301 7.36273C16.1294 7.36273 15.5396 7.40516 14.9641 7.48609C14.8851 7.54008 14.8052 7.59926 14.7216 7.66349Z" fill="#E2E3E4"/>
<path fill-rule="evenodd" clip-rule="evenodd" d="M18.2533 27.6726C17.7551 27.7331 17.2468 27.765 16.7302 27.765C16.0999 27.765 15.4818 27.7177 14.8796 27.6284C14.9709 27.6941 15.0598 27.7532 15.1501 27.8057C15.6667 27.8699 16.194 27.9038 16.7302 27.9038C17.1423 27.9038 17.5491 27.8838 17.9499 27.8456C18.054 27.7945 18.1542 27.7368 18.2533 27.6726ZM14.8796 7.54564C15.4819 7.45625 16.0999 7.40903 16.7302 7.40903C17.2467 7.40903 17.755 7.44087 18.2532 7.50134C18.154 7.43721 18.0537 7.37947 17.9496 7.32844C17.5489 7.29022 17.1422 7.2702 16.7302 7.2702C16.194 7.2702 15.6667 7.30412 15.1501 7.36834C15.0598 7.42085 14.9709 7.47989 14.8796 7.54564Z" fill="#E4E5E6"/>
<path fill-rule="evenodd" clip-rule="evenodd" d="M18.0617 27.7874C17.6248 27.8332 17.1808 27.8575 16.7303 27.8575C16.1606 27.8575 15.6009 27.8193 15.0537 27.7467C15.1627 27.8162 15.272 27.876 15.3887 27.926C15.8289 27.9718 16.2764 27.9962 16.7303 27.9962C17.0474 27.9962 17.3615 27.9842 17.6723 27.9616C17.81 27.9137 17.938 27.8554 18.0617 27.7874ZM15.0535 7.42725C15.6008 7.35462 16.1605 7.3165 16.7303 7.3165C17.1808 7.3165 17.6249 7.34078 18.0618 7.38656C17.938 7.31848 17.8098 7.26014 17.6719 7.21224C17.3613 7.18969 17.0473 7.17767 16.7303 7.17767C16.2765 7.17767 15.829 7.202 15.3889 7.24783C15.272 7.29792 15.1626 7.35769 15.0535 7.42725Z" fill="#E4E5E6"/>
<path fill-rule="evenodd" clip-rule="evenodd" d="M17.8238 27.9031C17.4638 27.9337 17.0991 27.95 16.7302 27.95C16.2326 27.95 15.7425 27.9215 15.2616 27.8663C15.4278 27.9511 15.6049 28.0145 15.8163 28.0569C16.1179 28.0779 16.4226 28.0888 16.7302 28.0888C16.8811 28.0888 17.031 28.0854 17.1806 28.0803C17.4227 28.0442 17.6315 27.9846 17.8238 27.9031ZM15.2616 7.30757C15.7425 7.25239 16.2326 7.22391 16.7302 7.22391C17.099 7.22391 17.4636 7.24023 17.8235 7.27078C17.631 7.18925 17.4218 7.12958 17.1793 7.09359C17.0302 7.08849 16.8806 7.08508 16.7302 7.08508C16.4227 7.08508 16.1181 7.09596 15.8167 7.11697C15.6051 7.1593 15.4279 7.22273 15.2616 7.30757Z" fill="#E4E5E6"/>
<path fill-rule="evenodd" clip-rule="evenodd" d="M17.4777 28.0205C17.2305 28.0347 16.9814 28.0427 16.7302 28.0427C16.3346 28.0427 15.9438 28.0247 15.5584 27.9898C15.8262 28.0773 16.144 28.1208 16.5836 28.1208C16.9357 28.1208 17.2245 28.0862 17.4777 28.0205ZM15.5579 7.18433C15.9434 7.14952 16.3345 7.13152 16.7302 7.13152C16.9814 7.13152 17.2305 7.13954 17.4778 7.15372C17.2246 7.08797 16.9358 7.05341 16.5836 7.05341C16.1437 7.05336 15.8257 7.09687 15.5579 7.18433Z" fill="#E6E7E8"/>
<path fill-rule="evenodd" clip-rule="evenodd" d="M23.2992 23.5123C23.1597 19.1909 23.6177 14.1705 22.881 10.5485C24.2082 10.9132 25.4825 11.3254 27.3007 11.2477C27.1565 11.7223 25.997 11.8474 25.7933 12.349C25.7979 15.8729 25.8028 19.3967 25.8076 22.9205C25.8374 23.6825 26.1959 24.0682 27.0618 24.6418C24.5235 24.6852 24.0455 27.1761 20.701 27.0313C18.5975 27.0775 15.7772 25.6176 15.2863 22.3289L15.1717 12.8614C15.2329 12.3099 15.0553 11.8929 14.6389 11.5296C15.4201 10.6774 16.0424 9.85345 16.4307 8.77325C16.8187 9.84019 17.4162 10.665 18.2224 11.4091L17.6848 12.3235C17.6848 16.1248 17.6848 19.9261 17.6848 23.7273C17.9933 25.126 18.8396 26.2286 20.8503 26.3094C22.0847 26.1838 23.1398 25.1976 23.2992 23.5123Z" fill="#464D57"/>
<path fill-rule="evenodd" clip-rule="evenodd" d="M15.7687 12.6197C15.7842 12.2306 15.7586 11.8397 15.4401 11.5707C15.5896 11.2299 15.8435 10.9432 16.2465 10.71V20.6885C16.091 20.272 16.0402 19.7073 15.7801 19.4387L15.7687 12.6197Z" fill="#D9DADB"/>
<path fill-rule="evenodd" clip-rule="evenodd" d="M23.7675 17.9368C23.7453 15.5311 23.8882 12.5997 23.5448 11.2144C24.3018 11.4417 24.1409 15.2293 24.0925 17.9368C24.1409 20.6441 24.3018 24.4318 23.5448 24.6591C23.8882 23.2738 23.7453 20.3424 23.7675 17.9368Z" fill="#D9DADB"/>
<path fill-rule="evenodd" clip-rule="evenodd" d="M21.1106 15.2084C21.2999 14.1191 21.4143 11.9405 21.051 10.3672C21.3297 10.4883 21.5189 10.6496 21.6184 10.932C21.6086 12.0347 21.5985 13.1375 21.5886 14.2402C21.6134 14.518 21.7428 14.6884 22.0664 14.9125C21.6581 14.8766 21.4292 14.9485 21.1106 15.2084Z" fill="#ECEDED"/>
<path fill-rule="evenodd" clip-rule="evenodd" d="M21.1106 18.8361C21.2998 19.9254 21.5487 23.4622 21.1854 25.0356C21.464 24.9146 21.5562 24.8138 21.9021 24.7061C21.3622 24.2691 21.5985 20.9072 21.5886 19.8043C21.6133 19.5265 21.7427 19.356 22.0663 19.1321C21.6581 19.1679 21.4292 19.0962 21.1106 18.8361Z" fill="#ECEDED"/>
<path fill-rule="evenodd" clip-rule="evenodd" d="M12.2264 25.0899C11.9255 23.3569 12.1778 10.3912 12.2264 10.1118C11.9079 10.3717 11.679 10.4435 11.2708 10.4076C11.5941 10.6317 11.7235 10.8021 11.7485 11.08C11.7082 15.5546 11.709 19.7189 11.7485 24.1217C11.7235 24.3997 11.5941 24.57 11.2708 24.7941C11.679 24.7583 11.9079 24.83 12.2264 25.0899Z" fill="#ECEDED"/>
<path d="M18.0881 29.2886C19.7619 29.2886 21.119 30.5109 21.119 32.0186C21.119 33.5261 19.7619 34.7484 18.0881 34.7484C16.4138 34.7484 15.0569 33.5261 15.0569 32.0186C15.0569 30.5109 16.4138 29.2886 18.0881 29.2886Z" fill="url(#paint1_linear_5037_2926)"/>
<path d="M18.0881 29.2886C19.7619 29.2886 21.119 30.5109 21.119 32.0186C21.119 33.5261 19.7619 34.7484 18.0881 34.7484C16.4138 34.7484 15.0569 33.5261 15.0569 32.0186C15.0569 30.5109 16.4138 29.2886 18.0881 29.2886Z" stroke="#14160F" stroke-width="0.290506"/>
<path d="M18.088 29.9073C19.3828 29.9073 20.4322 30.8525 20.4322 32.0186C20.4322 33.1846 19.3828 34.13 18.088 34.13C16.7934 34.13 15.7438 33.1846 15.7438 32.0186C15.7438 30.8525 16.7934 29.9073 18.088 29.9073Z" stroke="#14160F" stroke-width="0.0968375"/>
<path fill-rule="evenodd" clip-rule="evenodd" d="M18.0881 29.8857C19.3959 29.8857 20.4562 30.8406 20.4562 32.0186C20.4562 33.1965 19.3959 34.1514 18.0881 34.1514C16.7801 34.1514 15.7198 33.1965 15.7198 32.0186C15.7198 30.8406 16.7801 29.8857 18.0881 29.8857Z" fill="white"/>
<path d="M18.0881 29.8857C19.3959 29.8857 20.4562 30.8406 20.4562 32.0186C20.4562 33.1965 19.3959 34.1514 18.0881 34.1514C16.7801 34.1514 15.7198 33.1965 15.7198 32.0186C15.7198 30.8406 16.7801 29.8857 18.0881 29.8857Z" stroke="#14160F" stroke-width="0.290506"/>
<path fill-rule="evenodd" clip-rule="evenodd" d="M18.1619 31.0906L18.6437 31.4525L19.1257 31.814L18.9416 32.3994L18.7576 32.9846H17.566L17.3818 32.3994L17.1979 31.814L17.6799 31.4525L18.1619 31.0906Z" fill="#14160F"/>
<path fill-rule="evenodd" clip-rule="evenodd" d="M20.0373 30.8455C20.2852 31.1791 20.4305 31.5798 20.4322 32.011L20.2982 31.9104L19.8162 31.5488L20.0002 30.9634L20.0373 30.8455Z" fill="#14160F"/>
<path d="M20.0373 30.8455C20.2852 31.1791 20.4305 31.5798 20.4322 32.011L20.2982 31.9104L19.8162 31.5488L20.0002 30.9634L20.0373 30.8455Z" stroke="#14160F" stroke-width="0.0968375"/>
<path fill-rule="evenodd" clip-rule="evenodd" d="M18.0879 29.9073C18.41 29.9073 18.7169 29.9659 18.9964 30.0718L18.6298 30.3469L18.1479 30.7086L17.6658 30.3469L17.2606 30.0427C17.5178 29.9553 17.7967 29.9073 18.0879 29.9073Z" fill="#14160F"/>
<path d="M18.0879 29.9073C18.41 29.9073 18.7169 29.9659 18.9964 30.0718L18.6298 30.3469L18.1479 30.7086L17.6658 30.3469L17.2606 30.0427C17.5178 29.9553 17.7967 29.9073 18.0879 29.9073Z" stroke="#14160F" stroke-width="0.0968375"/>
<path fill-rule="evenodd" clip-rule="evenodd" d="M15.7455 32.0917C15.7445 32.0674 15.7438 32.043 15.7438 32.0186C15.7438 31.5409 15.92 31.1005 16.2169 30.7468L16.285 30.9634L16.4692 31.5487L15.9872 31.9103L15.7455 32.0917Z" fill="#14160F"/>
<path d="M15.7455 32.0917C15.7445 32.0674 15.7438 32.043 15.7438 32.0186C15.7438 31.5409 15.92 31.1005 16.2169 30.7468L16.285 30.9634L16.4692 31.5487L15.9872 31.9103L15.7455 32.0917Z" stroke="#14160F" stroke-width="0.0968375"/>
<path fill-rule="evenodd" clip-rule="evenodd" d="M17.4404 34.0482C16.9544 33.9228 16.5335 33.6596 16.2323 33.3087H17.2076L17.3917 33.8938L17.4404 34.0482Z" fill="#14160F"/>
<path d="M17.4404 34.0482C16.9544 33.9228 16.5335 33.6596 16.2323 33.3087H17.2076L17.3917 33.8938L17.4404 34.0482Z" stroke="#14160F" stroke-width="0.0968375"/>
<path fill-rule="evenodd" clip-rule="evenodd" d="M19.9883 33.2549C19.7021 33.6112 19.2952 33.8838 18.8215 34.0242L18.8796 33.8401L19.0636 33.2549H19.9883Z" fill="#14160F"/>
<path d="M19.9883 33.2549C19.7021 33.6112 19.2952 33.8838 18.8215 34.0242L18.8796 33.8401L19.0636 33.2549H19.9883Z" stroke="#14160F" stroke-width="0.0968375"/>
<path d="M18.1481 30.6053L18.1483 31.1621" stroke="#14160F" stroke-width="0.193669"/>
<path d="M16.3749 31.5242L17.3455 31.8739" stroke="#14160F" stroke-width="0.193669"/>
<path d="M19.9831 31.5242L19.0125 31.8739" stroke="#14160F" stroke-width="0.193669"/>
<path d="M18.6306 32.8637L19.1824 33.3699" stroke="#14160F" stroke-width="0.193669"/>
<path d="M17.6914 32.8637L17.1399 33.3699" stroke="#14160F" stroke-width="0.193669"/>
</g>
<defs>
<linearGradient id="paint0_linear_5037_2926" x1="4.16528" y1="4.77155" x2="32.0267" y2="4.77155" gradientUnits="userSpaceOnUse">
<stop stop-color="#7A828D"/>
<stop offset="0.39" stop-color="#7A828D"/>
<stop offset="0.67" stop-color="#7A828D"/>
<stop offset="1" stop-color="#464D57"/>
</linearGradient>
<linearGradient id="paint1_linear_5037_2926" x1="15.0569" y1="29.2886" x2="21.119" y2="29.2886" gradientUnits="userSpaceOnUse">
<stop stop-color="#7A828D"/>
<stop offset="1" stop-color="#464D57"/>
</linearGradient>
<clipPath id="clip0_5037_2926">
<rect width="36" height="36" fill="white"/>
</clipPath>
</defs>
</svg>
