<svg width="36" height="20" viewBox="0 0 36 20" fill="none" xmlns="http://www.w3.org/2000/svg">
<g clip-path="url(#clip0_5037_2724)">
<path d="M7.04101 6.63045C5.64401 6.63045 4.3527 7.10225 3.30265 7.90338V2.17596H7.62939e-05V19.7435H3.30265V18.7279C4.35193 19.529 5.64401 20.0008 7.04101 20.0008C10.558 20.0008 13.4103 17.0084 13.4103 13.3152C13.4103 9.62206 10.558 6.63045 7.04101 6.63045ZM6.7247 16.7373C4.83522 16.7373 3.30265 15.2047 3.30265 13.3152C3.30265 11.4258 4.83522 9.89396 6.7247 9.89396C8.61418 9.89396 10.146 11.4258 10.146 13.3152C10.146 15.2047 8.61418 16.7373 6.7247 16.7373Z" fill="#7A828D"/>
<path d="M35.6697 11.4648V19.7427H32.3664V11.8217C32.3664 11.4449 32.253 11.0719 32.0416 10.7594C31.6702 10.2103 31.026 9.93227 30.3812 9.87942C29.8129 9.8327 29.1718 9.93763 28.6724 10.2241C28.5055 10.3198 28.3508 10.4355 28.2121 10.5687C27.7664 10.9976 27.5006 11.5981 27.5006 12.2185V19.7435H24.1973V6.95903H27.5006V7.64758C27.5006 7.44921 28.4028 7.06779 28.5652 6.99886C28.9857 6.82117 29.433 6.71165 29.8864 6.66186C32.8489 6.33559 35.6682 8.33689 35.6682 11.4656L35.6697 11.4648Z" fill="#7A828D"/>
<path d="M22.6792 10.1697V6.95829H18.9477V3.48492H17.8563L15.6444 5.02745V7.2861L13.4095 9.02852V10.1697H15.6444V15.1481C15.6444 15.613 15.695 16.0779 15.8106 16.5275C16.5275 19.3215 19.0343 19.9993 20.4397 19.9993C21.996 19.9993 22.68 19.4976 22.68 19.4976V16.3582C22.68 16.3582 22.1033 16.8147 20.6274 16.8147C20.0369 16.8147 19.6501 16.6125 19.3989 16.3689C19.104 16.084 18.9477 15.6842 18.9477 15.2745V10.169H22.6792V10.1697Z" fill="#7A828D"/>
<path d="M34.9719 0.0345227L24.6537 3.96666C24.3795 4.07083 24.1987 4.3343 24.1987 4.62764V5.31695C24.1987 5.4372 24.3075 5.52834 24.4254 5.50689L34.0827 3.77212C35.0018 3.60669 35.6696 2.80785 35.6696 1.87422V0.514743C35.6696 0.154769 35.3089 -0.0941488 34.9727 0.0345227H34.9719Z" fill="#7A828D"/>
</g>
<defs>
<clipPath id="clip0_5037_2724">
<rect width="35.6696" height="20" fill="white"/>
</clipPath>
</defs>
</svg>
