<svg width="139" height="24" viewBox="0 0 139 24" fill="none" xmlns="http://www.w3.org/2000/svg">
<path d="M42.622 11.144H38.9137C38.5016 10.6495 37.4303 9.66065 34.7109 9.90787C31.7564 10.1765 31.0026 13.369 31.0026 14.3579C31.0026 15.3467 31.7442 18.0662 34.4637 18.5606C36.6392 18.9562 38.3368 17.7366 38.9137 17.0773H42.3748C41.4209 20.6373 37.0329 21.3625 34.9581 21.2801C29.2226 21.2801 27.7887 16.6653 27.7887 14.3579C27.7887 9.6112 31.4146 7.43565 33.2276 6.94121C38.3698 5.75454 41.6331 9.24861 42.622 11.144Z" fill="#7A828D"/>
<path d="M138.05 11.144H134.341C133.929 10.6495 132.858 9.66065 130.139 9.90787C127.184 10.1765 126.43 13.369 126.43 14.3579C126.43 15.3467 127.172 18.0662 129.891 18.5606C132.067 18.9562 133.764 17.7366 134.341 17.0773H137.802C136.848 20.6373 132.46 21.3625 130.386 21.2801C124.65 21.2801 123.216 16.6653 123.216 14.3579C123.216 9.6112 126.842 7.43565 128.655 6.94121C133.797 5.75454 137.061 9.24861 138.05 11.144Z" fill="#464D57"/>
<path fill-rule="evenodd" clip-rule="evenodd" d="M52.0164 6.44678C55.801 6.44678 58.923 9.28156 59.3761 12.9436V12.9916L59.433 21.0329H56.4664V19.7972C55.2268 20.7283 53.686 21.2801 52.0164 21.2801C47.9203 21.2801 44.5997 17.9595 44.5997 13.8634C44.5997 9.76733 47.9203 6.44678 52.0164 6.44678ZM52.0164 9.41344C49.5587 9.41344 47.5664 11.4058 47.5664 13.8634C47.5664 16.3211 49.5587 18.3134 52.0164 18.3134C54.474 18.3134 56.4664 16.3211 56.4664 13.8634C56.4664 11.4058 54.474 9.41344 52.0164 9.41344Z" fill="#7A828D"/>
<path fill-rule="evenodd" clip-rule="evenodd" d="M113.327 6.44678C117.112 6.44678 120.234 9.28156 120.687 12.9436V12.9916L120.744 21.0329H117.777V19.7972C116.538 20.7283 114.997 21.2801 113.327 21.2801C109.231 21.2801 105.911 17.9595 105.911 13.8634C105.911 9.76732 109.231 6.44678 113.327 6.44678ZM113.327 9.41344C110.87 9.41344 108.877 11.4058 108.877 13.8634C108.877 16.3211 110.87 18.3134 113.327 18.3134C115.785 18.3134 117.777 16.3211 117.777 13.8634C117.777 11.4058 115.785 9.41344 113.327 9.41344Z" fill="#464D57"/>
<path d="M71.5469 9.66071H68.333C67.5913 9.16624 67.8386 9.16624 66.6025 9.16624C65.3663 9.16624 64.7695 10.4448 65.1191 11.144C65.6136 12.1329 68.0858 12.4744 70.0636 13.6162C71.6458 14.5297 71.7941 16.5829 71.7941 17.5718C71.7941 21.3295 67.3441 21.6097 65.1191 21.2801C62.7458 20.8845 61.8228 18.3134 61.658 17.0773H64.8719C64.8719 17.819 65.2735 18.8079 67.0969 18.8079C68.3678 18.8079 68.8387 18.1412 68.9013 17.2975C68.9464 16.6888 68.5082 16.176 67.9623 15.9031L65.8608 14.8523L64.2326 13.9025C63.3512 13.3884 62.5067 12.7148 62.2009 11.7413C61.4342 9.30066 63.3671 7.57007 64.6247 6.94127C68.778 5.35905 70.97 8.09497 71.5469 9.66071Z" fill="#7A828D"/>
<path d="M92.0664 8.4245C93.306 7.49336 94.8469 6.9411 96.5166 6.9411C100.613 6.9413 103.933 10.2621 103.933 14.3581C103.932 18.454 100.612 21.7739 96.5166 21.7741C92.5867 21.7741 89.3726 18.7178 89.1182 14.8522H89.0996V1.99677H92.0664V8.4245ZM96.5166 9.9079C94.0589 9.9079 92.0664 11.9004 92.0664 14.3581C92.0665 16.8156 94.059 18.8083 96.5166 18.8083C98.974 18.8081 100.966 16.8155 100.966 14.3581C100.966 11.9006 98.9741 9.90809 96.5166 9.9079Z" fill="#464D57"/>
<path d="M76.7386 8.46799C77.7566 7.67372 79.7173 6.77644 82.1775 7.43564C85.0378 8.20207 85.9858 11.3507 86.1224 12.9701L86.1331 13.1217V20.7856H83.6608V13.7636C83.6608 13.3385 83.6025 12.912 83.426 12.5252C82.9578 11.4991 81.9932 10.1551 80.1997 10.1551C78.4265 10.1551 77.4087 11.4691 76.9591 12.4905C76.78 12.8975 76.7386 13.3466 76.7386 13.7913V20.7856H74.2664V1.99677H76.7386V8.46799Z" fill="#7A828D"/>
<path d="M15.9221 6.94124C10.7798 2.19458 4.54985 4.1394 2.07764 5.70513C5.29152 1.5024 8.25818 0.266234 11.9665 0.0190124C15.6748 -0.228209 18.8887 1.99679 20.6193 3.2329C22.3498 4.46901 23.0915 7.43567 20.6193 8.42455C18.6415 9.21566 16.6637 7.76531 15.9221 6.94124Z" fill="#464D57"/>
<path d="M14.9331 16.6621C9.79089 21.68 3.5609 19.6241 1.08868 17.9689C4.30257 22.4118 7.26923 23.7186 10.9776 23.9799C14.6859 24.2412 17.8998 21.8891 19.6303 20.5824C21.3609 19.2756 22.1025 16.1395 19.6303 15.0941C17.6525 14.2578 15.6748 15.791 14.9331 16.6621Z" fill="#464D57"/>
<path d="M8.8762 12.347C8.71139 12.2518 8.71139 12.0139 8.8762 11.9188L14.4387 8.70726C14.6035 8.6121 14.8095 8.73105 14.8095 8.92136L14.8095 15.3444C14.8095 15.5347 14.6035 15.6536 14.4387 15.5585L8.8762 12.347Z" fill="#464D57"/>
<path d="M0.0998483 10.8968C0.984962 4.70107 7.60243 4.67194 11.1057 5.47342C11.3503 5.52936 11.3421 5.86455 11.1019 5.93662C6.69075 7.25969 6.03317 9.83388 6.03317 12.6273C6.03317 15.1737 8.96042 17.4274 10.7768 18.35C10.9588 18.4425 10.9623 18.6859 10.7664 18.743C8.12996 19.5111 -1.05388 18.9728 0.0998483 10.8968Z" fill="#464D57"/>
</svg>
