<svg width="30" height="34" viewBox="0 0 30 34" fill="none" xmlns="http://www.w3.org/2000/svg">
<path fill-rule="evenodd" clip-rule="evenodd" d="M7.02716 6.17082L6.99856 6.18618L19.1268 13.1886C20.385 13.6726 20.2964 14.4389 20.0948 14.7616L16.2529 16.9568L23.6037 21.1949V11.8577H23.6093L9.56808 3.75089C9.1809 3.2669 9.72941 2.74259 10.0521 2.54093L14.7709 0H15.2549L29.5325 8.22776L29.6535 8.59075V24.6559L28.4435 23.9573L28.3225 9.92171L25.0556 11.8577V22.0322L29.6535 24.6833C29.731 24.9544 29.7485 25.53 29.2354 25.7467L29.2905 25.7722L25.0556 28.1922C24.8943 28.2915 24.5233 28.5032 24.3297 28.5552C24.1361 28.607 23.765 28.3348 23.6037 28.1922L9.68908 20.2064C9.48742 20.0047 9.22929 19.5046 9.81008 19.1174L13.5723 16.9674L6.05919 12.8663V21.2954L6.11 21.9734L7.02716 22.5053L6.94941 22.5474L19.3688 29.6441V29.6744L19.6467 29.8481C19.7195 29.866 19.7906 29.8942 19.8575 29.9339C19.9385 29.9818 20.0065 30.0409 20.0617 30.1073L20.0948 30.1281L20.0806 30.1317C20.3516 30.4864 20.274 31.0322 19.8499 31.2771L15.4482 33.8185C15.2423 33.9374 15.0087 34 14.7709 34L0.614348 25.8932C0.160513 25.5529 0.0258005 25.4962 0.0107839 25.3242L0.00936594 25.2883V8.83274C-0.015432 8.65115 0.00386403 8.54616 0.130126 8.34875L5.45421 5.32384L7.02716 6.17082ZM2.08994 25.1807L14.7709 32.427C14.8651 32.5001 14.9941 32.5091 15.0973 32.4495L18.1253 30.7012C18.1805 30.6693 18.2337 30.6342 18.285 30.5965L5.55181 23.3046L2.08994 25.1807ZM11.625 19.6014C11.5847 19.6821 11.5524 19.8434 11.746 19.8434L23.6037 26.6192V22.7265L14.9517 17.7002L11.625 19.6014ZM25.0556 26.6192L27.6644 25.0775L27.5966 25.0463L25.0556 23.57V26.6192ZM1.46132 23.8495L4.84922 21.9675V12.206L1.46132 10.3568V23.8495ZM6.05919 11.0331L14.9985 16.1526L18.2798 14.2776L6.05919 7.01779V11.0331ZM11.504 3.2669L24.3297 10.7687L27.7176 8.83274L15.0129 1.33096L11.504 3.2669ZM2.18754 8.8162L4.84922 10.3402V7.36117L2.18754 8.8162Z" fill="#7A828D"/>
</svg>
