<svg width="135" height="21" viewBox="0 0 135 21" fill="none" xmlns="http://www.w3.org/2000/svg">
<g clip-path="url(#clip0_5037_2777)">
<path d="M4.72622 1.25303L2.66941 0.054932C2.5433 -0.0174969 2.38716 -0.0174969 2.26105 0.054932L0.204241 1.25303C0.0781297 1.32847 6.10352e-05 1.46126 6.10352e-05 1.60913V18.8834C6.10352e-05 19.0283 0.0781297 19.1641 0.204241 19.2365L2.26105 20.4346C2.38716 20.507 2.5433 20.507 2.66941 20.4346L4.72622 19.2365C4.85233 19.1641 4.9304 19.0283 4.9304 18.8834V1.60913C4.9274 1.46126 4.85233 1.32847 4.72622 1.25303Z" fill="#464D57"/>
<path d="M43.8476 1.25235L41.7908 0.0542606C41.6647 -0.0181683 41.5086 -0.0181683 41.3824 0.0542606L39.3256 1.25235C39.1996 1.32479 39.1214 1.46059 39.1214 1.60545V10.8673L32.0412 1.55113L31.8971 1.35798C31.8971 1.35798 31.8761 1.31875 31.774 1.25537C31.774 1.25537 31.771 1.25537 31.771 1.25235H31.768C31.747 1.24029 31.723 1.22519 31.6959 1.21011C31.6959 1.20709 31.6929 1.20709 31.6899 1.20407L29.7172 0.0542606C29.5911 -0.0181683 29.435 -0.0181683 29.3088 0.0542606L27.252 1.25235C27.1259 1.32479 27.0478 1.46059 27.0478 1.60545V3.09325V3.14154V18.8827C27.0478 19.0276 27.1259 19.1634 27.252 19.2358L29.3088 20.4339C29.435 20.5064 29.5911 20.5064 29.7172 20.4339L31.774 19.2358C31.9001 19.1634 31.9782 19.0276 31.9782 18.8827V9.62998L39.2386 19.1815L39.2506 19.1754C39.2746 19.1996 39.3016 19.2177 39.3286 19.2358L41.3854 20.4339C41.5116 20.5064 41.6677 20.5064 41.7938 20.4339L43.8506 19.2358C43.9768 19.1634 44.0548 19.0276 44.0548 18.8827V1.60846C44.0518 1.46059 43.9738 1.3278 43.8476 1.25235Z" fill="#464D57"/>
<path d="M16.4336 -6.10352e-05H12.3139H9.84881C9.77674 -6.10352e-05 9.70767 0.0180462 9.64461 0.0542606L7.58781 1.25235C7.46167 1.32479 7.38361 1.46059 7.38361 1.60545V18.8797C7.38361 19.0246 7.46167 19.1604 7.58781 19.2328L9.64461 20.4309C9.71667 20.4732 9.79474 20.4882 9.87281 20.4852H12.3109H16.4306C20.9315 20.4852 24.5797 16.8185 24.5797 12.2947V8.19045C24.5827 3.66665 20.9345 -6.10352e-05 16.4336 -6.10352e-05ZM19.6554 11.7153C19.6554 14.2594 17.6046 16.3236 15.0704 16.3236H12.3109V4.1646H15.0704C17.6016 4.1646 19.6554 6.2258 19.6554 8.77291V11.7153Z" fill="#464D57"/>
<path d="M53.9065 1.59985H58.6837L63.1456 13.8615H63.2177L67.6314 1.59985H72.4327V18.8591H69.4001V4.98892H69.3521L64.1365 18.8591H62.0016L56.8611 4.98892H56.813V18.8591H53.9035V1.59985H53.9065Z" fill="#7A828D"/>
<path d="M76.7147 1.59949H88.0887V4.27935H79.7681V8.66736H87.6501V11.2506H79.7681V16.1275H88.5241V18.8587H76.7114V1.59949H76.7147Z" fill="#7A828D"/>
<path d="M92.1181 1.59949H98.2047C99.3214 1.59949 100.445 1.74435 101.577 2.03708C102.709 2.32981 103.726 2.81267 104.633 3.48867C105.54 4.16467 106.273 5.04891 106.84 6.1444C107.405 7.24289 107.69 8.60396 107.69 10.2276C107.69 11.7395 107.407 13.0402 106.84 14.1266C106.273 15.2161 105.537 16.1094 104.633 16.8096C103.726 17.5097 102.709 18.0258 101.577 18.3577C100.445 18.6897 99.3214 18.8587 98.2047 18.8587H92.1181V1.59949ZM97.7181 16.1758C98.5107 16.1758 99.3034 16.0822 100.096 15.8952C100.889 15.708 101.603 15.3912 102.243 14.9445C102.883 14.4978 103.402 13.8913 103.807 13.1278C104.213 12.3642 104.414 11.3985 104.414 10.2276C104.414 8.99329 104.213 7.98529 103.807 7.20369C103.402 6.42506 102.883 5.81545 102.243 5.37484C101.603 4.93725 100.889 4.63546 100.096 4.4725C99.3034 4.30953 98.5107 4.22805 97.7181 4.22805H95.1721V16.1758H97.7181Z" fill="#7A828D"/>
<path d="M111.254 1.59949H114.311V18.8587H111.254V1.59949Z" fill="#7A828D"/>
<path d="M124.084 1.59949H126.729L134.125 18.8587H130.633L129.033 14.9083H121.586L120.033 18.8587H116.613L124.084 1.59949ZM127.963 12.2767L125.321 5.25715L122.628 12.2767H127.963Z" fill="#7A828D"/>
</g>
<defs>
<clipPath id="clip0_5037_2777">
<rect width="134.667" height="20.6667" fill="white"/>
</clipPath>
</defs>
</svg>
