<svg width="125" height="20" viewBox="0 0 125 20" fill="none" xmlns="http://www.w3.org/2000/svg">
<g clip-path="url(#clip0_5013_2659)">
<path d="M10.8577 5.86932C10.3293 5.86932 9.81281 6.02601 9.37348 6.31956C8.93415 6.61311 8.59173 7.03034 8.38953 7.5185C8.18733 8.00666 8.13442 8.54381 8.23751 9.06203C8.34059 9.58026 8.59503 10.0563 8.96864 10.4299C9.34226 10.8035 9.81828 11.058 10.3365 11.161C10.8547 11.2641 11.3919 11.2112 11.88 11.009C12.3682 10.8068 12.7854 10.4644 13.079 10.0251C13.3725 9.58574 13.5292 9.06922 13.5292 8.54085C13.5292 7.83232 13.2478 7.1528 12.7467 6.65179C12.2457 6.15079 11.5662 5.86932 10.8577 5.86932ZM12.3356 9.53944C12.3356 9.14747 12.1799 8.77156 11.9027 8.49439C11.6256 8.21723 11.2497 8.06152 10.8577 8.06152C10.4657 8.06152 10.0898 8.21723 9.81265 8.49439C9.53549 8.77156 9.37978 9.14747 9.37978 9.53944C9.16751 9.24991 9.04939 8.90211 9.04144 8.5432C9.04144 8.30468 9.08842 8.0685 9.17969 7.84814C9.27097 7.62779 9.40475 7.42756 9.57341 7.25891C9.74206 7.09025 9.94229 6.95647 10.1626 6.86519C10.383 6.77392 10.6192 6.72694 10.8577 6.72694C11.0962 6.72694 11.3324 6.77392 11.5527 6.86519C11.7731 6.95647 11.9733 7.09025 12.142 7.25891C12.3106 7.42756 12.4444 7.62779 12.5357 7.84814C12.627 8.0685 12.674 8.30468 12.674 8.5432C12.6651 8.90195 12.5471 9.24949 12.3356 9.53944Z" fill="white"/>
<path d="M7.85484 16.4144C7.01292 16.903 6.13004 17.3173 5.21621 17.6527C5.19646 17.3082 5.15566 16.9653 5.09403 16.6259C3.95568 17.1236 2.7765 17.5222 1.56959 17.8171C1.86452 16.6102 2.26309 15.431 2.76085 14.2927C2.42223 14.2304 2.08011 14.1888 1.73642 14.1682C2.06953 13.2553 2.48312 12.3739 2.97232 11.5342C1.43097 12.5939 0.387734 14.0601 -0.0023038 15.1809C0.371064 15.1773 0.744367 15.1929 1.11612 15.2278C0.614766 16.5797 0.239577 17.9751 -0.00465393 19.3961C1.41308 19.1487 2.80517 18.772 4.15418 18.2706C4.18909 18.6424 4.20478 19.0157 4.20117 19.389C5.32664 18.9872 6.79516 17.9558 7.85484 16.4144Z" fill="white"/>
<path d="M18.1062 8.66533C17.2517 7.12566 16.19 5.71052 14.9507 4.4595C13.7045 3.21111 12.2915 2.14127 10.7519 1.28046C9.75067 1.76168 8.83666 2.40648 8.04751 3.18835C7.37179 3.86951 6.75038 4.60248 6.18896 5.38055C4.50205 5.16431 2.7886 5.44009 1.25474 6.17472C0.74859 6.99308 0.326636 7.8606 -0.00465393 8.76401C1.39526 8.55271 2.82414 8.86021 4.0132 9.62867C3.79469 10.0727 3.59967 10.4933 3.38585 10.9468C3.75887 11.716 4.20834 12.4457 4.72749 13.1249C4.40942 13.8237 4.18581 14.5617 4.06254 15.3195C4.82033 15.1962 5.55833 14.9726 6.25709 14.6545C6.93628 15.1737 7.66599 15.6231 8.43519 15.9962C8.88867 15.7823 9.31161 15.5873 9.75333 15.3688C10.522 16.5587 10.8294 17.9883 10.618 19.389C11.5243 19.0674 12.3964 18.6566 13.2214 18.1625C13.9567 16.6247 14.2317 14.9071 14.0132 13.2165C14.7945 12.6549 15.5285 12.0301 16.2078 11.3486C16.98 10.5615 17.621 9.65554 18.1062 8.66533ZM10.8577 12.2696C10.1202 12.2696 9.39923 12.051 8.78602 11.6412C8.17281 11.2315 7.69487 10.6491 7.41265 9.96776C7.13042 9.28641 7.05658 8.53666 7.20045 7.81333C7.34433 7.09 7.69947 6.42559 8.22096 5.9041C8.74245 5.38261 9.40687 5.02747 10.1302 4.88359C10.8535 4.73971 11.6033 4.81356 12.2846 5.09578C12.966 5.37801 13.5484 5.85595 13.9581 6.46915C14.3678 7.08236 14.5865 7.8033 14.5865 8.5408C14.5853 9.52937 14.192 10.4771 13.493 11.1761C12.794 11.8751 11.8462 12.2684 10.8577 12.2696Z" fill="white"/>
<path d="M18.7266 0.674277C18.0405 -0.0118136 15.3713 -0.321963 12.7491 0.46751C12.5377 0.53095 12.3403 0.617886 12.1359 0.702473C14.8115 2.34813 17.0608 4.60226 18.7007 7.28142C18.7618 7.10755 18.837 6.93367 18.8863 6.75745C19.7087 3.9426 19.3915 1.33922 18.7266 0.674277Z" fill="white"/>
<path d="M76.2195 16.2147C74.704 16.2147 73.9286 15.1104 73.4658 13.8181H73.3154V19.4008H70.4958V6.41443H73.3154V8.49385H73.4869C73.9568 7.15691 74.7604 6.14423 76.2195 6.14423C78.212 6.14423 79.3469 7.91114 79.3469 11.1842C79.3469 14.4572 78.1744 16.2147 76.2195 16.2147ZM76.572 11.1936C76.572 9.56293 76.0879 8.82515 74.9719 8.82515C73.8934 8.82515 73.3154 9.57938 73.3154 10.8529V11.5954C73.3154 12.7984 73.9568 13.6019 74.9601 13.6019C76.0715 13.6019 76.572 12.8148 76.572 11.1936Z" fill="white"/>
<path d="M41.4639 16.9525L40.5828 19.4055C40.5828 19.4055 41.5438 20 43.4023 20C46.0809 20 48.1016 17.9276 48.1016 14.4572V6.41443H45.2679V11.1137C45.2679 12.319 44.7158 12.9393 43.7125 12.9393C42.8173 12.9393 42.4883 12.3801 42.4883 11.4967V6.41443H39.6688V12.171C39.6688 14.2387 40.6439 15.5474 42.2768 15.5474C43.7172 15.5474 44.6265 14.6405 45.1434 13.1978H45.3431V14.9083C45.3431 16.4262 44.5372 17.3848 43.1157 17.3848C42.5355 17.3981 41.9632 17.2483 41.4639 16.9525Z" fill="white"/>
<path d="M86.6119 13.8181H86.4193C85.9024 15.249 84.9907 16.2147 83.5527 16.2147C81.8258 16.2147 80.9446 14.9295 80.9446 12.8594V6.41443H83.7642V12.0982C83.7642 12.9816 84.0931 13.5408 84.9883 13.5408C85.9893 13.5408 86.5438 12.9205 86.5438 11.7152V6.41443H89.3633V15.9328H86.6119V13.8181Z" fill="white"/>
<path d="M94.2153 8.49387H94.3891C94.8591 7.15694 95.6626 6.14425 97.1218 6.14425C99.1142 6.14425 100.247 7.91117 100.247 11.1842C100.247 14.4572 99.0719 16.2053 97.1218 16.2053C95.6063 16.2053 94.8309 15.101 94.368 13.8087H94.2153V15.9234H91.3957V2.62451H94.2153V8.49387ZM97.4742 11.1936C97.4742 9.56295 96.8962 8.82047 95.8741 8.82517C94.852 8.82987 94.2153 9.5935 94.2153 10.8529V11.5954C94.2153 12.7702 94.8591 13.602 95.86 13.602C96.9338 13.602 97.4648 12.7584 97.4648 11.1936H97.4742Z" fill="white"/>
<path d="M104.702 15.9328H101.882V2.62451H104.702V15.9328Z" fill="white"/>
<path d="M106.668 15.9328V6.41443H109.488V15.9328H106.668Z" fill="white"/>
<path d="M115.597 8.74526C114.471 8.74526 113.842 9.47129 113.842 11.1536C113.842 12.7843 114.429 13.6207 115.634 13.6207C116.023 13.6207 116.399 13.4817 116.693 13.2287C116.988 12.9757 117.183 12.6255 117.242 12.2415L119.826 12.7913C119.54 14.671 118.236 16.2147 115.644 16.2147C112.768 16.2147 110.963 14.5488 110.963 11.2946C110.963 8.04037 112.728 6.15363 115.625 6.15363C118.33 6.15363 119.493 7.60804 119.791 9.65457L117.171 10.1245C117.042 9.38436 116.563 8.73586 115.597 8.74526Z" fill="white"/>
<path d="M108.073 5.22785C108.945 5.22785 109.652 4.55355 109.652 3.72175C109.652 2.88995 108.945 2.21564 108.073 2.21564C107.201 2.21564 106.494 2.88995 106.494 3.72175C106.494 4.55355 107.201 5.22785 108.073 5.22785Z" fill="white"/>
<path d="M35.0376 3.46802C33.4798 4.64283 31.9079 6.97601 31.3229 8.79932H31.1255C30.5428 6.97601 28.9662 4.64048 27.4084 3.46802H24.5889V15.9328H27.4084V11.7951C27.4084 9.2105 27.2251 7.02535 27.2251 7.02535H27.4131C28.642 8.52911 29.6311 11.0808 29.892 13.4069H32.5447C32.8055 11.0808 33.7947 8.52911 35.0235 7.02535H35.2115C35.2115 7.02535 35.0282 9.21285 35.0282 11.7951V15.9328H37.8478V3.47977L35.0376 3.46802Z" fill="white"/>
<path d="M60.0635 11.3745C60.0635 8.08502 61.5908 6.15363 64.5278 6.15363C67.5635 6.15363 69.1354 8.12026 68.9451 11.7927H62.8361C62.9536 13.1907 63.6021 13.7993 64.7158 13.7993C65.7261 13.7993 66.1256 13.3505 66.3605 12.7749L68.7501 13.3975C68.3413 14.8073 67.2111 16.1912 64.6876 16.1912C61.861 16.1936 60.0635 14.3468 60.0635 11.3745ZM62.8572 10.4111H66.2548C66.2172 9.16819 65.6885 8.40457 64.6336 8.40457C63.5292 8.40457 62.9653 9.09535 62.8572 10.4088V10.4111Z" fill="white"/>
<path d="M58.4423 12.8595C58.1927 12.4276 57.8507 12.0562 57.4409 11.7719C57.031 11.4876 56.5634 11.2973 56.0715 11.2147V11.008C57.8737 10.7119 58.8394 9.56059 58.8394 7.53052C58.8394 5.03287 57.3239 3.46332 54.3751 3.46332H49.9319V15.9281H52.7515V12.0066H54.2271C54.7654 12.3318 55.2226 12.7753 55.564 13.3035C56.0502 14.0975 56.3252 15.0026 56.3629 15.9328H59.3516C59.3516 15.9328 59.2059 14.0672 58.4423 12.8595ZM52.7421 6.11134H54.361C55.5593 6.11134 56.0245 6.76454 56.0245 7.76783C56.0245 8.77112 55.5264 9.523 54.361 9.523H52.7421V6.11134Z" fill="white"/>
<path d="M120.259 6.15833H121.941V6.47082H121.267V8.21894H120.945V6.47082H120.268L120.259 6.15833Z" fill="white"/>
<path d="M122.176 6.15833H122.578L123.297 7.8477L124.016 6.15833H124.415V8.21894H124.091V6.75278L123.468 8.21894H123.116L122.495 6.76218V8.21894H122.176V6.15833Z" fill="white"/>
</g>
<defs>
<clipPath id="clip0_5013_2659">
<rect width="124.413" height="20" fill="white"/>
</clipPath>
</defs>
</svg>
