<svg width="60" height="24" viewBox="0 0 60 24" fill="none" xmlns="http://www.w3.org/2000/svg">
<g clip-path="url(#clip0_5013_2677)">
<path d="M18.6614 24H6.84554L20.1052 4.89136L21.5048 5.51014C23.5085 6.40885 25.1733 7.97055 26.2047 9.90056C27.236 11.8453 27.5748 14.0847 27.1623 16.2063C26.7792 18.21 25.7774 20.0221 24.2452 21.4365C22.7277 22.8508 20.8419 23.7348 18.7792 23.9853L18.6614 24ZM13.8879 20.3168H18.4257C19.678 20.14 20.8124 19.5949 21.7406 18.7403C22.6835 17.8711 23.3023 16.7514 23.538 15.5286C23.9652 13.3186 23.0371 11.0497 21.2838 9.66483L13.8879 20.3168Z" fill="#7A828D"/>
<path d="M7.22819 19.1087L5.82856 18.4899C3.82488 17.5912 2.16005 16.0295 1.12874 14.0994C0.0974368 12.1547 -0.241421 9.91529 0.171102 7.79374C0.554159 5.79006 1.556 3.9779 3.08823 2.56354C4.60572 1.14917 6.49154 0.26519 8.55416 0.0147294L8.67202 0H20.4879L7.22819 19.1087ZM8.90775 3.68324C7.65545 3.86004 6.52101 4.40516 5.59283 5.25967C4.64992 6.12891 4.03114 7.24862 3.79541 8.47145C3.36815 10.6814 4.29633 12.9503 6.04955 14.3352L13.4455 3.68324H8.90775Z" fill="#7A828D"/>
<path d="M18.6614 24H6.84554L20.1052 4.89136L21.5048 5.51014C23.5085 6.40885 25.1733 7.97055 26.2047 9.90056C27.236 11.8453 27.5748 14.0847 27.1623 16.2063C26.7792 18.21 25.7774 20.0221 24.2452 21.4365C22.7277 22.8508 20.8419 23.7348 18.7792 23.9853L18.6614 24ZM13.8879 20.3168H18.4257C19.678 20.14 20.8124 19.5949 21.7406 18.7403C22.6835 17.8711 23.3023 16.7514 23.538 15.5286C23.9652 13.3186 23.0371 11.0497 21.2838 9.66483L13.8879 20.3168Z" fill="white"/>
<path d="M7.22819 19.1087L5.82856 18.4899C3.82488 17.5912 2.16005 16.0295 1.12874 14.0994C0.0974368 12.1547 -0.241421 9.91529 0.171102 7.79374C0.554159 5.79006 1.556 3.9779 3.08823 2.56354C4.60572 1.14917 6.49154 0.26519 8.55416 0.0147294L8.67202 0H20.4879L7.22819 19.1087ZM8.90775 3.68324C7.65545 3.86004 6.52101 4.40516 5.59283 5.25967C4.64992 6.12891 4.03114 7.24862 3.79541 8.47145C3.36815 10.6814 4.29633 12.9503 6.04955 14.3352L13.4455 3.68324H8.90775Z" fill="#E30E12"/>
<path d="M33.0835 10.3333C33.0607 10.3333 33.0402 10.3265 33.022 10.3128C33.0083 10.2946 33.0015 10.274 33.0015 10.2513V5.62853C33.0015 5.60573 33.0083 5.5875 33.022 5.57382C33.0402 5.55558 33.0607 5.54647 33.0835 5.54647H34.8273C35.1829 5.54647 35.4975 5.60801 35.771 5.7311C36.0445 5.85419 36.2565 6.02971 36.407 6.25765C36.5574 6.4856 36.6326 6.74774 36.6326 7.04407V8.83571C36.6326 9.13204 36.5574 9.39418 36.407 9.62212C36.2565 9.85007 36.0445 10.0256 35.771 10.1487C35.4975 10.2718 35.1829 10.3333 34.8273 10.3333H33.0835ZM34.1366 9.32808C34.1366 9.35087 34.148 9.36227 34.1708 9.36227H34.8752C35.0575 9.36227 35.2057 9.29844 35.3197 9.17079C35.4336 9.03858 35.4929 8.86307 35.4975 8.64424V7.23554C35.4975 7.01671 35.4382 6.84347 35.3197 6.71582C35.2057 6.58362 35.0552 6.51751 34.8683 6.51751H34.1708C34.148 6.51751 34.1366 6.52891 34.1366 6.5517V9.32808ZM37.5159 10.3333C37.4931 10.3333 37.4726 10.3265 37.4543 10.3128C37.4407 10.2946 37.4338 10.274 37.4338 10.2513V5.62853C37.4338 5.60573 37.4407 5.5875 37.4543 5.57382C37.4726 5.55558 37.4931 5.54647 37.5159 5.54647H38.4869C38.5097 5.54647 38.528 5.55558 38.5416 5.57382C38.5599 5.5875 38.569 5.60573 38.569 5.62853V10.2513C38.569 10.274 38.5599 10.2946 38.5416 10.3128C38.528 10.3265 38.5097 10.3333 38.4869 10.3333H37.5159ZM41.2062 10.388C40.8415 10.388 40.5201 10.3151 40.242 10.1692C39.9685 10.0233 39.7542 9.81816 39.5992 9.55374C39.4487 9.28932 39.3735 8.98388 39.3735 8.6374V7.23554C39.3735 6.88906 39.4487 6.5859 39.5992 6.32604C39.7542 6.06162 39.9685 5.85647 40.242 5.71059C40.5201 5.5647 40.8415 5.49176 41.2062 5.49176C41.5664 5.49176 41.8855 5.56242 42.1636 5.70375C42.4417 5.84052 42.6559 6.02971 42.8064 6.27133C42.9614 6.51295 43.0389 6.77965 43.0389 7.07142V7.10561C43.0389 7.12841 43.0298 7.14892 43.0115 7.16716C42.9978 7.18083 42.9796 7.18767 42.9568 7.18767H41.9858C41.963 7.18767 41.9425 7.18083 41.9242 7.16716C41.9105 7.14892 41.9037 7.12841 41.9037 7.10561C41.9037 6.92781 41.8399 6.77737 41.7122 6.65428C41.5891 6.52663 41.4205 6.46281 41.2062 6.46281C40.9965 6.46281 40.8278 6.53119 40.7002 6.66796C40.5725 6.80472 40.5087 6.98252 40.5087 7.20135V8.67159C40.5087 8.89042 40.5794 9.06822 40.7207 9.20498C40.862 9.34175 41.0398 9.41014 41.2541 9.41014C41.4547 9.41014 41.6165 9.35771 41.7396 9.25285C41.8627 9.14344 41.9242 8.993 41.9242 8.80152V8.61005C41.9242 8.58725 41.9128 8.57586 41.89 8.57586H41.2062C41.1834 8.57586 41.1629 8.56902 41.1447 8.55534C41.131 8.53711 41.1241 8.51659 41.1241 8.4938V7.74158C41.1241 7.71878 41.131 7.70055 41.1447 7.68687C41.1629 7.66863 41.1834 7.65952 41.2062 7.65952H42.9568C42.9796 7.65952 42.9978 7.66863 43.0115 7.68687C43.0298 7.70055 43.0389 7.71878 43.0389 7.74158V8.67159C43.0389 9.01351 42.9614 9.3144 42.8064 9.57426C42.6559 9.83411 42.4417 10.0347 42.1636 10.176C41.89 10.3174 41.5709 10.388 41.2062 10.388ZM43.9231 10.3333C43.9003 10.3333 43.8798 10.3265 43.8616 10.3128C43.8479 10.2946 43.841 10.274 43.841 10.2513V5.62853C43.841 5.60573 43.8479 5.5875 43.8616 5.57382C43.8798 5.55558 43.9003 5.54647 43.9231 5.54647H44.8942C44.9169 5.54647 44.9352 5.55558 44.9489 5.57382C44.9671 5.5875 44.9762 5.60573 44.9762 5.62853V10.2513C44.9762 10.274 44.9671 10.2946 44.9489 10.3128C44.9352 10.3265 44.9169 10.3333 44.8942 10.3333H43.9231ZM49.3162 5.54647C49.339 5.54647 49.3572 5.55558 49.3709 5.57382C49.3891 5.5875 49.3982 5.60573 49.3982 5.62853V6.44229C49.3982 6.46509 49.3891 6.4856 49.3709 6.50384C49.3572 6.51751 49.339 6.52435 49.3162 6.52435H48.1195C48.0967 6.52435 48.0853 6.53575 48.0853 6.55854V10.2513C48.0853 10.274 48.0761 10.2946 48.0579 10.3128C48.0442 10.3265 48.026 10.3333 48.0032 10.3333H47.0322C47.0094 10.3333 46.9888 10.3265 46.9706 10.3128C46.9569 10.2946 46.9501 10.274 46.9501 10.2513V6.55854C46.9501 6.53575 46.9387 6.52435 46.9159 6.52435H45.7602C45.7374 6.52435 45.7169 6.51751 45.6987 6.50384C45.685 6.4856 45.6782 6.46509 45.6782 6.44229V5.62853C45.6782 5.60573 45.685 5.5875 45.6987 5.57382C45.7169 5.55558 45.7374 5.54647 45.7602 5.54647H49.3162ZM52.759 10.3333C52.7089 10.3333 52.6769 10.3105 52.6633 10.2649L52.4855 9.65632C52.4764 9.63808 52.465 9.62896 52.4513 9.62896H50.8921C50.8785 9.62896 50.8671 9.63808 50.8579 9.65632L50.6801 10.2649C50.6665 10.3105 50.6346 10.3333 50.5844 10.3333H49.5381C49.5108 10.3333 49.4903 10.3265 49.4766 10.3128C49.4629 10.2946 49.4606 10.2695 49.4698 10.2376L50.9332 5.61485C50.9468 5.56926 50.9765 5.54647 51.0221 5.54647H52.3145C52.3601 5.54647 52.3897 5.56926 52.4034 5.61485L53.8737 10.2376C53.8782 10.2467 53.8805 10.2581 53.8805 10.2718C53.8805 10.3128 53.8554 10.3333 53.8053 10.3333H52.759ZM51.1315 8.71262C51.1269 8.73998 51.136 8.75365 51.1588 8.75365H52.1777C52.2051 8.75365 52.2142 8.73998 52.2051 8.71262L51.6854 6.95517C51.6808 6.93693 51.674 6.93009 51.6649 6.93465C51.6558 6.93465 51.6489 6.94149 51.6444 6.95517L51.1315 8.71262ZM54.6692 10.3333C54.6464 10.3333 54.6259 10.3265 54.6077 10.3128C54.594 10.2946 54.5871 10.274 54.5871 10.2513V5.62853C54.5871 5.60573 54.594 5.5875 54.6077 5.57382C54.6259 5.55558 54.6464 5.54647 54.6692 5.54647H55.6403C55.663 5.54647 55.6813 5.55558 55.695 5.57382C55.7132 5.5875 55.7223 5.60573 55.7223 5.62853V9.32808C55.7223 9.35087 55.7337 9.36227 55.7565 9.36227H57.9379C57.9607 9.36227 57.979 9.37138 57.9926 9.38962C58.0109 9.4033 58.02 9.42153 58.02 9.44433V10.2513C58.02 10.274 58.0109 10.2946 57.9926 10.3128C57.979 10.3265 57.9607 10.3333 57.9379 10.3333H54.6692Z" fill="white"/>
<path d="M33.0833 17.5616C33.0605 17.5616 33.04 17.5547 33.0218 17.5411C33.0081 17.5228 33.0013 17.5023 33.0013 17.4795V12.8568C33.0013 12.834 33.0081 12.8158 33.0218 12.8021C33.04 12.7839 33.0605 12.7747 33.0833 12.7747H34.8271C35.1827 12.7747 35.4973 12.8363 35.7708 12.9594C36.0443 13.0825 36.2563 13.258 36.4068 13.4859C36.5572 13.7139 36.6324 13.976 36.6324 14.2723V16.064C36.6324 16.3603 36.5572 16.6225 36.4068 16.8504C36.2563 17.0783 36.0443 17.2539 35.7708 17.3769C35.4973 17.5 35.1827 17.5616 34.8271 17.5616H33.0833ZM34.1364 16.5563C34.1364 16.5791 34.1478 16.5905 34.1706 16.5905H34.875C35.0573 16.5905 35.2055 16.5267 35.3195 16.3991C35.4334 16.2669 35.4927 16.0913 35.4973 15.8725V14.4638C35.4973 14.245 35.438 14.0717 35.3195 13.9441C35.2055 13.8119 35.055 13.7458 34.8681 13.7458H34.1706C34.1478 13.7458 34.1364 13.7572 34.1364 13.78V16.5563ZM40.2649 17.5616C40.2148 17.5616 40.1829 17.5388 40.1692 17.4932L39.9914 16.8846C39.9823 16.8664 39.9709 16.8572 39.9572 16.8572H38.3981C38.3844 16.8572 38.373 16.8664 38.3639 16.8846L38.1861 17.4932C38.1724 17.5388 38.1405 17.5616 38.0903 17.5616H37.0441C37.0167 17.5616 36.9962 17.5547 36.9825 17.5411C36.9688 17.5228 36.9666 17.4978 36.9757 17.4658L38.4391 12.8431C38.4528 12.7975 38.4824 12.7747 38.528 12.7747H39.8204C39.866 12.7747 39.8957 12.7975 39.9093 12.8431L41.3796 17.4658C41.3841 17.475 41.3864 17.4864 41.3864 17.5C41.3864 17.5411 41.3613 17.5616 41.3112 17.5616H40.2649ZM38.6374 15.9409C38.6328 15.9682 38.642 15.9819 38.6648 15.9819H39.6837C39.711 15.9819 39.7201 15.9682 39.711 15.9409L39.1913 14.1834C39.1867 14.1652 39.1799 14.1584 39.1708 14.1629C39.1617 14.1629 39.1548 14.1698 39.1503 14.1834L38.6374 15.9409ZM42.7991 17.5479C42.7763 17.5479 42.7558 17.5411 42.7376 17.5274C42.7239 17.5092 42.7171 17.4886 42.7171 17.4658V15.8452C42.7171 15.8269 42.7148 15.8132 42.7102 15.8041L41.3084 12.8705C41.2992 12.8522 41.2947 12.8386 41.2947 12.8294C41.2947 12.793 41.3198 12.7747 41.3699 12.7747H42.423C42.4686 12.7747 42.5005 12.7953 42.5187 12.8363L43.2641 14.5664C43.2778 14.5937 43.2915 14.5937 43.3052 14.5664L44.0574 12.8363C44.0756 12.7953 44.1075 12.7747 44.1531 12.7747H45.2131C45.245 12.7747 45.2655 12.7839 45.2746 12.8021C45.2883 12.8158 45.2883 12.8386 45.2746 12.8705L43.8522 15.8041C43.8477 15.8132 43.8454 15.8269 43.8454 15.8452V17.4658C43.8454 17.4886 43.8363 17.5092 43.818 17.5274C43.8044 17.5411 43.7861 17.5479 43.7633 17.5479H42.7991Z" fill="white"/>
</g>
<defs>
<clipPath id="clip0_5013_2677">
<rect width="60" height="24" fill="white"/>
</clipPath>
</defs>
</svg>
