<svg width="102" height="18" viewBox="0 0 102 18" fill="none" xmlns="http://www.w3.org/2000/svg">
<g clip-path="url(#clip0_5013_2701)">
<path d="M34.4562 17.0299C32.6174 16.8386 31.4211 16.2026 30.9085 15.1438C30.7109 14.7357 30.5485 13.9547 30.547 13.4053C30.5424 11.7984 31.3343 10.6858 32.8777 10.1307C33.7535 9.81568 34.5704 9.7182 36.3344 9.7182H37.9362V9.2659C37.9362 8.095 37.0665 7.38839 35.6396 7.39995C34.8566 7.4063 34.3146 7.54832 33.3336 8.00422C32.4432 8.41797 32.2254 8.43208 31.7952 8.1039C31.5303 7.90185 31.0013 6.90106 30.9625 6.5284C30.9426 6.33826 30.9914 6.28101 31.4337 5.97528C33.0103 4.8853 35.8193 4.40971 37.7455 4.90665C39.0414 5.24098 40.0057 5.97448 40.5237 7.0198C40.9972 7.97528 41.0162 8.19491 41.019 12.742L41.0215 16.7344L40.8601 16.7743C39.8751 17.0181 35.8766 17.1776 34.4562 17.0299ZM37.712 14.5525L37.9362 14.5077V13.1892V11.8708L36.6985 11.8714C34.8119 11.8723 34.1665 12.03 33.7953 12.581C33.6686 12.7691 33.6311 12.925 33.6313 13.2627C33.6317 13.9787 33.9137 14.2916 34.7432 14.4966C35.1202 14.5897 37.3189 14.6311 37.712 14.5525ZM77.658 17.027C75.6298 16.7667 74.1649 15.8167 73.3456 14.2305C72.36 12.3222 72.3848 9.50359 73.4038 7.61917C74.4656 5.65568 76.4928 4.56719 78.8051 4.71908C81.158 4.87363 82.613 5.95692 83.287 8.05591C83.5504 8.876 83.6423 9.58612 83.6423 10.7997V11.799H79.7218H75.8014L75.8428 12.1492C75.9304 12.8885 76.4081 13.5702 77.0953 13.9364C77.6973 14.2573 78.2502 14.3821 79.069 14.3821C80.2563 14.3821 81.2999 14.0594 82.1234 13.4377L82.5145 13.1424L82.6455 13.3138C82.7176 13.4081 82.8745 13.6829 82.9942 13.9245C83.384 14.7114 83.2425 15.478 82.6131 15.9889C81.5513 16.8508 79.5508 17.2699 77.658 17.027ZM80.7134 9.60963C80.7803 9.54272 80.6246 8.76079 80.4783 8.42936C80.2863 7.99418 79.8992 7.61014 79.4525 7.41168C78.928 7.1786 77.8962 7.17821 77.3123 7.4108C76.5653 7.70841 75.9353 8.51566 75.8432 9.29323L75.8014 9.6464H78.239C79.5797 9.6464 80.6932 9.62988 80.7134 9.60963ZM2.84939 16.9919C1.6887 16.8537 0.597792 16.4559 0.251638 16.0445C0.00904042 15.7562 -0.0601047 15.3131 0.0523501 14.7674C0.168546 14.2035 0.524526 13.4217 0.642139 13.4721C0.691946 13.4934 0.991003 13.6216 1.30671 13.7569C2.36188 14.209 3.58387 14.4258 4.72405 14.3629C5.85725 14.3005 6.33727 13.9889 6.32245 13.3253C6.30889 12.7184 5.93381 12.4991 4.32557 12.1577C2.59345 11.7899 1.91508 11.5021 1.20922 10.8352C0.587398 10.2477 0.266305 9.43973 0.266305 8.46254C0.266305 7.44051 0.597194 6.66149 1.3175 5.98768C2.61053 4.77811 4.88762 4.40207 7.57698 4.95398C8.35139 5.1129 9.24174 5.41805 9.2888 5.54067C9.35117 5.7032 9.11062 6.70046 8.91022 7.11013C8.81078 7.31343 8.64144 7.5382 8.53392 7.60962C8.27584 7.78103 7.73073 7.76582 6.93926 7.5651C6.08733 7.34906 4.67002 7.29068 4.12482 7.44918C3.60559 7.60012 3.35165 7.88238 3.35165 8.30858C3.35165 8.91857 3.66947 9.11403 5.16304 9.42261C7.52277 9.91013 8.63312 10.5353 9.16756 11.6774C9.54056 12.4745 9.61851 13.9465 9.30591 14.8289C8.19856 17.1003 5.33637 17.3602 2.84939 16.9919ZM53.1406 16.9339C51.9389 16.6823 51.2104 16.0199 50.8075 14.8126C50.6852 14.4464 50.674 14.0282 50.6522 9.00068C50.6393 6.02117 50.6479 3.4794 50.6713 3.35231C50.7747 2.79015 51.4132 2.4053 52.8385 2.04599C53.3196 1.9247 53.7313 1.82546 53.7534 1.82546C53.7754 1.82546 53.7934 2.51967 53.7934 3.36813V4.91081H55.3805H56.9675L56.9372 5.82565C56.914 6.52552 56.8754 6.80579 56.7729 7.01839C56.5694 7.4402 56.3669 7.49389 54.9796 7.49389H53.7934V10.4564C53.7934 13.3859 53.7952 13.4225 53.9549 13.7391C54.072 13.9714 54.2049 14.1049 54.4392 14.2259C54.7431 14.3828 54.8248 14.391 55.8276 14.3654L56.8931 14.3383L56.868 15.1674C56.8475 15.8442 56.8158 16.0426 56.6955 16.2474C56.5263 16.5355 56.1859 16.7857 55.8109 16.8977C55.3874 17.0241 53.6822 17.0472 53.1406 16.9339ZM25.6747 14.948C25.6664 14.3835 25.6666 13.616 25.6666 12.563C25.6666 10.3045 25.6385 8.87693 25.5897 8.64909C25.4121 7.82112 24.8287 7.40395 23.7893 7.36178C22.0296 7.42657 21.5461 8.51453 21.5049 9.41999L21.5384 16.8575C20.4867 16.8857 19.4354 16.8706 18.3837 16.8575L18.3479 12.6959C18.3126 8.60712 18.3093 8.52927 18.1575 8.24728C17.8269 7.633 17.4039 7.4063 16.5106 7.36464C15.6329 7.32371 15.145 7.46378 14.7359 7.87418C14.2185 8.39322 14.2315 8.27271 14.2062 12.8035L14.1836 16.8575C13.1561 16.8704 12.1285 16.8833 11.1009 16.8962L11.1021 12.7153C11.1035 8.01901 11.1101 7.94248 11.6007 6.94708C12.1053 5.9234 13.0577 5.20669 14.3656 4.86655C15.1048 4.67432 16.9507 4.69082 17.7124 4.89647C18.5042 5.11025 19.1102 5.44128 19.5623 5.90703L19.9535 6.30998L20.3544 5.91534C20.8388 5.43866 21.4476 5.10303 22.1999 4.89796C23.0111 4.67687 24.8072 4.67714 25.6194 4.89846C27.3134 5.36011 28.377 6.43738 28.7152 8.03407C28.8016 8.44166 28.8214 9.30009 28.8224 12.6703C28.8236 16.5033 28.8147 16.8097 28.7013 16.8533C26.9536 17.2061 25.6353 17.0647 25.6747 14.948ZM93.5615 16.8941C93.1349 16.8031 92.8999 16.6754 92.7254 16.4398C92.5788 16.2419 92.5747 16.1515 92.5396 12.3858C92.5285 11.1967 92.5174 10.4045 92.5064 9.21537C92.571 8.02081 91.9622 7.31804 90.4501 7.35038C88.9667 7.31916 88.3828 8.13751 88.4294 8.83947L88.4139 16.8575H86.8353H85.2568V12.7677C85.2568 9.09334 85.2698 8.62238 85.3849 8.13236C85.7524 6.56728 86.6914 5.54363 88.2065 5.0563C89.3318 4.69435 90.5022 4.611 91.7719 4.8024C93.8959 5.12254 95.117 6.12035 95.6006 7.93073C95.7084 8.33422 95.7267 8.90796 95.7496 12.5969L95.7758 16.803L95.6107 16.8507C95.329 16.9322 93.8832 16.9628 93.5615 16.8941ZM43.0377 16.8575C43.072 15.7438 43.0407 13.8325 43.0477 12.6126C43.0743 8.68174 43.081 8.51354 43.2328 7.96027C43.6725 6.35711 44.5657 5.44757 46.0934 5.04744C46.7413 4.87775 48.1076 4.79367 48.9439 4.87204L49.5052 4.92463L49.4743 5.79668C49.4505 6.46954 49.4103 6.74249 49.2982 6.99162C49.0753 7.48684 49.0115 7.51566 48.0295 7.56445C47.1065 7.61031 46.985 7.64696 46.6748 7.97305C46.2291 8.44165 46.2309 8.42578 46.2036 12.8574L46.179 16.8575C45.109 16.8691 44.0449 16.8608 43.0377 16.8575ZM58.5462 10.2743C58.5699 2.94496 58.5418 3.39166 59.0451 2.33297C59.3533 1.68438 60.1134 0.92816 60.8089 0.577957C61.7287 0.114809 62.3705 -0.00206948 63.9822 2.75682e-05C64.7518 0.00102753 65.475 0.0265182 65.5894 0.056671L65.7974 0.111495L65.7524 0.842913C65.6985 1.72117 65.5566 2.23917 65.3053 2.47545C65.1285 2.64162 65.0612 2.65263 63.9945 2.68985C63.0293 2.72352 62.8282 2.75102 62.5742 2.88402C62.0113 3.17873 61.6862 3.7942 61.6862 4.56507V4.91081H63.2933H64.9005L64.9475 5.39513C64.9948 5.88198 64.8979 6.82729 64.7776 7.052C64.7421 7.11833 64.6422 7.23682 64.5555 7.31531C64.4122 7.44516 64.276 7.46013 63.0421 7.48154L61.6862 7.50507V12.1992V16.8934H58.5248L58.5462 10.2743ZM65.7205 12.6421L65.7422 8.71192C65.7687 8.05834 66.0276 7.39904 66.3309 6.8701C66.8647 5.94961 67.7048 5.35749 68.8973 5.05123C69.5692 4.87864 70.9152 4.79583 71.8212 4.87135L72.449 4.92369L72.4483 5.47333C72.4476 6.1452 72.3364 6.86691 72.1898 7.15035C72.0263 7.46663 71.7056 7.56564 70.8449 7.56564C70.494 7.56564 70.2968 7.57054 70.14 7.60043C69.698 7.70284 69.2991 8.09315 69.0778 8.5036C68.9205 8.79246 68.8961 9.03917 68.8945 9.34967L68.8765 12.8522L68.8558 16.8934H67.2764H65.697L65.7205 12.6421Z" fill="white"/>
<path fill-rule="evenodd" clip-rule="evenodd" d="M97.6535 12.6333H102V16.8854H97.6535V12.6333Z" fill="#ED1D61"/>
</g>
<defs>
<clipPath id="clip0_5013_2701">
<rect width="102" height="17.1295" fill="white"/>
</clipPath>
</defs>
</svg>
