<svg width="90" height="36" viewBox="0 0 90 36" fill="none" xmlns="http://www.w3.org/2000/svg">
<g clip-path="url(#clip0_5037_3079)">
<path d="M27.9921 36H10.2684L30.1579 7.33704L32.2573 8.26522C35.2628 9.61328 37.7601 11.9558 39.307 14.8508C40.854 17.768 41.3623 21.1271 40.7435 24.3094C40.1689 27.3149 38.6661 30.0332 36.3678 32.1547C34.0916 34.2763 31.2628 35.6022 28.1689 35.9779L27.9921 36ZM20.8319 30.4752H27.6385C29.517 30.21 31.2186 29.3923 32.6109 28.1105C34.0253 26.8066 34.9534 25.1271 35.307 23.2928C35.9479 19.9779 34.5557 16.5746 31.9258 14.4972L20.8319 30.4752Z" fill="#7A828D"/>
<path d="M10.8423 28.663L8.74284 27.7348C5.73731 26.3867 3.24008 24.0442 1.69312 21.1492C0.146155 18.232 -0.362132 14.8729 0.256652 11.6906C0.831238 8.68509 2.334 5.96686 4.63234 3.84531C6.90858 1.72376 9.73731 0.397785 12.8312 0.022094L13.008 0H30.7318L10.8423 28.663ZM13.3616 5.52486C11.4832 5.79005 9.78151 6.60774 8.38925 7.8895C6.97488 9.19337 6.04671 10.8729 5.69311 12.7072C5.05223 16.0221 6.4445 19.4254 9.07433 21.5028L20.1683 5.52486H13.3616Z" fill="#7A828D"/>
<path d="M27.9921 36H10.2684L30.1579 7.33704L32.2573 8.26522C35.2628 9.61328 37.7601 11.9558 39.307 14.8508C40.854 17.768 41.3623 21.1271 40.7435 24.3094C40.1689 27.3149 38.6661 30.0332 36.3678 32.1547C34.0916 34.2763 31.2628 35.6022 28.1689 35.9779L27.9921 36ZM20.8319 30.4752H27.6385C29.517 30.21 31.2186 29.3923 32.6109 28.1105C34.0253 26.8066 34.9534 25.1271 35.307 23.2928C35.9479 19.9779 34.5557 16.5746 31.9258 14.4972L20.8319 30.4752Z" fill="#7A828D"/>
<path d="M10.8423 28.663L8.74284 27.7348C5.73731 26.3867 3.24008 24.0442 1.69312 21.1492C0.146155 18.232 -0.362132 14.8729 0.256652 11.6906C0.831238 8.68509 2.334 5.96686 4.63234 3.84531C6.90858 1.72376 9.73731 0.397785 12.8312 0.022094L13.008 0H30.7318L10.8423 28.663ZM13.3616 5.52486C11.4832 5.79005 9.78151 6.60774 8.38925 7.8895C6.97488 9.19337 6.04671 10.8729 5.69311 12.7072C5.05223 16.0221 6.4445 19.4254 9.07433 21.5028L20.1683 5.52486H13.3616Z" fill="#464D57"/>
<path d="M49.6251 16C49.5909 16 49.5601 15.9897 49.5328 15.9692C49.5123 15.9419 49.502 15.9111 49.502 15.8769V8.94282C49.502 8.90863 49.5123 8.88128 49.5328 8.86076C49.5601 8.83341 49.5909 8.81973 49.6251 8.81973H52.2408C52.7742 8.81973 53.246 8.91205 53.6563 9.09668C54.0666 9.28132 54.3846 9.5446 54.6103 9.88651C54.8359 10.2284 54.9487 10.6216 54.9487 11.0661V13.7536C54.9487 14.1981 54.8359 14.5913 54.6103 14.9332C54.3846 15.2751 54.0666 15.5384 53.6563 15.723C53.246 15.9077 52.7742 16 52.2408 16H49.6251ZM51.2048 14.4921C51.2048 14.5263 51.2218 14.5434 51.256 14.5434H52.3126C52.5861 14.5434 52.8083 14.4477 52.9793 14.2562C53.1503 14.0579 53.2392 13.7946 53.246 13.4664V11.3533C53.246 11.0251 53.1571 10.7652 52.9793 10.5738C52.8083 10.3755 52.5827 10.2763 52.3023 10.2763H51.256C51.2218 10.2763 51.2048 10.2934 51.2048 10.3276V14.4921ZM56.2737 16C56.2395 16 56.2087 15.9897 56.1813 15.9692C56.1608 15.9419 56.1506 15.9111 56.1506 15.8769V8.94282C56.1506 8.90863 56.1608 8.88128 56.1813 8.86076C56.2087 8.83341 56.2395 8.81973 56.2737 8.81973H57.7302C57.7644 8.81973 57.7918 8.83341 57.8123 8.86076C57.8396 8.88128 57.8533 8.90863 57.8533 8.94282V15.8769C57.8533 15.9111 57.8396 15.9419 57.8123 15.9692C57.7918 15.9897 57.7644 16 57.7302 16H56.2737ZM61.8091 16.0821C61.262 16.0821 60.7799 15.9726 60.3628 15.7538C59.9525 15.535 59.6311 15.2273 59.3986 14.8306C59.1729 14.434 59.0601 13.9758 59.0601 13.4561V11.3533C59.0601 10.8336 59.1729 10.3789 59.3986 9.98909C59.6311 9.59246 59.9525 9.28474 60.3628 9.06591C60.7799 8.84708 61.262 8.73767 61.8091 8.73767C62.3493 8.73767 62.828 8.84366 63.2452 9.05565C63.6623 9.2608 63.9837 9.5446 64.2094 9.90703C64.4419 10.2695 64.5581 10.6695 64.5581 11.1072V11.1584C64.5581 11.1926 64.5445 11.2234 64.5171 11.2508C64.4966 11.2713 64.4692 11.2815 64.435 11.2815H62.9785C62.9443 11.2815 62.9135 11.2713 62.8862 11.2508C62.8656 11.2234 62.8554 11.1926 62.8554 11.1584C62.8554 10.8918 62.7596 10.6661 62.5682 10.4814C62.3835 10.29 62.1305 10.1942 61.8091 10.1942C61.4945 10.1942 61.2415 10.2968 61.0501 10.502C60.8586 10.7071 60.7628 10.9738 60.7628 11.3021V13.5074C60.7628 13.8357 60.8688 14.1024 61.0808 14.3075C61.2928 14.5127 61.5595 14.6152 61.8809 14.6152C62.1818 14.6152 62.4246 14.5366 62.6092 14.3793C62.7938 14.2152 62.8862 13.9895 62.8862 13.7023V13.4151C62.8862 13.3809 62.8691 13.3638 62.8349 13.3638H61.8091C61.7749 13.3638 61.7441 13.3536 61.7168 13.333C61.6963 13.3057 61.686 13.2749 61.686 13.2407V12.1124C61.686 12.0782 61.6963 12.0509 61.7168 12.0303C61.7441 12.003 61.7749 11.9893 61.8091 11.9893H64.435C64.4692 11.9893 64.4966 12.003 64.5171 12.0303C64.5445 12.0509 64.5581 12.0782 64.5581 12.1124V13.5074C64.5581 14.0203 64.4419 14.4716 64.2094 14.8614C63.9837 15.2512 63.6623 15.5521 63.2452 15.7641C62.8349 15.9761 62.3562 16.0821 61.8091 16.0821ZM65.8845 16C65.8503 16 65.8195 15.9897 65.7922 15.9692C65.7716 15.9419 65.7614 15.9111 65.7614 15.8769V8.94282C65.7614 8.90863 65.7716 8.88128 65.7922 8.86076C65.8195 8.83341 65.8503 8.81973 65.8845 8.81973H67.341C67.3752 8.81973 67.4026 8.83341 67.4231 8.86076C67.4505 8.88128 67.4641 8.90863 67.4641 8.94282V15.8769C67.4641 15.9111 67.4505 15.9419 67.4231 15.9692C67.4026 15.9897 67.3752 16 67.341 16H65.8845ZM73.9741 8.81973C74.0083 8.81973 74.0356 8.83341 74.0561 8.86076C74.0835 8.88128 74.0972 8.90863 74.0972 8.94282V10.1635C74.0972 10.1977 74.0835 10.2284 74.0561 10.2558C74.0356 10.2763 74.0083 10.2866 73.9741 10.2866H72.179C72.1448 10.2866 72.1277 10.3037 72.1277 10.3378V15.8769C72.1277 15.9111 72.114 15.9419 72.0867 15.9692C72.0662 15.9897 72.0388 16 72.0046 16H70.548C70.5139 16 70.4831 15.9897 70.4557 15.9692C70.4352 15.9419 70.425 15.9111 70.425 15.8769V10.3378C70.425 10.3037 70.4079 10.2866 70.3737 10.2866H68.6401C68.606 10.2866 68.5752 10.2763 68.5478 10.2558C68.5273 10.2284 68.5171 10.1977 68.5171 10.1635V8.94282C68.5171 8.90863 68.5273 8.88128 68.5478 8.86076C68.5752 8.83341 68.606 8.81973 68.6401 8.81973H73.9741ZM79.1383 16C79.0631 16 79.0152 15.9658 78.9947 15.8974L78.728 14.9845C78.7143 14.9572 78.6973 14.9435 78.6767 14.9435H76.338C76.3175 14.9435 76.3004 14.9572 76.2867 14.9845L76.02 15.8974C75.9995 15.9658 75.9517 16 75.8764 16H74.307C74.266 16 74.2352 15.9897 74.2147 15.9692C74.1942 15.9419 74.1908 15.9043 74.2045 15.8564L76.3996 8.9223C76.4201 8.85392 76.4645 8.81973 76.5329 8.81973H78.4716C78.54 8.81973 78.5844 8.85392 78.6049 8.9223L80.8103 15.8564C80.8171 15.8701 80.8206 15.8872 80.8206 15.9077C80.8206 15.9692 80.7829 16 80.7077 16H79.1383ZM76.697 13.569C76.6902 13.61 76.7039 13.6305 76.7381 13.6305H78.2664C78.3075 13.6305 78.3211 13.61 78.3075 13.569L77.5279 10.9328C77.5211 10.9054 77.5108 10.8952 77.4971 10.902C77.4834 10.902 77.4732 10.9123 77.4663 10.9328L76.697 13.569ZM82.0036 16C81.9694 16 81.9387 15.9897 81.9113 15.9692C81.8908 15.9419 81.8805 15.9111 81.8805 15.8769V8.94282C81.8805 8.90863 81.8908 8.88128 81.9113 8.86076C81.9387 8.83341 81.9694 8.81973 82.0036 8.81973H83.4602C83.4944 8.81973 83.5217 8.83341 83.5422 8.86076C83.5696 8.88128 83.5833 8.90863 83.5833 8.94282V14.4921C83.5833 14.5263 83.6004 14.5434 83.6346 14.5434H86.9067C86.9409 14.5434 86.9683 14.5571 86.9888 14.5845C87.0161 14.605 87.0298 14.6323 87.0298 14.6665V15.8769C87.0298 15.9111 87.0161 15.9419 86.9888 15.9692C86.9683 15.9897 86.9409 16 86.9067 16H82.0036Z" fill="#7A828D"/>
<path d="M49.6249 26.8423C49.5907 26.8423 49.56 26.8321 49.5326 26.8116C49.5121 26.7842 49.5018 26.7534 49.5018 26.7193V19.7852C49.5018 19.751 49.5121 19.7236 49.5326 19.7031C49.56 19.6758 49.5907 19.6621 49.6249 19.6621H52.2406C52.774 19.6621 53.2458 19.7544 53.6561 19.939C54.0664 20.1237 54.3844 20.3869 54.6101 20.7289C54.8358 21.0708 54.9486 21.464 54.9486 21.9085V24.5959C54.9486 25.0404 54.8358 25.4336 54.6101 25.7756C54.3844 26.1175 54.0664 26.3808 53.6561 26.5654C53.2458 26.75 52.774 26.8423 52.2406 26.8423H49.6249ZM51.2046 25.3345C51.2046 25.3687 51.2217 25.3858 51.2559 25.3858H52.3124C52.5859 25.3858 52.8082 25.29 52.9791 25.0986C53.1501 24.9003 53.239 24.637 53.2458 24.3087V22.1957C53.2458 21.8674 53.1569 21.6076 52.9791 21.4161C52.8082 21.2178 52.5825 21.1186 52.3021 21.1186H51.2559C51.2217 21.1186 51.2046 21.1357 51.2046 21.1699V25.3345ZM60.3973 26.8423C60.3221 26.8423 60.2742 26.8082 60.2537 26.7398L59.987 25.8269C59.9734 25.7995 59.9563 25.7858 59.9358 25.7858H57.597C57.5765 25.7858 57.5594 25.7995 57.5457 25.8269L57.2791 26.7398C57.2585 26.8082 57.2107 26.8423 57.1354 26.8423H55.566C55.525 26.8423 55.4942 26.8321 55.4737 26.8116C55.4532 26.7842 55.4498 26.7466 55.4635 26.6987L57.6586 19.7647C57.6791 19.6963 57.7235 19.6621 57.7919 19.6621H59.7306C59.799 19.6621 59.8434 19.6963 59.8639 19.7647L62.0693 26.6987C62.0762 26.7124 62.0796 26.7295 62.0796 26.75C62.0796 26.8116 62.042 26.8423 61.9667 26.8423H60.3973ZM57.956 24.4113C57.9492 24.4523 57.9629 24.4729 57.9971 24.4729H59.5254C59.5665 24.4729 59.5802 24.4523 59.5665 24.4113L58.7869 21.7751C58.7801 21.7478 58.7698 21.7375 58.7561 21.7444C58.7425 21.7444 58.7322 21.7546 58.7254 21.7751L57.956 24.4113ZM64.1986 26.8218C64.1644 26.8218 64.1337 26.8116 64.1063 26.7911C64.0858 26.7637 64.0755 26.7329 64.0755 26.6987V24.2677C64.0755 24.2404 64.0721 24.2198 64.0653 24.2062L61.9625 19.8057C61.9488 19.7783 61.942 19.7578 61.942 19.7441C61.942 19.6894 61.9796 19.6621 62.0548 19.6621H63.6345C63.7029 19.6621 63.7507 19.6928 63.7781 19.7544L64.8961 22.3495C64.9167 22.3906 64.9372 22.3906 64.9577 22.3495L66.086 19.7544C66.1134 19.6928 66.1612 19.6621 66.2296 19.6621H67.8195C67.8674 19.6621 67.8982 19.6758 67.9119 19.7031C67.9324 19.7236 67.9324 19.7578 67.9119 19.8057L65.7783 24.2062C65.7715 24.2198 65.768 24.2404 65.768 24.2677V26.6987C65.768 26.7329 65.7544 26.7637 65.727 26.7911C65.7065 26.8116 65.6791 26.8218 65.6449 26.8218H64.1986Z" fill="#7A828D"/>
</g>
<defs>
<clipPath id="clip0_5037_3079">
<rect width="90" height="36" fill="white"/>
</clipPath>
</defs>
</svg>
