<svg width="87" height="24" viewBox="0 0 87 24" fill="none" xmlns="http://www.w3.org/2000/svg">
<path fill-rule="evenodd" clip-rule="evenodd" d="M30.8509 16.5272L32.0624 15.1247C32.7817 15.8196 33.5168 16.3408 34.2677 16.6883C35.0185 17.0358 35.8041 17.2095 36.6244 17.2095C37.5709 17.2095 38.3438 17.001 38.9433 16.5841C39.5427 16.1671 39.8424 15.6364 39.8424 14.992C39.8424 14.4108 39.6342 13.9591 39.2177 13.6369C38.8013 13.3147 38.1135 13.0715 37.1544 12.9072L34.9397 12.5471C33.7282 12.345 32.8227 11.9564 32.2233 11.3815C31.6239 10.8066 31.3241 10.0453 31.3241 9.09771C31.3241 7.94787 31.7721 7.02551 32.6681 6.33057C33.5641 5.63564 34.7441 5.28815 36.208 5.28815C37.1544 5.28815 38.0946 5.44293 39.0284 5.7525C39.9623 6.06207 40.8015 6.50747 41.546 7.08869L40.4481 8.60493C39.7288 8.06159 39.0095 7.65411 38.2902 7.38246C37.5709 7.1108 36.8452 6.97498 36.1133 6.97498C35.2552 6.97498 34.5611 7.15818 34.0311 7.52459C33.5011 7.89104 33.236 8.36485 33.236 8.94607C33.236 9.48938 33.419 9.9032 33.785 10.1875C34.151 10.4718 34.7567 10.6834 35.6022 10.8224L37.7412 11.1636C39.1294 11.391 40.1547 11.8048 40.8173 12.405C41.4798 13.0051 41.8111 13.8169 41.8111 14.8404C41.8111 15.4469 41.6847 16.0028 41.4325 16.5083C41.1801 17.0137 40.8236 17.4432 40.363 17.797C39.9024 18.1508 39.3439 18.4256 38.6877 18.6215C38.0315 18.8174 37.3122 18.9153 36.5298 18.9153C35.4697 18.9153 34.4475 18.7068 33.4632 18.2898C32.4789 17.8729 31.6081 17.2853 30.8509 16.5272Z" fill="white"/>
<path fill-rule="evenodd" clip-rule="evenodd" d="M51.0365 17.753L46.1005 7.78112V18.7119H44.2467V5.28815H46.8945L51.0556 13.8602L55.1975 5.28815H57.8454V18.7119H55.9729V7.76194L51.0365 17.753Z" fill="white"/>
<path fill-rule="evenodd" clip-rule="evenodd" d="M61.0929 18.7119V5.28815H65.8131C66.8195 5.28815 67.7528 5.45752 68.6128 5.79631C69.4728 6.1351 70.2183 6.60175 70.8487 7.19622C71.4795 7.79069 71.9731 8.50345 72.3299 9.33445C72.6863 10.1654 72.8649 11.0604 72.8649 12.0192C72.8649 12.978 72.6863 13.8666 72.3299 14.6848C71.9731 15.503 71.4824 16.2093 70.8583 16.8038C70.2342 17.3983 69.4887 17.8649 68.6224 18.2037C67.7561 18.5425 66.8195 18.7119 65.8131 18.7119H61.0929ZM65.8516 7.09082H63.0996V16.9093H65.8516C66.5393 16.9093 67.1894 16.7847 67.8005 16.5354C68.4121 16.2861 68.9379 15.9409 69.3772 15.4998C69.8168 15.0587 70.164 14.541 70.4187 13.9465C70.6735 13.352 70.8011 12.7096 70.8011 12.0192C70.8011 11.3289 70.6735 10.68 70.4187 10.0728C70.164 9.4655 69.8168 8.94135 69.3772 8.5003C68.9379 8.05921 68.4121 7.71404 67.8005 7.46475C67.1894 7.21545 66.5393 7.09082 65.8516 7.09082Z" fill="white"/>
<path fill-rule="evenodd" clip-rule="evenodd" d="M78.7518 18.7119L73.2708 5.28815H75.4366L79.9784 16.7175L84.5969 5.28815H86.6666L81.1089 18.7119H78.7518Z" fill="white"/>
<path fill-rule="evenodd" clip-rule="evenodd" d="M24.5589 11.7118C24.5589 11.7118 24.2861 5.1678 18.9824 1.97698C11.3371 -2.62249 4.99608 2.24493 4.99608 2.24493C4.99608 2.24493 13.1977 -0.375298 20.2416 4.79028C20.2416 4.79028 10.772 -0.875282 2.02794 6.21925C2.02794 6.21925 1.19138 7.60757 1.21841 9.61303C1.21841 9.61303 8.54888 0.280092 20.1067 5.14752C20.1067 5.14752 7.65662 1.94769 2.88239 12.8282C2.88239 12.8282 3.72446 13.7842 5.53575 14.0339C5.53575 14.0339 8.50392 3.40595 20.1067 5.50475C20.1067 5.50475 11.2425 5.2499 8.68378 13.1855C8.68378 13.1855 11.1123 11.5779 13.0011 9.61303C14.3852 8.17331 16.374 7.29095 18.7126 7.29095C21.0511 7.29095 23.2918 9.21518 24.1092 10.8187L24.5589 11.7118Z" fill="#EE1D20"/>
<path fill-rule="evenodd" clip-rule="evenodd" d="M0 12.2881C0 12.2881 0.272781 18.8322 5.57654 22.023C13.2218 26.6225 19.5628 21.755 19.5628 21.755C19.5628 21.755 11.3612 24.3753 4.31733 19.2097C4.31733 19.2097 13.7869 24.8753 22.531 17.7807C22.531 17.7807 23.3676 16.3924 23.3405 14.3869C23.3405 14.3869 16.01 23.7198 4.45224 18.8525C4.45224 18.8525 16.9023 22.0522 21.6765 11.1718C21.6765 11.1718 20.8345 10.2158 19.0232 9.96606C19.0232 9.96606 16.055 20.594 4.45224 18.4952C4.45224 18.4952 13.3164 18.7501 15.8751 10.8145C15.8751 10.8145 13.4466 12.4221 11.5578 14.3869C10.1738 15.8266 8.1849 16.709 5.84635 16.709C3.5078 16.709 1.26714 14.7848 0.449719 13.1812L0 12.2881Z" fill="white"/>
</svg>
