<svg width="68" height="24" viewBox="0 0 68 24" fill="none" xmlns="http://www.w3.org/2000/svg">
<g clip-path="url(#clip0_5013_2741)">
<path d="M-0.000129622 23.801V23.6942L0.176367 23.4839C0.486414 23.7164 1.05709 23.6881 1.0704 23.3954C1.075 23.2945 1.06629 23.1565 0.970015 23.099L0.338103 22.7213C0.151925 22.61 0.0538357 22.4154 0.0515893 22.2209C0.0497174 22.0569 0.129408 21.852 0.286651 21.7294C0.582203 21.4991 1.04382 21.489 1.36414 21.6911C1.43522 21.7611 1.39409 21.9709 1.35831 22.0629C1.17823 21.9018 0.579262 21.8245 0.499945 22.0915C0.334198 22.6492 1.71692 22.5159 1.48378 23.4921C1.33601 24.1109 0.45443 24.0827 -0.000183105 23.8009L-0.000129622 23.801Z" fill="white"/>
<path d="M11.6574 23.9626C11.431 23.7778 11.1623 22.829 10.8101 23.0155L10.7917 23.9538C10.6628 23.9693 10.5549 23.9684 10.4199 23.9547L10.4215 21.5651C10.7992 21.5691 11.192 21.5118 11.5118 21.6865C11.7428 21.8127 11.8743 22.0505 11.8656 22.2748C11.8559 22.5262 11.6975 22.7286 11.4223 22.8728L12.0931 23.9305C11.9873 23.9753 11.8122 23.9763 11.6574 23.9626V23.9626ZM11.3229 22.0164C11.1762 21.8892 10.9734 21.9336 10.7953 21.9402C10.8038 22.2084 10.7737 22.4408 10.8103 22.6775C11.0567 22.7038 11.2376 22.6747 11.3552 22.5195C11.4513 22.3928 11.4948 22.1655 11.3229 22.0164Z" fill="white"/>
<path d="M5.54785 22.7332L6.54554 23.9397C6.3698 23.9889 6.24395 23.9465 6.07777 23.9687L5.25926 22.9887L5.21861 23.9303C5.07998 23.9761 4.95696 23.9758 4.80432 23.9498L4.82946 21.6229C4.83058 21.521 5.19545 21.5233 5.21695 21.6257C5.27717 21.9128 5.20203 22.2188 5.25097 22.5329L6.05585 21.5849C6.15623 21.5115 6.38493 21.5541 6.48767 21.5951L5.54796 22.7332H5.54785Z" fill="white"/>
<path d="M17.9792 23.398C17.6953 23.3456 17.4037 23.3817 17.0991 23.3781C16.9943 23.5592 17.008 23.7877 16.8563 23.9375C16.7646 24.0071 16.5886 23.9469 16.4635 23.9528L17.3595 21.6067C17.3873 21.5398 17.6442 21.5171 17.6707 21.5839L18.607 23.945C18.4713 23.9584 18.2865 24.0025 18.1963 23.9373C18.0895 23.7953 18.0667 23.6189 17.9791 23.398L17.9792 23.398ZM17.8274 22.9809C17.6834 22.6889 17.6484 22.488 17.5289 22.2021C17.4081 22.4854 17.3747 22.6938 17.231 22.9746C17.4364 23.0186 17.5884 23.0136 17.8274 22.9809H17.8274Z" fill="white"/>
<path d="M8.92752 21.5798C9.04775 21.5377 9.16177 21.5561 9.30394 21.5688L9.2865 23.319C9.28276 23.6933 8.89885 23.9243 8.57441 23.9821C8.00085 24.0842 7.44457 23.7366 7.44039 23.3189L7.42285 21.5686C7.5663 21.5511 7.67054 21.5508 7.79836 21.5685L7.81767 23.1974C7.82136 23.509 8.1106 23.6554 8.3877 23.6458C8.66651 23.6362 8.87467 23.4829 8.90484 23.1862C8.95747 22.6682 8.90398 22.1537 8.92752 21.5798Z" fill="white"/>
<path d="M3.6832 22.8912L2.94009 22.8956V23.6396L3.7869 23.6417C3.80177 23.7565 3.80284 23.8451 3.78615 23.9621L2.50928 23.9608L2.52174 21.572L3.73759 21.5732C3.82183 21.6363 3.72566 21.8986 3.63362 21.919C3.4092 21.9688 3.17168 21.9063 2.94234 21.9382L2.94073 22.572L3.68052 22.5749C3.69469 22.6728 3.69309 22.7421 3.6832 22.8912Z" fill="white"/>
<path d="M20.1866 23.9885C19.8852 24.0276 19.5967 23.9337 19.3452 23.799C19.4011 23.6806 19.4429 23.5888 19.5195 23.4793C19.7592 23.6632 20.2726 23.729 20.3902 23.4716C20.5812 23.0536 20.0133 22.9582 19.7145 22.744C19.5143 22.6004 19.3646 22.3576 19.4095 22.14C19.4603 21.8933 19.5966 21.6713 19.8725 21.601C20.142 21.5322 20.477 21.5143 20.7078 21.6956C20.7868 21.7578 20.7343 21.9748 20.7054 22.0615C20.5244 21.8964 19.953 21.8508 19.8619 22.051C19.594 22.6397 20.9903 22.4627 20.8448 23.4543C20.8035 23.7359 20.5501 23.9414 20.1866 23.9885Z" fill="white"/>
<path d="M15.3401 23.9426C15.2094 23.9833 15.0986 23.9629 14.9631 23.9538L14.9638 21.9359L14.2776 21.9317C14.2552 21.8077 14.2549 21.7025 14.3027 21.5689L16.0847 21.5599C16.0784 21.6682 16.0627 21.8683 15.9621 21.9078C15.7638 21.9856 15.5538 21.8985 15.3376 21.9377L15.3401 23.9426Z" fill="white"/>
<path d="M13.421 23.9421C13.2605 23.9833 13.1448 23.9634 12.9814 23.9525L13.0043 21.6242C13.0054 21.5214 13.394 21.5219 13.3952 21.6243L13.421 23.9421Z" fill="white"/>
<path d="M18.7114 18.9984L18.6848 14.4374C18.6828 14.1009 18.5546 13.7304 18.2483 13.5866C17.7489 13.352 17.1352 13.4949 16.7445 13.9014C16.3479 14.314 16.059 14.8887 16.0535 15.4842L16.0214 18.9878L14.2687 18.9982L14.2699 13.772C14.27 13.4011 13.7011 13.6283 13.4236 13.5331L13.4247 12.0138C14.0217 12.0194 14.582 11.9829 15.1518 12.0287C15.4597 12.0534 15.7421 12.1578 15.8716 12.432C15.9849 12.6716 15.98 12.9126 15.9936 13.1902C16.1083 13.0156 16.1974 12.8466 16.3714 12.7167C16.8734 12.1139 17.6428 11.8124 18.4118 11.8613C19.2969 11.9175 19.9947 12.4074 20.231 13.3081C20.6805 12.3472 21.9541 11.686 22.9818 11.8983C23.9171 11.9423 24.6354 12.5993 24.7853 13.5126C24.8196 13.7212 24.9005 13.922 24.9006 14.1453L24.9028 18.9395L23.1446 18.945L23.1205 14.3842C23.1188 14.0729 22.9617 13.7122 22.6875 13.5891C22.1716 13.3574 21.5802 13.4972 21.1753 13.8997C20.7821 14.2905 20.5008 14.8558 20.4952 15.4423L20.4612 18.9979L18.7114 18.9984L18.7114 18.9984Z" fill="white"/>
<path d="M12.9867 17.5057L12.9865 19.001L11.1301 18.9849C10.7471 18.9816 10.4566 18.6826 10.4191 18.3034L10.4211 12.0073L12.1317 12.0077L12.1309 17.1284C12.0989 17.3228 12.2155 17.4733 12.3955 17.5085L12.9866 17.5057L12.9867 17.5057Z" fill="white"/>
<path d="M-6.85864e-05 16.9702V9.87262H1.7633L1.76437 12.0344C2.27819 11.9793 2.7696 12.0115 3.30192 12.016L3.31513 13.5527L1.75506 13.5684L1.79132 16.5612C1.79999 17.2746 2.8686 17.6626 3.42023 17.4392L3.41868 18.9893C2.59048 19.1829 1.22396 18.9253 0.629865 18.2442C0.365975 17.9418 -0.00012207 17.401 -0.00012207 16.9701L-6.85864e-05 16.9702Z" fill="white"/>
<path d="M5.235 13.8093C5.23478 13.3708 4.68144 13.6435 4.39321 13.5285L4.38129 12.0037L6.12096 12.0266C6.49797 12.0316 6.84326 12.2631 6.88717 12.6481C6.92413 12.9722 6.85765 13.2797 6.91343 13.6163C7.28974 12.5908 8.20876 11.7867 9.40637 11.9641L9.40824 13.6826C8.22459 13.488 7.22 14.2469 7.04479 15.4151C7.01526 15.6121 6.96509 15.8155 6.9637 16.0265L6.94418 18.9979L5.23756 18.9973L5.235 13.8093Z" fill="white"/>
<path d="M32.2788 15.8495C32.285 15.8298 32.261 15.7962 32.2188 15.7962H27.6828C27.4062 15.7962 27.8595 17.5466 29.4635 17.6475C30.2415 17.6964 30.9659 17.389 31.5947 16.8834L32.3437 18.0929C31.4611 18.8681 30.305 19.2251 29.1593 19.142C27.2721 19.0052 25.8575 17.5619 25.7959 15.6889C25.7573 14.5172 26.1322 13.4562 27.0299 12.6824C27.7647 12.049 28.7512 11.7841 29.7174 11.8801C31.0004 12.0077 32.0022 12.8757 32.2853 14.1401C32.5254 15.2118 32.353 15.5484 32.3881 15.6932C32.4058 15.7665 32.332 15.8494 32.2788 15.8494V15.8495ZM30.6283 14.5683C30.57 14.2601 30.497 13.9538 30.3083 13.7071C29.9758 13.2725 29.417 13.1533 28.9003 13.2708C28.3695 13.3915 27.9665 13.7255 27.7726 14.2316C27.7312 14.3397 27.6384 14.4307 27.6907 14.5715L30.6283 14.5683Z" fill="white"/>
<path d="M32.2786 15.8495H27.7426C27.7005 15.8495 27.6764 15.8158 27.6826 15.7961H32.2186C32.2608 15.7961 32.2848 15.8299 32.2786 15.8495Z" fill="white"/>
<path d="M45.5657 17.9641C44.8667 19.1987 43.3291 19.4651 42.138 18.815C41.3951 18.4095 41.0368 17.647 41.0912 16.8022C41.215 14.8786 43.9142 14.5491 45.4151 14.6254C45.4465 14.3117 45.409 13.9668 45.1913 13.7313C45.0654 13.5951 44.8127 13.5124 44.6194 13.5111L41.8411 13.4924L41.8577 12.0064L44.8728 12.032C45.4502 12.0369 46.0191 12.2728 46.4497 12.6382C46.9262 13.0425 47.1539 13.6535 47.1627 14.2773L47.2067 17.3795C47.2081 17.4773 47.4351 17.505 47.5109 17.5044L48.0347 17.5L48.0334 18.9906C47.4328 18.9964 46.8719 19.0149 46.2948 18.9851C46.0492 18.9724 45.8302 18.842 45.7115 18.6855C45.5522 18.4754 45.5263 18.2538 45.5657 17.9643V17.9641ZM43.0471 17.425C43.3329 17.7882 43.8976 17.8647 44.3406 17.6878C45.0812 17.3921 45.4915 16.5871 45.4245 15.8199L44.274 15.8691C43.8799 15.8859 43.5078 15.9984 43.1973 16.2356C42.823 16.5215 42.7181 17.0071 43.0471 17.425Z" fill="white"/>
<path d="M40.7759 12.0606V13.5015C40.6298 13.6259 39.9872 13.4227 39.9849 13.7228L39.9456 18.7622C39.9384 19.6813 39.4009 20.5076 38.6646 20.9886C37.2826 21.8913 35.2632 21.7723 33.8152 21.0225L34.3666 19.6295C35.1917 20.0316 36.2369 20.2369 37.1138 19.9869C38.0595 19.7175 38.3327 18.9168 38.1848 18.0174C37.7399 18.6204 37.1287 18.816 36.4444 18.8482C35.4807 18.8936 34.5892 18.535 33.9734 17.7801C33.3699 17.0403 33.1498 16.1152 33.1778 15.1559C33.2266 13.4826 34.1386 12.0719 35.8991 11.8758C36.8053 11.7748 37.8432 12.0491 38.409 12.8348C38.4276 12.567 38.4066 12.4078 38.578 12.2428C38.6914 12.1336 38.8645 12.0255 39.0882 12.0243C39.6584 12.0212 40.2398 11.9523 40.776 12.0607L40.7759 12.0606ZM36.6935 17.3564C37.3959 17.3749 37.9571 16.9731 38.142 16.3043C38.3214 15.6555 38.3299 14.9439 38.1051 14.3089C37.8963 13.7191 37.3838 13.3852 36.7701 13.3864C36.6421 13.3866 36.5095 13.2984 36.3841 13.3874C35.7262 13.3892 35.2276 13.854 35.0638 14.4706C34.8682 15.2071 34.9225 15.9586 35.2968 16.6188C35.5865 17.1299 36.0689 17.3399 36.6936 17.3564H36.6935Z" fill="white"/>
<path d="M56.3274 17.6106C56.2862 17.6064 56.2725 17.6595 56.2725 17.7148V18.7872C56.2725 18.8425 56.2861 18.8953 56.3274 18.8914C56.3176 18.9511 56.2556 19.0045 56.1675 19.0032L54.4286 18.9775C54.0401 18.9718 53.7338 18.6828 53.7294 18.2732L53.6883 14.4391C53.6833 13.9819 53.3952 13.5865 52.9631 13.5088C51.7042 13.2825 50.6901 14.3591 50.6829 15.3869L50.6578 18.9981L48.8982 18.9971L48.9011 11.1052C48.9013 10.6435 48.4221 10.9228 48.0534 10.8079L48.0546 9.29128C48.6592 9.33321 50.0814 9.13917 50.4545 9.5504C50.5571 9.66347 50.656 9.86922 50.6564 10.0351L50.662 12.9586C50.6621 13.012 50.572 13.0429 50.6336 13.0756C50.6698 13.0949 50.6816 13.1516 50.7179 13.1034C50.7361 13.0792 50.747 13.0502 50.7674 13.0185C51.6979 11.5678 54.0942 11.5159 54.9476 12.6408C55.2814 13.0807 55.4454 13.6048 55.4511 14.1695L55.484 17.4139C55.8698 17.6487 56.3274 17.346 56.3274 17.6105V17.6106Z" fill="white"/>
<path d="M56.3275 18.8914C56.2862 18.8953 56.2726 18.8425 56.2726 18.7872V17.7148C56.2726 17.6595 56.2864 17.6064 56.3275 17.6106V18.8914Z" fill="white"/>
<path d="M63.1059 2.39987C63.1228 1.9029 62.9743 1.72667 62.8358 1.30249C62.769 1.09812 62.6985 0.951953 62.4844 0.915156C62.9133 0.61233 63.543 0.178682 64.0231 -6.10352e-05H64.0765C64.1387 0.0854597 64.2724 0.114822 64.3263 0.23607C64.3676 0.329079 64.3256 0.478406 64.2697 0.570024L63.24 2.25899C63.1985 2.32713 63.177 2.39217 63.1059 2.39987Z" fill="#FED659"/>
<path d="M61.5374 5.03029C61.2384 5.58144 60.8752 6.09119 60.5037 6.70091C61.1435 6.93346 61.7408 7.15477 62.3573 7.30972C62.5264 7.35224 62.6869 7.47723 62.8771 7.53884C62.6739 7.6541 62.5971 7.79931 62.4701 7.86242C62.0227 8.08438 61.6655 8.45716 61.2434 8.71656C60.7771 9.00307 60.3637 9.36403 59.9145 9.66777L58.3584 10.7198C58.2522 10.5585 58.1996 10.4422 58.3374 10.2161L60.4624 6.72958L59.2478 6.31133L56.5485 5.39376C56.3362 5.32161 56.3241 5.14784 56.274 5.01141L57.5056 4.8869L58.6705 4.78549L59.9046 4.68564L61.2406 4.57776C61.4132 4.56385 61.5757 4.55925 61.7967 4.55225L61.5374 5.03029Z" fill="#D44B37"/>
<path d="M61.4255 1.5899C61.6637 1.59429 61.8004 2.3529 61.9238 2.63112C62.0954 3.01813 62.1982 3.39006 62.2495 3.78894C62.2123 4.05 61.9916 4.21238 61.8722 4.51964C62.0843 4.46027 62.3225 4.48445 62.5258 4.49108C62.904 4.9312 63.0218 5.77202 63.2765 6.28691C63.4135 6.56374 63.5118 6.84528 63.4403 7.13271C63.3089 7.27321 63.1699 7.38242 62.9486 7.50923C63.1632 7.52731 63.3564 7.71129 63.5512 7.74788C63.5566 7.8464 63.6973 7.88153 63.7349 7.97946L64.4448 9.82626C64.4763 9.90804 64.3896 10.0056 64.4045 10.0716C64.0264 10.212 63.6138 10.1462 63.2364 10.2349C63.3367 9.97736 63.18 9.73684 63.0877 9.48006L62.7205 8.45868C62.6427 8.24239 62.6041 8.03637 62.4698 7.86244C62.5969 7.79938 62.6737 7.65412 62.8769 7.53886C62.6867 7.4772 62.5262 7.3522 62.3571 7.30974C62.3958 7.03857 62.2517 6.78875 62.1514 6.51775L61.6753 5.23221C61.647 5.15578 61.5136 5.11722 61.5372 5.03031L61.7965 4.55227C61.5755 4.55927 61.4129 4.56382 61.2404 4.57778C61.321 4.2135 60.897 3.41771 60.7219 2.87854C60.6397 2.62567 60.5716 2.35467 60.3408 2.23936C60.0559 2.36611 61.4935 1.44731 61.4255 1.5899Z" fill="#FCBC4D"/>
<path d="M64.6255 6.32595C64.691 6.1332 64.6546 5.94402 64.5777 5.73891L64.1405 4.57318L63.8615 4.34929C63.8977 4.33464 64.7711 4.27372 64.933 4.25837L65.5192 4.20286C65.7512 4.18087 66.5831 4.10444 66.7558 4.15675C66.8948 4.19884 67.0064 4.30453 67.0088 4.45878C67.0103 4.54852 66.9206 4.6979 66.8163 4.77187L64.6255 6.32595Z" fill="#FED659"/>
<path d="M64.6255 6.32598L63.8589 6.8828C63.7236 6.98105 63.5655 7.06117 63.4404 7.13278C63.5119 6.84531 63.4137 6.56382 63.2767 6.28699C63.022 5.7721 62.9042 4.93128 62.526 4.49116C62.5677 4.39564 63.7668 4.38772 63.8615 4.34943L64.1405 4.57331L64.5777 5.73905C64.6546 5.9441 64.6911 6.13333 64.6255 6.32608V6.32598Z" fill="#FDC852"/>
<path d="M63.2366 10.235C62.7044 10.3602 62.1623 10.4232 61.6147 10.5023L61.7867 10.2869C61.7579 9.99949 61.585 9.76111 61.523 9.4769C61.4625 9.20001 61.2848 8.97848 61.2435 8.71663C61.6656 8.45728 62.0228 8.0845 62.4701 7.86249C62.6044 8.03642 62.643 8.24244 62.7207 8.45873L63.088 9.48011C63.1803 9.73689 63.3369 9.9774 63.2366 10.235Z" fill="#FBAF46"/>
<path d="M60.3408 2.23938C60.5717 2.35469 60.6398 2.62569 60.722 2.87857C60.8971 3.41774 61.3211 4.21347 61.2405 4.5778L59.9045 4.68568C59.9365 4.5133 59.8511 4.35242 59.7839 4.17539L59.3721 3.09052C59.3394 3.00425 59.2106 2.99195 59.1626 2.94301C59.555 2.70111 59.9202 2.42668 60.3408 2.23949V2.23938Z" fill="#FBB047"/>
<path d="M63.1058 2.39986C62.9336 2.83372 62.6226 3.21961 62.3874 3.64679C62.3474 3.71947 62.3177 3.77723 62.2497 3.78889C62.1983 3.39006 62.0955 3.01814 61.9239 2.63107C61.8005 2.35285 61.6638 1.59418 61.4256 1.58985C61.3471 1.51101 62.5887 0.841394 62.4843 0.915148C62.6984 0.951945 62.7689 1.09812 62.8357 1.30248C62.9742 1.72666 63.1227 1.90289 63.1058 2.39986Z" fill="#FDC852"/>
<path d="M61.6146 10.5023L60.1817 10.7094C60.3251 10.4862 60.0772 9.85497 59.9144 9.66783C60.3636 9.36414 60.777 9.00318 61.2432 8.71661C61.2846 8.97847 61.4623 9.2 61.5227 9.47689C61.5848 9.7611 61.7577 9.99948 61.7865 10.2868L61.6145 10.5023H61.6146Z" fill="#F9A03F"/>
<path d="M64.8323 8.1783C64.8199 8.27725 64.9786 8.32645 65.0014 8.4216C65.2023 9.25937 65.6778 9.77597 65.1951 9.97017C64.9643 10.0103 64.6129 9.99424 64.4046 10.0716C64.3896 10.0056 64.4763 9.90803 64.4449 9.82625L63.735 7.97945C63.6974 7.88157 63.5567 7.84643 63.5513 7.74786C63.9959 7.83141 64.4006 8.05754 64.8323 8.1783Z" fill="#FDC651"/>
<path d="M59.9044 4.68565L58.6703 4.78551C58.6017 4.41727 58.4637 4.0516 58.2952 3.69139C58.2513 3.59736 58.1008 3.6264 58.0379 3.6294C58.3999 3.37701 58.788 3.17382 59.1626 2.94293C59.2106 2.99187 59.3393 3.00417 59.3721 3.09044L59.7839 4.17531C59.8511 4.35234 59.9365 4.51327 59.9044 4.68565Z" fill="#F9A341"/>
<path d="M65.9538 8.55386C66.1386 8.87407 66.3676 9.19733 66.4062 9.58814L66.2629 9.80105C65.9094 9.89027 65.5521 9.90829 65.1952 9.97028C65.6779 9.77613 65.2024 9.25953 65.0015 8.4217C64.9786 8.3265 64.8199 8.2773 64.8324 8.17841L65.5214 8.37111C65.6632 8.41074 65.8285 8.52022 65.9538 8.55392V8.55386Z" fill="#FECE55"/>
<path d="M60.1818 10.7093L58.9764 10.9162C58.694 10.9646 58.5001 10.935 58.3584 10.7198L59.9145 9.66779C60.0773 9.85493 60.3252 10.4862 60.1818 10.7093Z" fill="#F79038"/>
<path d="M58.6704 4.78549L57.5055 4.88689C57.5165 4.61466 57.4108 4.32446 57.1824 4.16834C57.4435 3.94911 57.7617 3.82192 58.0379 3.62938C58.1008 3.62644 58.2513 3.5974 58.2952 3.69137C58.4637 4.05158 58.6018 4.41725 58.6704 4.78549Z" fill="#F8973C"/>
<path d="M66.2629 9.80102L66.4062 9.5881C66.3676 9.19735 66.1386 8.87404 65.9537 8.55383C66.4305 8.68198 66.907 8.83917 67.3862 9.01775C67.5631 9.0837 67.6335 9.25281 67.5986 9.40268C67.5032 9.81375 66.4999 9.74123 66.2629 9.80102Z" fill="#FED659"/>
<path d="M57.1825 4.1684C57.4109 4.32452 57.5166 4.61472 57.5055 4.88695L56.274 5.01146C56.123 4.60001 57.1079 4.23108 57.1825 4.1684Z" fill="#F79038"/>
<path d="M62.3573 7.30977C61.7408 7.15482 61.1436 6.93345 60.5037 6.70096C60.8752 6.09124 61.2385 5.58149 61.5374 5.03033C61.5138 5.11725 61.6472 5.15581 61.6755 5.23224L62.1516 6.51778C62.2519 6.78878 62.396 7.0386 62.3573 7.30977Z" fill="#FBB047"/>
</g>
<defs>
<clipPath id="clip0_5013_2741">
<rect width="67.6075" height="24" fill="white"/>
</clipPath>
</defs>
</svg>
